<svg width="30" height="36" viewBox="0 0 30 36" fill="none" xmlns="http://www.w3.org/2000/svg">
<path d="M2.00954 11.5C1.45012 11.5 0.975475 11.7047 0.585309 12.1141C0.195142 12.5234 0 13.0147 0 13.588V22.3912C0 22.9789 0.195083 23.4764 0.585309 23.8859C0.975475 24.2953 1.45012 24.5 2.00954 24.5C2.56855 24.5 3.04032 24.2953 3.42444 23.8859C3.80779 23.4765 4 22.9789 4 22.3912V13.588C4 13.0146 3.80492 12.5234 3.41469 12.1141C3.02447 11.7047 2.55598 11.5 2.00954 11.5Z" fill="#91C238"/>
<path d="M19.9188 3.72378L21.454 0.96377C21.5547 0.781046 21.5189 0.640928 21.3461 0.542402C21.1586 0.457443 21.0145 0.500493 20.9137 0.668508L19.3571 3.45058C17.9873 2.86037 16.5386 2.56473 15.0109 2.56473C13.4828 2.56473 12.034 2.86043 10.6647 3.45058L9.10798 0.668508C9.00682 0.500493 8.86272 0.457824 8.67562 0.542402C8.50244 0.641372 8.46659 0.781046 8.56775 0.96377L10.103 3.72378C8.54628 4.49747 7.30644 5.57498 6.38394 6.95866C5.46144 8.3431 5 9.85599 5 11.5H25C25 9.85637 24.5385 8.34342 23.6161 6.95866C22.6935 5.57498 21.4608 4.49747 19.9188 3.72378ZM11.043 7.73825C10.8769 7.90043 10.6786 7.98114 10.4481 7.98114C10.2172 7.98114 10.0229 7.90043 9.86446 7.73825C9.70598 7.57683 9.62674 7.38434 9.62674 7.15895C9.62674 6.93431 9.70598 6.74145 9.86446 6.57964C10.0229 6.41822 10.2176 6.33751 10.4481 6.33751C10.6786 6.33751 10.8769 6.41822 11.043 6.57964C11.2086 6.74183 11.2918 6.93431 11.2918 7.15895C11.2913 7.38396 11.2082 7.57683 11.043 7.73825ZM20.1564 7.73825C19.9976 7.90043 19.8029 7.98114 19.5728 7.98114C19.3418 7.98114 19.1436 7.90043 18.9779 7.73825C18.8119 7.57683 18.7291 7.38434 18.7291 7.15895C18.7291 6.93431 18.8119 6.74145 18.9779 6.57964C19.1436 6.41822 19.3418 6.33751 19.5728 6.33751C19.8033 6.33751 19.9976 6.41822 20.1564 6.57964C20.315 6.74183 20.3941 6.93431 20.3941 7.15895C20.3941 7.38396 20.315 7.57683 20.1564 7.73825Z" fill="#91C238"/>
<path d="M5 26.3497C5 26.988 5.23226 27.5284 5.69684 27.9718C6.16182 28.4152 6.72795 28.6369 7.39628 28.6369H9.00865L9.03074 33.3579C9.03074 33.9541 9.24858 34.4603 9.68426 34.8762C10.1199 35.2921 10.6431 35.5 11.2529 35.5C11.8772 35.5 12.4075 35.2921 12.8433 34.8762C13.279 34.4603 13.4968 33.9541 13.4968 33.3579V28.6373H16.5034V33.3579C16.5034 33.9541 16.7212 34.4603 17.1569 34.8762C17.5927 35.2921 18.1226 35.5 18.7473 35.5C19.3716 35.5 19.9019 35.2921 20.3376 34.8762C20.7734 34.4603 20.9911 33.9541 20.9911 33.3579V28.6373H22.6253C23.2788 28.6373 23.8377 28.4156 24.3031 27.9722C24.7676 27.5288 25 26.9884 25 26.3502V12.5H5V26.3497Z" fill="#91C238"/>
<path d="M27.9903 11.5C27.4438 11.5 26.9756 11.7017 26.5853 12.1039C26.1951 12.5069 26 13.0019 26 13.588V22.3912C26 22.9789 26.195 23.4764 26.5853 23.8859C26.9756 24.2953 27.4441 24.5 27.9903 24.5C28.5494 24.5 29.0244 24.2953 29.4147 23.8859C29.805 23.4764 30 22.9789 30 22.3912V13.588C30 13.0018 29.805 12.5069 29.4147 12.1039C29.0244 11.7017 28.5494 11.5 27.9903 11.5Z" fill="#91C238"/>
</svg>
