<svg width="240" height="83" viewBox="0 0 240 83" fill="none" xmlns="http://www.w3.org/2000/svg">
<path fill-rule="evenodd" clip-rule="evenodd" d="M42.6086 46.8765C42.5297 47.1816 42.2945 47.4312 42.0864 47.4312C41.7891 47.4312 41.7075 48.0285 41.7075 50.2063C41.7075 52.7963 41.6712 52.9814 41.1596 52.9814C40.6532 52.9814 40.6121 53.1666 40.6121 55.4445C40.6121 58.401 40.3995 59.6418 39.8931 59.6418C39.602 59.6418 39.5167 60.1999 39.5167 62.1045C39.5167 65.0613 39.3041 66.3021 38.7977 66.3021C38.5035 66.3021 38.4212 66.9076 38.4212 69.0772C38.4212 71.6671 38.3849 71.8523 37.8737 71.8523C37.367 71.8523 37.3258 72.0371 37.3258 74.315C37.3258 75.6696 37.249 77.1679 37.1547 77.6452L36.9836 78.5123H39.8931H42.803V77.4024C42.803 76.4774 42.8942 76.2923 43.3505 76.2923C43.862 76.2923 43.8984 76.1071 43.8984 73.5172C43.8984 70.9272 43.9347 70.7421 44.4459 70.7421C44.9575 70.7421 44.9938 70.557 44.9938 67.967V65.1919H51.4131C54.9439 65.1919 57.901 65.304 57.9847 65.4408C58.2507 65.8773 57.8112 67.4119 57.42 67.4119C57.1289 67.4119 57.0432 67.9701 57.0432 69.875C57.0432 72.8315 56.831 74.0723 56.3246 74.0723C56.0362 74.0723 55.9478 74.5938 55.9478 76.2923V78.5123H58.6865C61.2422 78.5123 61.4249 78.4756 61.4249 77.9572C61.4249 77.5872 61.6076 77.4024 61.9728 77.4024C62.484 77.4024 62.5203 77.2173 62.5203 74.6274C62.5203 72.4578 62.6026 71.8523 62.8968 71.8523C63.4032 71.8523 63.6158 70.6115 63.6158 67.6547C63.6158 65.7501 63.7011 65.1919 63.9922 65.1919C64.4924 65.1919 64.7112 63.9566 64.7112 61.1332C64.7112 59.3514 64.7986 58.8093 65.0863 58.8093C65.5632 58.8093 65.7998 57.3796 65.8035 54.4708C65.8063 52.4486 65.8635 52.1987 66.3542 52.0684C66.8564 51.9357 66.902 51.6899 66.902 49.1226V46.3214H64.0265H61.151V47.4312C61.151 48.2332 61.0368 48.5414 60.7402 48.5414C60.4148 48.5414 60.3295 48.9384 60.3295 50.4494C60.3295 52.8738 60.0891 54.0916 59.6108 54.0916C59.3163 54.0916 59.234 54.6971 59.234 56.8667V59.6418H52.6615H46.0892V58.703C46.0892 57.9971 46.2254 57.7279 46.6368 57.6186C47.1442 57.4845 47.1847 57.24 47.1847 54.2887C47.1847 51.3371 47.2248 51.093 47.7322 50.9586C48.2232 50.8286 48.2801 50.58 48.2801 48.5675V46.3214H45.5156C42.9819 46.3214 42.7395 46.3677 42.6086 46.8765ZM81.0055 47.4312C80.9019 48.0528 80.6657 48.5414 80.4689 48.5414C80.27 48.5414 80.0407 49.0248 79.9419 49.6516C79.8343 50.3335 79.6186 50.7614 79.3831 50.7614C79.1492 50.7614 78.9274 51.1941 78.8146 51.8716C78.7076 52.5134 78.4766 52.9814 78.2671 52.9814C78.0572 52.9814 77.8262 53.4498 77.7192 54.0916C77.6057 54.7739 77.3852 55.2018 77.1473 55.2018C76.9347 55.2018 76.7609 55.4514 76.7609 55.7565C76.7609 56.1264 76.5782 56.3116 76.213 56.3116C75.7567 56.3116 75.6655 56.4967 75.6655 57.4218C75.6655 58.3464 75.5743 58.5316 75.1176 58.5316C74.6612 58.5316 74.57 58.7167 74.57 59.6418C74.57 60.5668 74.4788 60.7519 74.0222 60.7519C73.5658 60.7519 73.4746 60.9367 73.4746 61.8617C73.4746 62.7614 73.3772 62.9719 72.9617 62.9719C72.5753 62.9719 72.4059 63.2452 72.2739 64.0818C72.1663 64.764 71.951 65.1919 71.7154 65.1919C71.4812 65.1919 71.2598 65.6246 71.1466 66.3021C71.0396 66.9439 70.8089 67.4119 70.5991 67.4119C70.3892 67.4119 70.1585 67.8803 70.0512 68.5221C69.9377 69.2044 69.7172 69.6319 69.4796 69.6319C69.2667 69.6319 69.0929 69.8819 69.0929 70.187C69.0929 70.557 68.9102 70.7421 68.545 70.7421C68.0887 70.7421 67.9975 70.9272 67.9975 71.8523C67.9975 72.777 67.9063 72.9621 67.4496 72.9621C66.9932 72.9621 66.902 73.1472 66.902 74.0723C66.902 74.997 66.8108 75.1821 66.3542 75.1821C65.8978 75.1821 65.8066 75.3672 65.8066 76.2923C65.8066 77.2173 65.7154 77.4024 65.2591 77.4024C64.8939 77.4024 64.7112 77.5872 64.7112 77.9572C64.7112 78.4848 64.8939 78.5123 68.3842 78.5123H72.0569L72.242 77.4024C72.3494 76.7603 72.5801 76.2923 72.7899 76.2923C72.9998 76.2923 73.2305 75.8239 73.3375 75.1821C73.4448 74.5403 73.6755 74.0723 73.8854 74.0723C74.0952 74.0723 74.3259 73.6039 74.4329 72.9621L74.618 71.8523H80.4476H86.2772L86.4483 72.7194C86.5426 73.1963 86.6194 74.4453 86.6194 75.4944C86.6194 77.0051 86.7048 77.4024 87.0302 77.4024C87.2585 77.4024 87.4409 77.6489 87.4409 77.9572C87.4409 78.4769 87.6236 78.5123 90.3164 78.5123H93.192V77.1594C93.192 75.262 92.915 74.0723 92.473 74.0723C92.1967 74.0723 92.0966 73.641 92.0966 72.4478C92.0966 69.61 91.7808 67.4119 91.3731 67.4119C91.0999 67.4119 91.0004 66.9518 90.998 65.6774C90.9939 63.2651 90.7299 61.8617 90.2808 61.8617C89.9996 61.8617 89.9057 61.3838 89.9057 59.9541C89.9057 57.5298 89.6654 56.3116 89.1867 56.3116C88.9039 56.3116 88.8103 55.8378 88.8103 54.4039C88.8103 51.9796 88.5699 50.7614 88.0913 50.7614C87.8033 50.7614 87.7148 50.2399 87.7148 48.5414V46.3214H84.4529H81.1906L81.0055 47.4312ZM98.6691 47.9863C98.6691 49.2038 98.7689 49.6516 99.0408 49.6516C99.4251 49.6516 99.7646 51.8178 99.7646 54.2712C99.7646 55.1051 99.8798 55.4791 100.137 55.4791C100.561 55.4791 100.853 57.371 100.857 60.1272C100.859 61.402 100.958 61.8617 101.232 61.8617C101.616 61.8617 101.955 64.0279 101.955 66.4814C101.955 67.3152 102.071 67.6896 102.328 67.6896C102.752 67.6896 103.044 69.5812 103.048 72.3377C103.05 73.6934 103.141 74.0723 103.462 74.0723C103.771 74.0723 103.872 74.4076 103.872 75.4252C103.872 76.1692 103.949 77.1679 104.043 77.6452L104.215 78.5123H107.467C110.536 78.5123 110.719 78.4814 110.719 77.9572C110.719 77.652 110.892 77.4024 111.105 77.4024C111.343 77.4024 111.563 76.9746 111.677 76.2923C111.784 75.6504 112.015 75.1821 112.225 75.1821C112.435 75.1821 112.666 74.7141 112.773 74.0723C112.88 73.4304 113.11 72.9621 113.32 72.9621C113.53 72.9621 113.761 72.4941 113.868 71.8523C113.975 71.2101 114.206 70.7421 114.416 70.7421C114.625 70.7421 114.856 70.2738 114.963 69.6319C115.07 68.9901 115.301 68.5221 115.511 68.5221C115.721 68.5221 115.952 68.0538 116.059 67.4119C116.166 66.7701 116.397 66.3021 116.606 66.3021C116.816 66.3021 117.047 65.8337 117.154 65.1919C117.261 64.5501 117.492 64.0818 117.702 64.0818C117.912 64.0818 118.142 63.6138 118.25 62.9719C118.357 62.3301 118.587 61.8617 118.797 61.8617C119.007 61.8617 119.238 61.3938 119.345 60.7519C119.452 60.1098 119.683 59.6418 119.893 59.6418C120.103 59.6418 120.333 59.1734 120.441 58.5316C120.548 57.8898 120.778 57.4218 120.988 57.4218C121.198 57.4218 121.429 56.9534 121.536 56.3116C121.643 55.6698 121.874 55.2018 122.084 55.2018C122.293 55.2018 122.524 54.7334 122.631 54.0916C122.738 53.4498 122.969 52.9814 123.179 52.9814C123.389 52.9814 123.62 52.5134 123.727 51.8716C123.834 51.2298 124.065 50.7614 124.274 50.7614C124.484 50.7614 124.715 50.2934 124.822 49.6516C124.926 49.0283 125.162 48.5414 125.36 48.5414C125.657 48.5414 126.055 47.411 126.055 46.5642C126.055 46.4308 124.514 46.3214 122.631 46.3214C119.391 46.3214 119.208 46.3509 119.208 46.8765C119.208 47.1816 119.034 47.4312 118.821 47.4312C118.584 47.4312 118.363 47.8591 118.25 48.5414C118.14 49.2018 117.913 49.6516 117.692 49.6516C117.439 49.6516 117.258 50.1885 117.132 51.3165C117.013 52.3886 116.821 52.9814 116.595 52.9814C116.399 52.9814 116.162 53.4707 116.059 54.0916C115.952 54.7334 115.721 55.2018 115.511 55.2018C115.301 55.2018 115.07 55.6698 114.963 56.3116C114.856 56.9534 114.625 57.4218 114.416 57.4218C114.206 57.4218 113.975 57.8898 113.868 58.5316C113.761 59.1734 113.53 59.6418 113.32 59.6418C113.11 59.6418 112.88 60.1098 112.773 60.7519C112.659 61.4342 112.438 61.8617 112.201 61.8617C111.957 61.8617 111.814 62.1576 111.814 62.6596C111.814 64.0091 111.49 65.1919 111.119 65.1919C110.921 65.1919 110.686 65.6788 110.582 66.3021C110.475 66.9439 110.244 67.4119 110.034 67.4119C109.824 67.4119 109.593 67.8803 109.486 68.5221C109.148 70.5522 108.254 69.5208 108.254 67.0999C108.254 66.6048 108.11 66.3021 107.875 66.3021C107.575 66.3021 107.453 65.3644 107.295 61.8617C107.15 58.6296 107.004 57.4218 106.757 57.4218C106.422 57.4218 106.063 54.1026 106.063 50.9963C106.063 49.9859 105.961 49.6516 105.652 49.6516C105.333 49.6516 105.242 49.2816 105.242 47.9863V46.3214H101.955H98.6691V47.9863ZM135.781 47.4042C135.657 48.1461 135.434 48.5311 135.072 48.6268C134.678 48.7314 134.544 49.0125 134.544 49.7318C134.544 50.4635 134.411 50.7319 133.996 50.842C133.576 50.9531 133.449 51.2205 133.449 51.984C133.449 52.7963 133.347 52.9814 132.901 52.9814C132.444 52.9814 132.353 53.1666 132.353 54.0916C132.353 55.0166 132.262 55.2018 131.805 55.2018C131.44 55.2018 131.258 55.3866 131.258 55.7565C131.258 56.062 131.084 56.3116 130.871 56.3116C130.633 56.3116 130.413 56.7391 130.299 57.4218C130.192 58.0636 129.961 58.5316 129.752 58.5316C129.542 58.5316 129.311 58.9999 129.204 59.6418C129.097 60.2836 128.866 60.7519 128.656 60.7519C128.448 60.7519 128.217 61.2131 128.113 61.8347C127.989 62.5763 127.766 62.9616 127.404 63.0573C127.006 63.1629 126.876 63.443 126.876 64.1946C126.876 64.8686 126.751 65.1919 126.489 65.1919C126.252 65.1919 126.031 65.6195 125.917 66.3021C125.81 66.9439 125.58 67.4119 125.37 67.4119C125.16 67.4119 124.929 67.8803 124.822 68.5221C124.708 69.2044 124.488 69.6319 124.25 69.6319C124.037 69.6319 123.864 69.8819 123.864 70.187C123.864 70.5487 123.681 70.7421 123.34 70.7421C122.942 70.7421 122.772 71.0095 122.631 71.8523C122.524 72.4941 122.293 72.9621 122.084 72.9621C121.874 72.9621 121.643 73.4304 121.536 74.0723C121.429 74.7141 121.198 75.1821 120.988 75.1821C120.778 75.1821 120.548 75.6504 120.441 76.2923C120.327 76.9746 120.106 77.4024 119.869 77.4024C119.656 77.4024 119.482 77.652 119.482 77.9572C119.482 78.4848 119.665 78.5123 123.179 78.5123H126.876V77.4024C126.876 76.4774 126.967 76.2923 127.424 76.2923C127.88 76.2923 127.971 76.1071 127.971 75.1821C127.971 74.2574 128.063 74.0723 128.519 74.0723C128.976 74.0723 129.067 73.8871 129.067 72.9621V71.8523H135.092H141.116V73.7599C141.116 74.8094 141.193 76.0581 141.288 76.535C141.382 77.0123 141.628 77.4024 141.835 77.4024C142.042 77.4024 142.212 77.652 142.212 77.9572C142.212 78.4776 142.394 78.5123 145.121 78.5123H148.031L147.86 77.6452C147.766 77.1679 147.689 76.1692 147.689 75.4252C147.689 74.4707 147.579 74.0723 147.317 74.0723C146.909 74.0723 146.593 71.8742 146.593 69.0364C146.593 67.8532 146.492 67.4119 146.222 67.4119C145.846 67.4119 145.498 65.2571 145.498 62.9311C145.498 62.2156 145.375 61.8617 145.126 61.8617C144.75 61.8617 144.403 59.7069 144.403 57.381C144.403 56.6654 144.28 56.3116 144.031 56.3116C143.655 56.3116 143.307 54.1567 143.307 51.8308C143.307 51.1008 143.186 50.7614 142.925 50.7614C142.646 50.7614 142.49 50.1624 142.349 48.5414L142.155 46.3214H139.058H135.961L135.781 47.4042ZM157.548 46.8765C157.548 47.2461 157.365 47.4312 157 47.4312C156.489 47.4312 156.452 47.6164 156.452 50.2063C156.452 52.3759 156.37 52.9814 156.076 52.9814C155.569 52.9814 155.357 54.2222 155.357 57.179C155.357 59.0836 155.271 59.6418 154.98 59.6418C154.474 59.6418 154.261 60.8826 154.261 63.839C154.261 66.117 154.22 66.3021 153.713 66.3021C153.202 66.3021 153.166 66.4869 153.166 69.0772C153.166 71.2464 153.084 71.8523 152.789 71.8523C152.283 71.8523 152.071 73.0927 152.071 76.0495V78.5123H161.929H171.788V76.6046C171.788 75.5551 171.865 74.3064 171.959 73.8295L172.13 72.9621H165.352H158.575L158.746 72.095C158.84 71.6178 158.917 70.8686 158.917 70.4298C158.917 69.9055 159.058 69.6319 159.328 69.6319C159.653 69.6319 159.739 69.2349 159.739 67.7243C159.739 65.2999 159.979 64.0818 160.457 64.0818C160.748 64.0818 160.834 63.5239 160.834 61.619C160.834 58.6626 161.046 57.4218 161.553 57.4218C161.832 57.4218 161.93 56.9726 161.932 55.6872C161.936 52.9307 162.229 51.0391 162.652 51.0391C162.937 51.0391 163.025 50.4844 163.025 48.6803V46.3214H160.286C157.73 46.3214 157.548 46.3581 157.548 46.8765ZM181.647 46.8765C181.647 47.2461 181.464 47.4312 181.099 47.4312C180.588 47.4312 180.551 47.6164 180.551 50.2063C180.551 52.7963 180.515 52.9814 180.003 52.9814C179.486 52.9814 179.456 53.1666 179.456 56.3116C179.456 59.4566 179.425 59.6418 178.908 59.6418C178.391 59.6418 178.36 59.8269 178.36 62.9719C178.36 66.117 178.33 66.3021 177.813 66.3021C177.301 66.3021 177.265 66.4869 177.265 69.0772C177.265 71.2464 177.183 71.8523 176.889 71.8523C176.382 71.8523 176.17 73.0927 176.17 76.0495V78.5123H186.028C195.705 78.5123 195.887 78.502 195.887 77.9572C195.887 77.5872 196.07 77.4024 196.435 77.4024C196.937 77.4024 196.982 77.2173 196.982 75.1821V72.9621H189.862H182.742V72.1643C182.742 70.7997 183.068 69.6319 183.449 69.6319C183.716 69.6319 183.836 69.0477 183.895 67.4815L183.974 65.3308L190.478 65.2564L196.982 65.182V62.4117V59.6418H190.958C186.318 59.6418 184.934 59.5622 184.937 59.2948C184.945 58.4949 185.296 57.6991 185.64 57.6991C185.921 57.6991 186.028 57.0168 186.087 54.8548L186.165 52.0101L193.765 51.9364L201.364 51.8627V49.092V46.3214H191.505C181.829 46.3214 181.647 46.3317 181.647 46.8765ZM84.253 58.0176C84.3494 58.9554 84.4286 60.5164 84.4286 61.4863C84.4286 62.8684 84.5174 63.2493 84.8393 63.2493C85.1551 63.2493 85.2504 63.6042 85.2504 64.7757V66.3021H81.5534H77.8563V65.1919C77.8563 64.2669 77.9475 64.0818 78.4039 64.0818C78.769 64.0818 78.9518 63.8966 78.9518 63.527C78.9518 63.2215 79.1256 62.9719 79.3382 62.9719C79.5761 62.9719 79.7966 62.544 79.91 61.8617C80.017 61.2199 80.2481 60.7519 80.4579 60.7519C80.6674 60.7519 80.8985 60.2836 81.0055 59.6418C81.1124 58.9999 81.3435 58.5316 81.5534 58.5316C81.7628 58.5316 81.9939 58.0636 82.1009 57.4218C82.2727 56.3911 82.3502 56.3116 83.1812 56.3116C84.0764 56.3116 84.0768 56.3123 84.253 58.0176ZM138.928 58.7397C138.932 61.812 139.161 63.2493 139.646 63.2493C139.918 63.2493 140.021 63.6686 140.021 64.7757V66.3021H136.187C134.078 66.3021 132.353 66.1927 132.353 66.059C132.353 65.1875 132.755 64.0818 133.072 64.0818C133.279 64.0818 133.449 63.8322 133.449 63.527C133.449 63.1571 133.631 62.9719 133.996 62.9719C134.453 62.9719 134.544 62.7868 134.544 61.8617C134.544 60.9367 134.635 60.7519 135.092 60.7519C135.548 60.7519 135.639 60.5668 135.639 59.6418C135.639 58.7167 135.731 58.5316 136.187 58.5316C136.644 58.5316 136.735 58.3464 136.735 57.4218V56.3116H137.83H138.925L138.928 58.7397Z" fill="#5C6374"/>
<path fill-rule="evenodd" clip-rule="evenodd" d="M58.7551 4.33129C58.26 4.43174 58.139 4.64291 58.139 5.4083C58.139 6.17504 58.0327 6.36014 57.5914 6.36014C57.1348 6.36014 57.0435 6.54525 57.0435 7.47018C57.0435 8.3951 56.9524 8.58021 56.496 8.58021C56.0393 8.58021 55.9481 8.76532 55.9481 9.69025C55.9481 10.6152 55.8569 10.8003 55.4006 10.8003C54.9439 10.8003 54.8527 10.9854 54.8527 11.9103C54.8527 12.81 54.7557 13.0204 54.3401 13.0204C53.9537 13.0204 53.7844 13.2937 53.6524 14.1304C53.5474 14.7945 53.3273 15.2404 53.1045 15.2404C52.8816 15.2404 52.6618 15.6864 52.5569 16.3505C52.4434 17.0686 52.2377 17.4605 51.9741 17.4605C51.743 17.4605 51.5668 17.7122 51.5668 18.0416C51.5668 18.389 51.3466 18.6807 51.0189 18.7676C50.6074 18.8766 50.4713 19.1461 50.4713 19.8518C50.4713 20.6055 50.3633 20.7906 49.9234 20.7906C49.4671 20.7906 49.3759 20.9757 49.3759 21.9006C49.3759 22.8256 49.2847 23.0107 48.828 23.0107C48.3717 23.0107 48.2805 23.1958 48.2805 24.1207C48.2805 25.0456 48.1893 25.2307 47.7326 25.2307C47.2762 25.2307 47.185 25.4158 47.185 26.3408C47.185 27.2405 47.0877 27.4508 46.6721 27.4508C46.2857 27.4508 46.1164 27.7241 45.9844 28.5608C45.8794 29.2249 45.6597 29.6709 45.4368 29.6709C45.2136 29.6709 44.9938 30.1168 44.8889 30.7809C44.7754 31.4991 44.5701 31.8909 44.3061 31.8909C44.0815 31.8909 43.8988 32.1396 43.8988 32.446C43.8988 32.8159 43.716 33.001 43.3509 33.001C42.8945 33.001 42.8033 33.1861 42.8033 34.111C42.8033 35.0359 42.7121 35.221 42.2554 35.221C41.8906 35.221 41.7079 35.4062 41.7079 35.7761C41.7079 36.3004 41.8906 36.3312 44.9942 36.3312C47.6095 36.3312 48.2805 36.2527 48.2805 35.9472C48.2805 35.736 48.527 35.4981 48.828 35.4182C49.2432 35.3081 49.3759 35.0397 49.3759 34.308C49.3759 33.5765 49.5082 33.3082 49.9234 33.198C50.3386 33.0881 50.4713 32.8195 50.4713 32.088C50.4713 31.3565 50.6037 31.0881 51.0189 30.9779C51.3487 30.8905 51.5668 30.5994 51.5668 30.2464C51.5668 29.6653 51.6199 29.6606 57.5229 29.7347L63.4793 29.8096L63.5575 32.5153C63.6199 34.6694 63.7176 35.221 64.0368 35.221C64.2573 35.221 64.4376 35.4706 64.4376 35.7761C64.4376 36.2959 64.6204 36.3312 67.3132 36.3312H70.1887V34.9783C70.1887 33.0809 69.9117 31.8909 69.4697 31.8909C69.193 31.8909 69.0933 31.4597 69.0933 30.2667C69.0933 27.4286 68.7775 25.2307 68.3698 25.2307C68.0952 25.2307 67.9978 24.7667 67.9978 23.4616C67.9978 21.1697 67.7493 19.9581 67.2789 19.9581C66.9936 19.9581 66.9024 19.463 66.9024 17.9114C66.9024 15.3545 66.6696 14.1304 66.1834 14.1304C65.9006 14.1304 65.807 13.6564 65.807 12.2225C65.807 9.81539 65.567 8.58021 65.0997 8.58021C64.8336 8.58021 64.7129 7.99578 64.6546 6.4295L64.5748 4.27883L61.9732 4.24249C60.5421 4.22277 59.0942 4.26244 58.7551 4.33129ZM79.8556 4.68481C79.7753 4.99564 79.5391 5.25011 79.3306 5.25011C79.0334 5.25011 78.9521 5.85121 78.9521 8.05129C78.9521 10.6188 78.9062 10.8644 78.4042 10.9973C77.9071 11.1291 77.8564 11.3775 77.8526 13.6772C77.8485 16.5674 77.6801 17.4605 77.1398 17.4605C76.8456 17.4605 76.7613 18.0114 76.7613 19.9234C76.7613 22.88 76.5487 24.1207 76.0423 24.1207C75.7512 24.1207 75.6658 24.6788 75.6658 26.5836C75.6658 29.5402 75.4533 30.7809 74.9469 30.7809C74.6602 30.7809 74.5694 31.2937 74.5666 32.9316C74.5646 34.1143 74.4885 35.363 74.3976 35.7065C74.2341 36.3254 74.2588 36.3312 77.1398 36.3312H80.0476V35.221C80.0476 34.4712 80.1679 34.111 80.4192 34.111C80.8272 34.111 81.1426 31.9131 81.1426 29.075C81.1426 27.892 81.2438 27.4508 81.5146 27.4508C81.8901 27.4508 82.2381 25.2959 82.2381 22.9699C82.2381 22.2545 82.3612 21.9006 82.6101 21.9006C83.0105 21.9006 83.3335 19.713 83.3335 17.0034C83.3335 15.9236 83.437 15.5179 83.7124 15.5179C83.9208 15.5179 84.1557 15.7677 84.2345 16.0729C84.313 16.3782 84.5596 16.628 84.7824 16.628C85.2336 16.628 85.5151 17.4355 85.5206 18.7462C85.5233 19.3806 85.6725 19.655 86.0722 19.761C86.4916 19.872 86.6198 20.1395 86.6198 20.9033C86.6198 21.5859 86.7442 21.9006 87.0141 21.9006C87.2709 21.9006 87.4721 22.3349 87.5925 23.1494C87.7001 23.8757 87.923 24.3982 88.1253 24.3982C88.5285 24.3982 88.8017 25.2607 88.8069 26.5489C88.8093 27.1389 88.9444 27.4508 89.1974 27.4508C89.435 27.4508 89.6554 27.8784 89.7693 28.5608C89.8728 29.1838 90.109 29.6709 90.3069 29.6709C90.6772 29.6709 91.0015 30.8536 91.0015 32.2031C91.0015 32.8159 91.1287 33.001 91.5494 33.001C92.0057 33.001 92.0969 33.1861 92.0969 34.111C92.0969 34.9128 92.2111 35.221 92.5077 35.221C92.7357 35.221 92.9184 35.4679 92.9184 35.7761C92.9184 36.2959 93.1012 36.3312 95.794 36.3312C98.4868 36.3312 98.6695 36.2959 98.6695 35.7761C98.6695 35.4706 98.8368 35.221 99.0411 35.221C99.4492 35.221 99.7649 33.0231 99.7649 30.1851C99.7649 29.0021 99.8657 28.5608 100.137 28.5608C100.512 28.5608 100.86 26.406 100.86 24.0799C100.86 23.3645 100.983 23.0107 101.232 23.0107C101.64 23.0107 101.956 20.8128 101.956 17.9747C101.956 16.7917 102.057 16.3505 102.327 16.3505C102.735 16.3505 103.051 14.1526 103.051 11.3145C103.051 10.1359 103.152 9.69025 103.421 9.69025C103.692 9.69025 103.838 9.00645 103.969 7.13798C104.068 5.73436 104.044 4.48057 103.917 4.35182C103.79 4.22332 102.527 4.15424 101.11 4.19836L98.5324 4.27883L98.4477 5.31947C98.3921 6.00021 98.2262 6.36014 97.9684 6.36014C97.6642 6.36014 97.573 6.78971 97.571 8.23331C97.5669 10.777 97.3107 12.1878 96.8534 12.1878C96.5661 12.1878 96.4786 12.7298 96.4786 14.5119C96.4786 17.335 96.2599 18.5705 95.7597 18.5705C95.4775 18.5705 95.3825 19.0406 95.3808 20.4437C95.377 23.3298 95.0911 25.2307 94.6605 25.2307C94.4554 25.2307 94.2878 24.981 94.2878 24.6757C94.2878 24.3058 94.105 24.1207 93.7399 24.1207C93.2938 24.1207 93.1924 23.9356 93.1924 23.1233C93.1924 22.3596 93.0641 22.0921 92.6448 21.9811C92.2639 21.8801 92.0969 21.6026 92.0969 21.0703C92.0969 19.7508 91.7688 18.5705 91.4023 18.5705C91.2045 18.5705 90.9682 18.0835 90.8647 17.4605C90.7509 16.7781 90.5304 16.3505 90.2928 16.3505C90.0682 16.3505 89.9061 16.074 89.9061 15.6914C89.9061 14.4776 89.567 13.2979 89.2183 13.2979C89.0188 13.2979 88.7949 12.77 88.6879 12.0491C88.5676 11.2346 88.3663 10.8003 88.1095 10.8003C87.8397 10.8003 87.7152 10.4856 87.7152 9.80291C87.7152 9.0392 87.587 8.7717 87.1677 8.66068C86.8238 8.56965 86.6198 8.28217 86.6198 7.88867C86.6198 6.69011 86.2752 5.52762 85.92 5.52762C85.7236 5.52762 85.523 5.24651 85.4753 4.90321C85.392 4.31048 85.2511 4.27468 82.6944 4.19918C80.1813 4.12482 79.9917 4.15729 79.8556 4.68481ZM110.628 4.32518C110.527 4.42674 110.445 5.17602 110.445 5.99024C110.445 7.06835 110.342 7.47018 110.065 7.47018C109.772 7.47018 109.639 8.23886 109.487 10.8003C109.335 13.3617 109.201 14.1304 108.909 14.1304C108.652 14.1304 108.528 14.4686 108.526 15.171C108.521 17.6398 108.172 19.9581 107.804 19.9581C107.538 19.9581 107.433 20.3785 107.433 21.4436C107.433 24.0191 107.106 26.3408 106.744 26.3408C106.508 26.3408 106.349 27.3298 106.212 29.6709C106.059 32.2603 105.929 33.001 105.628 33.001C105.338 33.001 105.242 33.417 105.242 34.6659V36.3312H108.358H111.475L111.672 33.1397C111.823 30.6827 111.957 29.9484 112.252 29.9484C112.513 29.9484 112.636 29.6143 112.638 28.9077C112.643 26.439 112.992 24.1207 113.36 24.1207C113.625 24.1207 113.732 23.7039 113.733 22.6638C113.737 19.9417 114.067 17.4605 114.425 17.4605C114.668 17.4605 114.824 16.495 114.964 14.1304C115.116 11.569 115.249 10.8003 115.542 10.8003C115.801 10.8003 115.922 10.4587 115.922 9.73105C115.922 7.40497 116.27 5.25011 116.646 5.25011C117.391 5.25011 116.994 4.48225 116.162 4.31353C115.021 4.08234 110.859 4.09122 110.628 4.32518ZM123.672 4.68481C123.592 4.99564 123.356 5.25011 123.147 5.25011C122.893 5.25011 122.768 5.5906 122.767 6.29075C122.762 8.75949 122.412 11.0778 122.044 11.0778C121.778 11.0778 121.673 11.4982 121.673 12.5633C121.673 15.2729 121.35 17.4605 120.95 17.4605C120.679 17.4605 120.578 17.9017 120.578 19.0847C120.578 21.8068 120.259 24.1207 119.884 24.1207C119.641 24.1207 119.486 25.0828 119.346 27.4508C119.193 30.0122 119.06 30.7809 118.767 30.7809C118.509 30.7809 118.387 31.1225 118.387 31.8501C118.387 32.4384 118.308 33.6872 118.211 34.6251L118.035 36.3312H120.95H123.864V35.221C123.864 34.4585 123.983 34.111 124.244 34.111C124.537 34.111 124.67 33.3423 124.822 30.7809C124.975 28.2195 125.108 27.4508 125.401 27.4508C125.659 27.4508 125.781 27.1092 125.781 26.3816C125.781 24.0555 126.129 21.9006 126.504 21.9006C126.788 21.9006 126.876 21.3489 126.876 19.5765C126.876 18.2983 126.953 16.8622 127.047 16.3851C127.24 15.4111 127.833 15.2268 128.051 16.0729C128.13 16.3782 128.391 16.628 128.631 16.628C128.907 16.628 129.067 16.8691 129.067 17.287C129.067 18.4962 129.406 19.6806 129.751 19.6806C129.939 19.6806 130.171 20.1801 130.268 20.7906C130.374 21.4613 130.592 21.9006 130.819 21.9006C131.056 21.9006 131.265 22.3657 131.381 23.1494C131.501 23.9639 131.702 24.3982 131.959 24.3982C132.192 24.3982 132.354 24.6691 132.354 25.0573C132.354 26.2664 132.692 27.4508 133.037 27.4508C133.225 27.4508 133.458 27.9503 133.554 28.5608C133.667 29.279 133.873 29.6709 134.137 29.6709C134.403 29.6709 134.544 29.9472 134.544 30.4687C134.544 31.8182 134.869 33.001 135.239 33.001C135.437 33.001 135.673 33.488 135.777 34.111C135.89 34.7935 136.111 35.221 136.348 35.221C136.561 35.221 136.735 35.4706 136.735 35.7761C136.735 36.2959 136.918 36.3312 139.61 36.3312C142.303 36.3312 142.486 36.2959 142.486 35.7761C142.486 35.4679 142.669 35.221 142.897 35.221C143.215 35.221 143.307 34.8555 143.307 33.5968C143.307 30.7587 143.623 28.5608 144.031 28.5608C144.308 28.5608 144.403 28.0749 144.403 26.653C144.403 24.2286 144.644 23.0107 145.122 23.0107C145.411 23.0107 145.499 22.4773 145.501 20.7212C145.505 17.7816 145.74 16.3505 146.219 16.3505C146.494 16.3505 146.594 15.9159 146.594 14.7262C146.594 11.9922 146.912 9.69025 147.29 9.69025C147.661 9.69025 148.023 4.7542 147.682 4.33712C147.584 4.21667 146.343 4.15424 144.926 4.19836L142.349 4.27883L142.264 5.31947C142.213 5.94306 142.036 6.36014 141.824 6.36014C141.457 6.36014 141.117 8.58604 141.117 10.9798C141.117 11.8124 141.001 12.1878 140.745 12.1878C140.344 12.1878 140.021 14.3754 140.021 17.085C140.021 18.1501 139.916 18.5705 139.65 18.5705C139.259 18.5705 138.932 20.9274 138.928 23.7738C138.926 24.8284 138.821 25.2307 138.547 25.2307C138.339 25.2307 138.104 24.981 138.025 24.6757C137.946 24.3704 137.687 24.1207 137.448 24.1207C137.155 24.1207 136.959 23.763 136.84 23.0107C136.744 22.4001 136.511 21.9006 136.323 21.9006C135.963 21.9006 135.64 20.704 135.64 19.3683C135.64 18.8469 135.498 18.5705 135.232 18.5705C134.968 18.5705 134.763 18.1787 134.649 17.4605C134.553 16.8491 134.32 16.3505 134.131 16.3505C133.735 16.3505 133.458 15.4866 133.453 14.2322C133.45 13.5978 133.301 13.3234 132.901 13.2174C132.466 13.1022 132.354 12.8388 132.354 11.9364C132.354 11.1155 132.24 10.8003 131.946 10.8003C131.682 10.8003 131.476 10.4084 131.363 9.69025C131.267 9.07972 131.034 8.58021 130.846 8.58021C130.501 8.58021 130.163 7.39581 130.163 6.18669C130.163 5.80012 130.001 5.52762 129.771 5.52762C129.555 5.52762 129.34 5.24651 129.292 4.90321C129.208 4.31048 129.068 4.27468 126.511 4.19918C123.998 4.12482 123.808 4.15729 123.672 4.68481ZM154.341 4.69509C154.262 5.00034 154.043 5.25011 153.853 5.25011C153.398 5.25011 153.166 6.52413 153.166 9.03117C153.166 10.5722 153.074 11.0778 152.794 11.0778C152.37 11.0778 152.077 12.9696 152.073 15.726C152.072 17.0079 151.973 17.4605 151.696 17.4605C151.217 17.4605 150.982 18.8916 150.979 21.8312C150.976 23.5873 150.888 24.1207 150.599 24.1207C150.093 24.1207 149.88 25.3614 149.88 28.318C149.88 30.2073 149.794 30.7809 149.508 30.7809C149.133 30.7809 148.785 32.9358 148.785 35.2618V36.3312H155.325C161.636 36.3312 161.871 36.3117 162.009 35.7761C162.131 35.3047 162.383 35.221 163.684 35.221C165.033 35.221 165.216 35.1549 165.216 34.6659C165.216 34.2034 165.398 34.111 166.311 34.111C167.224 34.111 167.407 34.0186 167.407 33.556C167.407 33.1861 167.589 33.001 167.954 33.001C168.32 33.001 168.502 32.8159 168.502 32.446C168.502 32.076 168.685 31.8909 169.05 31.8909C169.415 31.8909 169.597 31.7058 169.597 31.3359C169.597 30.966 169.78 30.7809 170.145 30.7809C170.51 30.7809 170.693 30.5958 170.693 30.2259C170.693 29.856 170.876 29.6709 171.241 29.6709C171.687 29.6709 171.788 29.4858 171.788 28.6735C171.788 27.9098 171.916 27.6423 172.336 27.5313C172.765 27.4175 172.884 27.1528 172.884 26.3083C172.884 25.4158 172.978 25.2307 173.432 25.2307C173.928 25.2307 173.979 25.0445 173.983 23.2188C173.987 20.8372 174.18 19.9581 174.696 19.9581C174.988 19.9581 175.075 19.4225 175.075 17.5992C175.075 15.776 174.988 15.2404 174.696 15.2404C174.217 15.2404 173.988 14.3821 173.983 12.5672C173.98 11.3778 173.889 11.1186 173.432 10.9973C173.012 10.8863 172.884 10.6188 172.884 9.85509C172.884 9.04283 172.782 8.85772 172.336 8.85772C171.971 8.85772 171.788 8.67261 171.788 8.3027C171.788 7.97997 171.606 7.74769 171.352 7.74769C171.112 7.74769 170.853 7.5068 170.777 7.21238C170.683 6.84577 170.303 6.61962 169.571 6.49417C168.764 6.35627 168.502 6.18141 168.502 5.78072C168.502 5.32393 168.297 5.25011 167.028 5.25011C165.784 5.25011 165.531 5.16354 165.41 4.69509C165.273 4.16366 165.037 4.14008 159.876 4.14008C154.715 4.14008 154.478 4.16366 154.341 4.69509ZM190.068 4.33876C189.421 4.43812 189.315 4.5838 189.315 5.37498C189.315 6.0621 189.176 6.3321 188.767 6.44061C188.352 6.5505 188.22 6.81913 188.22 7.55065C188.22 8.28217 188.087 8.55052 187.672 8.66068C187.252 8.7717 187.124 9.0392 187.124 9.80291C187.124 10.6152 187.022 10.8003 186.576 10.8003C186.12 10.8003 186.029 10.9854 186.029 11.9103C186.029 12.8352 185.938 13.0204 185.481 13.0204C185.025 13.0204 184.933 13.2055 184.933 14.1304C184.933 15.0553 184.842 15.2404 184.386 15.2404C183.929 15.2404 183.838 15.4255 183.838 16.3505C183.838 17.2754 183.747 17.4605 183.29 17.4605C182.889 17.4605 182.743 17.6456 182.743 18.1543C182.743 18.6629 182.596 18.848 182.195 18.848C181.755 18.848 181.647 19.0331 181.647 19.7868C181.647 20.4925 181.511 20.762 181.099 20.8711C180.68 20.9821 180.552 21.2496 180.552 22.0133C180.552 22.8256 180.45 23.0107 180.004 23.0107C179.547 23.0107 179.456 23.1958 179.456 24.1207C179.456 25.0456 179.365 25.2307 178.908 25.2307C178.452 25.2307 178.361 25.4158 178.361 26.3408C178.361 27.2657 178.27 27.4508 177.813 27.4508C177.357 27.4508 177.265 27.6359 177.265 28.5608C177.265 29.4858 177.174 29.6709 176.718 29.6709C176.261 29.6709 176.17 29.856 176.17 30.7809C176.17 31.7058 176.079 31.8909 175.622 31.8909C175.269 31.8909 175.075 32.076 175.075 32.4135C175.075 32.7029 174.83 33.001 174.527 33.0814C174.112 33.1913 173.979 33.4599 173.979 34.1915C173.979 34.9231 173.847 35.1912 173.432 35.3016C173.13 35.3811 172.884 35.6455 172.884 35.8886C172.884 36.2702 173.357 36.3312 176.307 36.3312C179.167 36.3312 179.73 36.2626 179.73 35.9146C179.73 35.686 179.899 35.4984 180.106 35.4984C180.333 35.4984 180.551 35.0582 180.657 34.3886C180.762 33.7244 180.982 33.2785 181.204 33.2785C181.427 33.2785 181.647 32.8325 181.752 32.1684C181.866 31.4503 182.071 31.0584 182.335 31.0584C182.587 31.0584 182.743 30.7939 182.743 30.3646V29.6709H188.767H194.792V32.446C194.792 35.0359 194.829 35.221 195.34 35.221C195.705 35.221 195.887 35.4062 195.887 35.7761C195.887 36.2942 196.07 36.3312 198.626 36.3312H201.364V34.111C201.364 32.076 201.319 31.8909 200.817 31.8909C200.3 31.8909 200.269 31.7058 200.269 28.5608C200.269 25.4158 200.239 25.2307 199.722 25.2307C199.212 25.2307 199.174 25.0456 199.174 22.5944C199.174 20.1432 199.135 19.9581 198.626 19.9581C198.113 19.9581 198.078 19.773 198.078 17.0442C198.078 14.3155 198.044 14.1304 197.531 14.1304C197.019 14.1304 196.983 13.9453 196.983 11.3553C196.983 8.76532 196.946 8.58021 196.435 8.58021C195.933 8.58021 195.887 8.3951 195.887 6.36014V4.14008L193.354 4.1817C191.961 4.20446 190.483 4.27523 190.068 4.33876ZM165.216 10.2209C165.216 10.6238 165.48 10.7967 166.311 10.939C167.346 11.1161 167.407 11.1808 167.407 12.0996C167.407 12.8388 167.538 13.1072 167.954 13.2174C168.472 13.3547 168.502 13.5959 168.502 17.6317C168.502 21.0689 168.429 21.9006 168.126 21.9006C167.738 21.9006 167.407 23.0523 167.407 24.4004C167.407 24.9327 167.24 25.2102 166.859 25.3112C166.439 25.4222 166.311 25.6897 166.311 26.4534C166.311 27.2657 166.21 27.4508 165.764 27.4508C165.398 27.4508 165.216 27.6359 165.216 28.0058C165.216 28.3757 165.033 28.5608 164.668 28.5608C164.311 28.5608 164.121 28.7459 164.121 29.0914C164.121 29.4944 163.857 29.6673 163.025 29.8096C162.351 29.9248 161.93 30.1482 161.93 30.389C161.93 30.7049 161.291 30.7809 158.643 30.7809H155.357V29.9831C155.357 28.605 155.685 27.4508 156.076 27.4508C156.366 27.4508 156.453 26.9135 156.453 25.1267C156.453 22.3036 156.671 21.0681 157.172 21.0681C157.457 21.0681 157.548 20.573 157.548 19.0215C157.548 16.4645 157.781 15.2404 158.267 15.2404C158.559 15.2404 158.643 14.6588 158.643 12.6235C158.643 9.56233 158.34 9.78765 162.546 9.728C165.005 9.6933 165.216 9.73214 165.216 10.2209ZM60.0562 13.6947C60.0562 13.9131 60.3333 14.1318 60.6724 14.1803C61.2662 14.2658 61.2912 14.3868 61.3656 17.5298C61.4249 20.0355 61.5281 20.7906 61.8106 20.7906C62.1943 20.7906 62.5207 21.9547 62.5207 23.3229V24.1207H58.6869H54.8527V23.0107C54.8527 22.0857 54.9439 21.9006 55.4006 21.9006C55.8439 21.9006 55.9481 21.7155 55.9481 20.9293C55.9481 20.1432 56.0527 19.9581 56.496 19.9581C56.9496 19.9581 57.0435 19.773 57.0435 18.8805C57.0435 18.036 57.1622 17.7713 57.5914 17.6575C58.0066 17.5476 58.139 17.279 58.139 16.5475C58.139 15.816 58.2717 15.5476 58.6869 15.4375C59.1062 15.3264 59.2344 15.0589 59.2344 14.2952C59.2344 13.5937 59.3565 13.2979 59.6452 13.2979C59.8711 13.2979 60.0562 13.4766 60.0562 13.6947ZM191.506 13.7141C191.506 13.9453 191.749 14.1304 192.054 14.1304C192.571 14.1304 192.601 14.3155 192.601 17.4605C192.601 20.6055 192.632 20.7906 193.149 20.7906C193.636 20.7906 193.696 20.9757 193.696 22.4556V24.1207H189.863H186.029V23.1233C186.029 22.376 186.159 22.0916 186.551 21.9877C186.883 21.8998 187.136 21.5063 187.248 20.9038C187.344 20.3838 187.586 19.9581 187.786 19.9581C187.998 19.9581 188.222 19.4963 188.325 18.848C188.43 18.184 188.65 17.738 188.872 17.738C189.095 17.738 189.315 17.292 189.42 16.628C189.525 15.9639 189.745 15.5179 189.968 15.5179C190.191 15.5179 190.411 15.072 190.515 14.4079C190.629 13.6897 190.835 13.2979 191.098 13.2979C191.322 13.2979 191.506 13.4852 191.506 13.7141Z" fill="#5C6374"/>
</svg>
