<svg width="32" height="33" viewBox="0 0 32 33" fill="none" xmlns="http://www.w3.org/2000/svg">
<path d="M22.7331 17.2281L18.6448 16.4407L22.7331 14.7953L23.5407 15.724L22.7331 17.2281Z" fill="white"/>
<path d="M28.1337 15.1284C27.6492 14.0583 27.2858 13.1498 27.1546 12.9277C26.7811 12.2918 26.2259 12.3321 25.7514 12.4129C24.4795 12.635 23.9848 12.8571 21.7337 13.4526C21.4006 13.5435 20.7848 13.7252 20.4416 13.6041C19.5331 13.2911 19.2606 13.0489 18.8164 13.0892C18.1401 13.17 16.7571 13.8161 15.2429 14.9164C14.7684 15.2596 14.829 15.6634 14.7382 15.9258C14.718 15.9864 14.7583 16.0369 14.8189 16.047C15.041 16.0672 17.4334 16.2791 17.5344 16.2892C17.494 16.269 17.4839 16.2388 17.4839 16.1984C17.4839 16.1681 17.494 16.1378 17.5344 16.1176C18.2309 15.7744 20.7142 14.4621 22.2082 13.8665C24.2574 13.0489 24.752 12.9681 25.3779 12.9075C25.5192 12.8974 25.7312 12.9075 25.8725 12.9176C25.9937 12.9277 26.0946 12.9984 26.135 13.1094C26.4177 13.9372 27.2454 15.8148 27.6795 16.4306C27.6795 16.4306 27.5987 16.582 27.4574 16.582C27.3464 16.582 27.1041 16.37 26.9628 16.2388C26.9325 16.2085 26.882 16.2085 26.8517 16.2287C24.3987 17.7429 22.6221 18.399 22.3697 18.4899C22.3495 18.5 22.3293 18.5 22.3091 18.4899L21.0574 18.0255C21.0574 18.0255 21.1079 17.9851 21.2189 17.753C21.2391 17.7025 21.2593 17.6318 21.2593 17.5914C21.2492 17.3896 21.0574 17.3492 20.9665 17.3391C20.6334 17.2987 11.6694 15.9763 9.41828 15.7542C8.45929 15.6533 7.56087 16.1479 7.16718 16.6627V16.6728L8.4391 17.9952C8.46939 18.0255 8.50977 18.0356 8.55015 18.0154L9.54951 17.5511C9.54951 17.5511 9.69084 17.975 9.55961 18.0457C8.73185 18.5 7.92428 18.9138 7.14699 19.3176C6.83406 19.4791 6.84415 19.7921 6.74321 20.2362C6.70283 20.4179 6.68264 20.5896 6.68264 20.5896C6.68264 20.5896 8.42901 19.7113 9.49904 19.2066C9.53942 19.1864 9.5798 19.1965 9.61008 19.2268C9.7615 19.3883 9.81197 19.4287 9.91292 19.5296C9.9533 19.5801 9.94321 19.6508 9.89273 19.681C9.64037 19.8123 9.37791 19.9536 9.17601 20.0747C9.0145 20.1656 9.17601 20.4886 9.17601 20.4886L12.0833 19.1157C12.0833 19.1157 12.265 19.2974 11.9419 19.4892C11.4473 19.8022 6.86434 22.134 6.47065 22.1441C5.4309 22.1744 3.47254 20.2161 2.75582 19.9132C2.16024 19.6608 1.51418 20.0747 0.646044 20.5896C0.403773 20.7309 0.555193 21.0741 0.555193 21.0741L1.81702 20.428C1.81702 20.428 1.97854 20.6097 1.79683 20.7208C1.18106 21.1044 0.292732 21.4981 0.161502 21.599C-0.040391 21.7403 0.0403661 22.4167 0.0403661 22.4167L1.24163 21.8615C1.28201 21.8413 1.32238 21.8514 1.34257 21.8716L3.90661 24.3145C4.05803 24.2741 4.19936 24.2337 4.38106 24.153L2.241 21.8716C2.20062 21.8211 2.21071 21.7504 2.27128 21.7202C2.49336 21.6091 2.75582 21.5284 3.11923 21.811C3.43216 22.0432 4.52239 22.9315 5.57223 22.8306C5.92554 22.8003 5.92554 22.9113 5.92554 22.9113C5.92554 22.9113 5.48138 23.1233 4.94636 23.416C4.6839 23.5574 4.89589 23.941 4.89589 23.941C7.61134 22.8306 10.9527 21.4476 11.417 21.2457C11.4473 21.2356 11.4877 21.2356 11.518 21.2558L12.3054 21.8817C12.4164 22.0533 17.9987 19.9132 19.7148 19.0451C19.8158 18.9946 20.6839 19.035 21.1079 19.035C21.2997 19.035 21.2896 19.1157 21.2896 19.1157C21.2896 19.1157 7.3186 24.688 3.88642 24.5567H3.87633L3.14951 24.8697C3.57349 25.1523 3.47254 25.6369 4.19936 25.2634C4.23974 25.3643 4.29021 25.4653 4.35078 25.5864C4.4921 25.8892 4.4921 25.8993 5.42081 25.5763C8.04541 24.688 19.8259 21.1649 22.4606 20.0747C23.9546 19.459 26.0139 18.611 27.2959 17.8135C28.5678 17.0362 28.8303 16.6325 28.1337 15.1284ZM16.8681 15.1889C16.7066 15.3 15.6669 15.1082 15.6669 15.1082C15.6669 15.1082 16.8177 14.0785 17.918 13.9473C18.241 13.9069 18.9072 14.1593 18.9072 14.1593C18.9072 14.1593 17.4334 14.775 16.8681 15.1889ZM20.371 14.1694L18.8871 14.9265C18.8871 14.9265 18.5438 14.7145 18.9274 14.5429C19.0284 14.5025 19.2606 14.3713 19.4423 14.2703C19.5432 14.2198 19.5331 14.0684 19.4322 14.028L18.3319 13.5839C18.5236 13.4325 18.8063 13.3416 19.0889 13.4325C19.2505 13.4829 19.9167 13.7656 20.3609 13.9473C20.482 13.9978 20.4517 14.1189 20.371 14.1694ZM20.7445 17.7731C20.6031 17.9851 20.2599 18.3889 19.7653 18.3082C19.5129 18.2678 9.61008 16.259 9.58989 16.2489C9.51923 16.2287 9.52933 16.0772 9.66056 16.0974L20.6839 17.6217C20.7445 17.6318 20.7848 17.7126 20.7445 17.7731Z" fill="white"/>
<path d="M27.8914 13.2507C27.8813 13.2507 27.8712 13.2507 27.8611 13.2608C27.851 13.2608 27.8409 13.2709 27.8308 13.281L27.9318 13.2507C27.9217 13.2507 27.9116 13.2507 27.8914 13.2507Z" fill="white"/>
<path d="M31.9697 20.7006C31.8889 20.3675 31.2832 18.1669 30.9299 17.3593L29.335 14.4924C29.1836 14.6943 29.0019 14.9164 28.8302 15.0779C28.8 15.1082 28.7596 15.1284 28.7293 15.1486C28.6788 15.1688 28.6284 15.1789 28.5779 15.1789L29.4359 18.0054C29.5672 18.4596 29.8599 18.8432 30.1224 19.2369C30.2536 19.4287 31.1722 20.8016 31.5255 21.3265C31.5962 21.4375 31.7678 21.4375 31.8384 21.3265C31.9495 21.1347 32.0202 20.8924 31.9697 20.7006ZM31.6567 21.0943L31.6366 21.1246L31.6164 21.0943C31.6063 21.0741 30.3142 19.1662 29.8397 18.4293C29.6984 18.2073 29.8599 18.0962 29.8599 18.0962L29.8801 18.0861L29.8902 18.1063C29.9608 18.1871 31.4851 20.1757 31.6769 20.5391C31.8384 20.8117 31.6567 21.0741 31.6567 21.0943Z" fill="white"/>
<path d="M27.7197 10.0609C27.5481 9.4653 27.2453 9.0817 26.9828 8.68801C26.8516 8.48612 25.9027 7.07287 25.5595 6.56814C25.4989 6.47729 25.3576 6.47729 25.297 6.56814C25.1557 6.77003 25.0951 7.03249 25.1557 7.24448C25.2365 7.5776 25.8321 9.76814 26.1753 10.5757L27.639 13.1498C27.6794 13.1095 27.7197 13.0792 27.7702 13.0489C27.8106 13.0388 27.8409 13.0287 27.8813 13.0186C28.0731 13.0085 28.3759 13.0085 28.6485 13.0085L27.7197 10.0609ZM27.2453 9.85899L27.2251 9.86909L27.215 9.8489C27.1545 9.76814 25.6302 7.7795 25.4283 7.40599C25.2768 7.13344 25.4586 6.86088 25.4586 6.85079L25.4787 6.8205L25.4989 6.85079C25.509 6.87098 26.8112 8.77886 27.2756 9.51577C27.4169 9.74795 27.2453 9.85899 27.2453 9.85899Z" fill="white"/>
<path d="M29.5266 13.2508C29.1329 13.16 28.3758 13.16 27.9216 13.1802C27.9014 13.1802 27.8913 13.1802 27.8711 13.1802C27.861 13.1802 27.8509 13.1802 27.8408 13.1903C27.8307 13.1903 27.8206 13.2004 27.8105 13.2105C27.7601 13.2508 27.7298 13.3215 27.75 13.3821C27.9721 13.9575 28.174 14.4016 28.4364 14.9165C28.4667 14.9871 28.5676 14.9972 28.6383 14.9669C28.6484 14.9568 28.6686 14.9467 28.6787 14.9366C29.0623 14.5732 29.4257 14.0685 29.6579 13.5638C29.7386 13.4124 29.6982 13.2912 29.5266 13.2508ZM28.2244 14.0281L27.9922 13.5032C27.9922 13.5032 27.9519 13.4224 28.0427 13.3821C28.0528 13.3821 28.0528 13.372 28.0629 13.372C28.0629 13.372 29.0118 13.3417 29.3146 13.3922C29.4762 13.4224 29.4762 13.483 29.4762 13.483L28.2244 14.0281Z" fill="white"/>
<path d="M24.6813 13.4022C24.6813 13.4022 24.4996 14.1492 24.217 15.0073L23.6921 14.341L23.2681 14.5328L24.0454 15.512C23.8031 16.1682 23.5104 16.8344 23.2075 17.218L23.9848 16.8647C24.1564 16.7032 24.3078 16.37 24.4189 15.9764L24.8429 16.5114L25.2668 16.3196L24.54 15.4111C24.6914 14.5732 24.7318 13.6748 24.6813 13.4022Z" fill="white"/>
</svg>
