<svg width="240" height="80" viewBox="0 0 240 80" fill="none" xmlns="http://www.w3.org/2000/svg">
<path d="M71.6 33.04H76.1333C77.0416 33.0061 77.9477 33.1511 78.8 33.4667C79.4518 33.7107 80.0431 34.0928 80.5333 34.5867C80.9734 35.0381 81.3021 35.586 81.4933 36.1867C81.6878 36.7898 81.7868 37.4196 81.7867 38.0534V38.7734C81.7963 39.2304 81.7516 39.6869 81.6533 40.1334C81.5756 40.4738 81.4403 40.7985 81.2533 41.0934C81.0716 41.3757 80.8467 41.6276 80.5867 41.84C80.3032 42.0632 79.9997 42.2596 79.68 42.4267C80.3629 42.6925 80.9361 43.1811 81.3067 43.8134C81.6815 44.5842 81.8558 45.4372 81.8133 46.2934V47.4134C81.8675 48.1394 81.7724 48.8689 81.5339 49.5568C81.2954 50.2448 80.9186 50.8766 80.4267 51.4134C79.1923 52.4424 77.6008 52.941 76 52.8H71.6V33.04ZM74.72 41.04H76.1333C76.5099 41.0896 76.8928 41.0529 77.2532 40.9328C77.6135 40.8127 77.9418 40.6123 78.2133 40.3467C78.6064 39.737 78.7934 39.0173 78.7467 38.2934C78.8025 37.5773 78.5938 36.8657 78.16 36.2934C77.8661 36.0382 77.5222 35.8471 77.1503 35.7324C76.7784 35.6176 76.3866 35.5816 76 35.6267H74.6667L74.72 41.04ZM74.72 49.84H76.0533C76.5537 49.8645 77.0535 49.7827 77.52 49.6C77.8488 49.4523 78.127 49.2112 78.32 48.9067C78.4948 48.6306 78.6126 48.3223 78.6667 48C78.6667 47.5911 78.6667 47.1467 78.6667 46.6667C78.7023 46.2319 78.7023 45.7948 78.6667 45.36C78.6215 45.0228 78.4932 44.7021 78.2933 44.4267C78.0838 44.1694 77.8068 43.9754 77.4933 43.8667C77.0541 43.7266 76.594 43.6634 76.1333 43.68H74.6667L74.72 49.84ZM87.68 32.9334H90.3467L95.2 52.64H91.9733L91.0667 48.4H86.8267L85.92 52.64H82.8L87.68 32.9334ZM88.9867 38.6134L87.4667 45.76H90.5867L88.9867 38.6134ZM96.5067 32.9334H99.4667L104.16 44.8267V33.04H107.28V52.7467H104.347L99.6 40.9067V52.7467H96.48L96.5067 32.9334ZM110.16 32.9334H113.28V41.92L117.813 32.9334H120.933L116.693 40.9334L121.707 52.7467H118.453L114.907 44L113.227 46.8534V52.7467H110.133L110.16 32.9334ZM130.853 35.6H127.227V32.9334H137.52V35.6H133.92V52.6667H130.827L130.853 35.6ZM138.853 32.9334H144C147.662 32.9334 149.493 34.8622 149.493 38.72C149.524 39.7383 149.323 40.7503 148.907 41.68C148.455 42.5528 147.722 43.248 146.827 43.6534L150.187 52.64H146.667L143.787 44.2134H141.92V52.64H138.88L138.853 32.9334ZM141.973 41.7334H143.733C144.179 41.7482 144.623 41.6757 145.04 41.52C145.342 41.4031 145.602 41.1988 145.787 40.9334C145.97 40.6423 146.089 40.3147 146.133 39.9734C146.258 39.0889 146.258 38.1912 146.133 37.3067C146.085 36.962 145.957 36.6333 145.76 36.3467C145.557 36.0762 145.279 35.872 144.96 35.76C144.521 35.6199 144.061 35.5567 143.6 35.5734H141.973V41.7334ZM155.307 32.9334H157.973L162.667 52.7734H159.627L158.72 48.5334H154.48L153.573 52.7734H150.453L155.307 32.9334ZM156.613 38.6134L155.093 45.76H158.133L156.613 38.6134ZM164.133 32.9334H167.12L171.813 44.8267V33.04H174.933V52.7467H172L167.253 40.9067V52.7467H164.133V32.9334ZM187.84 38.6134H184.72V37.9734C184.734 37.3738 184.556 36.7854 184.213 36.2934C184.012 36.048 183.754 35.8563 183.461 35.7353C183.167 35.6143 182.849 35.5678 182.533 35.6C182.174 35.5857 181.818 35.6589 181.493 35.8134C181.237 35.944 181.017 36.1364 180.853 36.3734C180.696 36.6168 180.587 36.8885 180.533 37.1734C180.502 37.4926 180.502 37.8141 180.533 38.1334C180.515 38.462 180.515 38.7914 180.533 39.12C180.559 39.3664 180.642 39.6035 180.773 39.8134C180.911 40.0202 181.093 40.1933 181.307 40.32C181.61 40.5043 181.932 40.6563 182.267 40.7734L184.64 41.6267C185.241 41.8225 185.808 42.1104 186.32 42.48C186.729 42.7856 187.065 43.177 187.307 43.6267C187.553 44.0924 187.716 44.5979 187.787 45.12C187.832 45.7592 187.832 46.4008 187.787 47.04C187.796 47.8215 187.706 48.601 187.52 49.36C187.358 50.033 187.048 50.6615 186.613 51.2C186.168 51.728 185.6 52.1398 184.96 52.4C184.155 52.7204 183.293 52.8746 182.427 52.8534C181.709 52.8641 180.996 52.7467 180.32 52.5067C179.703 52.2872 179.132 51.9523 178.64 51.52C178.169 51.1033 177.788 50.5952 177.52 50.0267C177.247 49.443 177.11 48.8046 177.12 48.16V47.2H180.24V48C180.241 48.5074 180.42 48.9983 180.747 49.3867C180.962 49.609 181.225 49.7797 181.516 49.8859C181.807 49.9921 182.119 50.0311 182.427 50C182.846 50.0167 183.264 49.944 183.653 49.7867C183.929 49.6619 184.161 49.4576 184.32 49.2C184.485 48.9143 184.586 48.5956 184.613 48.2667C184.636 47.8581 184.636 47.4486 184.613 47.04C184.638 46.6137 184.638 46.1863 184.613 45.76C184.586 45.4767 184.495 45.2033 184.347 44.96C184.206 44.7467 184.013 44.5724 183.787 44.4534L182.853 44.0267L180.64 43.2C179.547 42.8759 178.603 42.1773 177.973 41.2267C177.482 40.2716 177.243 39.2067 177.28 38.1334C177.28 37.4169 177.397 36.7053 177.627 36.0267C177.833 35.395 178.169 34.8136 178.613 34.32C179.075 33.8228 179.639 33.4316 180.267 33.1734C181.012 32.8741 181.81 32.729 182.613 32.7467C183.335 32.7431 184.05 32.8789 184.72 33.1467C185.328 33.3806 185.889 33.724 186.373 34.16C186.808 34.5594 187.161 35.0394 187.413 35.5734C187.656 36.0814 187.784 36.6369 187.787 37.2L187.84 38.6134ZM190.16 32.9334H199.413V35.6H193.253V41.5734H198.587V44.24H193.253V52.6667H190.16V32.9334ZM201.44 32.9334H210.667V35.6H204.533V41.3867H209.867V44.0534H204.533V49.84H210.667V52.6667H201.413L201.44 32.9334ZM212.72 32.9334H217.707C221.369 32.9334 223.2 34.8622 223.2 38.72C223.23 39.7383 223.03 40.7503 222.613 41.68C222.161 42.5528 221.429 43.248 220.533 43.6534L223.893 52.64H220.56L217.68 44.2134H215.813V52.64H212.693L212.72 32.9334ZM215.84 41.7334H217.6C218.045 41.7482 218.489 41.6757 218.907 41.52C219.208 41.4031 219.468 41.1988 219.653 40.9334C219.837 40.6423 219.955 40.3147 220 39.9734C220.125 39.0889 220.125 38.1912 220 37.3067C219.952 36.962 219.824 36.6333 219.627 36.3467C219.424 36.0762 219.146 35.872 218.827 35.76C218.387 35.6199 217.927 35.5567 217.467 35.5734H215.84V41.7334ZM18.5067 28.9334H59.1467C61.4933 28.9334 62.2667 26.48 60.1867 25.6267L39.8133 17.3334C39.4843 17.194 39.1306 17.1222 38.7733 17.1222C38.416 17.1222 38.0623 17.194 37.7333 17.3334L17.36 25.7334C15.28 26.6667 16 29.0667 18.4 29.0667L18.5067 28.9334ZM61.3333 60.8C61.3333 60.5269 61.2795 60.2564 61.175 60.004C61.0705 59.7517 60.9173 59.5224 60.7241 59.3292C60.531 59.1361 60.3017 58.9829 60.0493 58.8784C59.797 58.7738 59.5265 58.72 59.2533 58.72H18.2933C17.7417 58.72 17.2126 58.9392 16.8225 59.3292C16.4325 59.7193 16.2133 60.2484 16.2133 60.8C16.2133 61.3517 16.4325 61.8807 16.8225 62.2708C17.2126 62.6609 17.7417 62.88 18.2933 62.88H59.28C59.827 62.873 60.3492 62.6508 60.7336 62.2615C61.1179 61.8721 61.3334 61.3471 61.3333 60.8ZM57.1733 53.7067H56.4V34.08H57.1733C57.5871 34.08 57.9839 33.9157 58.2764 33.6231C58.569 33.3306 58.7333 32.9338 58.7333 32.52C58.7333 32.1063 58.569 31.7095 58.2764 31.4169C57.9839 31.1244 57.5871 30.96 57.1733 30.96H20.3467C19.9329 30.96 19.5361 31.1244 19.2436 31.4169C18.951 31.7095 18.7867 32.1063 18.7867 32.52C18.7867 32.9338 18.951 33.3306 19.2436 33.6231C19.5361 33.9157 19.9329 34.08 20.3467 34.08H21.12V53.7067H20.3467C19.9329 53.7067 19.5361 53.871 19.2436 54.1636C18.951 54.4562 18.7867 54.853 18.7867 55.2667C18.7867 55.6804 18.951 56.0772 19.2436 56.3698C19.5361 56.6623 19.9329 56.8267 20.3467 56.8267H57.2C57.6137 56.8267 58.0105 56.6623 58.3031 56.3698C58.5956 56.0772 58.76 55.6804 58.76 55.2667C58.76 54.853 58.5956 54.4562 58.3031 54.1636C58.0105 53.871 57.6137 53.7067 57.2 53.7067H57.1733ZM52.24 53.7067H46.0533V34.08H52.2667L52.24 53.7067ZM41.8667 53.7067H35.6533V34.08H41.8667V53.7067ZM25.28 34.08H31.4933V53.7067H25.28V34.08Z" fill="#5B6376"/>
</svg>
