<svg width="240" height="96" viewBox="0 0 240 96" fill="none" xmlns="http://www.w3.org/2000/svg">
<g clip-path="url(#clip0_601_82)">
<path d="M225.298 59.2395C224.844 59.2395 224.464 59.084 224.149 58.7689C223.838 58.4539 223.678 58.0733 223.678 57.6191V54.1862H227.856V55.1887H235.822V53.1796H225.298C224.844 53.1796 224.464 53.016 224.149 52.6927C223.838 52.3695 223.678 51.993 223.678 51.5593V44.6648C223.678 44.231 223.834 43.8546 224.149 43.5313C224.464 43.2081 224.844 43.0444 225.298 43.0444H238.38C238.834 43.0444 239.214 43.2081 239.529 43.5313C239.845 43.8546 240 44.231 240 44.6648V48.1304H235.822V47.0952H227.856V49.1329H238.38C238.834 49.1329 239.214 49.2884 239.529 49.6035C239.845 49.9144 240 50.2868 240 50.7205V57.6478C240 58.0815 239.845 58.4498 239.529 58.7648C239.218 59.0758 238.834 59.2354 238.38 59.2354H225.298V59.2395ZM209.013 59.2395H204.836V43.0526H209.013V44.6729C209.013 44.2392 209.177 43.8628 209.5 43.5395C209.824 43.2163 210.2 43.0526 210.634 43.0526H218.179C218.633 43.0526 219.014 43.2163 219.329 43.5395C219.644 43.8628 219.799 44.2392 219.799 44.6729V59.2436H215.621V47.1034H210.634C210.2 47.1034 209.824 47.2589 209.5 47.574C209.177 47.8849 209.013 48.2696 209.013 48.7237V59.2477V59.2395ZM200.953 57.6191C200.953 58.0733 200.797 58.4539 200.482 58.7689C200.171 59.0799 199.787 59.2395 199.332 59.2395H186.251C185.797 59.2395 185.416 59.084 185.101 58.7689C184.79 58.4539 184.631 58.0733 184.631 57.6191V44.7016C184.631 44.2474 184.786 43.8587 185.101 43.5354C185.416 43.2122 185.797 43.0485 186.251 43.0485H199.332C199.787 43.0485 200.167 43.2122 200.482 43.5354C200.797 43.8587 200.953 44.2351 200.953 44.6688V57.6191V57.6191ZM196.775 47.0952H188.808V55.1887H196.775V47.0952V47.0952ZM180.748 59.2354H176.57V43.0526H180.748V59.2436V59.2354ZM176.57 37.3815C176.57 37.1237 176.701 36.9928 176.959 36.9928H180.359C180.617 36.9928 180.748 37.1237 180.748 37.3815V40.6508C180.748 40.9085 180.617 41.0395 180.359 41.0395H176.959C176.701 41.0395 176.57 40.9085 176.57 40.6508V37.3815ZM170.482 36.9928V43.0485H173.329V47.0952H170.482V55.1887H173.329V59.2354H167.892C167.458 59.2354 167.081 59.0799 166.758 58.7648C166.435 58.4498 166.271 58.0774 166.271 57.6478V47.0911H164.262V43.0444H166.271V36.9887H170.482V36.9928ZM157.499 43.0485H161.676V59.2395H157.499V57.6191C157.499 58.0733 157.335 58.4539 157.012 58.7689C156.688 59.0799 156.3 59.2395 155.846 59.2395H148.333C147.879 59.2395 147.498 59.084 147.183 58.7689C146.872 58.4539 146.713 58.0733 146.713 57.6191V43.0526H150.89V55.1928H155.846C156.3 55.1928 156.688 55.0373 157.012 54.7222C157.335 54.4112 157.499 54.0266 157.499 53.5724V43.0526V43.0485ZM141.373 36.9928V55.1928H142.83V59.2395H138.816C138.362 59.2395 137.981 59.084 137.666 58.7689C137.355 58.4539 137.195 58.0815 137.195 57.6519V36.9969H141.373V36.9928ZM133.312 57.6191C133.312 58.0733 133.157 58.4539 132.842 58.7689C132.527 59.084 132.146 59.2395 131.692 59.2395H118.611C118.157 59.2395 117.776 59.084 117.461 58.7689C117.15 58.4539 116.991 58.0733 116.991 57.6191V44.7016C116.991 44.2474 117.146 43.8587 117.461 43.5354C117.776 43.2122 118.157 43.0485 118.611 43.0485H131.692C132.146 43.0485 132.527 43.2122 132.842 43.5354C133.157 43.8587 133.312 44.2351 133.312 44.6688V57.6191ZM129.135 47.0952H121.168V55.1887H129.135V47.0952ZM98.41 59.2354C97.9558 59.2354 97.5753 59.0799 97.2602 58.7648C96.9493 58.4498 96.7897 58.0692 96.7897 57.6151V54.1821H100.967V55.1846H108.934V53.1755H98.41C97.9558 53.1755 97.5753 53.0119 97.2602 52.6886C96.9493 52.3654 96.7897 51.9889 96.7897 51.5552V44.6607C96.7897 44.2269 96.9452 43.8505 97.2602 43.5273C97.5753 43.204 97.9558 43.0403 98.41 43.0403H111.491C111.945 43.0403 112.326 43.204 112.641 43.5273C112.956 43.8505 113.112 44.2269 113.112 44.6607V48.1263H108.934V47.0911H100.967V49.1288H111.491C111.945 49.1288 112.326 49.2843 112.641 49.5994C112.956 49.9103 113.112 50.2827 113.112 50.7164V57.6437C113.112 58.0774 112.956 58.4457 112.641 58.7607C112.33 59.0717 111.945 59.2313 111.491 59.2313H98.41V59.2354ZM90.7053 36.9928V43.0485H93.5531V47.0952H90.7053V55.1887H93.5531V59.2354H88.1152C87.6856 59.2354 87.3051 59.0799 86.9818 58.7648C86.6586 58.4498 86.4949 58.0774 86.4949 57.6478V47.0911H84.4859V43.0444H86.4949V36.9887H90.7053V36.9928ZM69.7557 47.0952V49.1329H77.7223V47.0952H69.7557ZM65.578 44.6688C65.578 44.2147 65.7335 43.8341 66.0486 43.5191C66.3636 43.2081 66.7442 43.0485 67.1984 43.0485H80.3123C80.7461 43.0485 81.1143 43.204 81.4294 43.5191C81.7444 43.8341 81.8999 44.2147 81.8999 44.6688V51.5634C81.8999 51.9971 81.7444 52.3736 81.4294 52.6968C81.1184 53.02 80.7338 53.1837 80.2796 53.1837H69.7557V55.1928H81.8958V59.2395H67.1984C66.7442 59.2395 66.3636 59.084 66.0486 58.7689C65.7376 58.4539 65.578 58.0733 65.578 57.6191V44.6688ZM49.5508 59.2395H45.3731V36.9969H49.5508V44.7016C49.5508 44.2474 49.7144 43.8587 50.0377 43.5354C50.3609 43.2122 50.7374 43.0485 51.1711 43.0485H60.0747C60.5289 43.0485 60.9094 43.2122 61.2244 43.5354C61.5395 43.8587 61.695 44.2351 61.695 44.6688V57.6191C61.695 58.0733 61.5395 58.4539 61.2244 58.7689C60.9135 59.0799 60.5289 59.2395 60.0747 59.2395H51.1711C50.7374 59.2395 50.3609 59.084 50.0377 58.7689C49.7144 58.4539 49.5508 58.0733 49.5508 57.6191V59.2395V59.2395ZM49.5508 55.1928H57.5173V47.0993H51.1711C50.7374 47.0993 50.3609 47.263 50.0377 47.5862C49.7144 47.9095 49.5508 48.2859 49.5508 48.7196V55.1968V55.1928Z" fill="#5C6374"/>
<path fill-rule="evenodd" clip-rule="evenodd" d="M17.7131 30C25.516 30 32.1405 35.0451 34.5014 42.0542C30.3524 40.573 26.0888 39.7465 21.547 39.8651L21.6002 41.9806C26.3466 41.8578 30.7861 42.7703 35.1111 44.3783C35.3157 45.4585 35.4261 46.5756 35.4261 47.7172C35.4261 57.5005 27.4964 65.4302 17.7131 65.4302C16.5183 65.4302 15.3521 65.3116 14.2228 65.0865C17.578 62.2346 20.4259 58.9571 22.5945 54.9636L20.7369 53.9529C18.47 58.1265 15.4626 61.5145 11.9069 64.4564C4.97553 62.0423 0 55.4587 0 47.7131C0 43.2285 1.66942 39.1327 4.41906 36.0107C5.21285 40.3439 6.6245 44.4438 8.9977 48.3186L10.8021 47.2139C8.32256 43.1631 6.89455 38.8668 6.12531 34.3168C9.23093 31.6285 13.2817 30 17.7131 30Z" fill="#5C6374"/>
</g>
<defs>
<clipPath id="clip0_601_82">
<rect width="240" height="35.422" fill="white" transform="translate(0 30)"/>
</clipPath>
</defs>
</svg>
