<svg width="20" height="20" viewBox="0 0 20 20" fill="none" xmlns="http://www.w3.org/2000/svg">
<g clip-path="url(#clip0)">
<path fill-rule="evenodd" clip-rule="evenodd" d="M9.57515 18.9671C14.8639 18.9671 19.151 14.7212 19.151 9.48322C19.151 4.24593 14.8639 0 9.57515 0C4.28709 0 0 4.24593 0 9.48322C0 14.7212 4.28709 18.9671 9.57515 18.9671ZM9.5682 9.90796C10.0065 10.0243 10.3222 10.1516 10.5144 10.289C10.7066 10.4264 10.8345 10.5882 10.8985 10.7704C10.962 10.9573 10.9638 11.1639 10.9025 11.3904C10.83 11.6582 10.6915 11.8656 10.4899 12.0168C10.2883 12.168 10.0704 12.2449 9.83773 12.2471C9.60643 12.2517 9.32571 12.2105 8.99765 12.1234L8.43382 11.9738C8.24607 11.924 8.13401 11.8813 8.09688 11.8511C8.05928 11.82 8.03912 11.7752 8.03409 11.7201C8.03017 11.6762 8.05829 11.5368 8.11797 11.301L8.56673 9.64221L9.5682 9.90796ZM12.863 11.1394C12.9509 11.4593 12.949 11.7886 12.857 12.1288C12.7469 12.5355 12.5211 12.8776 12.1812 13.1519C11.8392 13.4284 11.4196 13.5959 10.9197 13.6544C10.7383 13.6776 10.5299 13.6788 10.2988 13.6624L9.92829 15.0318L8.618 14.6841L8.95913 13.4232C8.94381 13.4191 8.92847 13.4152 8.91276 13.4112C8.89622 13.407 8.8793 13.4026 8.86156 13.398L8.11639 13.2002L7.77543 14.4605L6.46515 14.1128L6.80611 12.8525L4.80768 12.3221L5.0944 11.2624L5.40002 11.3435C5.60379 11.3976 5.7457 11.4162 5.82754 11.4005C5.90905 11.3861 5.97304 11.35 6.02003 11.2931C6.06813 11.2372 6.12086 11.0982 6.18164 10.8735L7.33774 6.60029C7.39902 6.37375 7.42361 6.22453 7.41032 6.15435C7.39749 6.08495 7.36046 6.02139 7.29783 5.96601C7.23521 5.91062 7.10261 5.85505 6.89949 5.80113L6.59387 5.72003L6.88058 4.66029L8.87901 5.19063L9.22014 3.92972L10.5304 4.27744L10.1893 5.53835L11.0312 5.76178L11.3723 4.50087L12.6826 4.84858L12.3168 6.20087C12.4984 6.28852 12.6641 6.38148 12.7978 6.48153C13.1403 6.73839 13.3751 7.0408 13.504 7.38652C13.6303 7.7322 13.6469 8.07939 13.5528 8.42715C13.4845 8.6797 13.3651 8.90512 13.1948 9.1034C13.0239 9.30087 12.812 9.45956 12.5593 9.57886C12.3071 9.69894 11.9966 9.77026 11.6282 9.79425C11.967 9.98141 12.2158 10.1556 12.3788 10.3172C12.6116 10.5456 12.7754 10.8183 12.863 11.1394ZM11.3024 8.68892C11.1551 8.80695 10.9661 8.87584 10.733 8.8922C10.5004 8.90934 10.163 8.85927 9.71945 8.74224L8.87113 8.5171L9.37638 6.64956L10.2247 6.8747C10.7187 7.00578 11.0545 7.12755 11.2309 7.23965C11.4055 7.3506 11.5261 7.49141 11.5893 7.66124C11.6519 7.83087 11.656 8.01628 11.6016 8.21745C11.5491 8.41162 11.4494 8.56948 11.3024 8.68892Z" fill="#5B6376"/>
</g>
<defs>
<clipPath id="clip0">
<rect width="19.3012" height="19.3012" fill="white"/>
</clipPath>
</defs>
</svg>
