<svg width="16" height="16" viewBox="0 0 16 16" fill="none" xmlns="http://www.w3.org/2000/svg">
    <path fill-rule="evenodd" clip-rule="evenodd" d="M1.22815 12.8904C0.642367 13.4762 0.642367 14.4259 1.22815 15.0117C1.81394 15.5975 2.76369 15.5975 3.34947 15.0117L8.11992 10.2412L12.8904 15.0117C13.4762 15.5975 14.4259 15.5975 15.0117 15.0117C15.5975 14.4259 15.5975 13.4762 15.0117 12.8904L10.2412 8.11992L15.0119 3.34923C15.5977 2.76345 15.5977 1.8137 15.0119 1.22791C14.4261 0.642127 13.4764 0.642128 12.8906 1.22791L8.11992 5.9986L3.34923 1.22792C2.76345 0.642129 1.8137 0.642128 1.22791 1.22792C0.642127 1.8137 0.642128 2.76345 1.22791 3.34924L5.9986 8.11992L1.22815 12.8904Z" fill="white"/>
</svg>
