<svg width="73" height="60" viewBox="0 0 73 60" fill="none" xmlns="http://www.w3.org/2000/svg">
    <g style="mix-blend-mode:luminosity">
        <path fill-rule="evenodd" clip-rule="evenodd" d="M29.1456 21.0072C28.5801 21.911 28.1555 22.8956 27.8863 23.9273C27.5538 25.1865 27.4558 26.4962 27.5972 27.7909L0.923828 34.0581L27.9 29.3681C27.955 29.5747 28.017 29.7813 28.0789 29.981C28.7059 31.8718 29.859 33.5442 31.4028 34.8019L25.9869 45.3321L32.2354 35.408C33.7008 36.3678 35.388 36.9345 37.1352 37.0539C37.7031 37.1022 38.274 37.1022 38.8419 37.0539L45.8474 59.7811L40.8444 36.6407C41.5651 36.4088 42.2575 36.097 42.9089 35.711C44.676 34.6723 46.0943 33.1307 46.9829 31.2826L47.1068 31.021L58.5578 36.9851L47.3683 30.3805C47.9742 28.7617 48.175 27.0191 47.9532 25.3047C47.8569 24.5775 47.6863 23.8621 47.444 23.1698L72.0184 15.1119L46.9003 21.8957C46.5314 21.1384 46.069 20.4303 45.5239 19.7882C44.6585 18.7787 43.6042 17.9481 42.4203 17.3433L45.985 10.8144L41.9042 17.0954C40.8151 16.6164 39.6506 16.332 38.4634 16.2552C37.3805 16.1795 36.2926 16.2819 35.2428 16.5583L30.7903 0.71814L34.0385 16.9232C32.9316 17.3657 31.9113 17.9999 31.0243 18.7965C30.5148 19.248 30.0536 19.7511 29.648 20.2979L16.848 12.1712L29.1456 21.0072Z" fill="url(#paint0_radial_10004_4690)"/>
    </g>
    <defs>
        <radialGradient id="paint0_radial_10004_4690" cx="0" cy="0" r="1" gradientUnits="userSpaceOnUse" gradientTransform="translate(37.4166 28.0939) rotate(-41.7354) scale(10.3661 10.367)">
            <stop stopColor="white"/>
            <stop offset="0.64" stopColor="white"/>
            <stop offset="1" stopColor="white"/>
        </radialGradient>
    </defs>
</svg>
