<svg width="240" height="80" viewBox="0 0 240 80" fill="none" xmlns="http://www.w3.org/2000/svg">
<path d="M38.9333 41.0667C38.9333 41.8667 39.2 42.4 39.7333 42.9333C40 43.4667 40.5333 44 41.0667 44.2667C41.6 44.5333 42.4 44.8 42.9333 45.0667C43.7333 45.3333 44.2667 45.3333 45.0667 45.3333C46.4 45.3333 47.2 45.0667 48 44.8C48.8 44.5333 49.3333 44 49.8667 43.7333C50.4 43.2 50.9333 42.9333 51.4667 42.6667C52 42.4 52.5333 42.1333 53.0667 42.1333C53.8667 42.1333 54.6667 42.4 55.4667 42.9333C56 43.4667 56.5333 44 56.5333 44.8C56.5333 45.6 56 46.6667 55.2 47.2C54.4 48 53.3333 48.5333 52.2667 49.3333C51.2 49.8667 49.8667 50.4 48.5333 50.6667C47.2 50.9333 46.1333 51.2 45.0667 51.2C43.2 51.2 41.6 50.9333 40 50.4C38.4 49.8667 37.0667 49.0667 36 48C34.9333 46.9333 33.8667 45.8667 33.3333 44.5333C32.5333 43.2 32.2667 41.6 32.2667 40C32.2667 38.4 32.5333 36.8 33.3333 35.4667C33.8667 34.1333 34.9333 32.8 36 31.7333C37.0667 30.6667 38.6667 29.8667 40 29.3333C41.6 28.8 43.2 28.5333 45.0667 28.5333C46.6667 28.5333 48.2667 28.8 49.6 29.3333C50.9333 29.8667 52.2667 30.4 53.3333 31.4667C53.8667 31.7333 54.4 32.2667 54.9333 33.0667C55.4667 33.6 56 34.4 56.2667 34.9333C56.8 35.7333 57.0667 36.2667 57.3333 37.0667C57.6 37.8667 57.8667 38.4 57.8667 38.9333C57.8667 39.7333 57.6 40.2667 57.0667 40.8C56.5333 41.3333 55.4667 41.6 54.4 41.6L38.9333 41.0667ZM51.2 36.8C51.2 36.5333 50.9333 36.2667 50.6667 35.7333C50.4 35.4667 49.8667 34.9333 49.6 34.6667C49.0667 34.4 48.5333 34.1333 47.7333 33.8667C46.9333 33.6 46.4 33.6 45.6 33.6C44.8 33.6 44 33.6 43.4667 33.8667C42.6667 34.1333 42.1333 34.4 41.6 34.6667C41.0667 34.9333 40.5333 35.2 40.2667 35.7333C40 36 39.7333 36.5333 39.4667 36.8H51.2Z" fill="#5B6376"/>
<path d="M60.8 39.2C60.8 37.6 61.0667 36 61.8667 34.6667C62.6667 33.3333 63.4667 32 64.5333 30.9333C65.6 29.8667 66.9333 29.0667 68.5333 28.5333C70.1333 28 71.7333 27.7333 73.6 27.7333C74.6667 27.7333 75.7333 27.7333 77.0667 28C78.1333 28.2667 79.4667 28.5333 80.2667 29.0667C81.3333 29.6 82.1333 30.1333 82.6667 30.6667C83.2 31.2 83.7333 32 83.7333 32.8C83.7333 33.6 83.4667 34.4 82.6667 34.9333C81.8667 35.4667 81.3333 35.7333 80.2667 35.7333C79.7333 35.7333 79.2 35.7333 78.9333 35.4667C78.6667 35.2 78.1333 34.9333 77.6 34.6667C77.0667 34.4 76.5333 34.1333 76 33.8667C75.4667 33.6 74.6667 33.6 73.6 33.6C72.8 33.6 72 33.8667 71.2 34.1333C70.4 34.4 69.8667 34.9333 69.0667 35.4667C68.5333 36 68 36.5333 67.7333 37.3333C67.4667 38.1333 67.2 38.6667 67.2 39.4667C67.2 40.2667 67.4667 41.0667 67.7333 41.6C68 42.4 68.5333 42.9333 69.0667 43.4667C69.6 44 70.4 44.5333 71.2 44.8C72 45.0667 72.8 45.3333 73.6 45.3333C74.6667 45.3333 75.4667 45.0667 76 44.8C76.5333 44.5333 77.0667 44 77.6 43.7333C78.1333 43.2 78.6667 42.9333 78.9333 42.6667C79.4667 42.4 80 42.1333 80.8 42.1333C81.6 42.1333 82.4 42.4 83.2 42.9333C84 43.4667 84.2667 44 84.2667 44.5333C84.2667 45.3333 84 46.4 83.2 47.2C82.4 48 81.6 48.8 80.5333 49.3333C79.4667 49.8667 78.4 50.4 77.0667 50.6667C75.7333 50.9333 74.4 51.2 73.3333 51.2C71.4667 51.2 69.8667 50.9333 68.2667 50.4C66.6667 49.8667 65.3333 49.0667 64.2667 48C63.2 46.9333 62.1333 45.6 61.6 44.2667C61.0667 42.4 60.8 41.0667 60.8 39.2Z" fill="#5B6376"/>
<path d="M87.2 39.2C87.2 37.6 87.4667 36 88.2667 34.6667C89.0667 33.3333 89.8667 32 90.9333 30.9333C92 29.8667 93.3333 29.0667 94.9333 28.5333C96.5333 28 98.1333 27.7333 100 27.7333C101.867 27.7333 103.467 28 105.067 28.5333C106.667 29.0667 108 29.8667 109.067 30.9333C110.133 32 111.2 33.3333 112 34.6667C112.8 36 113.067 37.6 113.067 39.2C113.067 40.8 112.8 42.4 112 43.7333C111.2 45.0667 110.4 46.4 109.067 47.4667C108 48.5333 106.4 49.3333 105.067 49.8667C103.467 50.4 101.867 50.6667 100 50.6667C98.1333 50.6667 96.5333 50.4 94.9333 49.8667C93.3333 49.3333 92 48.5333 90.9333 47.4667C89.8667 46.4 88.8 45.0667 88.2667 43.7333C87.7333 42.4 87.2 41.0667 87.2 39.2ZM100.267 33.6C99.4667 33.6 98.6667 33.8667 97.8667 34.1333C97.0667 34.4 96.5333 34.9333 95.7333 35.4667C95.2 36 94.6667 36.5333 94.4 37.3333C94.1333 38.1333 93.8667 38.9333 93.8667 39.7333C93.8667 40.5333 94.1333 41.3333 94.4 41.8667C94.6667 42.6667 95.2 43.2 95.7333 43.7333C96.2667 44.2667 97.0667 44.8 97.8667 45.0667C98.6667 45.3333 99.4667 45.6 100.267 45.6C101.067 45.6 101.867 45.3333 102.667 45.0667C103.467 44.8 104.267 44.2667 104.8 43.7333C105.333 43.2 105.867 42.6667 106.133 41.8667C106.4 41.0667 106.667 40.5333 106.667 39.7333C106.667 38.9333 106.4 38.1333 106.133 37.3333C105.867 36.5333 105.333 36 104.8 35.4667C104.267 34.9333 103.467 34.4 102.667 34.1333C101.867 33.6 101.067 33.6 100.267 33.6Z" fill="#5B6376"/>
<path d="M129.067 17.3333C130.667 17.3333 132 17.6 133.6 18.1333C134.933 18.6666 136.267 19.4666 137.333 20.2666C138.4 21.3333 139.2 22.4 139.733 23.4666C140.267 24.8 140.533 26.1333 140.533 27.4666C140.533 28.8 140.267 30.1333 139.733 31.4666C139.2 32.8 138.4 33.8666 137.333 34.6666C136.267 35.7333 134.933 36.2666 133.6 36.8C132.267 37.3333 130.667 37.6 129.067 37.6H123.467V46.9333C123.467 49.0666 122.4 50.1333 120 50.1333C117.6 50.1333 116.533 49.0666 116.533 46.9333V21.0666C116.533 18.6666 117.867 17.3333 120.533 17.3333H129.067ZM123.467 31.7333H129.067C130.4 31.7333 131.467 31.4666 132.267 30.6666C133.067 29.8666 133.6 28.8 133.6 27.7333C133.6 26.6666 133.067 25.6 132.267 24.8C131.467 24 130.4 23.4666 129.067 23.4666H123.467V31.7333Z" fill="#5B6376"/>
<path d="M166.4 48.2666C166.4 49.0666 166.133 49.8666 165.333 50.3999C164.8 50.9333 164 51.1999 163.2 51.1999C161.6 51.1999 160.533 50.3999 160.267 48.7999C159.467 49.5999 158.4 50.3999 157.333 50.6666C156.267 50.9333 154.933 51.1999 153.867 51.1999C152 51.1999 150.4 50.9333 148.8 50.3999C147.2 49.8666 145.867 49.0666 144.8 47.9999C143.733 46.9333 142.667 45.5999 142.133 44.2666C141.6 42.9333 141.067 41.3333 141.067 39.7333C141.067 38.1333 141.333 36.5333 141.867 35.1999C142.4 33.8666 143.467 32.5333 144.533 31.4666C145.6 30.3999 146.933 29.5999 148.267 29.0666C149.6 28.5333 151.2 28.2666 153.067 28.2666C154.667 28.2666 155.733 28.5333 157.067 28.7999C158.133 29.0666 159.2 29.8666 160 30.6666C160.267 29.8666 160.8 29.3333 161.067 29.0666C161.6 28.7999 162.133 28.5333 162.933 28.5333C164 28.5333 164.8 28.7999 165.333 29.3333C165.867 29.8666 166.133 30.6666 166.133 31.4666V48.2666H166.4ZM153.867 33.5999C153.067 33.5999 152.267 33.8666 151.467 34.1333C150.667 34.3999 150.133 34.9333 149.6 35.4666C149.067 35.9999 148.533 36.5333 148.267 37.3333C148 38.1333 147.733 38.6666 147.733 39.4666C147.733 40.2666 148 41.0666 148.267 41.5999C148.533 42.3999 149.067 42.9333 149.6 43.4666C150.133 43.9999 150.667 44.5333 151.467 44.7999C152.267 45.0666 153.067 45.3333 153.867 45.3333C155.733 45.3333 157.067 44.7999 158.133 43.7333C159.2 42.6666 159.733 41.3333 159.733 39.7333C159.733 38.9333 159.467 38.1333 159.2 37.5999C158.933 36.7999 158.4 36.2666 157.867 35.7333C157.333 35.1999 156.8 34.6666 156 34.3999C155.467 33.5999 154.667 33.5999 153.867 33.5999Z" fill="#5B6376"/>
<path d="M181.333 40.8L186.667 30.1333C186.933 29.6 187.467 29.0667 188 28.8C188.533 28.5333 189.067 28.5333 189.6 28.5333C190.4 28.5333 191.2 28.8 191.733 29.3333C192.267 29.8667 192.8 30.6667 192.8 31.4667C192.8 31.7333 192.8 32.2667 192.533 32.5333L177.867 61.3333C177.6 61.8667 177.067 62.4 176.8 62.4C176.267 62.6667 175.733 62.6667 175.2 62.6667C174.4 62.6667 173.6 62.4 172.8 61.8667C172.267 61.3333 171.733 60.8 171.733 59.7333C171.733 59.4667 171.733 59.2 171.733 58.9333C171.733 58.6667 172 58.4 172 58.1333L177.333 46.9333L169.6 32.2667C169.333 31.7333 169.333 31.2 169.333 30.9333C169.333 30.1333 169.6 29.3333 170.4 28.8C171.2 28.2667 171.733 28 172.533 28C173.867 28 174.667 28.5333 175.2 29.6L181.333 40.8Z" fill="#5B6376"/>
<path d="M211.467 28.2666C212.533 28.2666 213.333 28.5333 213.867 29.3333C214.4 29.8666 214.667 30.6666 214.667 31.4666C214.667 31.7333 214.667 31.9999 214.4 32.2666C214.4 32.5333 214.133 32.7999 213.867 33.3333L205.067 45.0666H212.533C214.667 45.0666 216 46.1333 216 47.9999C216 49.8666 214.933 50.9333 212.533 50.9333H200C198.667 50.9333 197.867 50.6666 197.333 50.1333C196.8 49.5999 196.533 48.7999 196.533 47.9999C196.533 47.1999 196.8 46.6666 197.333 45.8666L205.6 34.6666H200C197.6 34.6666 196.533 33.5999 196.533 31.7333C196.533 29.8666 197.6 28.7999 200 28.7999H211.467V28.2666Z" fill="#5B6376"/>
<path d="M28.5333 39.7333C28.5333 29.3333 42.6667 21.0666 60.2667 21.0666C71.7333 21.0666 81.8667 24.8 87.2 30.1333C82.4 23.4666 70.6667 18.6666 57.0667 18.6666C38.6667 18.6666 24 26.9333 24 37.0666C24 41.3333 26.6667 45.3333 31.2 48.5333C29.6 45.3333 28.5333 43.4666 28.5333 39.7333Z" fill="#5B6376"/>
</svg>
