<svg width="241" height="96" viewBox="0 0 241 96" fill="none" xmlns="http://www.w3.org/2000/svg">
<path d="M67.4407 13.7821H90.6488L91.2216 21.6034H89.8486C89.3072 18.3888 89.2366 17.6927 88.0597 16.4492C86.8828 15.2056 84.5447 15.2838 82.6539 15.2838H76.7224C76.5245 15.27 76.326 15.2977 76.1395 15.365C75.953 15.4324 75.7827 15.5379 75.6397 15.6749C75.3693 16.0068 75.2372 16.4296 75.2709 16.8559V26.8201H77.8679C78.5073 26.8414 79.1433 26.7189 79.7287 26.4616C80.3142 26.2044 80.8339 25.819 81.2495 25.3341C82.1125 24.3434 82.5781 22.8183 82.646 20.7587H84.0583V34.7352H82.646C82.5781 32.4201 82.1047 30.7646 81.2259 29.7687C80.7785 29.2677 80.2242 28.8728 79.6038 28.6129C78.9834 28.3531 78.3125 28.2349 77.6404 28.2671H75.2866V39.4827C75.2748 39.6724 75.3086 39.8621 75.385 40.0362C75.4614 40.2103 75.5783 40.3637 75.726 40.4838C76.1618 40.7541 76.6742 40.8749 77.1853 40.8279H81.8928C86.977 40.8279 89.9113 39.1698 90.6881 32.6939H92.1631L91.606 42.3531H67.4407V40.7888H68.7196C69.3153 40.8458 69.9127 40.6997 70.4143 40.3743C70.5813 40.2214 70.7116 40.0331 70.7958 39.8233C70.88 39.6135 70.9159 39.3875 70.9008 39.162V16.8559C70.9223 16.642 70.8977 16.426 70.8287 16.2223C70.7597 16.0186 70.6478 15.832 70.5006 15.6749C70.1147 15.3828 69.634 15.2435 69.1511 15.2838H67.4407V13.7821Z" fill="#5B6376"/>
<path d="M90.1624 23.2302H100.637V24.6224C99.822 24.5758 99.0061 24.6901 98.2358 24.9587C98.0765 25.0348 97.9423 25.1548 97.8492 25.3044C97.756 25.4541 97.7078 25.6272 97.7101 25.8034C97.7121 26.1144 97.7817 26.4212 97.9141 26.7028L102.999 38.0279L107.628 27.0782C107.694 26.8951 107.728 26.702 107.73 26.5073C107.73 25.5166 106.749 24.8987 104.787 24.6536V23.2302H112.727V24.6224C112.04 24.6617 111.375 24.886 110.805 25.2715C110.326 25.6448 109.955 26.1389 109.73 26.7028L102.669 42.9319H101.571L94.0383 26.257C93.8375 25.7508 93.4908 25.3154 93.0419 25.0056C92.111 24.7405 91.146 24.614 90.1781 24.6302L90.1624 23.2302Z" fill="#5B6376"/>
<path d="M120.126 22.6592C121.345 22.6357 122.556 22.8719 123.676 23.3521C124.796 23.8323 125.801 24.5453 126.623 25.4436C128.431 27.45 129.375 30.0852 129.251 32.7799C129.306 34.6349 128.901 36.4749 128.074 38.1374C127.307 39.5946 126.143 40.8064 124.716 41.6335C123.295 42.4853 121.667 42.9317 120.008 42.924C118.821 42.9331 117.645 42.6862 116.561 42.2003C115.478 41.7143 114.513 41.0007 113.732 40.1084C111.957 38.097 111.029 35.48 111.143 32.8034C111.031 30.1331 111.955 27.5226 113.724 25.514C114.52 24.6045 115.505 23.8782 116.61 23.3853C117.716 22.8924 118.915 22.6447 120.126 22.6592ZM120.126 24.1061C119.374 24.106 118.634 24.296 117.975 24.6585C117.316 25.021 116.761 25.544 116.36 26.1788C115.377 27.5605 114.885 29.74 114.885 32.7173C114.885 35.6946 115.374 37.9132 116.352 39.3732C116.748 40.0164 117.303 40.5476 117.964 40.9159C118.625 41.2843 119.369 41.4775 120.126 41.4771C120.898 41.4837 121.659 41.294 122.338 40.9259C123.016 40.5577 123.589 40.0234 124.002 39.3732C124.991 37.9706 125.485 35.679 125.485 32.4983C125.485 29.5471 124.996 27.4119 124.018 26.0927C123.584 25.4681 123.001 24.9604 122.322 24.6151C121.643 24.2698 120.888 24.0976 120.126 24.114V24.1061Z" fill="#5B6376"/>
<path d="M135.622 13.4067V39.5374C135.611 39.6998 135.636 39.8625 135.696 40.014C135.756 40.1654 135.848 40.3018 135.967 40.4134C136.322 40.6901 136.764 40.834 137.214 40.8201H138.446V42.3844H129.188V40.8201H130.326C130.824 40.8542 131.316 40.6944 131.699 40.3743C131.859 40.2061 131.983 40.0068 132.063 39.7888C132.142 39.5708 132.176 39.3388 132.162 39.1073V17.4268C132.186 17.1541 132.149 16.8793 132.054 16.6224C131.959 16.3654 131.808 16.1327 131.612 15.9408C131.096 15.4997 130.433 15.2656 129.753 15.2838H128.035V13.7821L135.622 13.4067Z" fill="#5B6376"/>
<path d="M145.366 22.886V35.5643C145.282 36.8671 145.704 38.1522 146.543 39.1542C146.927 39.5721 147.397 39.9018 147.922 40.1205C148.446 40.3393 149.012 40.4419 149.58 40.4212C150.331 40.4295 151.074 40.2676 151.754 39.9479C152.433 39.6282 153.031 39.1589 153.502 38.5754C154.58 37.2807 155.139 35.6342 155.072 33.9531V26.7888C155.086 26.4967 155.029 26.2055 154.906 25.9399C154.783 25.6744 154.598 25.4424 154.366 25.2637C153.536 24.8122 152.595 24.6034 151.651 24.6615V23.2302L158.383 22.886V38.5833C158.363 38.8887 158.409 39.1948 158.515 39.4817C158.622 39.7686 158.788 40.0301 159.002 40.2492C159.477 40.6594 160.094 40.8672 160.721 40.8279H161.929V42.1967L155.48 42.3374L155.072 38.5833C154.096 39.7817 152.926 40.8099 151.612 41.6257C150.554 42.2762 149.339 42.6277 148.097 42.6425C147.291 42.6624 146.489 42.5188 145.741 42.2203C144.992 41.9218 144.312 41.4747 143.742 40.9062C142.555 39.7643 141.961 37.8246 141.961 35.0872V26.7888C141.981 26.459 141.913 26.1298 141.764 25.8346C141.615 25.5393 141.391 25.2884 141.114 25.1073C140.323 24.7564 139.459 24.6033 138.595 24.6615V23.2302L145.366 22.886Z" fill="#5B6376"/>
<path d="M165.813 15.4402H167.186V23.2615H178.86V25.1386H167.186V37.3788C167.133 38.2613 167.413 39.1317 167.97 39.819C168.208 40.0923 168.504 40.3098 168.837 40.4558C169.169 40.6019 169.529 40.6728 169.893 40.6637C170.359 40.6537 170.817 40.532 171.226 40.3088C171.636 40.0855 171.986 39.7673 172.246 39.381C172.9 38.5259 173.282 37.1102 173.392 35.1341H174.765C174.681 37.6786 174.101 39.5661 173.023 40.7967C172.506 41.3975 171.861 41.8752 171.134 42.1946C170.408 42.514 169.619 42.6671 168.826 42.6425C168.15 42.6819 167.474 42.5874 166.836 42.3646C166.197 42.1417 165.61 41.7949 165.107 41.3441C164.659 40.9023 164.308 40.3723 164.077 39.7878C163.846 39.2034 163.74 38.5774 163.765 37.9497V25.1073H160.43V23.6838C161.776 23.5062 163.004 22.8271 163.867 21.7832C165.07 20.2711 165.719 18.1568 165.813 15.4402Z" fill="#5B6376"/>
<path d="M174.741 23.2302L182.375 23.0034V39.4279C182.358 39.6025 182.378 39.7788 182.435 39.9448C182.492 40.1108 182.584 40.2626 182.705 40.3899C183.035 40.6673 183.458 40.8123 183.89 40.7966H185.27V42.3609H175.942V40.7966H177.205C177.443 40.8172 177.683 40.789 177.909 40.7137C178.136 40.6383 178.345 40.5175 178.523 40.3587C178.825 40.005 178.977 39.5476 178.947 39.0838V27.438C178.97 27.1212 178.924 26.8031 178.812 26.5059C178.699 26.2087 178.523 25.9396 178.295 25.7173C177.74 25.2926 177.048 25.0866 176.35 25.1385H174.78L174.741 23.2302ZM180.061 14.1888C180.364 14.1889 180.663 14.2506 180.941 14.3704C181.219 14.4901 181.469 14.6652 181.677 14.8849C181.899 15.0954 182.076 15.349 182.196 15.6302C182.316 15.9113 182.377 16.214 182.375 16.5196C182.374 16.8121 182.313 17.1013 182.197 17.37C182.081 17.6387 181.912 17.8815 181.701 18.0838C181.492 18.3 181.24 18.4713 180.962 18.587C180.684 18.7027 180.386 18.7603 180.084 18.7564C179.78 18.7601 179.478 18.7016 179.198 18.5846C178.917 18.4675 178.663 18.2944 178.452 18.076C178.239 17.874 178.069 17.6315 177.952 17.3628C177.835 17.0941 177.773 16.8047 177.77 16.5117C177.77 16.21 177.832 15.9115 177.953 15.6345C178.073 15.3575 178.248 15.1078 178.468 14.9006C178.671 14.6812 178.918 14.5055 179.191 14.3845C179.465 14.2634 179.761 14.1995 180.061 14.1966V14.1888Z" fill="#5B6376"/>
<path d="M194.905 22.6592C196.125 22.6357 197.335 22.8719 198.455 23.3521C199.575 23.8323 200.58 24.5453 201.402 25.4436C203.213 27.4488 204.16 30.0842 204.038 32.7799C204.092 34.6349 203.688 36.4749 202.861 38.1374C202.094 39.5943 200.93 40.806 199.503 41.6335C198.082 42.4849 196.453 42.9313 194.795 42.924C193.607 42.9336 192.431 42.687 191.348 42.201C190.265 41.715 189.299 41.0011 188.519 40.1084C186.743 38.0974 185.815 35.4801 185.93 32.8034C185.814 30.1352 186.732 27.525 188.495 25.514C189.292 24.6035 190.278 23.8766 191.385 23.3837C192.492 22.8907 193.693 22.6435 194.905 22.6592ZM194.905 24.1061C194.153 24.106 193.413 24.296 192.754 24.6585C192.096 25.021 191.54 25.544 191.139 26.1788C190.156 27.5605 189.664 29.74 189.664 32.7173C189.664 35.6946 190.153 37.9132 191.131 39.3732C191.527 40.0164 192.082 40.5476 192.743 40.9159C193.404 41.2843 194.148 41.4775 194.905 41.4771C195.679 41.485 196.441 41.296 197.121 40.9278C197.801 40.5596 198.375 40.0245 198.789 39.3732C199.778 37.9706 200.272 35.679 200.272 32.4983C200.272 29.5471 199.783 27.4119 198.805 26.0927C198.37 25.4669 197.786 24.9586 197.105 24.6132C196.425 24.2678 195.669 24.0963 194.905 24.114V24.1061Z" fill="#5B6376"/>
<path d="M203.638 23.2302L210.009 22.8391C210.294 24.2246 210.486 25.6278 210.581 27.0391C211.327 25.7658 212.371 24.6921 213.626 23.9106C214.814 23.2147 216.17 22.8551 217.549 22.8704C218.664 22.8436 219.766 23.1136 220.742 23.6525C221.655 24.2068 222.378 25.0252 222.813 25.9989C223.346 27.1284 223.615 28.3641 223.598 29.6123V38.9196C223.571 39.1849 223.599 39.453 223.68 39.7072C223.761 39.9614 223.893 40.1964 224.068 40.3978C224.519 40.7319 225.078 40.8879 225.638 40.8358H226.195V42.4H217.698V40.8358H217.862C218.52 40.8971 219.18 40.7463 219.745 40.4056C219.928 40.2464 220.072 40.0469 220.164 39.823C220.257 39.599 220.296 39.3567 220.279 39.1151V30.9263C220.383 29.5605 220.112 28.1924 219.494 26.9687C219.136 26.3784 218.623 25.8963 218.011 25.5739C217.398 25.2516 216.71 25.1011 216.019 25.1386C215.275 25.1291 214.54 25.2916 213.87 25.6132C213.2 25.9348 212.614 26.4068 212.158 26.9922C211.073 28.3677 210.516 30.0848 210.589 31.8335V38.9117C210.562 39.1777 210.591 39.4465 210.673 39.7009C210.755 39.9554 210.89 40.19 211.068 40.39C211.522 40.7175 212.078 40.8728 212.637 40.8279H213.178V42.3922H204.618V40.8279H205.152C205.691 40.8651 206.226 40.722 206.674 40.4212C206.837 40.3061 206.97 40.1536 207.061 39.9767C207.153 39.7998 207.2 39.6035 207.2 39.4045V27.0782C207.223 26.7401 207.176 26.4007 207.062 26.0816C206.947 25.7625 206.767 25.4707 206.533 25.2246C206.003 24.7718 205.315 24.5443 204.618 24.5911H203.638V23.2302Z" fill="#5B6376"/>
<path d="M100.315 48.6493L101.994 45.6302H103.367L104.152 57.6749H102.818C101.772 54.2128 100.566 51.7073 99.2009 50.1586C98.4637 49.2511 97.5357 48.516 96.4823 48.0051C95.4289 47.4943 94.2759 47.2203 93.1046 47.2023C91.4156 47.1858 89.7658 47.7093 88.3971 48.6961C86.9033 49.8294 85.7875 51.386 85.196 53.162C84.4585 55.1486 84.0819 57.1509 84.0819 60.7565C83.9658 63.2742 84.3443 65.7902 85.196 68.1632C85.7612 69.8892 86.8325 71.4067 88.2716 72.5196C89.6185 73.4615 91.2323 73.9492 92.8771 73.9117C93.8877 73.9753 94.9005 73.8303 95.8523 73.4858C96.804 73.1413 97.6742 72.6047 98.4085 71.9095C99.0634 71.2227 99.5738 70.4122 99.9093 69.5256C100.245 68.639 100.399 67.6944 100.362 66.7475V63.9085C100.372 63.7055 100.329 63.5034 100.239 63.3214C100.148 63.1395 100.012 62.9835 99.8442 62.8681C99.3226 62.581 98.7278 62.4531 98.1338 62.5005H95.5761V61.0694H107.377V62.5005H106.451C105.875 62.4496 105.298 62.5898 104.811 62.8994C104.647 63.0409 104.517 63.2182 104.433 63.4176C104.349 63.617 104.312 63.8332 104.325 64.0492V75.5699H102.983C102.491 73.7763 101.968 72.0555 101.414 70.4078C100.524 71.9425 99.2678 73.2346 97.7572 74.1698C96.3025 75.0198 94.6416 75.4554 92.9556 75.4291C90.4661 75.4379 88.0225 74.7613 85.8943 73.4738C83.6828 72.1524 81.8842 70.243 80.7003 67.9599C79.4264 65.7583 78.7832 63.2504 78.8408 60.7095C78.7903 58.152 79.4472 55.6301 80.7395 53.4202C81.9488 51.1085 83.7451 49.1532 85.9492 47.7497C87.926 46.4178 90.2483 45.687 92.6339 45.6459C93.889 45.6398 95.135 45.857 96.3136 46.2872C97.7589 46.8697 99.1078 47.6659 100.315 48.6493Z" fill="#5B6376"/>
<path d="M127.776 73.3486L128.098 73.9117C128.098 74.9911 126.795 74.8737 125.579 74.8737C124.653 74.8737 122.794 74.8268 122.15 74.3419C121.507 73.857 121.248 73.3017 120.769 72.0346C119.793 73.1533 118.62 74.0861 117.309 74.7877C116.194 75.2684 114.986 75.5006 113.771 75.4682C112.173 75.5789 110.586 75.1308 109.283 74.2011C108.787 73.8187 108.387 73.3262 108.114 72.7629C107.842 72.1995 107.705 71.5806 107.714 70.9553C107.714 68.9687 108.886 67.3184 111.229 66.0045C114.141 64.5272 117.316 63.6368 120.573 63.3844V60.4592C120.576 59.9527 120.465 59.4519 120.25 58.9932C120.034 58.5346 119.718 58.1297 119.326 57.8078C118.454 57.0632 117.335 56.6699 116.187 56.705C115.118 56.6764 114.059 56.93 113.12 57.4402C112.508 57.8104 112.202 58.1702 112.202 58.5196C112.275 58.8771 112.446 59.2074 112.696 59.4737C113.041 59.8854 113.25 60.3937 113.292 60.9285C113.303 61.2064 113.255 61.4834 113.153 61.7419C113.05 62.0005 112.895 62.2349 112.696 62.4302C112.488 62.6278 112.241 62.781 111.971 62.8805C111.701 62.98 111.414 63.0237 111.127 63.0089C110.81 63.0177 110.494 62.9611 110.2 62.8426C109.905 62.7242 109.639 62.5465 109.416 62.3207C109.189 62.0859 109.011 61.8075 108.893 61.5024C108.776 61.1973 108.722 60.8718 108.734 60.5453C108.734 59.1948 109.495 57.9642 111.017 56.8536C112.78 55.6674 114.879 55.0804 117.003 55.1799C119.279 55.1799 121.018 55.67 122.221 56.6503C122.782 57.0725 123.236 57.6185 123.549 58.2455C123.863 58.8725 124.026 59.5633 124.026 60.2637V70.705C123.991 71.3367 124.15 71.9639 124.481 72.5039C124.596 72.7007 124.752 72.8717 124.937 73.0062C125.121 73.1408 125.332 73.236 125.555 73.286C126.293 73.3607 127.035 73.3816 127.776 73.3486ZM120.644 64.7061C117.176 65.1858 114.72 65.968 113.277 67.0525C112.744 67.4565 112.318 67.984 112.037 68.5891C111.755 69.1943 111.626 69.8589 111.66 70.5251C111.606 71.4218 111.908 72.3038 112.5 72.981C112.781 73.275 113.121 73.5059 113.499 73.6583C113.876 73.8107 114.282 73.8811 114.689 73.8648C115.476 73.8698 116.256 73.7102 116.978 73.3963C117.699 73.0824 118.347 72.6212 118.879 72.0425C119.466 71.4349 119.925 70.7165 120.23 69.9294C120.534 69.1423 120.678 68.3024 120.652 67.4592L120.644 64.7061Z" fill="#5B6376"/>
<path d="M127.07 55.743L132.562 55.3989C132.847 56.7376 133.044 58.0936 133.15 59.4581C133.963 58.2057 135.032 57.1394 136.289 56.3296C137.327 55.7193 138.512 55.4029 139.717 55.4145C140.898 55.3684 142.057 55.7335 142.997 56.4469C143.984 57.3487 144.676 58.5262 144.982 59.8257C145.741 58.5114 146.78 57.3794 148.026 56.5095C149.108 55.7899 150.381 55.4087 151.682 55.4145C152.412 55.3627 153.145 55.4766 153.824 55.7475C154.503 56.0184 155.112 56.4394 155.605 56.9788C156.77 58.481 157.365 60.3454 157.284 62.2425V71.7062C157.257 71.9207 157.282 72.1386 157.357 72.3415C157.432 72.5443 157.555 72.7262 157.716 72.8715C158.212 73.2185 158.814 73.3842 159.418 73.3408H160.376V74.905H150.725V73.3408H151.69C152.292 73.3975 152.896 73.2546 153.408 72.9341C153.579 72.7803 153.712 72.5897 153.798 72.377C153.883 72.1642 153.919 71.9348 153.903 71.7062V62.2034C153.986 61.0174 153.622 59.8432 152.883 58.9106C152.541 58.5272 152.118 58.2239 151.644 58.0224C151.171 57.8209 150.659 57.7263 150.144 57.7453C149.309 57.7307 148.489 57.9679 147.791 58.4257C147.072 58.9103 146.506 59.5884 146.159 60.381C145.643 61.3346 145.343 62.389 145.28 63.4704V71.7062C145.26 71.9321 145.29 72.1597 145.367 72.3731C145.444 72.5865 145.567 72.7806 145.727 72.9419C146.129 73.2399 146.625 73.3817 147.124 73.3408H148.434V74.905H138.642V73.3408H139.749C140.303 73.3844 140.855 73.2411 141.318 72.9341C141.48 72.8135 141.612 72.6565 141.702 72.4757C141.792 72.295 141.838 72.0956 141.836 71.8939V63.0559C141.836 61.1892 141.504 59.8361 140.839 58.9967C140.527 58.5877 140.122 58.2593 139.656 58.0388C139.191 57.8183 138.679 57.7123 138.164 57.7296C137.531 57.697 136.899 57.8147 136.321 58.0731C135.743 58.3314 135.234 58.723 134.837 59.2157C133.736 60.5939 133.151 62.3111 133.182 64.0726V71.7062C133.156 71.9233 133.177 72.1434 133.245 72.3514C133.313 72.5594 133.425 72.7502 133.574 72.9106C134.085 73.2366 134.688 73.3876 135.292 73.3408H136.273V74.905H126.583V73.3408H128.035C128.493 73.3726 128.945 73.2269 129.298 72.9341C129.442 72.8021 129.555 72.641 129.631 72.4615C129.707 72.2821 129.743 72.0885 129.737 71.8939V59.3799C129.762 59.0966 129.727 58.8113 129.635 58.542C129.543 58.2728 129.396 58.0255 129.204 57.8157C128.578 57.3806 127.832 57.1509 127.07 57.1587V55.743Z" fill="#5B6376"/>
<path d="M160.783 55.743L167.625 55.5162V71.9408C167.607 72.1153 167.628 72.2916 167.685 72.4576C167.741 72.6236 167.834 72.7755 167.955 72.9028C168.288 73.1807 168.713 73.3256 169.147 73.3095H171.321V74.8737H159.607V73.3095H162.423C162.661 73.3306 162.901 73.3025 163.128 73.2272C163.355 73.1518 163.564 73.0308 163.741 72.8715C164.043 72.5175 164.192 72.0595 164.157 71.5966V59.5832C164.181 59.2652 164.136 58.9458 164.023 58.6472C163.911 58.3487 163.734 58.0782 163.506 57.8547C162.951 57.4294 162.258 57.2233 161.56 57.276H160.776L160.783 55.743ZM165.311 46.7017C165.613 46.7013 165.913 46.7628 166.191 46.8826C166.469 47.0023 166.72 47.1776 166.927 47.3978C167.149 47.6082 167.326 47.8619 167.446 48.143C167.566 48.4242 167.627 48.7268 167.625 49.0324C167.624 49.3249 167.563 49.6141 167.447 49.8828C167.331 50.1516 167.162 50.3943 166.95 50.5966C166.683 50.8587 166.356 51.0516 165.997 51.1583C165.638 51.2649 165.258 51.2822 164.891 51.2086C164.524 51.1349 164.18 50.9726 163.89 50.7358C163.6 50.499 163.373 50.195 163.229 49.8504C163.084 49.5058 163.027 49.1311 163.061 48.7592C163.096 48.3873 163.221 48.0295 163.427 47.7172C163.632 47.4049 163.911 47.1476 164.24 46.9678C164.568 46.788 164.936 46.6913 165.311 46.686V46.7017Z" fill="#5B6376"/>
<path d="M170.756 55.743L177.126 55.3521C177.412 56.7377 177.603 58.1407 177.699 59.552C178.445 58.2786 179.489 57.205 180.743 56.4235C181.943 55.7211 183.314 55.3613 184.706 55.3833C185.821 55.3565 186.923 55.6265 187.899 56.1655C188.813 56.7186 189.536 57.5372 189.97 58.5117C190.502 59.6415 190.771 60.877 190.755 62.1251V71.4325C190.728 71.6979 190.756 71.9659 190.837 72.2201C190.918 72.4743 191.05 72.7093 191.225 72.9106C191.676 73.2447 192.235 73.4008 192.795 73.3487H193.352V74.913H184.815V73.3487H184.98C185.638 73.4101 186.298 73.2593 186.863 72.9185C187.043 72.7633 187.186 72.5692 187.28 72.3511C187.373 72.1329 187.416 71.8964 187.405 71.6593V63.4391C187.508 62.0709 187.237 60.7003 186.62 59.4738C186.261 58.8814 185.747 58.3974 185.134 58.0737C184.52 57.7499 183.83 57.5985 183.136 57.6358C182.393 57.6269 181.658 57.7896 180.988 58.1112C180.318 58.4328 179.733 58.9045 179.276 59.4894C178.191 60.8652 177.635 62.5822 177.707 64.3308V71.4089C177.68 71.6749 177.708 71.9437 177.791 72.1981C177.873 72.4526 178.008 72.6872 178.186 72.8872C178.64 73.2147 179.196 73.3701 179.755 73.3252H180.296V74.8894H170.928V73.3252H172.262C172.801 73.3618 173.336 73.2187 173.784 72.9185C173.948 72.8026 174.081 72.6488 174.173 72.4704C174.264 72.292 174.311 72.0942 174.31 71.8939V59.5598C174.334 59.2216 174.287 58.8822 174.172 58.563C174.057 58.2439 173.877 57.952 173.643 57.7062C173.113 57.2527 172.425 57.0251 171.728 57.0727H170.748L170.756 55.743Z" fill="#5B6376"/>
<path d="M207.874 56.7989C209.24 55.4223 213.053 53.4123 214.269 53.3654C214.614 53.3183 214.966 53.3419 215.301 53.4347C215.637 53.5275 215.951 53.6875 216.223 53.905C216.67 54.343 215.862 55.3207 215.862 55.9464C215.878 56.4065 215.715 56.8552 215.407 57.1978C215.275 57.3539 215.11 57.4796 214.924 57.566C214.739 57.6524 214.537 57.6976 214.332 57.6983C213.552 57.6983 213.029 57.2212 212.762 56.267C212.653 55.8603 212.467 55.657 212.205 55.657C210.969 56.0903 209.827 56.7538 208.84 57.6123C209.334 58.2514 209.74 58.9538 210.048 59.7005C210.27 60.3123 210.381 60.9584 210.377 61.6089C210.397 62.7127 210.097 63.7987 209.514 64.7374C208.788 65.7702 207.804 66.5953 206.658 67.1307C205.488 67.7818 204.177 68.1388 202.837 68.1709H200.609C199.539 68.0823 198.462 68.2513 197.471 68.6637C197.22 68.8218 197.015 69.0432 196.877 69.3055C196.739 69.5678 196.674 69.8617 196.686 70.1575C196.676 70.3996 196.729 70.6403 196.84 70.8556C196.952 71.071 197.118 71.2536 197.322 71.3855C198.068 71.7353 198.893 71.8836 199.715 71.8156L204.768 71.714C207.32 71.714 209.151 72.1389 210.26 72.9888C210.806 73.3902 211.245 73.9186 211.539 74.528C211.833 75.1374 211.973 75.8092 211.946 76.4849C211.956 77.2716 211.788 78.0503 211.455 78.7637C211.123 79.477 210.634 80.1069 210.024 80.6067C208.235 82.1709 205.565 82.9531 202.014 82.9531C199.079 82.9531 196.903 82.416 195.486 81.3419C194.998 81.0382 194.59 80.6215 194.298 80.1273C194.005 79.633 193.837 79.0758 193.807 78.5028C193.829 78.0876 193.938 77.6817 194.127 77.3112C194.316 76.9407 194.581 76.6139 194.905 76.3519C195.954 75.5397 197.204 75.0261 198.522 74.8659C197.4 74.6498 196.35 74.1549 195.47 73.4268C195.144 73.1294 194.884 72.7666 194.709 72.3623C194.533 71.9579 194.445 71.5211 194.45 71.0804C194.425 70.2445 194.71 69.4287 195.25 68.7888C196.048 67.9927 197.041 67.4184 198.13 67.1229C197.074 66.5712 196.173 65.7645 195.509 64.7765C194.914 63.8428 194.608 62.7544 194.631 61.648C194.626 60.7658 194.82 59.8937 195.199 59.0964C195.578 58.299 196.132 57.5967 196.82 57.0413C198.421 55.7414 200.445 55.0734 202.508 55.1642C203.444 55.1609 204.375 55.298 205.27 55.5709C206.194 55.8493 207.072 56.2631 207.874 56.7989ZM203.7 74.8581C201.19 74.8581 199.398 75.2048 198.326 75.8983C197.861 76.14 197.468 76.499 197.186 76.9395C196.903 77.3801 196.742 77.8868 196.718 78.4089C196.709 78.8465 196.816 79.2786 197.028 79.6618C197.24 80.0449 197.55 80.3655 197.926 80.5911C199.304 81.3793 200.883 81.749 202.469 81.6547C204.817 81.6547 206.585 81.2663 207.772 80.4894C208.96 79.7125 209.556 78.8547 209.561 77.9162C209.557 77.3472 209.361 76.7962 209.004 76.3519C208.545 75.8107 207.928 75.4253 207.239 75.2492C206.083 74.9598 204.891 74.836 203.7 74.8816V74.8581ZM202.492 56.4469C201.922 56.4331 201.356 56.5459 200.835 56.7772C200.314 57.0085 199.851 57.3526 199.479 57.7843C198.633 58.8441 198.211 60.1788 198.295 61.5307C198.206 62.9579 198.625 64.3706 199.479 65.5195C199.848 65.9601 200.309 66.3152 200.83 66.5601C201.351 66.805 201.919 66.9338 202.495 66.9375C203.071 66.9412 203.64 66.8198 204.164 66.5816C204.688 66.3435 205.154 65.9944 205.529 65.5586C206.374 64.4354 206.791 63.0494 206.705 61.648C206.781 60.2851 206.354 58.9417 205.505 57.8704C205.141 57.4259 204.681 57.0691 204.159 56.8267C203.638 56.5842 203.068 56.4625 202.492 56.4704V56.4469Z" fill="#5B6376"/>
<path d="M214.999 53.5061C215.616 53.5164 216.205 53.7681 216.638 54.207C217.071 54.646 217.313 55.2369 217.313 55.8525C217.312 56.1451 217.252 56.4344 217.136 56.7032C217.02 56.972 216.851 57.2147 216.638 57.4167C216.371 57.6791 216.044 57.8721 215.684 57.9787C215.325 58.0853 214.944 58.1024 214.577 58.0284C214.209 57.9544 213.866 57.7915 213.576 57.5541C213.286 57.3168 213.059 57.0121 212.915 56.667C212.771 56.3218 212.714 55.9467 212.75 55.5745C212.785 55.2024 212.912 54.8445 213.118 54.5325C213.324 54.2204 213.605 53.9636 213.934 53.7847C214.263 53.6057 214.631 53.5101 215.006 53.5061H214.999Z" fill="#5B6376"/>
<path d="M55.0442 71.7844H54.5421H54.2832V70.5408H54.6284C54.8931 70.5129 55.1607 70.5423 55.413 70.6268C55.5136 70.6756 55.5978 70.7527 55.6549 70.8486C55.7121 70.9445 55.7398 71.055 55.7347 71.1665C55.7355 71.2564 55.7169 71.3455 55.6801 71.4276C55.6433 71.5097 55.5892 71.583 55.5215 71.6424C55.4537 71.7017 55.3739 71.7459 55.2875 71.7717C55.2011 71.7976 55.1101 71.8046 55.0207 71.7922L55.0442 71.7844ZM56.5036 71.1821C56.5116 70.9914 56.4746 70.8015 56.3955 70.6276C56.3165 70.4537 56.1976 70.3008 56.0485 70.181C55.6804 69.9332 55.2331 69.8301 54.7932 69.8916H53.53V73.9274H54.3146V72.4413H54.9893L55.7739 73.943H56.637L55.7347 72.3006C55.9703 72.2281 56.1752 72.0798 56.3172 71.8788C56.4591 71.6778 56.5302 71.4355 56.5193 71.19L56.5036 71.1821ZM54.9501 75.1006C54.3294 75.1006 53.7226 74.9171 53.2065 74.5733C52.6904 74.2296 52.2882 73.741 52.0506 73.1693C51.8131 72.5976 51.751 71.9686 51.872 71.3617C51.9931 70.7549 52.292 70.1974 52.7309 69.7599C53.1699 69.3224 53.7291 69.0244 54.3378 68.9037C54.9466 68.783 55.5776 68.8449 56.1511 69.0817C56.7246 69.3185 57.2147 69.7195 57.5595 70.234C57.9044 70.7485 58.0884 71.3533 58.0884 71.9721C58.0884 72.8018 57.7578 73.5975 57.1692 74.1843C56.5807 74.771 55.7824 75.1006 54.9501 75.1006ZM54.9501 68.0615C54.1742 68.0615 53.4158 68.2908 52.7706 68.7205C52.1255 69.1502 51.6227 69.761 51.3258 70.4755C51.0289 71.1901 50.9512 71.9764 51.1025 72.735C51.2539 73.4936 51.6275 74.1904 52.1762 74.7373C52.7248 75.2842 53.4238 75.6567 54.1848 75.8075C54.9457 75.9584 55.7345 75.881 56.4513 75.585C57.1682 75.289 57.7808 74.7878 58.2119 74.1447C58.643 73.5016 58.873 72.7455 58.873 71.9721C58.873 70.9349 58.4597 69.9402 57.724 69.2069C56.9883 68.4735 55.9905 68.0615 54.9501 68.0615Z" fill="#5B6376"/>
<path d="M13.2956 16.7542C32.1258 6.71172 56.5264 17.3017 58.3624 42.8693C23.3698 45.6067 19.1565 29.9017 13.2956 16.7542Z" fill="#5B6376"/>
<path d="M13.2956 71.5732C32.1258 81.6156 56.5264 71.0257 58.3624 45.4581C23.3698 42.7207 19.1565 58.4179 13.2956 71.5732Z" fill="#5B6376"/>
<path d="M51.8274 24.7319C42.9537 12.9609 26.6892 9.61341 13.2257 16.7777C18.4746 28.5564 22.4054 42.3765 48.3046 43.1665C50.7869 38.7035 52.0858 33.683 52.0785 28.5799C52.0766 27.2932 51.9927 26.0079 51.8274 24.7319ZM19.573 58.6212C20.3576 58.676 21.0794 58.7151 21.8483 58.7151C26.8334 58.7174 31.7416 57.4894 36.1348 55.1407C40.528 52.792 44.2696 49.3956 47.0258 45.2548C31.4595 46.0134 24.1393 51.6525 19.573 58.6212Z" fill="#5B6376"/>
</svg>
