<svg width="60" height="60" viewBox="0 0 60 60" fill="none" xmlns="http://www.w3.org/2000/svg">
<g clip-path="url(#clip0)">
<path d="M53.73 22.5414C54.9543 22.5414 56.0006 21.495 56.0006 20.2707C56.0006 19.0463 54.9543 18 53.73 18C52.4833 18 51.437 19.0463 51.437 20.2707C51.437 21.495 52.4833 22.5414 53.73 22.5414Z" fill="#EE264B"/>
<path d="M3.06035 33.6672H12.9195V30.4348H6.4949V28.1517H12.2933V25.0204H6.4949V22.6564H12.9195V19.5248H3.06035V33.6672ZM14.1314 33.6672H23.3444V30.8792H18.5966L23.2433 26.3535V23.6869H14.2125V26.4143H18.7784L14.1314 30.9398V33.6672ZM28.4554 33.9906C29.688 33.9906 30.5365 33.526 31.1428 32.94V33.6672H34.4357V23.6869H31.1022V30.0709C30.7183 30.6166 30.1729 30.96 29.5466 30.96C28.7383 30.96 28.1929 30.4145 28.1929 29.5458V23.6869H24.8595V30.374C24.8595 32.6974 26.5968 33.9906 28.4554 33.9906ZM41.0019 38.0311C44.5375 38.0311 46.1941 36.2938 46.1941 33.3439V23.6869H42.8606V24.2526C42.2543 23.6869 41.3655 23.3635 40.3753 23.3635C37.6481 23.3635 35.85 25.404 35.85 28.2528C35.85 31.1418 37.6481 33.2228 40.3753 33.2228C41.3655 33.2228 42.2543 32.8187 42.8606 32.3338V33.3439C42.8606 34.4351 42.2341 35.0008 40.7998 35.0008C39.6481 35.0008 38.0926 34.5561 36.7591 33.6267V36.8595C37.6077 37.4048 39.3048 38.0311 41.0019 38.0311V38.0311ZM41.0421 30.2933C39.8907 30.2933 39.2845 29.3639 39.2845 28.2528C39.2845 27.1819 39.8907 26.2931 41.0421 26.2931C41.6886 26.2931 42.3555 26.5556 42.8606 27.0811V29.4852C42.3555 30.0104 41.6886 30.2933 41.0421 30.2933V30.2933ZM47.9112 33.6672H51.2447V23.6869H47.9112V33.6672Z" fill="white"/>
<path d="M37.5994 31.4872V31.4712H36.7821V31.4391H36.766V31.4071H36.75V31.391H36.734V31.359H36.7179V31.343H36.7019V31.3109H36.6859V31.2949H36.6699V31.2628H36.6538V31.2468H36.6378V31.2147H36.6218V31.1987H36.6058V31.1667H36.5897V31.1506H36.5737V31.1186H36.5577V31.0865H36.5417V31.0545H36.5256V31.0385H36.5096V31.0064H36.4936V30.9744H36.4776V30.9423H36.4615V30.9103H36.4455V30.8782H36.4295V30.8462H36.4135V30.8141H36.3974V30.7821H36.3814V30.75H36.3654V30.718H36.3494V30.6859H36.3333V30.6538H36.3173V30.6058H36.3013V30.5737H36.2853V30.5256H36.2692V30.4936H36.2532V30.4455H36.2372V30.4135H36.2212V30.3814H36.2051V30.3333H36.1891V30.3013H36.1731V30.2532H36.1571V30.2051H36.141V30.141H36.125V30.093H36.109V30.0449H36.0929V29.9808H36.0769V29.9327H36.0609V29.8846H36.0449V29.8365H36.0288V29.7724H36.0128V29.6923H35.9968V29.6122H35.9808V29.5321H35.9647V29.4519H35.9487V29.3878H35.9327V29.3077H35.9167V29.1635H35.9006V29.0353H35.8846V28.9071H35.8686V28.7468H35.8526V28.4423H35.8365V28.0577H35.8526V27.7692H35.8686V27.609H35.8846V27.4808H35.9006V27.3526H35.9167V27.2083H35.9327V27.1442H35.9487V27.0641H35.9647V26.984H35.9808V26.9199H35.9968V26.8397H36.0128V26.7596H36.0288V26.6955H36.0449V26.6474H36.0609V26.5994H36.0769V26.5353H36.0929V26.4872H36.109V26.4391H36.125V26.391H36.141V26.3269H36.1571V26.2788H36.1731V26.2468H36.1891V26.1987H36.2051V26.1667H36.2212V26.1186H36.2372V26.0865H36.2532V26.0385H36.2692V26.0064H36.2853V25.9744H36.3013V25.9263H36.3173V25.8942H36.3333V25.8462H36.3494V25.8141H36.3654V25.7821H36.3814V25.766H36.3974V25.734H36.4135V25.7019H36.4295V25.6699H36.4455V25.6378H36.4615V25.6058H36.4776V25.5737H36.4936V25.5417H36.5096V25.5096H36.5256V25.4936H36.5417V25.4615H36.5577V25.4295H36.5737V25.3974H36.5897V25.3814H36.6058V25.3494H36.6218V25.3333H36.6378V25.3013H36.6538V25.2853H36.6699V25.2532H36.6859V25.2372H36.7019V25.2051H36.7179V25.1891H36.734V25.1571H36.75V25.141H36.766V25.109H36.7821V25.093H36.7981V25.0609H36.8141V25.0449H36.8301V25.0288H36.8462V25.0128H36.8622V24.9968H36.8782V24.9647H36.8942V24.9487H36.9103V24.9327H36.9263V24.9167H36.9423V24.8846H36.9583V24.8686H36.9744V24.8526H36.9904V24.8365H37.0064V24.8205H37.0224V24.7885H37.0385V24.7724H37.0545V24.7564H37.0705V24.7404H37.0865V24.7244H37.1026V24.7083H37.1186V24.6923H37.1346V24.6763H37.1506V24.6603H37.1667V24.6442H37.1827V24.6282H37.1987V24.6122H37.2147V24.5962H37.2308V24.5801H37.2468V24.5641H37.2628V24.5481H37.2788V24.5321H37.2949V24.516H37.3109V24.5H37.3269V24.484H37.3429V24.468H37.359V24.4519H37.375V24.4359H37.391V24.4199H37.4071V24.4038H37.4231V24.3878H37.4551V24.3718H37.4712V24.3558H37.4872V24.3397H37.5032V24.3237H37.5353V24.3077H37.5513V24.2917H37.5673V24.2756H37.5833V24.2596H37.6154V24.2436H37.6314V24.2276H37.6474V24.2115H37.6635V24.1955H37.6955V24.1795H37.7115V24.1635H37.7276V24.1474H37.7596V24.1314H37.7756V24.1154H37.8077V24.0994H37.8237V24.0833H37.8558V24.0673H37.8878V24.0513H37.9038V24.0353H37.9359V24.0192H37.9519V24.0032H37.984V23.9872H38.016V23.9712H38.0321V23.9551H38.0641V23.9391H38.0801V23.9231H38.1122V23.9071H38.1442V23.891H38.1763V23.875H38.2083V23.859H38.2404V23.843H38.2724V23.8269H38.3045V23.8109H38.3365V23.7949H38.3686V23.7788H38.4006V23.7628H38.4327V23.7468H38.4647V23.7308H38.4968V23.7147H38.5449V23.6987H38.5929V23.6827H38.625V23.6667H38.6731V23.6506H38.7212V23.6346H38.7692V23.6186H38.8013V23.6026H38.8494V23.5865H38.8974V23.5705H38.9295V23.5545H38.9936V23.5385H39.0577V23.5224H39.1218V23.5064H39.1859V23.4904H39.25V23.4744H39.3141V23.4583H39.3782V23.4423H39.4904V23.4263H39.6026V23.4103H39.7147V23.3942H39.8109V23.3782H40.0032V23.3622H40.7404V23.3782H40.8686V23.3942H40.9968V23.4103H41.125V23.4263H41.1891V23.4423H41.2692V23.4583H41.3494V23.4744H41.4135V23.4904H41.4776V23.5064H41.5256V23.5224H41.5897V23.5385H41.6378V23.5545H41.6859V23.5705H41.734V23.5865H41.7821V23.6026H41.8301V23.6186H41.8622V23.6346H41.9103V23.6506H41.9423V23.6667H41.9744V23.6827H42.0224V23.6987H42.0545V23.7147H42.0865V23.7308H42.1186V23.7468H42.1506V23.7628H42.1827V23.7788H42.2147V23.7949H42.2468V23.8109H42.2788V23.8269H42.3109V23.843H42.3269V23.859H42.359V23.875H42.391V23.891H42.4071V23.9071H42.4391V23.9231H42.4551V23.9391H42.4872V23.9551H42.5032V23.9712H42.5353V23.9872H42.5513V24.0032H42.5833V24.0192H42.5994V24.0353H42.6314V24.0513H42.6474V24.0673H42.6635V24.0833H42.6795V24.0994H42.7115V24.1154H42.7276V24.1314H42.7436V24.1474H42.7596V24.1635H42.7917V24.1795H42.8077V24.1955H42.8237V24.2115H42.8397V24.2276H42.8558V23.6827H46.2051V30.9583H46.1731V30.9744H46.0609V30.9904H45.9487V31.0064H45.8045V31.0224H45.6763V31.0385H45.5321V31.0545H45.4038V31.0705H45.2756V31.0865H45.1314V31.1026H45.0032V31.1186H44.859V31.1346H44.7308V31.1506H44.6026V31.1667H44.4583V31.1827H44.2821V31.1987H44.1058V31.2147H43.9295V31.2308H43.7372V31.2468H43.5609V31.2628H43.3846V31.2788H43.1923V31.2949H43.016V31.3109H42.8397V31.3269H42.5833V31.343H42.2949V31.359H42.0224V31.375H41.75V31.391H41.4776V31.4071H41.2051V31.4231H40.7885V31.4391H40.3237V31.4551H39.859V31.4712H38.0641V31.4872H37.5994ZM34.3622 31.4071V31.391H34.0737V31.375H33.7853V31.359H33.4968V31.343H33.2244V31.3269H32.9359V31.3109H32.6795V31.2949H32.4872V31.2788H32.2788V31.2628H32.0705V31.2468H31.8622V31.2308H31.6538V31.2147H31.4615V31.1987H31.2532V31.1827H31.0929V31.1667H30.9327V31.1506H30.7724V31.1346H30.6122V31.1186H30.4519V31.1026H30.2917V31.0865H30.1474V31.0705H29.9872V31.0545H29.8269V31.0385H29.6827V31.0224H29.5545V31.0064H29.4263V30.9904H29.2981V30.9744H29.1699V30.9583H29.0417V30.9423H28.9135V30.9263H28.7853V30.9103H28.6571V30.8942H28.5288V30.8782H28.3846V30.8622H28.2724V30.8462H28.1763V30.8301H28.0641V30.8141H27.9519V30.7981H27.8397V30.7821H27.7436V30.766H27.6314V30.75H27.5192V30.734H27.4071V30.718H27.3109V30.7019H27.1987V30.6859H27.0865V30.6699H26.9744V30.6538H26.8942V30.6378H26.7981V30.6218H26.7019V30.6058H26.6058V30.5897H26.5096V30.5737H26.4295V30.5577H26.3333V30.5417H26.2372V30.5256H26.141V30.5096H26.0609V30.4936H25.9647V30.4776H25.8686V30.4615H25.7724V30.4455H25.6763V30.4295H25.5962V30.4135H25.516V30.3974H25.4359V30.3814H25.3558V30.3654H25.2756V30.3494H25.1955V30.3333H25.1154V30.3173H25.0353V30.3013H24.9551V30.2853H24.875V30.2692H24.859V23.6827H28.2083V29.7564H28.2244V29.8686H28.2404V29.9327H28.2564V29.9968H28.2724V30.0609H28.2885V30.109H28.3045V30.1571H28.3205V30.1891H28.3365V30.2212H28.3526V30.2532H28.3686V30.2853H28.3846V30.3173H28.4006V30.3494H28.4167V30.3814H28.4327V30.3974H28.4487V30.4135H28.4647V30.4455H28.4808V30.4615H28.4968V30.4776H28.5128V30.4936H28.5288V30.5256H28.5449V30.5417H28.5609V30.5577H28.5769V30.5737H28.5929V30.5897H28.609V30.6058H28.625V30.6218H28.641V30.6378H28.6731V30.6538H28.6891V30.6699H28.7051V30.6859H28.7212V30.7019H28.7372V30.718H28.7692V30.734H28.7853V30.75H28.8173V30.766H28.8494V30.7821H28.8814V30.7981H28.9135V30.8141H28.9455V30.8301H28.9776V30.8462H29.0096V30.8622H29.0577V30.8782H29.1218V30.8942H29.1699V30.9103H29.234V30.9263H29.3301V30.9423H29.4744V30.9583H29.6186V30.9423H29.7788V30.9263H29.859V30.9103H29.9391V30.8942H30.0032V30.8782H30.0513V30.8622H30.0994V30.8462H30.1314V30.8301H30.1795V30.8141H30.2276V30.7981H30.2596V30.7821H30.2917V30.766H30.3237V30.75H30.3558V30.734H30.3878V30.718H30.4038V30.7019H30.4359V30.6859H30.4519V30.6699H30.484V30.6538H30.5V30.6378H30.5321V30.6218H30.5481V30.6058H30.5801V30.5897H30.5962V30.5737H30.6122V30.5577H30.6442V30.5417H30.6603V30.5256H30.6763V30.5096H30.6923V30.4936H30.7083V30.4776H30.7404V30.4615H30.7564V30.4455H30.7724V30.4295H30.7885V30.4135H30.8045V30.3974H30.8205V30.3814H30.8365V30.3654H30.8526V30.3494H30.8686V30.3333H30.8846V30.3173H30.9006V30.3013H30.9167V30.2692H30.9327V30.2532H30.9487V30.2372H30.9647V30.2212H30.9808V30.2051H30.9968V30.1731H31.0128V30.1571H31.0288V30.141H31.0449V30.125H31.0609V30.093H31.0769V30.0769H31.0929V23.6827H34.4423V31.4071H34.3622ZM47.9038 30.6859V23.6827H51.2532V29.9808H51.2051V29.9968H51.141V30.0128H51.0769V30.0288H51.0128V30.0449H50.9487V30.0609H50.8846V30.0769H50.8205V30.093H50.7564V30.109H50.6923V30.125H50.6282V30.141H50.5641V30.1571H50.516V30.1731H50.4359V30.1891H50.3718V30.2051H50.2917V30.2212H50.2276V30.2372H50.1474V30.2532H50.0673V30.2692H50.0032V30.2853H49.9231V30.3013H49.859V30.3173H49.7788V30.3333H49.6987V30.3494H49.6346V30.3654H49.5545V30.3814H49.4744V30.3974H49.4103V30.4135H49.3301V30.4295H49.266V30.4455H49.1859V30.4615H49.1058V30.4776H49.0417V30.4936H48.9615V30.5096H48.8654V30.5256H48.7853V30.5417H48.6891V30.5577H48.609V30.5737H48.5128V30.5897H48.4327V30.6058H48.3365V30.6218H48.2564V30.6378H48.1603V30.6538H48.0801V30.6699H47.984V30.6859H47.9038ZM40.8846 30.2692V30.2853H41.2051V30.2692H41.3494V30.2532H41.4455V30.2372H41.5417V30.2212H41.5897V30.2051H41.6538V30.1891H41.7179V30.1731H41.766V30.1571H41.8141V30.141H41.8462V30.125H41.8942V30.109H41.9423V30.093H41.9744V30.0769H42.0224V30.0609H42.0545V30.0449H42.0865V30.0288H42.1186V30.0128H42.1506V29.9968H42.1827V29.9808H42.2147V29.9647H42.2308V29.9487H42.2628V29.9327H42.2949V29.9167H42.3109V29.9006H42.3429V29.8846H42.359V29.8686H42.391V29.8526H42.4231V29.8365H42.4391V29.8205H42.4551V29.8045H42.4872V29.7885H42.5032V29.7724H42.5192V29.7564H42.5513V29.7404H42.5673V29.7244H42.5833V29.7083H42.6154V29.6923H42.6314V29.6763H42.6474V29.6603H42.6635V29.6442H42.6795V29.6282H42.6955V29.6122H42.7276V29.5962H42.7436V29.5801H42.7596V29.5641H42.7756V29.5481H42.7917V29.5321H42.8077V29.516H42.8237V29.5H42.8397V29.484H42.8558V27.0801H42.8397V27.0641H42.8237V27.0481H42.8077V27.0321H42.7917V27.016H42.7756V27H42.7596V26.984H42.7276V26.968H42.7115V26.9519H42.6955V26.9359H42.6795V26.9199H42.6635V26.9038H42.6474V26.8878H42.6314V26.8718H42.5994V26.8558H42.5833V26.8397H42.5673V26.8237H42.5353V26.8077H42.5192V26.7917H42.5032V26.7756H42.4712V26.7596H42.4551V26.7436H42.4391V26.7276H42.4071V26.7115H42.375V26.6955H42.359V26.6795H42.3269V26.6635H42.2949V26.6474H42.2788V26.6314H42.2468V26.6154H42.2147V26.5994H42.1827V26.5833H42.1506V26.5673H42.1186V26.5513H42.0865V26.5353H42.0545V26.5192H42.0224V26.5032H41.9904V26.4872H41.9423V26.4712H41.8942V26.4551H41.8622V26.4391H41.8141V26.4231H41.766V26.4071H41.7179V26.391H41.6538V26.375H41.5897V26.359H41.5256V26.343H41.4135V26.3269H41.3173V26.3109H41.125V26.2949H40.9647V26.3109H40.7885V26.3269H40.6923V26.343H40.6122V26.359H40.5481V26.375H40.484V26.391H40.4359V26.4071H40.4038V26.4231H40.3558V26.4391H40.3077V26.4551H40.2756V26.4712H40.2436V26.4872H40.2115V26.5032H40.1795V26.5192H40.1635V26.5353H40.1314V26.5513H40.0994V26.5673H40.0833V26.5833H40.0513V26.5994H40.0353V26.6154H40.0032V26.6314H39.9872V26.6474H39.9712V26.6635H39.9551V26.6795H39.9391V26.6955H39.9071V26.7115H39.891V26.7276H39.875V26.7436H39.859V26.7596H39.8429V26.7756H39.8269V26.7917H39.8109V26.8077H39.7949V26.8237H39.7788V26.8397H39.7628V26.8558H39.7468V26.8878H39.7308V26.9038H39.7147V26.9199H39.6987V26.9519H39.6827V26.968H39.6667V26.984H39.6506V27.016H39.6346V27.0321H39.6186V27.0641H39.6026V27.0801H39.5865V27.1122H39.5705V27.1442H39.5545V27.1603H39.5385V27.2083H39.5224V27.2404H39.5064V27.2724H39.4904V27.3045H39.4744V27.3365H39.4583V27.3846H39.4423V27.4167H39.4263V27.4647H39.4103V27.5128H39.3942V27.5769H39.3782V27.625H39.3622V27.6891H39.3462V27.7692H39.3301V27.8654H39.3141V28.0096H39.2981V28.5064H39.3141V28.6667H39.3301V28.7468H39.3462V28.843H39.3622V28.9071H39.3782V28.9551H39.3942V29.0192H39.4103V29.0673H39.4263V29.1154H39.4423V29.1635H39.4583V29.2115H39.4744V29.2436H39.4904V29.2756H39.5064V29.3077H39.5224V29.3397H39.5385V29.3878H39.5545V29.4038H39.5705V29.4359H39.5865V29.468H39.6026V29.5H39.6186V29.516H39.6346V29.5481H39.6506V29.5641H39.6667V29.5962H39.6827V29.6122H39.6987V29.6282H39.7147V29.6603H39.7308V29.6763H39.7468V29.6923H39.7628V29.7244H39.7788V29.7404H39.7949V29.7564H39.8109V29.7724H39.8269V29.7885H39.8429V29.8045H39.859V29.8205H39.875V29.8365H39.891V29.8526H39.9071V29.8686H39.9231V29.8846H39.9391V29.9006H39.9551V29.9167H39.9872V29.9327H40.0032V29.9487H40.0192V29.9647H40.0513V29.9808H40.0673V29.9968H40.0833V30.0128H40.1154V30.0288H40.1314V30.0449H40.1635V30.0609H40.1955V30.0769H40.2276V30.093H40.2436V30.109H40.2756V30.125H40.3077V30.141H40.3558V30.1571H40.3878V30.1731H40.4359V30.1891H40.484V30.2051H40.5321V30.2212H40.5962V30.2372H40.6603V30.2532H40.7564V30.2692H40.8846ZM20.3397 29.1474V29.1314H20.2917V29.1154H20.2436V29.0994H20.1955V29.0833H20.1474V29.0673H20.0833V29.0513H20.0353V29.0353H19.9872V29.0192H19.9391V29.0032H19.875V28.9872H19.8269V28.9712H19.7788V28.9551H19.7308V28.9391H19.6827V28.9231H19.6186V28.9071H19.5865V28.891H19.5385V28.875H19.4904V28.859H19.4423V28.843H19.3942V28.8269H19.3462V28.8109H19.2981V28.7949H19.25V28.7788H19.2019V28.7628H19.1538V28.7468H19.1058V28.7308H19.0577V28.7147H19.0096V28.6987H18.9615V28.6827H18.9135V28.6667H18.8814V28.6506H18.8333V28.6346H18.7853V28.6186H18.7372V28.6026H18.6891V28.5865H18.641V28.5705H18.5929V28.5545H18.5449V28.5385H18.4968V28.5224H18.4647V28.5064H18.4167V28.4904H18.3686V28.4744H18.3365V28.4583H18.2885V28.4423H18.2404V28.4263H18.2083V28.4103H18.1603V28.3942H18.1122V28.3782H18.0801V28.3622H18.0321V28.3462H17.984V28.3301H17.9519V28.3141H17.9038V28.2981H17.8558V28.2821H17.8237V28.266H17.7756V28.25H17.7276V28.234H17.6795V28.218H17.6474V28.2019H17.5994V28.1859H17.5513V28.1699H17.5192V28.1538H17.4712V28.1378H17.4391V28.1218H17.4071V28.1058H17.359V28.0897H17.3269V28.0737H17.2788V28.0577H17.2468V28.0417H17.1987V28.0256H17.1667V28.0096H17.1346V27.9936H17.1506V27.9776H17.1667V27.9615H17.1827V27.9455H17.1987V27.9295H17.2147V27.9135H17.2308V27.8974H17.2468V27.8814H17.2628V27.8654H17.2788V27.8494H17.2949V27.8333H17.3109V27.8173H17.3269V27.8013H17.3429V27.7853H17.359V27.7692H17.375V27.7532H17.391V27.7372H17.4071V27.7212H17.4231V27.7051H17.4391V27.6891H17.4551V27.6731H17.4712V27.6571H17.4872V27.641H17.5032V27.625H17.5353V27.609H17.5513V27.593H17.5673V27.5769H17.5833V27.5609H17.5994V27.5449H17.6154V27.5288H17.6314V27.5128H17.6474V27.4968H17.6635V27.4808H17.6795V27.4647H17.6955V27.4487H17.7115V27.4327H17.7276V27.4167H17.7436V27.4006H17.7596V27.3846H17.7756V27.3686H17.7917V27.3526H17.8077V27.3365H17.8237V27.3205H17.8397V27.3045H17.8558V27.2885H17.8718V27.2724H17.8878V27.2564H17.9038V27.2404H17.9199V27.2244H17.9359V27.2083H17.9519V27.1923H17.9679V27.1763H17.984V27.1603H18V27.1442H18.016V27.1282H18.0321V27.1122H18.0481V27.0962H18.0641V27.0801H18.0801V27.0641H18.0962V27.0481H18.1122V27.0321H18.1282V27.016H18.1603V27H18.1763V26.984H18.1923V26.968H18.2083V26.9519H18.2244V26.9359H18.2404V26.9199H18.2564V26.9038H18.2724V26.8878H18.2885V26.8718H18.3045V26.8558H18.3205V26.8397H18.3365V26.8237H18.3526V26.8077H18.3686V26.7917H18.3846V26.7756H18.4006V26.7596H18.4167V26.7436H18.4327V26.7276H18.4487V26.7115H18.4647V26.6955H18.4808V26.6795H18.4968V26.6635H18.5128V26.6474H18.5288V26.6314H18.5449V26.6154H18.5609V26.5994H18.5769V26.5833H18.5929V26.5673H18.609V26.5513H18.625V26.5353H18.641V26.5192H18.6571V26.5032H18.6731V26.4872H18.6891V26.4712H18.7051V26.4551H18.7212V26.4391H18.7372V26.4231H14.2019V23.6827H23.2564V26.359H23.2404V26.375H23.2244V26.391H23.2083V26.4071H23.1923V26.4231H23.1763V26.4391H23.1603V26.4551H23.1442V26.4712H23.1282V26.4872H23.1122V26.5032H23.0962V26.5192H23.0801V26.5353H23.0641V26.5513H23.0481V26.5673H23.0321V26.5833H23.016V26.5994H23V26.6154H22.984V26.6314H22.9679V26.6474H22.9519V26.6635H22.9359V26.6795H22.9199V26.6955H22.9038V26.7115H22.8878V26.7276H22.8718V26.7436H22.8558V26.7596H22.8397V26.7756H22.8237V26.7917H22.8077V26.8077H22.7917V26.8237H22.7756V26.8397H22.7596V26.8558H22.7436V26.8718H22.7115V26.8878H22.6955V26.9038H22.6795V26.9199H22.6635V26.9359H22.6474V26.9519H22.6314V26.968H22.6154V26.984H22.5994V27H22.5833V27.016H22.5673V27.0321H22.5513V27.0481H22.5353V27.0641H22.5192V27.0801H22.5032V27.0962H22.4872V27.1122H22.4712V27.1282H22.4551V27.1442H22.4391V27.1603H22.4231V27.1763H22.4071V27.1923H22.391V27.2083H22.375V27.2244H22.359V27.2404H22.3429V27.2564H22.3269V27.2724H22.3109V27.2885H22.2949V27.3045H22.2788V27.3205H22.2628V27.3365H22.2468V27.3526H22.2308V27.3686H22.2147V27.3846H22.1987V27.4006H22.1827V27.4167H22.1667V27.4327H22.1506V27.4487H22.1346V27.4647H22.1026V27.4808H22.0865V27.4968H22.0705V27.5128H22.0545V27.5288H22.0385V27.5449H22.0224V27.5609H22.0064V27.5769H21.9904V27.593H21.9744V27.609H21.9583V27.625H21.9423V27.641H21.9263V27.6571H21.9103V27.6731H21.8942V27.6891H21.8782V27.7051H21.8622V27.7212H21.8462V27.7372H21.8301V27.7532H21.8141V27.7692H21.7981V27.7853H21.7821V27.8013H21.766V27.8173H21.75V27.8333H21.734V27.8494H21.7179V27.8654H21.7019V27.8814H21.6859V27.8974H21.6699V27.9135H21.6538V27.9295H21.6378V27.9455H21.6218V27.9615H21.6058V27.9776H21.5897V27.9936H21.5737V28.0096H21.5577V28.0256H21.5417V28.0417H21.5256V28.0577H21.4936V28.0737H21.4776V28.0897H21.4615V28.1058H21.4455V28.1218H21.4295V28.1378H21.4135V28.1538H21.3974V28.1699H21.3814V28.1859H21.3654V28.2019H21.3494V28.218H21.3333V28.234H21.3173V28.25H21.3013V28.266H21.2853V28.2821H21.2692V28.2981H21.2532V28.3141H21.2372V28.3301H21.2212V28.3462H21.2051V28.3622H21.1891V28.3782H21.1731V28.3942H21.1571V28.4103H21.141V28.4263H21.125V28.4423H21.109V28.4583H21.0929V28.4744H21.0769V28.4904H21.0609V28.5064H21.0449V28.5224H21.0288V28.5385H21.0128V28.5545H20.9968V28.5705H20.9808V28.5865H20.9647V28.6026H20.9487V28.6186H20.9327V28.6346H20.9167V28.6506H20.9006V28.6667H20.8686V28.6827H20.8526V28.6987H20.8365V28.7147H20.8205V28.7308H20.8045V28.7468H20.7885V28.7628H20.7724V28.7788H20.7564V28.7949H20.7404V28.8109H20.7244V28.8269H20.7083V28.843H20.6923V28.859H20.6763V28.875H20.6603V28.891H20.6442V28.9071H20.6282V28.9231H20.6122V28.9391H20.5962V28.9551H20.5801V28.9712H20.5641V28.9872H20.5481V29.0032H20.5321V29.0192H20.516V29.0353H20.5V29.0513H20.484V29.0673H20.4679V29.0833H20.4519V29.0994H20.4359V29.1154H20.4199V29.1314H20.4038V29.1474H20.3397ZM12.2788 25.6058V25.5897H12.2468V25.5737H12.2308V25.5577H12.1987V25.5417H12.1667V25.5256H12.1506V25.5096H12.1186V25.4936H12.1026V25.4776H12.0705V25.4615H12.0385V25.4455H12.0224V25.4295H11.9904V25.4135H11.9744V25.3974H11.9423V25.3814H11.9103V25.3654H11.8942V25.3494H11.8622V25.3333H11.8462V25.3173H11.8141V25.3013H11.7981V25.2853H11.766V25.2692H11.734V25.2532H11.7179V25.2372H11.6859V25.2212H11.6699V25.2051H11.6378V25.1891H11.6218V25.1731H11.5897V25.1571H11.5577V25.141H11.5417V25.125H11.5096V25.109H11.4936V25.093H11.4615V25.0769H11.4295V25.0609H11.4135V25.0449H11.3814V25.0288H11.3654V25.0128H12.2949V25.6058H12.2788ZM8.25641 22.6571V22.641H8.24038V22.625H8.20833V22.609H8.19231V22.593H8.17628V22.5769H8.16026V22.5609H8.14423V22.5449H8.1282V22.5288H8.09615V22.5128H8.08013V22.4968H8.0641V22.4808H8.04808V22.4647H8.03205V22.4487H8.01602V22.4327H8V22.4167H7.98397V22.4006H7.96795V22.3846H7.95192V22.3686H7.9359V22.3526H7.90384V22.3365H7.88782V22.3205H7.87179V22.3045H7.85577V22.2885H7.83974V22.2724H7.82372V22.2564H7.80769V22.2404H7.79167V22.2244H7.77564V22.2083H7.75961V22.1923H7.74359V22.1763H7.72756V22.1603H7.71154V22.1442H7.67949V22.1282H7.66346V22.1122H7.64743V22.0962H7.63141V22.0801H7.61538V22.0641H7.59936V22.0481H7.58333V22.0321H7.56731V22.016H7.55128V22H7.53526V21.984H7.51923V21.968H7.5032V21.9519H7.48718V21.9359H7.47115V21.9199H7.45513V21.9038H7.4391V21.8878H7.42308V21.8718H7.39102V21.8558H7.375V21.8397H7.35897V21.8237H7.34295V21.8077H7.32692V21.7917H7.3109V21.7756H7.29487V21.7596H7.27884V21.7436H7.26282V21.7276H7.24679V21.7115H7.23077V21.6955H7.21474V21.6795H7.19872V21.6635H7.18269V21.6474H7.16667V21.6314H7.15064V21.6154H7.13461V21.5994H7.11859V21.5833H7.10256V21.5673H7.08654V21.5513H7.07051V21.5353H7.05449V21.5192H7.03846V21.5032H7.02243V21.4872H7.00641V21.4712H6.99038V21.4551H6.97436V21.4391H6.95833V21.4231H6.94231V21.4071H6.92628V21.391H6.91026V21.375H6.89423V21.359H6.8782V21.343H6.86218V21.3269H6.84615V21.3109H6.83013V21.2949H6.8141V21.2788H6.79808V21.2468H6.78205V21.2308H6.76602V21.2147H6.75V21.1987H6.73397V21.1827H6.71795V21.1667H6.70192V21.1506H6.6859V21.1346H6.66987V21.1186H6.65384V21.1026H6.63782V21.0865H6.62179V21.0705H6.60577V21.0545H6.58974V21.0385H6.57372V21.0224H6.55769V21.0064H6.54167V20.9904H6.52564V20.9744H6.50961V20.9583H6.49359V20.9423H6.47756V20.9263H6.46154V20.9103H6.44551V20.8782H6.42949V20.8622H6.41346V20.8462H6.39743V20.8301H6.38141V20.8141H6.36538V20.7981H6.34936V20.7821H6.33333V20.766H6.31731V20.75H6.30128V20.718H6.28526V20.7019H6.26923V20.6859H6.2532V20.6699H6.23718V20.6538H6.22115V20.6378H6.20513V20.6218H6.1891V20.6058H6.17308V20.5897H6.15705V20.5737H6.14102V20.5417H6.125V20.5256H6.10897V20.5096H6.09295V20.4936H6.07692V20.4776H6.0609V20.4615H6.04487V20.4455H6.02884V20.4295H6.01282V20.4135H5.99679V20.3814H5.98077V20.3654H5.96474V20.3494H5.94872V20.3333H5.93269V20.3173H5.91667V20.3013H5.90064V20.2692H5.88461V20.2532H5.86859V20.2372H5.85256V20.2212H5.83654V20.2051H5.82051V20.1891H5.80449V20.1571H5.78846V20.141H5.77243V20.125H5.75641V20.109H5.74038V20.093H5.72436V20.0769H5.70833V20.0449H5.69231V20.0288H5.67628V20.0128H5.66026V19.9968H5.64423V19.9808H5.6282V19.9647H5.61218V19.9327H5.59615V19.9167H5.58013V19.9006H5.5641V19.8846H5.54808V19.8686H5.53205V19.8365H5.51602V19.8205H5.5V19.8045H5.48397V19.7885H5.46795V19.7724H5.45192V19.7404H5.4359V19.7244H5.41987V19.7083H5.40384V19.6923H5.38782V19.6603H5.37179V19.6442H5.35577V19.6282H5.33974V19.6122H5.32372V19.5801H5.30769V19.5641H5.29167V19.5481H5.27564V19.5321H5.25961V19.516H12.9199V22.6571" fill="url(#paint0_linear)"/>
</g>
<defs>
<linearGradient id="paint0_linear" x1="34.6152" y1="32.0055" x2="41.9006" y2="-9.31193" gradientUnits="userSpaceOnUse">
<stop stopColor="#EE264B"/>
<stop offset="0.592407" stopColor="white"/>
<stop offset="1" stopColor="white"/>
</linearGradient>
<clipPath id="clip0">
<rect width="53" height="24.1442" fill="white" transform="translate(3 18)"/>
</clipPath>
</defs>
</svg>
