<svg width="241" height="96" viewBox="0 0 241 96" fill="none" xmlns="http://www.w3.org/2000/svg">
<path d="M202.232 33.5842V40.1429H215.68V62.2029H222.821V40.1429H236.292V33.5842H202.232Z" fill="#5B6376"/>
<path d="M50.949 50.2376H60.8611C59.2072 47.7852 57.5076 45.367 55.8537 42.9261C54.2226 45.3784 52.5687 47.8194 50.949 50.2376Z" fill="#5B6376"/>
<path d="M7.19409 32.7972V62.1686H128.182L131.524 57.1726H150.55C151.691 58.8266 152.831 60.4919 153.972 62.1458H162.15C155.409 52.3477 148.702 42.5382 141.938 32.7744L7.19409 32.7972ZM24.566 58.3133C21.3388 58.1984 18.2281 57.0778 15.669 55.1081C14.6614 54.1744 13.853 53.0466 13.2925 51.7924C12.732 50.5383 12.4309 49.1837 12.4075 47.8102C12.384 46.4367 12.6387 45.0726 13.1561 43.8C13.6734 42.5275 14.4429 41.3727 15.4181 40.4052C17.972 38.2233 21.1867 36.9656 24.5432 36.835C29.2655 36.47 34.3413 37.086 38.1625 40.1543C37.3298 41.2037 36.5085 42.2417 35.7101 43.2911C32.4707 40.5193 27.9651 40.2684 23.9273 40.736C22.7798 40.7874 21.6579 41.0923 20.6423 41.6287C19.6266 42.1651 18.7423 42.9198 18.053 43.8386C15.9998 47.078 16.9694 52.4162 20.973 53.7507C25.3576 55.1896 30.1256 54.904 34.3071 52.9523C34.3071 51.9029 34.3071 50.8307 34.3071 49.7471H24.452V45.7662H38.5161C38.5161 48.7547 38.5161 51.7888 38.5161 54.7773C34.6607 57.9483 29.3909 58.6327 24.566 58.3133ZM66.188 58.0281L63.5531 54.207H48.3142C47.4473 55.5073 46.626 56.762 45.7249 58.0623H40.9342C45.9416 50.7508 50.6639 43.234 55.888 36.0822C61.1806 43.2568 66.0511 50.7508 71.1269 58.0623C69.5072 57.9825 67.8419 57.9825 66.188 57.9825V58.0281ZM103.27 58.0281H98.7989V45.4811C95.6621 48.4011 92.6394 51.5037 89.3886 54.3439C86.1035 51.3896 82.8641 48.4011 79.5905 45.4469V57.9939C78.0734 57.9939 76.602 57.9939 75.1192 57.9939C75.1192 50.8535 75.1192 43.6903 75.1192 36.5499C76.0442 36.7791 76.8909 37.2517 77.5716 37.9186C81.4954 41.5573 85.4648 45.1617 89.4228 48.8003C93.2782 45.1275 97.1335 41.4888 100.955 37.8046C101.582 37.1777 102.372 36.739 103.236 36.5385C103.305 43.6446 103.27 50.8193 103.27 57.9825V58.0281ZM132.357 41.0896H114.985V45.31H129.585C128.718 46.6103 127.897 47.9449 127.03 49.2338H114.985V53.9903H123.927C123.026 55.359 122.159 56.6936 121.258 58.0281C117.654 58.0281 114.084 58.0281 110.479 58.0281V36.9719H135.026C134.159 38.3407 133.258 39.6752 132.357 41.044V41.0896ZM135.779 50.8877C137.467 48.3327 139.201 45.8119 140.9 43.2796C142.668 45.8005 144.391 48.3555 146.124 50.8877H135.779Z" fill="#5B6376"/>
<path d="M195.754 49.0513C199.575 45.9145 199.575 39.1391 195.537 36.1849C192.468 33.9036 188.51 33.664 184.838 33.5956C178.313 33.5956 171.823 33.5956 165.31 33.5956V62.1686H172.416V51.9713H182.682C185.784 55.3932 188.841 58.8152 191.944 62.1686H200.955C197.67 58.5642 194.43 54.9256 191.111 51.3211C192.789 50.8677 194.365 50.0972 195.754 49.0513ZM188.465 45.7662H172.416V40.063H188.453C189.219 40.063 189.953 40.3671 190.494 40.9083C191.035 41.4495 191.339 42.1835 191.339 42.9489C191.339 43.7142 191.035 44.4482 190.494 44.9894C189.953 45.5306 189.219 45.8347 188.453 45.8347L188.465 45.7662Z" fill="#5B6376"/>
</svg>
