<svg width="241" height="96" viewBox="0 0 241 96" fill="none" xmlns="http://www.w3.org/2000/svg">
<path fill-rule="evenodd" clip-rule="evenodd" d="M158.833 21.7248C158.389 22.3413 157.691 22.8456 157.283 22.8456C156.261 22.8456 153.79 25.4039 153.79 26.463C153.79 26.9551 154.273 27.3289 154.911 27.3289C155.527 27.3289 156.031 27.581 156.031 27.8893C156.031 28.1975 156.536 28.4497 157.152 28.4497C157.769 28.4497 158.273 28.7019 158.273 29.0101C158.273 29.3183 158.777 29.5705 159.394 29.5705C160.01 29.5705 160.515 29.8227 160.515 30.1309C160.515 30.4391 161.271 30.6913 162.196 30.6913C163.12 30.6913 163.877 30.4391 163.877 30.1309C163.877 29.8227 164.381 29.5705 164.998 29.5705C165.614 29.5705 166.119 29.3183 166.119 29.0101C166.119 28.7019 166.623 28.4497 167.239 28.4497C167.856 28.4497 168.36 28.1975 168.36 27.8893C168.36 27.581 168.809 27.3289 169.357 27.3289C169.906 27.3289 170.718 26.8245 171.162 26.2081C171.607 25.5916 172.419 25.0873 172.967 25.0873C173.515 25.0873 173.964 24.8351 173.964 24.5269C173.964 24.2186 173.208 23.9665 172.283 23.9665C171.358 23.9665 170.602 23.7143 170.602 23.406C170.602 23.0978 169.845 22.8456 168.921 22.8456C167.996 22.8456 167.239 22.5935 167.239 22.2852C167.239 21.977 166.483 21.7248 165.558 21.7248C164.634 21.7248 163.877 21.4727 163.877 21.1644C163.877 20.8562 162.924 20.604 161.759 20.604C160.284 20.604 159.396 20.9442 158.833 21.7248ZM175.085 26.7685C175.085 27.0767 174.581 27.3289 173.964 27.3289C173.348 27.3289 172.843 27.581 172.843 27.8893C172.843 28.1975 172.395 28.4497 171.846 28.4497C171.298 28.4497 170.486 28.954 170.041 29.5705C169.597 30.1869 168.785 30.6913 168.236 30.6913C167.688 30.6913 167.239 30.9435 167.239 31.2517C167.239 31.5599 166.735 31.8121 166.119 31.8121C164.218 31.8121 164.857 33.3773 168.068 36.5878C170.164 38.6843 171.586 39.6577 172.551 39.6577C173.328 39.6577 173.964 39.4055 173.964 39.0973C173.964 38.7891 174.721 38.5369 175.645 38.5369C176.57 38.5369 177.327 38.2847 177.327 37.9765C177.327 37.6683 178.083 37.4161 179.008 37.4161C179.933 37.4161 180.689 37.1639 180.689 36.8557C180.689 36.5475 181.446 36.2953 182.37 36.2953C183.295 36.2953 184.051 36.0431 184.051 35.7349C184.051 35.4267 184.556 35.1745 185.172 35.1745C185.789 35.1745 186.293 34.9223 186.293 34.6141C186.293 34.3059 186.797 34.0537 187.414 34.0537C188.03 34.0537 188.535 33.9097 188.535 33.7337C188.535 33.1206 186.929 31.8121 186.177 31.8121C185.76 31.8121 185.056 31.3077 184.612 30.6913C184.167 30.0748 183.355 29.5705 182.807 29.5705C182.259 29.5705 181.81 29.3183 181.81 29.0101C181.81 28.7019 181.361 28.4497 180.813 28.4497C180.264 28.4497 179.452 27.9453 179.008 27.3289C178.176 26.1739 175.085 25.7328 175.085 26.7685ZM187.414 36.8557C187.414 37.1639 186.91 37.4161 186.293 37.4161C185.677 37.4161 185.172 37.6683 185.172 37.9765C185.172 38.2847 184.416 38.5369 183.491 38.5369C182.566 38.5369 181.81 38.7891 181.81 39.0973C181.81 39.4055 181.053 39.6577 180.129 39.6577C179.204 39.6577 178.447 39.9099 178.447 40.2181C178.447 40.5264 177.691 40.7785 176.766 40.7785C175.842 40.7785 175.085 41.0307 175.085 41.3389C175.085 41.6472 174.581 41.8993 173.964 41.8993C173.348 41.8993 172.843 42.1515 172.843 42.4597C172.843 42.768 173.096 43.0201 173.404 43.0201C173.712 43.0201 173.964 43.469 173.964 44.0171C173.964 44.5657 174.469 45.3778 175.085 45.8222C175.743 46.2968 176.206 47.273 176.206 48.1876C176.206 49.0439 176.458 49.745 176.766 49.745C177.074 49.745 177.327 50.2493 177.327 50.8658C177.327 51.8 177.7 51.9866 179.568 51.9866C180.801 51.9866 181.81 51.7344 181.81 51.4262C181.81 51.118 183.071 50.8658 184.612 50.8658C186.153 50.8658 187.414 50.6136 187.414 50.3054C187.414 49.9938 188.908 49.745 190.776 49.745C192.644 49.745 194.139 49.4962 194.139 49.1846C194.139 48.8764 195.4 48.6242 196.941 48.6242C199.254 48.6242 199.743 48.4499 199.743 47.6272C199.743 47.0786 199.238 46.2666 198.622 45.8222C198.005 45.3778 197.501 44.6212 197.501 44.1409C197.501 43.6607 196.997 42.9041 196.38 42.4597C195.764 42.0153 195.26 41.321 195.26 40.9164C195.26 40.5118 194.385 39.3064 193.317 38.2382C191.833 36.7543 190.906 36.2953 189.394 36.2953C188.305 36.2953 187.414 36.5475 187.414 36.8557ZM195.26 51.4262C195.26 51.7344 193.999 51.9866 192.458 51.9866C190.916 51.9866 189.655 52.2388 189.655 52.547C189.655 52.8586 188.161 53.1074 186.293 53.1074C184.425 53.1074 182.931 53.3562 182.931 53.6678C182.931 53.976 181.922 54.2282 180.689 54.2282H178.447V56.4698C178.447 57.7027 178.7 58.7114 179.008 58.7114C179.319 58.7114 179.568 60.206 179.568 62.0738V65.4362H191.897C199.743 65.4362 204.226 65.2323 204.226 64.8758C204.226 64.5676 203.974 64.3154 203.666 64.3154C203.346 64.3154 203.105 62.6342 203.105 60.3926C203.105 58.151 202.865 56.4698 202.545 56.4698C202.237 56.4698 201.984 55.5692 201.984 54.4686C201.984 53.3674 201.624 52.1065 201.184 51.6666C200.275 50.7571 195.26 50.5536 195.26 51.4262Z" fill="#5B6376"/>
<path fill-rule="evenodd" clip-rule="evenodd" d="M141.461 47.5034C141.461 49.3712 141.648 49.745 142.582 49.745C143.198 49.745 143.703 49.9972 143.703 50.3054C143.703 50.6136 144.711 50.8658 145.944 50.8658C148.141 50.8658 148.186 50.826 148.186 48.8646C148.186 46.1825 147.122 45.2617 144.023 45.2617H141.461V47.5034ZM154.911 46.7025C154.911 48.3243 156.069 49.745 157.393 49.745C157.877 49.745 158.273 49.9972 158.273 50.3054C158.273 51.1561 161.046 50.9751 161.955 50.065C163.081 48.9397 162.96 48.2162 161.38 46.6375C160.323 45.5801 159.415 45.2617 157.458 45.2617C155.096 45.2617 154.911 45.3665 154.911 46.7025ZM155.611 52.8249C155.117 53.3865 154.911 56.1095 154.911 62.0755C154.911 70.3056 154.947 70.5673 156.286 71.9061C157.343 72.9636 158.252 73.2819 160.209 73.2819H162.756V64.3154C162.756 58.7114 162.546 55.349 162.196 55.349C161.888 55.349 161.635 54.8446 161.635 54.2282C161.635 53.294 161.262 53.1074 159.394 53.1074C158.161 53.1074 157.152 52.8552 157.152 52.547C157.152 51.7579 156.437 51.8868 155.611 52.8249ZM42.8297 53.6678C42.8297 53.976 42.1881 54.2282 41.4035 54.2282C40.6189 54.2282 39.358 54.8474 38.6015 55.604C37.3227 56.8823 37.2257 57.3777 37.2257 62.6342C37.2257 67.8908 37.3227 68.3862 38.6015 69.6645C39.358 70.421 40.6189 71.0403 41.4035 71.0403C42.1881 71.0403 42.8297 71.2925 42.8297 71.6007C42.8297 71.9453 45.6317 72.1611 50.115 72.1611H57.4002V73.6019C57.4002 76.3322 56.4554 76.6443 48.1933 76.6443C43.4966 76.6443 40.5881 76.8584 40.5881 77.2047C40.5881 77.5129 39.8316 77.7651 38.9069 77.7651C37.4123 77.7651 37.2257 77.9517 37.2257 79.4463V81.1275H46.1921C51.7962 81.1275 55.1586 80.9174 55.1586 80.5671C55.1586 80.2589 56.1673 80.0067 57.4002 80.0067C58.6331 80.0067 59.6418 79.7545 59.6418 79.4463C59.6418 79.1381 60.0313 78.8859 60.5076 78.8859C60.984 78.8859 61.9927 78.2667 62.7492 77.5101C64.1161 76.1439 64.125 76.0637 64.125 65.1813C64.125 58.253 64.3307 54.2282 64.6854 54.2282C64.9937 54.2282 65.2458 53.976 65.2458 53.6678C65.2458 53.3131 61.1364 53.1074 54.0378 53.1074C46.9392 53.1074 42.8297 53.3131 42.8297 53.6678ZM76.4539 53.6678C76.4539 53.976 76.0644 54.2282 75.5881 54.2282C74.4667 54.2282 71.9707 56.7242 71.9707 57.8456C71.9707 58.3219 71.7185 58.7114 71.4103 58.7114C71.0835 58.7114 70.8499 60.5792 70.8499 63.1946C70.8499 65.81 71.0835 67.6779 71.4103 67.6779C71.7185 67.6779 71.9707 68.0741 71.9707 68.5583C71.9707 69.6908 73.3201 71.0403 74.4527 71.0403C74.9369 71.0403 75.3331 71.2925 75.3331 71.6007C75.3331 71.9089 76.0896 72.1611 77.0143 72.1611C77.939 72.1611 78.6955 72.4133 78.6955 72.7215C78.6955 73.0757 82.6183 73.2819 89.3432 73.2819C98.6492 73.2819 99.9908 73.1709 99.9908 72.4015C99.9908 70.2518 98.6828 69.9195 90.2235 69.9195C85.1536 69.9195 82.0579 69.7071 82.0579 69.3591C82.0579 69.0508 81.6617 68.7987 81.1775 68.7987C79.8544 68.7987 78.6955 67.378 78.6955 65.7562V64.3154H88.5423C99.6658 64.3154 99.9908 64.2045 99.9908 60.4139C99.9908 58.5366 99.6338 57.7565 98.0479 56.1711C96.9798 55.1024 95.7189 54.2282 95.2459 54.2282C94.7735 54.2282 94.3868 53.976 94.3868 53.6678C94.3868 53.3175 91.0244 53.1074 85.4203 53.1074C79.8163 53.1074 76.4539 53.3175 76.4539 53.6678ZM105.595 61.8188C105.595 70.3213 105.628 70.5639 106.971 71.9061C108.028 72.9636 108.936 73.2819 110.894 73.2819H113.441V65.4362C113.441 57.9644 113.494 57.5906 114.562 57.5906C115.178 57.5906 115.682 57.3384 115.682 57.0302C115.682 56.7001 117.652 56.4698 120.471 56.4698C124.809 56.4698 125.39 56.5993 126.635 57.8456C127.931 59.1407 128.011 59.5834 128.011 65.4508C128.011 72.7047 128.318 73.2819 132.174 73.2819H134.736V65.4362C134.736 60.5792 134.523 57.5906 134.176 57.5906C133.867 57.5906 133.615 57.0862 133.615 56.4698C133.615 55.7228 133.241 55.349 132.494 55.349C131.878 55.349 131.374 55.0968 131.374 54.7886C131.374 54.4804 130.869 54.2282 130.253 54.2282C129.636 54.2282 129.132 53.976 129.132 53.6678C129.132 53.3119 124.835 53.1074 117.364 53.1074H105.595V61.8188ZM141.461 62.6342C141.461 71.7873 141.505 72.1611 142.582 72.1611C143.198 72.1611 143.703 72.4133 143.703 72.7215C143.703 73.0297 144.711 73.2819 145.944 73.2819H148.186V63.9955C148.186 53.3719 148.084 53.1074 144.023 53.1074H141.461V62.6342ZM56.5994 57.2706C57.1687 57.8394 57.4002 59.4584 57.4002 62.8746C57.4002 67.3041 57.3128 67.6779 56.2794 67.6779C55.6629 67.6779 55.1586 67.93 55.1586 68.2383C55.1586 68.565 53.2908 68.7987 50.6754 68.7987C48.06 68.7987 46.1921 68.565 46.1921 68.2383C46.1921 67.93 45.6878 67.6779 45.0713 67.6779C44.038 67.6779 43.9505 67.3041 43.9505 62.8909C43.9505 59.8591 44.2072 57.812 44.651 57.3082C45.6491 56.1745 55.4724 56.1436 56.5994 57.2706ZM89.9036 57.0302C89.9036 57.3384 90.4079 57.5906 91.0244 57.5906C91.8963 57.5906 92.1452 57.9644 92.1452 59.2718V60.953H85.4203H78.6955V59.5285C78.6955 56.9843 79.6712 56.5141 85 56.4911C87.9096 56.4782 89.9036 56.6979 89.9036 57.0302Z" fill="#5B6376"/>
<path d="M104.52 16.1364C107.766 15.9342 110.617 15.5785 110.856 15.3452C111.853 14.3731 137.972 15.6171 146.733 17.0542C154.79 18.376 155.011 18.4377 155.205 19.4156C155.462 20.7122 154.585 21.6359 151.519 23.3015C149.184 24.5696 148.74 24.6415 146.733 24.0788C145.516 23.7376 143.65 23.257 142.585 23.0108C141.52 22.7645 139.654 22.3113 138.437 22.0039C131.815 20.3318 124.423 19.679 112.168 19.6854C97.8432 19.6924 88.8039 20.6607 75.9442 23.5649C74.4233 23.9082 72.308 24.3813 71.2434 24.6163C70.1788 24.8507 68.1254 25.407 66.6803 25.8522C63.7149 26.7652 62.6316 26.1564 65.0566 24.9403C68.8023 23.0612 77.4313 20.393 83.5484 19.2219C84.9935 18.9457 87.4821 18.4667 89.0787 18.1582C95.3391 16.9491 98.8497 16.4894 104.52 16.1364Z" fill="#5B6376"/>
<path d="M47.2058 36.3658C44.5894 34.138 44.5673 32.1494 47.1311 29.6625C49.3919 27.4696 52.1831 27.2062 54.7055 28.948C56.0549 29.8798 56.3115 30.4285 56.3115 32.3795C56.3115 34.3654 56.0289 34.9415 54.3565 36.3658C51.7987 38.5447 49.7636 38.5447 47.2058 36.3658Z" fill="#5B6376"/>
</svg>
