<svg width="16" height="22" viewBox="0 0 16 22" fill="none" xmlns="http://www.w3.org/2000/svg">
<path fill-rule="evenodd" clip-rule="evenodd" d="M2.5835 3.66659C2.5835 3.20635 2.95659 2.83325 3.41683 2.83325H12.5835C13.0437 2.83325 13.4168 3.20635 13.4168 3.66659V18.3333C13.4168 18.7935 13.0437 19.1666 12.5835 19.1666H3.41683C2.95659 19.1666 2.5835 18.7935 2.5835 18.3333V3.66659ZM3.41683 0.833252C1.85202 0.833252 0.583496 2.10178 0.583496 3.66659V18.3333C0.583496 19.8981 1.85202 21.1666 3.41683 21.1666H12.5835C14.1483 21.1666 15.4168 19.8981 15.4168 18.3333V3.66659C15.4168 2.10178 14.1483 0.833252 12.5835 0.833252H3.41683ZM8 15.5C7.44772 15.5 7 15.9477 7 16.5C7 17.0523 7.44772 17.5 8 17.5H8.01C8.56228 17.5 9.01 17.0523 9.01 16.5C9.01 15.9477 8.56228 15.5 8.01 15.5H8Z" fill="#FFFFFF"/>
</svg>
