<svg width="240" height="96" viewBox="0 0 240 96" fill="none" xmlns="http://www.w3.org/2000/svg">
<path d="M126.398 42.4627L126.389 23.2502L131.404 22.0601V24.5787C131.404 24.5787 132.703 21.2664 135.717 20.4976C136.168 20.3526 136.647 20.3204 137.112 20.4039V25.306C136.209 25.3178 135.317 25.5035 134.485 25.853C132.632 26.5848 131.699 28.1816 131.699 30.6193L131.702 41.2279L126.398 42.4627Z" fill="#5C6374"/>
<path d="M99.9611 48.7102C99.9611 48.7102 99.1458 47.4876 99.1458 43.1649V33.5985L96.5653 34.2124V30.2716L99.1515 29.6609V25.365L104.484 24.1054V28.4013L108.252 27.5063V31.4426L104.484 32.337C104.484 32.337 104.478 40.1746 104.484 42.078C104.484 46.5071 105.659 47.3575 105.659 47.3575L99.9611 48.7102Z" fill="#5C6374"/>
<path d="M108.809 37.2805C108.809 33.8649 109.296 31.3731 110.34 29.4607C111.582 27.1913 113.62 25.7124 116.588 25.0367C122.438 23.7063 124.549 27.169 124.467 31.8123C124.436 33.4729 124.444 34.2818 124.444 34.2818L114.137 36.7042V36.8706C114.137 40.1146 114.817 41.6541 116.873 41.2181C118.649 40.8433 119.143 39.7309 119.283 38.3552C119.306 38.1334 119.317 37.5692 119.317 37.5692L124.145 36.4123C124.145 36.4123 124.157 36.8075 124.15 37.2512C124.108 39.0947 123.572 43.6679 116.861 45.2545C110.504 46.7634 108.809 42.8812 108.809 37.2805V37.2805ZM116.802 28.6154C115.094 29.003 114.198 30.6783 114.159 33.4538L119.344 32.219C119.353 32.0934 119.354 31.8168 119.353 31.3833C119.344 29.288 118.696 28.182 116.802 28.6154" fill="#5C6374"/>
<path d="M155.161 26.0453C154.961 20.194 156.479 15.5501 163.007 14.0711C167.168 13.1258 168.748 14.2082 169.548 15.2543C170.318 16.2525 170.615 17.5989 170.615 19.4845L170.619 19.8306L165.512 21.0444C165.512 21.0444 165.508 20.3559 165.508 20.3336C165.512 18.0974 164.89 17.247 163.266 17.6537C161.334 18.1388 160.554 19.9721 160.554 23.6172C160.554 24.9112 160.56 25.1432 160.56 25.3179C160.56 29.0222 161.066 30.7179 163.292 30.2519C165.223 29.8528 165.487 28.1572 165.519 26.6706C165.523 26.4373 165.532 25.6902 165.532 25.6902L170.632 24.4854C170.632 24.4854 170.637 24.8621 170.637 25.2809C170.624 30.1384 168.064 33.1995 163.268 34.3157C156.66 35.8647 155.366 32.0463 155.161 26.0453Z" fill="#5C6374"/>
<path d="M137.505 34.2373C137.505 29.7865 140.112 28.379 144.036 26.7554C147.565 25.2956 147.642 24.5708 147.657 23.3023C147.676 22.2345 147.181 21.321 145.424 21.7692C144.838 21.8872 144.31 22.1996 143.924 22.6559C143.538 23.1121 143.317 23.6854 143.298 24.2827C143.269 24.6106 143.258 24.9398 143.265 25.2688L138.317 26.4373C138.283 25.4512 138.398 24.4657 138.658 23.5139C139.449 20.8525 141.796 19.0619 145.848 18.1241C151.112 16.9111 152.867 19.2212 152.874 22.8146V31.3241C152.874 35.4396 153.637 36.0426 153.637 36.0426L148.78 37.1919C148.512 36.6307 148.294 36.0468 148.129 35.4472C148.129 35.4472 147.065 38.1271 143.397 38.9889C139.545 39.8973 137.505 37.51 137.505 34.2373V34.2373ZM147.623 28.1597C146.804 28.7338 145.94 29.2399 145.039 29.6731C143.419 30.4642 142.688 31.4401 142.688 32.9433C142.688 34.245 143.494 35.0998 144.96 34.7377C146.532 34.3412 147.623 32.8744 147.623 30.8364V28.1597Z" fill="#5C6374"/>
<path d="M72.0796 62.1782C71.5252 62.1775 70.9813 62.0274 70.505 61.7436C70.0288 61.4598 69.6379 61.0528 69.3734 60.5655C69.109 60.0783 68.9808 59.5287 69.0024 58.9748C69.0239 58.4208 69.1944 57.8829 69.496 57.4177L69.5304 57.373L69.5884 57.3577L76.8415 55.6455V61.1538L76.7286 61.18C75.0833 61.5758 73.1168 62.0265 72.712 62.1126C72.5041 62.1565 72.2921 62.1786 72.0796 62.1782" fill="#5C6374"/>
<path d="M72.0796 69.2247C71.2635 69.2249 70.4806 68.901 69.9031 68.3242C69.3257 67.7475 69.0008 66.9651 69 66.1489C68.9984 65.5543 69.1708 64.9721 69.496 64.4743L69.5304 64.4227L69.5884 64.408L76.8415 62.6964V68.2047L76.7286 68.2341C75.0833 68.6286 73.1168 69.0844 72.712 69.1654C72.5036 69.2057 72.2918 69.2255 72.0796 69.2247" fill="#5C6374"/>
<path d="M72.0796 76.2847C71.2632 76.2842 70.4804 75.9598 69.903 75.3826C69.3256 74.8055 69.0008 74.0228 69 73.2064C68.9977 72.6116 69.1702 72.0293 69.496 71.5318L69.5304 71.4763L76.8415 69.7532V75.2616L76.7286 75.2909C74.9909 75.7091 73.0613 76.1451 72.712 76.2222C72.5038 76.2639 72.2919 76.2848 72.0796 76.2847" fill="#5C6374"/>
<path d="M71.2237 55.4285L71.2218 24.6078L76.8411 23.28V54.1L71.2237 55.4285Z" fill="#5C6374"/>
<path d="M85.22 52.8064C85.22 51.8869 84.8547 51.0051 84.2045 50.355C83.5544 49.7048 82.6726 49.3395 81.7531 49.3395C80.8336 49.3395 79.9518 49.7048 79.3017 50.355C78.6515 51.0051 78.2863 51.8869 78.2863 52.8064L78.292 81.6127C78.2951 84.1003 79.2842 86.4852 81.0426 88.2449C82.801 90.0045 85.1853 90.9952 87.6729 91C90.2973 91 97.4867 90.9872 97.4867 90.9872L97.4898 78.9698C97.4918 72.4039 97.493 65.7207 97.493 65.5684C97.4939 64.8213 97.3103 64.0856 96.9586 63.4265C96.6069 62.7674 96.0978 62.2053 95.4767 61.7901L86.7301 55.8496C86.7301 55.8496 86.7282 68.7468 86.7282 69.3396C86.7282 69.5374 86.6496 69.7271 86.5097 69.867C86.3699 70.0069 86.1802 70.0855 85.9824 70.0855C85.7846 70.0855 85.5948 70.0069 85.455 69.867C85.3151 69.7271 85.2365 69.5374 85.2365 69.3396C85.2365 69.1949 85.22 54.5881 85.22 52.8064" fill="#5C6374"/>
<path d="M89.9021 31.3141C88.8393 31.5607 87.8422 32.0339 86.979 32.7012C86.1158 33.3686 85.4069 34.2144 84.9006 35.1809V33.0148L79.841 34.212L79.8468 48.0449C80.7343 47.6939 81.7016 47.5952 82.6417 47.7595C83.5819 47.9239 84.4583 48.345 85.1741 48.9762V40.0447C85.1741 37.9054 86.2386 36.1964 87.7596 35.8611C88.9038 35.6099 89.8594 36.0192 89.8594 38.0571L89.8632 51.0882L95.1924 49.8387V36.0536C95.1924 32.7114 93.9054 30.3751 89.9021 31.3141" fill="#5C6374"/>
<path d="M167.332 11.5882C166.68 11.5888 166.043 11.396 165.501 11.0343C164.959 10.6726 164.536 10.1583 164.287 9.55632C164.037 8.95436 163.971 8.29185 164.098 7.65263C164.225 7.0134 164.539 6.42618 164.999 5.96527C165.46 5.50436 166.047 5.19047 166.686 5.06331C167.326 4.93616 167.988 5.00145 168.59 5.25093C169.192 5.50042 169.707 5.92288 170.069 6.46486C170.431 7.00685 170.624 7.644 170.623 8.2957C170.622 9.16844 170.275 10.0052 169.658 10.6225C169.041 11.2397 168.205 11.587 167.332 11.5882V11.5882ZM167.332 5.41436C166.762 5.41424 166.205 5.58306 165.732 5.89949C165.258 6.21592 164.888 6.66575 164.67 7.19208C164.452 7.71841 164.395 8.29761 164.506 8.85643C164.617 9.41526 164.891 9.92861 165.294 10.3316C165.697 10.7345 166.21 11.009 166.769 11.1203C167.328 11.2316 167.907 11.1746 168.433 10.9567C168.96 10.7388 169.41 10.3697 169.726 9.89602C170.043 9.42236 170.212 8.86545 170.212 8.2957C170.212 7.53193 169.908 6.7996 169.368 6.25942C168.828 5.71923 168.096 5.41532 167.332 5.41436" fill="#5C6374"/>
<path d="M166.133 6.33273H167.552C167.691 6.31787 167.831 6.33449 167.963 6.38135C168.094 6.42822 168.213 6.50413 168.312 6.60343C168.41 6.70273 168.484 6.82287 168.529 6.9549C168.574 7.08694 168.589 7.22748 168.573 7.36606C168.573 7.88751 168.341 8.28847 167.903 8.35668V8.36433C168.302 8.40513 168.512 8.62505 168.532 9.19048C168.54 9.44547 168.543 9.76165 168.556 10.0077C168.556 10.0769 168.573 10.145 168.607 10.2057C168.64 10.2664 168.688 10.3178 168.746 10.3551H168.021C167.952 10.2488 167.914 10.125 167.912 9.99815C167.89 9.75782 167.896 9.53089 167.885 9.23893C167.874 8.80035 167.74 8.60848 167.299 8.60848H166.774V10.3551H166.133V6.33273ZM167.288 8.124C167.375 8.132 167.463 8.12054 167.545 8.09044C167.627 8.06034 167.702 8.01237 167.763 7.94997C167.824 7.88758 167.871 7.81233 167.9 7.72965C167.929 7.64697 167.939 7.55893 167.93 7.47188C167.93 7.04287 167.744 6.81721 167.321 6.81721H166.774V8.124H167.288Z" fill="#5C6374"/>
</svg>
