<svg width="27" height="34" viewBox="0 0 27 34" fill="none" xmlns="http://www.w3.org/2000/svg">
<path d="M22.4455 18.1407C22.4455 14.0019 25.9284 11.9992 26.0623 11.8657C24.053 9.06197 21.1059 8.66144 20.0343 8.52793C17.4891 8.26091 14.944 9.99654 13.7383 9.99654C12.3988 9.99654 10.3894 8.52793 8.24615 8.52793C5.43307 8.52793 2.88791 10.1301 1.4144 12.6668C-1.53264 17.7401 0.610659 25.2167 3.42374 29.3556C4.89725 31.3582 6.50473 33.6279 8.64802 33.4944C10.7913 33.3609 11.5951 32.1593 14.1402 32.1593C16.6854 32.1593 17.3552 33.4944 19.6324 33.4944C21.9097 33.4944 23.3832 31.4917 24.7228 29.4891C26.3302 27.2194 27 24.9497 27 24.8162C26.866 24.6827 22.4455 23.0806 22.4455 18.1407Z" fill="white"/>
<path d="M18.1445 6.10572C19.2768 4.56415 20.1261 2.60214 19.9846 0.5C18.286 0.640143 16.0213 1.62114 14.889 3.16272C13.7566 4.424 12.7658 6.52615 13.0489 8.48815C14.8889 8.62829 16.8706 7.50715 18.1445 6.10572Z" fill="white"/>
</svg>
