<svg width="240" height="80" viewBox="0 0 240 80" fill="none" xmlns="http://www.w3.org/2000/svg">
<path d="M141.067 45.6H124.533C124.8 46.9333 125.067 47.7333 125.6 48.5333C126.4 49.3333 127.467 49.8667 128.8 49.8667C129.6 49.8667 130.4 49.6 131.2 49.3333C131.733 49.0667 132 48.5333 132.533 48L140.8 48.8C139.467 50.9333 138.133 52.2667 136.267 53.3333C134.4 54.1333 132 54.6667 128.533 54.6667C125.6 54.6667 123.467 54.4 121.867 53.6C120.267 52.8 118.933 51.4667 117.867 49.8667C116.8 48.2667 116.267 46.1333 116.267 44C116.267 40.8 117.333 38.1333 119.467 36C121.6 33.8667 124.533 33.0667 128.533 33.0667C131.733 33.0667 134.133 33.6 136 34.4C137.867 35.2 139.2 36.5333 140 38.4C141.067 40 141.333 42.4 141.333 45.0667V45.6H141.067ZM132.8 41.8667C132.533 40.2667 132.267 39.2 131.467 38.6667C130.667 38.1333 129.867 37.6 128.8 37.6C127.467 37.6 126.4 38.1333 125.6 39.2C125.067 39.7333 124.8 40.8 124.533 41.8667H132.8ZM154.933 26.1333V33.3333H159.467V39.2H154.933V46.6667C154.933 47.4667 154.933 48.2667 155.2 48.5333C155.467 49.0667 156 49.0667 156.533 49.0667C157.067 49.0667 158.133 48.8 159.2 48.5333L159.733 54.1333C157.6 54.6667 155.733 54.6667 153.867 54.6667C151.733 54.6667 150.4 54.4 149.333 53.8667C148.267 53.3333 147.733 52.5333 147.2 51.4667C146.667 50.4 146.4 48.8 146.4 46.4V39.2H143.467V33.3333H146.667V26.1333H154.933ZM162.4 43.7333C162.4 40.5333 163.467 37.8667 165.867 36C168.267 34.1333 171.2 32.8 174.933 32.8C179.2 32.8 182.667 34.1333 184.8 36.5333C186.667 38.4 187.467 40.8 187.467 43.7333C187.467 46.9333 186.4 49.6 184.267 51.4667C182.133 53.6 178.933 54.4 175.2 54.4C171.733 54.4 168.8 53.6 166.667 51.7333C163.733 49.8667 162.4 47.2 162.4 43.7333ZM170.667 43.7333C170.667 45.6 170.933 46.9333 171.733 47.7333C172.533 48.5333 173.6 49.0667 174.667 49.0667C175.733 49.0667 176.8 48.5333 177.6 47.7333C178.4 46.9333 178.667 45.3333 178.667 43.4667C178.667 41.6 178.4 40.2667 177.6 39.4667C176.8 38.6667 175.733 38.1333 174.667 38.1333C173.333 38.1333 172.533 38.6667 171.733 39.4667C171.2 40.5333 170.667 41.8667 170.667 43.7333ZM191.2 33.3333H198.933V36.8C200 35.4667 201.333 34.4 202.4 33.8667C203.467 33.3333 205.067 33.0667 206.667 33.0667C209.067 33.0667 210.667 33.6 212 34.9333C213.333 36.2667 213.867 38.1333 213.867 41.0667V54.4H205.6V42.6667C205.6 41.3333 205.333 40.5333 204.8 40C204.267 39.4667 203.467 39.2 202.667 39.2C201.6 39.2 200.8 39.4667 200.267 40.2667C199.733 41.0667 199.2 42.4 199.2 44.2667V54.1333H190.933V33.3333H191.2ZM103.2 25.3333V42.9333C103.2 44.8 102.933 45.8667 102.4 46.6667C102.133 47.4667 101.333 48 100.267 48C99.7333 48 99.2 48 98.6667 47.7333C98.1333 47.4667 97.8667 46.9333 97.6 46.1333C97.6 45.8667 97.3333 45.6 97.3333 45.0667H88.5333C88.8 46.9333 89.3333 48.8 89.8667 50.1333C90.6667 51.7333 92 52.8 93.6 53.6C95.2 54.4 97.6 54.6667 100.533 54.6667C103.467 54.6667 105.6 54.1333 107.467 52.8C109.333 51.7333 110.4 50.1333 111.2 48.5333C112 46.9333 112 44.2667 112 41.0667V25.3333H103.2ZM54.9333 24.2667C52 22.4 48.5333 21.3333 44.8 21.3333C37.3333 21.3333 31.2 25.6 28 31.7333L54.9333 24.2667ZM25.8667 39.2C25.8667 39.4667 25.8667 39.7333 25.8667 40C25.8667 44 27.2 48 29.3333 50.9333L63.4667 41.6C63.4667 41.0667 63.7333 40.5333 63.7333 40C63.7333 36.2667 62.6667 32.5333 60.5333 29.6L25.8667 39.2ZM34.1333 56C37.0667 58.1333 40.8 59.2 44.8 59.2C52.2667 59.2 58.6667 54.6667 61.8667 48.5333L34.1333 56ZM77.8667 17.6H74.6667V62.6667H77.6V17.6H77.8667Z" fill="#5B6376"/>
</svg>
