<svg width="241" height="96" viewBox="0 0 241 96" fill="none" xmlns="http://www.w3.org/2000/svg">
<path fill-rule="evenodd" clip-rule="evenodd" d="M120.478 22.9088C120.434 23.0245 120.441 23.3462 120.493 23.624C120.545 23.9016 120.645 24.6039 120.714 25.1846C120.784 25.7652 120.904 26.7462 120.981 27.3643C121.058 27.9823 121.179 29.0092 121.249 29.6461C121.319 30.2829 121.439 31.3098 121.517 31.9279C121.594 32.5461 121.719 33.5422 121.794 34.1416C121.869 34.741 121.991 35.7218 122.066 36.3212C122.141 36.9206 122.264 37.9015 122.339 38.5009C122.414 39.1003 122.536 40.0811 122.611 40.6805C122.686 41.2799 122.811 42.2761 122.888 42.8942C122.966 43.5124 123.086 44.5391 123.156 45.176C123.226 45.8129 123.346 46.8396 123.424 47.4578C123.501 48.076 123.626 49.0721 123.701 49.6715C123.776 50.2709 123.898 51.2517 123.973 51.8511C124.048 52.4505 124.171 53.4314 124.246 54.0308C124.321 54.6302 124.443 55.611 124.518 56.2104C124.593 56.8098 124.718 57.8059 124.795 58.4241C124.873 59.0423 124.993 60.0691 125.063 60.7059C125.133 61.3428 125.254 62.3697 125.331 62.9877C125.644 65.4874 125.75 66.3385 125.873 67.347C126.102 69.224 126.185 69.6246 126.396 69.8672C126.588 70.0876 127.065 70.1056 132.713 70.1056C138.614 70.1056 138.831 70.0965 139.091 69.8366C139.403 69.5246 139.463 69.2919 139.567 67.9941C139.656 66.8811 139.847 64.9614 140.042 63.2261C140.322 60.7339 140.468 59.3796 140.593 58.1176C140.664 57.4058 140.785 56.2563 140.862 55.5633C140.939 54.8704 141.065 53.7361 141.142 53.0431C141.219 52.3501 141.34 51.2007 141.411 50.4889C141.481 49.7771 141.602 48.6276 141.679 47.9346C141.756 47.2416 141.882 46.1074 141.959 45.4144C142.036 44.7214 142.157 43.5719 142.228 42.8601C142.299 42.1483 142.419 40.999 142.497 40.3059C142.574 39.6127 142.698 38.494 142.773 37.8197C142.848 37.1454 142.972 36.0267 143.049 35.3336C143.218 33.8163 143.431 31.6873 143.541 30.4234C143.674 28.8929 143.894 28.9649 139.095 28.9649C135.413 28.9649 135.031 28.9863 134.841 29.2033C134.563 29.5212 134.517 29.9161 134.054 35.9125C133.982 36.8491 133.859 38.3817 133.781 39.3182C133.703 40.2548 133.579 41.864 133.506 42.8942C133.433 43.9245 133.313 45.6103 133.24 46.6404C133.166 47.6707 133.054 49.2799 132.99 50.2164C132.866 52.0191 132.778 52.3961 132.476 52.3961C132.248 52.3961 132.181 52.1052 132.082 50.6932C132.039 50.0938 131.946 48.8371 131.873 47.9005C131.8 46.964 131.68 45.4008 131.606 44.4267C131.532 43.4527 131.407 41.8895 131.33 40.9529C131.252 40.0164 131.128 38.4684 131.055 37.5132C130.981 36.558 130.858 34.964 130.782 33.9713C130.705 32.9786 130.607 31.5533 130.565 30.804C130.475 29.2257 130.332 28.9649 129.553 28.9649C129.273 28.9649 128.501 28.8094 127.837 28.6193C125.614 27.983 123.249 26.0027 121.457 23.2774C121.066 22.6827 120.628 22.5178 120.478 22.9088ZM201.146 28.7492C197.241 29.8587 195.397 32.0713 194.479 36.7507C194.28 37.765 194.262 39.2058 194.307 50.0802C194.359 62.589 194.373 62.9125 194.926 64.6072C195.487 66.3261 196.529 67.8276 197.847 68.8188C198.957 69.6529 199.681 70.0021 201.062 70.3696C202.069 70.6376 202.462 70.6676 204.399 70.6242C206.466 70.5781 206.667 70.5493 207.816 70.136C209.306 69.6004 210.288 68.9688 211.363 67.8541C212.669 66.5016 213.156 65.575 213.832 63.159C214.148 62.0298 214.156 61.8723 214.156 56.5972C214.156 53.6244 214.119 51.0954 214.073 50.9768C213.908 50.5462 213.641 50.7835 213.053 51.8832C212.206 53.4676 210.858 54.8589 209.515 55.5338C208.475 56.057 207.119 56.4829 206.495 56.4829C205.873 56.4829 205.743 56.8196 205.653 58.6625C205.452 62.817 205.406 63.1507 204.987 63.5109C204.518 63.9141 203.956 63.931 203.48 63.5561C202.938 63.1297 202.814 62.8011 202.662 61.3871C202.483 59.7205 202.485 40.0623 202.664 37.9559C202.812 36.2129 203.032 35.6305 203.635 35.3807C204.353 35.0835 205.118 35.6315 205.501 36.7168C205.663 37.176 205.71 37.9433 205.71 40.1316C205.71 42.693 205.733 42.975 205.959 43.1796C206.178 43.3779 206.66 43.405 209.957 43.405C214.54 43.405 214.215 43.5616 214.107 41.4054C213.953 38.3243 213.678 35.9117 213.366 34.8908C213.297 34.6661 212.982 33.9691 212.667 33.3419C211.541 31.1049 209.468 29.5154 206.664 28.74C205.065 28.2977 202.721 28.3015 201.146 28.7492ZM73.7944 29.2141C73.5868 29.4435 73.569 31.0509 73.569 49.559C73.569 68.8544 73.5789 69.6637 73.8181 69.8802C74.0353 70.0767 74.4855 70.1056 77.3362 70.1056C80.5642 70.1056 80.6089 70.1017 80.8975 69.7946C81.1888 69.4844 81.1898 69.4606 81.2277 61.042C81.2486 56.3991 81.3202 52.5161 81.3866 52.4129C81.5602 52.1438 81.8728 52.9261 82.0333 54.0308C82.104 54.5178 82.2208 55.3301 82.2928 55.8358C82.3648 56.3415 82.485 57.1845 82.56 57.7089C82.6349 58.2334 82.7575 59.0916 82.8324 59.6161C82.9074 60.1406 83.03 60.9988 83.1049 61.5233C83.1798 62.0478 83.305 62.9213 83.3829 63.4645C83.461 64.0078 83.581 64.912 83.6498 65.4739C83.7687 66.4459 83.9376 67.6693 84.1389 69.0158C84.2999 70.0927 84.333 70.1056 86.9192 70.1056C88.915 70.1056 89.2181 70.0765 89.3997 69.8672C89.6784 69.5459 89.8044 68.8872 90.1887 65.7463C90.2575 65.1844 90.3801 64.2649 90.4612 63.7029C90.5422 63.141 90.6648 62.2215 90.7336 61.6595C90.8024 61.0976 90.925 60.178 91.0061 59.6161C91.0871 59.0542 91.2097 58.1346 91.2785 57.5727C91.3473 57.0108 91.4695 56.0912 91.55 55.5293C91.6307 54.9673 91.7491 54.0785 91.8131 53.554C91.9515 52.4194 92.2684 51.5833 92.4519 51.868C92.5183 51.9712 92.5897 56.0066 92.6106 60.8358C92.6448 68.7188 92.6712 69.641 92.8701 69.8608C92.992 69.9954 93.1605 70.1056 93.2447 70.1056C93.3289 70.1056 93.8252 70.3136 94.3475 70.5678C95.6171 71.1858 97.1953 72.8031 98.4825 74.8055C99.8249 76.8936 99.7818 76.8402 100.041 76.7406C100.254 76.6592 100.27 74.9971 100.27 53.0344C100.27 30.3261 100.26 29.4071 100.02 29.1904C99.7976 28.9888 99.2155 28.9649 94.5243 28.9649C88.5083 28.9649 88.9102 28.8743 88.7819 30.2591C88.7402 30.7086 88.6387 31.5362 88.5563 32.0982C88.4739 32.6601 88.3503 33.5796 88.2815 34.1416C88.2127 34.7035 88.0927 35.6077 88.0147 36.1509C87.655 38.6556 87.5836 39.175 87.4768 40.0675C87.3664 40.9914 87.1105 41.7703 86.9176 41.7703C86.7931 41.7703 86.4355 40.3232 86.2445 39.0458C86.0449 37.7107 85.8763 36.6036 85.7 35.4698C85.6213 34.964 85.4927 34.1365 85.4139 33.6307C85.3353 33.1249 85.2103 32.3127 85.136 31.8257C84.8449 29.915 84.7372 29.4604 84.5172 29.2174C84.3025 28.9801 83.9799 28.9649 79.1543 28.9649C74.3532 28.9649 74.0053 28.9811 73.7944 29.2141ZM107.055 29.2033C106.747 29.5615 106.661 29.8758 106.521 31.1446C106.45 31.7814 106.331 32.7929 106.256 33.3923C106.18 33.9917 106.061 35.0032 105.991 35.6401C105.922 36.2769 105.799 37.3191 105.719 37.9559C105.639 38.5928 105.516 39.6349 105.446 40.2718C105.377 40.9087 105.256 41.9356 105.179 42.5536C105.101 43.1718 104.974 44.1832 104.897 44.8014C104.82 45.4196 104.699 46.4463 104.629 47.0832C104.559 47.72 104.439 48.7469 104.361 49.365C104.284 49.9832 104.157 50.9947 104.08 51.6127C104.002 52.2309 103.882 53.2577 103.812 53.8946C103.742 54.5314 103.621 55.5582 103.544 56.1764C103.466 56.7946 103.34 57.8059 103.262 58.4241C103.185 59.0423 103.064 60.0691 102.994 60.7059C102.925 61.3428 102.804 62.3697 102.727 62.9877C102.649 63.6059 102.524 64.602 102.449 65.2014C102.375 65.8008 102.252 66.7817 102.177 67.3811C102.102 67.9805 101.977 68.9767 101.9 69.5948C101.37 73.8267 101.266 75.4185 101.521 75.4185C101.625 75.4185 102.039 74.9578 102.442 74.3946C104.451 71.5861 107.22 69.8332 109.647 69.8332C110.025 69.8332 110.376 69.767 110.426 69.6859C110.686 69.2644 110.887 67.8061 110.892 66.2913C110.899 64.611 111.107 63.3557 111.447 62.9461C111.673 62.6733 113.656 62.6688 113.882 62.9405C114.193 63.3156 114.334 64.0713 114.456 66.0188C114.645 69.0386 114.718 69.6088 114.948 69.8672C115.141 70.0838 115.519 70.1056 119.064 70.1056C122.092 70.1056 123.023 70.065 123.215 69.9248C123.436 69.7636 123.453 69.5995 123.377 68.3923C123.33 67.6488 123.229 66.4888 123.153 65.8145C123.077 65.1401 122.956 64.006 122.885 63.2943C122.813 62.5825 122.692 61.433 122.615 60.74C122.538 60.047 122.412 58.9128 122.335 58.2198C122.258 57.5268 122.137 56.3773 122.066 55.6655C121.996 54.9537 121.876 53.8196 121.8 53.1453C121.52 50.653 121.374 49.2988 121.249 48.0368C121.178 47.325 121.058 46.1909 120.983 45.5166C120.907 44.8422 120.783 43.7234 120.706 43.0304C120.63 42.3373 120.505 41.2033 120.428 40.5102C120.351 39.8171 120.23 38.6677 120.159 37.9559C120.033 36.6897 119.895 35.4169 119.607 32.8815C119.529 32.1883 119.431 31.131 119.389 30.5316C119.341 29.8297 119.239 29.3569 119.102 29.2033C118.907 28.9833 118.442 28.9649 113.075 28.9649C107.705 28.9649 107.244 28.9832 107.055 29.2033ZM144.905 29.2141C144.698 29.4435 144.68 31.0459 144.68 49.4881V69.5132L144.995 69.8095L145.311 70.1056H153.963H162.614L162.911 69.7904C163.2 69.4827 163.207 69.3859 163.207 65.7928C163.207 62.3984 163.187 62.0929 162.958 61.885C162.737 61.6849 162.209 61.6595 158.266 61.6595C153.829 61.6595 153.822 61.6591 153.611 61.3567C153.43 61.0995 153.399 60.4543 153.399 57.0594V53.0648L153.746 52.7174C154.002 52.4616 154.181 52.3913 154.427 52.4511C154.611 52.4958 154.901 52.5663 155.073 52.6082C155.482 52.7072 156.123 52.2101 156.123 51.7945C156.123 51.3911 156.541 50.1837 156.978 49.3279C157.351 48.5953 159.247 46.6716 160.455 45.8001C160.906 45.4743 161.161 45.1959 161.134 45.0572C161.096 44.86 160.692 44.8318 157.484 44.8016C153.998 44.7691 153.867 44.7581 153.637 44.48C153.425 44.2238 153.399 43.8382 153.399 40.9682C153.399 38.2706 153.433 37.6947 153.611 37.4414C153.822 37.139 153.828 37.1386 158.289 37.1386C162.444 37.1386 162.772 37.1211 162.981 36.8894C163.179 36.6708 163.207 36.1982 163.207 33.0281C163.207 29.7017 163.187 29.398 162.958 29.1904C162.731 28.9855 161.907 28.9649 153.92 28.9649C145.578 28.9649 145.119 28.9776 144.905 29.2141ZM164.25 29.2141C164.042 29.4435 164.024 31.0459 164.024 49.4881V69.5132L164.339 69.8095C164.648 70.0989 164.74 70.1056 168.473 70.1056C172 70.1056 172.309 70.0865 172.517 69.8565C172.722 69.6302 172.743 68.8142 172.743 60.9447C172.743 56.1803 172.78 52.1852 172.826 52.0667C172.884 51.9152 173.087 51.8511 173.509 51.8511C173.997 51.8511 174.199 51.934 174.589 52.2939C175.447 53.0858 175.464 53.2725 175.466 61.9449C175.467 69.2399 175.481 69.6668 175.717 69.8802C175.854 70.0041 176.181 70.1056 176.444 70.1056C177.003 70.1056 178.117 70.4678 179.08 70.9626C179.978 71.4233 181.806 73.2903 182.335 74.2858C182.633 74.8469 182.835 75.0779 183.028 75.0779C183.298 75.0779 183.301 74.9755 183.335 64.7362C183.373 53.6556 183.347 53.1437 182.681 51.8385C182.33 51.1498 181.112 49.9358 180.354 49.5182C179.986 49.3157 179.743 49.0796 179.717 48.8996C179.682 48.6577 179.794 48.5692 180.382 48.3738C181.634 47.9582 182.555 46.8509 182.93 45.3122C183.012 44.9751 183.144 44.4115 183.224 44.0599C183.413 43.2233 183.411 37.7314 183.221 36.67C182.686 33.6855 182.043 32.1407 180.829 30.9263C179.959 30.0567 179.058 29.5948 177.817 29.3829C177.349 29.3029 176.61 29.1761 176.174 29.1012C175.736 29.0258 172.946 28.9649 169.929 28.9649C164.818 28.9649 164.461 28.9806 164.25 29.2141ZM184.684 29.2141C184.476 29.4439 184.458 31.2882 184.458 52.9746C184.458 65.9059 184.496 76.583 184.541 76.7015C184.695 77.1025 184.964 76.92 185.386 76.1278C187.383 72.3806 189.126 70.7321 191.824 70.036C192.306 69.9118 192.807 69.7138 192.939 69.5963C193.164 69.3942 193.177 68.2584 193.177 49.3991C193.177 30.2126 193.167 29.4069 192.928 29.1904C192.708 28.9916 192.218 28.9649 188.794 28.9649C185.204 28.9649 184.892 28.9839 184.684 29.2141ZM215.471 29.2141C215.264 29.4435 215.246 31.0459 215.246 49.4881V69.5132L215.561 69.8095C215.734 69.9724 216.001 70.1056 216.153 70.1056C216.63 70.1056 217.941 70.6173 218.547 71.04C220.073 72.1052 222.022 74.5447 222.86 76.4388C223.135 77.0603 223.458 77.2322 223.609 76.8377C223.655 76.7192 223.692 71.8533 223.692 66.0247C223.692 60.196 223.73 55.2356 223.777 55.0014C223.992 53.9245 224.341 54.8947 225.045 58.5263C225.343 60.0623 225.901 62.9435 226.286 64.929C227.09 69.0813 227.168 69.3838 227.547 69.7991C227.824 70.1034 227.854 70.1056 231.719 70.1036C233.86 70.1024 235.699 70.0465 235.805 69.9793C236.122 69.7784 236.009 68.9993 235.149 65.4739C234.701 63.6382 233.959 60.5731 233.501 58.6625C233.042 56.7519 232.359 53.932 231.983 52.3961C230.763 47.4148 230.746 47.3081 230.991 46.3491C231.108 45.8912 231.929 42.8499 232.816 39.5907C235.764 28.7494 235.63 29.3259 235.254 29.0878C235.151 29.0226 233.467 28.9682 231.512 28.967C228.293 28.9651 227.937 28.9875 227.741 29.2043C227.618 29.3394 226.868 32.0644 226.017 35.4672C224.237 42.5818 224.002 43.285 223.777 42.162C223.73 41.9278 223.692 38.9642 223.692 35.5761C223.692 29.7812 223.677 29.4025 223.443 29.1904C223.224 28.992 222.742 28.9649 219.445 28.9649C215.987 28.9649 215.679 28.9841 215.471 29.2141ZM174.179 36.2648C175.13 36.7161 175.468 37.8822 175.466 40.7001C175.464 43.3773 175.147 44.5077 174.274 44.9516C173.543 45.3233 173.316 45.3406 173.022 45.0467C172.753 44.7775 172.743 44.6194 172.743 40.7109C172.743 37.2598 172.774 36.6091 172.955 36.3516C173.205 35.9937 173.555 35.9689 174.179 36.2648ZM112.996 41.8044C113.084 42.2346 113.206 43.2515 113.356 44.8014C113.426 45.532 113.547 46.758 113.624 47.5259C114.18 53.0467 114.262 54.8844 113.972 55.3269C113.771 55.6338 113.661 55.6655 112.803 55.6655C111.944 55.6655 111.835 55.6338 111.634 55.3274C111.397 54.9663 111.4 54.7953 111.713 51.0338C111.971 47.9281 112.125 45.8105 112.236 43.8818C112.296 42.8329 112.394 41.8674 112.452 41.7363C112.603 41.4 112.922 41.44 112.996 41.8044Z" fill="#5B6376"/>
<path fill-rule="evenodd" clip-rule="evenodd" d="M32.3603 16.0488C31.9856 16.1172 31.25 16.2364 30.7255 16.3135C28.7076 16.6104 26.1092 17.3219 23.9823 18.1601C19.4723 19.9374 14.4316 23.5317 11.5621 27.0162C9.64053 29.3498 9.17858 29.9818 8.21655 31.5933C5.94128 35.405 4.54821 39.1846 3.96366 43.1325C3.88043 43.6944 3.75292 44.495 3.68031 44.9116C3.50907 45.8933 3.50907 50.9974 3.68031 51.9791C3.75292 52.3957 3.88043 53.1963 3.96366 53.7582C4.27385 55.8529 4.97352 58.4182 5.82126 60.5696C7.59862 65.0795 11.1928 70.1202 14.6774 72.9897C17.011 74.9113 17.6429 75.3732 19.2545 76.3353C23.0661 78.6105 26.8458 80.0037 30.7936 80.5882C31.3556 80.6715 32.1562 80.799 32.5728 80.8716C33.5544 81.0428 38.6586 81.0428 39.6403 80.8716C40.0568 80.799 40.8574 80.6734 41.4194 80.5924C42.4715 80.441 45.0849 79.7996 46.5279 79.3386C49.6699 78.335 52.8964 76.5966 55.8322 74.3256C58.9069 71.947 59.633 71.2203 61.9543 68.1983C65.014 64.2152 67.0068 59.8836 68.0025 55.0524C68.4707 52.7811 68.5827 51.5053 68.5827 48.4454C68.5827 45.3854 68.4707 44.1096 68.0025 41.8383C67.4737 39.2719 66.4367 36.2243 65.3608 34.0734C63.7405 30.8346 60.511 26.4783 58.3213 24.5779C54.3429 21.1251 50.4461 18.8035 46.5279 17.5521C45.0849 17.0911 42.4715 16.4498 41.4194 16.2983C40.8574 16.2173 40.0568 16.0917 39.6403 16.0191C38.7071 15.8563 33.2936 15.8784 32.3603 16.0488ZM15.0263 32.8562C17.7835 33.5551 20.0937 34.6244 22.8138 36.4606C24.5751 37.6495 24.9147 37.9129 27.1369 39.8132C29.4094 41.7566 33.5829 46.4119 35.2618 48.8762C35.9748 49.9227 36.1423 49.8744 37.3572 48.2725C38.1511 47.2257 38.6407 46.627 40.3883 44.5659C41.539 43.2086 43.8716 40.8439 45.0761 39.8136C47.2946 37.9157 47.6372 37.65 49.3992 36.4606C52.1199 34.624 54.4295 33.5551 57.1887 32.8558C59.017 32.3922 59.0544 32.411 59.9988 34.2652C61.2578 36.7373 62.0288 39.0128 62.4656 41.5453C62.5838 42.2309 62.7397 43.1328 62.8119 43.5493C62.9817 44.5284 62.9823 49.3608 62.8127 50.3444C62.0982 54.4872 61.6757 56.1568 60.6563 58.8668C60.2451 59.96 59.4398 61.7805 59.0295 62.5449C57.0779 66.1805 55.8194 68.1425 53.7619 70.7564C52.7848 71.9979 52.3102 71.8239 52.7272 70.377C53.1255 68.9944 53.6157 66.147 53.9696 63.1579C54.1887 61.3089 54.2718 55.601 54.0958 54.5075C54.0113 53.983 53.8779 53.1554 53.7995 52.6684C53.5726 51.2605 53.1637 49.8146 52.7076 48.8085C52.2172 47.7266 52.2293 47.4848 52.8512 45.9317C53.0822 45.3549 53.2712 44.8569 53.2712 44.825C53.2712 44.6625 52.5094 44.8026 52.0056 45.0578C50.4718 45.835 47.1976 48.3669 45.1867 50.3306C43.5421 51.9369 40.892 55.2748 39.6266 57.3343C38.8373 58.619 36.9081 62.4284 36.6597 63.1931C36.5682 63.4745 36.376 63.7678 36.2325 63.8445C36.0135 63.9618 35.9279 63.9123 35.6986 63.5369C35.5485 63.291 35.3558 62.8752 35.2702 62.613C35.1847 62.3508 34.6861 61.278 34.1624 60.229C32.6323 57.1646 29.783 53.1613 27.3415 50.6461C24.9884 48.2218 20.0868 44.64 19.1121 44.6323C18.846 44.6302 18.9109 45.0901 19.2785 45.8104C19.4637 46.1732 19.6908 46.7605 19.7831 47.1154C19.936 47.703 19.9227 47.8247 19.6343 48.4776C18.9597 50.0045 18.6375 51.2349 18.1267 54.235C17.8267 55.9967 18.0651 62.8224 18.5168 65.4057C18.5954 65.8552 18.7187 66.5908 18.7908 67.0404C18.9131 67.8031 19.4067 70.3774 19.5485 70.9921C19.6361 71.3715 19.4458 71.6319 19.1608 71.5227C18.7255 71.3557 16.0781 67.6662 14.7469 65.3716C14.4318 64.8283 13.9269 63.9634 13.6249 63.4496C12.9303 62.2671 11.5183 58.9782 10.8479 56.9811C10.4353 55.752 9.89391 53.5939 9.69747 52.3959C9.61765 51.9089 9.48319 51.0814 9.39859 50.5569C9.22313 49.4681 9.30146 43.8708 9.51193 42.4513C9.69189 41.2384 10.5793 37.8625 10.9704 36.9031C11.758 34.9706 12.0105 34.4297 12.4938 33.6378C12.9172 32.944 13.2708 32.5867 13.6043 32.516C13.6282 32.5108 14.268 32.6639 15.0263 32.8562Z" fill="#5B6376"/>
</svg>
