<svg width="241" height="96" viewBox="0 0 241 96" fill="none" xmlns="http://www.w3.org/2000/svg">
<path d="M61.9272 67.5526C61.4865 67.5321 61.0476 67.6223 60.6506 67.815C60.2536 68.0076 59.9111 68.2967 59.6543 68.6558C59.1173 69.3912 58.8487 70.4163 58.8487 71.7309C58.8487 74.4686 59.8749 75.8363 61.9272 75.8343C62.9961 75.7919 64.0508 75.5744 65.0494 75.1905V77.3781C63.979 77.808 62.8338 78.0205 61.6806 78.0031C59.8988 78.0031 58.5345 77.4625 57.5874 76.3812C56.6403 75.2999 56.1678 73.7456 56.1699 71.7184C56.1456 70.5623 56.3837 69.4158 56.8662 68.3651C57.2947 67.4438 57.9926 66.6744 58.8675 66.1588C59.7979 65.6299 60.8544 65.3641 61.9241 65.39C63.1696 65.4031 64.3959 65.698 65.5115 66.2525L64.6747 68.3682C64.2233 68.1536 63.7605 67.9637 63.2885 67.7995C62.852 67.6406 62.3917 67.5572 61.9272 67.5526Z" fill="#5B6376"/>
<path d="M97.698 77.8344V65.5619H100.296V77.8344H97.698Z" fill="#5B6376"/>
<path d="M138.162 77.8344H135.561V67.7276H132.233V65.5619H141.49V67.7276H138.162V77.8344Z" fill="#5B6376"/>
<path d="M177.242 70.6152L179.803 65.5619H182.612L178.554 73.0622V77.8406H175.972V73.1529L171.913 65.5744H174.723L177.242 70.6152Z" fill="#5B6376"/>
<path d="M183.199 32.9664H180.336C179.812 32.9664 179.752 32.9664 179.712 32.4258C179.603 31.2888 179.307 30.1778 178.834 29.1381C177.698 26.6817 175.756 25.341 173.108 25.0347C171.629 24.8421 170.126 24.9787 168.706 25.4348C167.733 25.748 166.838 26.2678 166.084 26.9587C165.33 27.6496 164.733 28.4953 164.335 29.4381C163.935 30.365 163.673 31.3451 163.555 32.3476C163.539 32.4508 163.533 32.557 163.523 32.6601C163.526 32.6998 163.52 32.7397 163.506 32.777C163.492 32.8142 163.471 32.8481 163.443 32.8762C163.414 32.9044 163.381 32.9262 163.343 32.9401C163.306 32.954 163.266 32.9598 163.227 32.957H162.83H157.235C157.104 32.957 156.97 32.957 156.839 32.957C156.76 32.9572 156.683 32.9273 156.625 32.8734C156.567 32.8194 156.532 32.7454 156.527 32.6664C156.464 32.3007 156.414 31.932 156.333 31.5726C156.068 30.3229 155.568 29.135 154.859 28.0724C154.252 27.1478 153.43 26.3841 152.464 25.8465C151.498 25.3088 150.416 25.0131 149.311 24.9847C148.304 24.9147 147.292 24.9926 146.308 25.216C143.779 25.841 142.052 27.3849 141.062 29.7725C140.712 30.6027 140.485 31.4798 140.388 32.3758C140.332 32.9508 140.322 32.9539 139.698 32.957H134.45C134.237 32.957 134.025 32.957 133.825 32.957C133.485 32.957 133.416 32.8789 133.45 32.5133C133.485 32.1476 133.541 31.7226 133.61 31.3319C134.013 28.7827 134.947 26.3467 136.351 24.1816C137.346 22.6391 138.65 21.3208 140.182 20.3104C141.713 19.3 143.438 18.6196 145.246 18.3125C146.418 18.0914 147.609 17.9867 148.802 18C151.666 18.0013 154.44 18.9952 156.655 20.8127C157.7 21.6701 158.643 22.6453 159.464 23.7191C159.611 23.9066 159.755 24.1003 159.905 24.2847C159.922 24.3132 159.946 24.3368 159.974 24.3532C160.003 24.3696 160.036 24.3783 160.069 24.3783C160.102 24.3783 160.134 24.3696 160.163 24.3532C160.192 24.3368 160.216 24.3132 160.233 24.2847C160.404 24.0847 160.573 23.8784 160.738 23.6597C161.6 22.5805 162.585 21.6061 163.673 20.7564C165.93 18.9981 168.7 18.0298 171.56 18C173.393 17.9476 175.221 18.2119 176.964 18.7813C179.813 19.7206 182.238 21.6379 183.811 24.1941C185.11 26.2674 185.989 28.5757 186.4 30.9882C186.487 31.457 186.543 31.9257 186.596 32.4039C186.662 32.957 186.652 32.9602 186.062 32.9664H183.199Z" fill="#5B6376"/>
<path d="M47.0282 34.854C48.0335 34.854 49.042 34.854 50.0504 34.854C50.4157 34.854 50.4719 34.9134 50.4782 35.2634C50.4782 35.8197 50.4594 36.3791 50.4782 36.9354C50.4981 38.1558 50.7338 39.3631 51.1744 40.5012C51.9413 42.532 53.3952 44.2295 55.2832 45.2983C56.4698 45.9577 57.7811 46.3612 59.1328 46.4827C60.7435 46.6676 62.3738 46.5757 63.9535 46.2108C67.6814 45.2952 70.0449 42.9482 71.1907 39.3355C71.403 38.597 71.5081 37.8319 71.5029 37.0635C71.478 36.4385 71.5029 35.8416 71.5029 35.2321C71.5029 34.9571 71.5747 34.879 71.8151 34.8759C73.9112 34.8759 76.0062 34.8759 78.1001 34.8759C78.3436 34.8759 78.4123 34.9509 78.4123 35.2353C78.4685 37.2823 78.4123 39.3167 77.8691 41.3137C77.2912 43.5536 76.2815 45.6588 74.8967 47.5109C73.0533 49.904 70.5173 51.6698 67.6345 52.5674C65.7366 53.1695 63.7617 53.4937 61.7711 53.53C59.7019 53.6054 57.6322 53.3951 55.6204 52.9049C50.5656 51.6268 47.0563 48.5297 45.005 43.7826C44.2437 42.0554 43.7631 40.2176 43.5813 38.3386C43.4845 37.2854 43.55 36.2197 43.5438 35.1571C43.54 35.116 43.5456 35.0744 43.5602 35.0358C43.5749 34.9971 43.5981 34.9623 43.6282 34.9339C43.6583 34.9056 43.6945 34.8845 43.734 34.8723C43.7734 34.8601 43.8152 34.857 43.856 34.8634C44.3306 34.8634 44.7927 34.8634 45.286 34.8634L47.0282 34.854Z" fill="#5B6376"/>
<path d="M71.6059 32.932C71.4947 32.7407 71.4265 32.5274 71.4061 32.307C70.7504 29.1152 68.9031 26.9338 65.8642 25.7629C64.648 25.3015 63.3644 25.0429 62.0645 24.9972C60.3386 24.8734 58.6041 25.0371 56.9317 25.4816C54.7461 26.1067 52.9509 27.313 51.727 29.2818C51.1145 30.2788 50.703 31.3861 50.5156 32.5414C50.4469 32.9383 50.425 32.9633 50.0816 32.9633H43.9621C43.5968 32.9633 43.525 32.882 43.5781 32.5414C43.6561 32.0445 43.7404 31.5476 43.8497 31.0569C44.3546 28.661 45.3578 26.3983 46.7939 24.416C48.7834 21.692 51.6323 19.719 54.8804 18.8157C56.4871 18.3557 58.1434 18.0913 59.8134 18.0281C62.0665 17.9008 64.3259 18.1115 66.5167 18.6532C69.3976 19.3457 72.0131 20.8665 74.0412 23.0284C75.7272 24.8776 76.9795 27.0802 77.7066 29.4756C77.9569 30.2592 78.153 31.059 78.2936 31.8695C78.3347 32.1041 78.3618 32.341 78.3748 32.5789C78.3935 32.8914 78.3248 32.9539 78.0157 32.957C77.1696 32.957 76.3204 32.957 75.4712 32.957H72.1336C71.9493 32.9633 71.7651 32.9445 71.6059 32.932Z" fill="#5B6376"/>
<path d="M15.669 18.1719C17.5766 18.1719 19.4843 18.2 21.3919 18.1719C22.6638 18.151 23.932 18.3141 25.1573 18.6563C27.395 19.2334 29.494 20.2548 31.3298 21.6596C33.9025 23.639 35.6341 26.5174 36.1786 29.7194C36.3159 30.4475 36.369 31.1882 36.4533 31.9257C36.4725 32.1105 36.4809 32.2963 36.4783 32.482C36.4783 32.907 36.4377 32.9508 36.0412 32.9664H30.2371C30.1059 32.9664 29.9717 32.9664 29.8405 32.9664C29.7997 32.9728 29.758 32.9697 29.7185 32.9575C29.679 32.9453 29.6429 32.9242 29.6127 32.8959C29.5826 32.8675 29.5594 32.8327 29.5448 32.794C29.5301 32.7553 29.5245 32.7138 29.5283 32.6726C29.5222 32.1477 29.4668 31.6246 29.3628 31.1101C29.1634 29.9287 28.6908 28.8104 27.9828 27.8443C26.862 26.3379 25.3103 25.5473 23.5119 25.1879C22.888 25.062 22.2532 24.9981 21.6167 24.9972H15.8251C15.6908 24.9972 15.5597 24.9972 15.4285 25.0129C15.3957 25.0136 15.3634 25.021 15.3335 25.0346C15.3037 25.0482 15.2768 25.0677 15.2547 25.0919C15.2325 25.1162 15.2155 25.1446 15.2046 25.1756C15.1937 25.2066 15.1891 25.2395 15.1913 25.2723C15.1913 25.4848 15.1913 25.6973 15.1913 25.8973V32.2539C15.1913 32.9727 15.1913 32.9695 14.5013 32.9664H8.92503C8.7658 32.9664 8.61281 32.9664 8.45046 32.9445C8.3971 32.9415 8.34678 32.9187 8.30927 32.8806C8.27177 32.8424 8.24976 32.7917 8.24752 32.7383C8.22566 32.5539 8.22566 32.3758 8.22566 32.182V18.9719C8.22566 18.1063 8.20069 18.1719 9.06865 18.1719H15.669Z" fill="#5B6376"/>
<path d="M96.9831 53.5206H87.2793C87.0421 53.5206 86.8048 53.5206 86.5644 53.5206C86.5315 53.5232 86.4985 53.519 86.4673 53.5082C86.4362 53.4975 86.4076 53.4804 86.3833 53.4582C86.359 53.4359 86.3395 53.4089 86.3261 53.3787C86.3126 53.3486 86.3056 53.3161 86.3052 53.2831C86.3052 53.0987 86.2896 52.9112 86.2896 52.7268C86.2896 47.0765 86.2896 41.4241 86.2896 35.7697C86.2896 34.7884 86.2022 34.8665 87.1826 34.8665H92.3529C92.5371 34.8665 92.7244 34.8665 92.9086 34.8665C92.9417 34.8644 92.9747 34.869 93.0059 34.8801C93.0371 34.8912 93.0657 34.9085 93.0899 34.9311C93.1141 34.9536 93.1336 34.9808 93.1469 35.0111C93.1603 35.0413 93.1674 35.074 93.1678 35.1071C93.1678 35.3728 93.1865 35.6353 93.1865 35.9009V45.6108C93.1865 46.6234 93.0897 46.5484 94.1232 46.5484C98.3902 46.5484 102.658 46.5484 106.925 46.5484C107.908 46.5484 107.827 46.4765 107.827 47.4484C107.827 49.1714 107.827 50.8955 107.827 52.6206C107.827 52.8331 107.827 53.0456 107.827 53.2456C107.827 53.2784 107.82 53.3109 107.807 53.341C107.794 53.3711 107.775 53.3982 107.751 53.4205C107.727 53.4428 107.698 53.4599 107.667 53.4707C107.636 53.4815 107.604 53.4857 107.571 53.4831C107.33 53.4831 107.093 53.4831 106.856 53.4831L96.9831 53.5206Z" fill="#5B6376"/>
<path d="M221.655 18H232.233C232.474 18 232.711 18 232.951 18C232.984 17.9988 233.017 18.004 233.048 18.0154C233.078 18.0268 233.107 18.0442 233.131 18.0666C233.155 18.0889 233.174 18.1158 233.188 18.1457C233.202 18.1755 233.209 18.2078 233.211 18.2407C233.211 18.4 233.211 18.5532 233.211 18.7188V24.2316C233.211 24.391 233.211 24.5441 233.211 24.7097C233.209 24.7766 233.181 24.8402 233.133 24.8869C233.086 24.9336 233.021 24.9598 232.955 24.9598C232.742 24.9598 232.53 24.9598 232.33 24.9598H225.958C225.258 24.9598 225.252 24.9598 225.252 25.6567C225.252 27.7536 225.252 29.8506 225.252 31.9476C225.252 32.1601 225.252 32.3726 225.252 32.5726C225.236 32.8852 225.186 32.932 224.859 32.9352C223.535 32.9352 222.208 32.9352 220.881 32.9352H218.655C218.615 32.9406 218.575 32.9374 218.537 32.9257C218.498 32.9139 218.463 32.8939 218.433 32.8672C218.404 32.8404 218.38 32.8074 218.365 32.7706C218.349 32.7337 218.341 32.6939 218.343 32.6539C218.343 32.4164 218.324 32.1789 218.324 31.9382V26.0723C218.324 25.8848 218.324 25.7004 218.324 25.516C218.324 25.0098 218.29 24.9785 217.771 24.9754C215.586 24.9754 213.422 24.9754 211.249 24.9754C209.932 24.9754 210.109 25.141 210.103 23.8441C210.103 22.1971 210.103 20.5501 210.103 18.9063C210.103 18.6938 210.103 18.4813 210.103 18.2813C210.103 18.2479 210.109 18.2148 210.122 18.184C210.135 18.1533 210.154 18.1254 210.178 18.1023C210.202 18.0791 210.23 18.0612 210.261 18.0495C210.293 18.0378 210.326 18.0327 210.359 18.0344C210.597 18.0344 210.834 18.0344 211.074 18.0344L221.655 18Z" fill="#5B6376"/>
<path d="M195.166 44.2045V35.529C195.166 34.8353 195.113 34.829 195.859 34.829H201.423C201.557 34.829 201.688 34.829 201.822 34.829C201.862 34.8292 201.902 34.8377 201.938 34.8539C201.972 34.8702 202.005 34.8938 202.031 34.9233C202.057 34.9528 202.077 34.9874 202.089 35.025C202.101 35.0626 202.105 35.1023 202.1 35.1415C202.1 35.3009 202.1 35.454 202.1 35.6197C202.1 41.3512 202.1 47.0807 202.1 52.8081V52.8893C202.1 53.4987 202.101 53.5144 201.477 53.5144C199.569 53.5144 197.66 53.5144 195.753 53.5144C195.672 53.5144 195.594 53.5144 195.512 53.5144C195.219 53.4956 195.169 53.4456 195.156 53.1175C195.156 52.905 195.156 52.6924 195.156 52.4924V44.2045H195.166Z" fill="#5B6376"/>
<path d="M179.728 44.1483C179.728 41.2814 179.728 38.4167 179.728 35.5541C179.728 34.8103 179.662 34.829 180.474 34.829H185.878C186.062 34.829 186.247 34.829 186.431 34.8509C186.485 34.8517 186.536 34.8732 186.575 34.9111C186.613 34.9489 186.635 35.0001 186.637 35.054C186.656 35.2915 186.662 35.5291 186.662 35.7666C186.662 40.3043 186.662 44.84 186.662 49.3735V52.7956C186.662 52.9268 186.662 53.0612 186.662 53.1925C186.643 53.4362 186.574 53.505 186.303 53.505C186.197 53.505 186.091 53.505 185.991 53.505H180.424C180.265 53.505 180.112 53.505 179.949 53.4831C179.896 53.4823 179.844 53.4607 179.807 53.4227C179.769 53.3848 179.747 53.3336 179.746 53.28C179.746 53.0425 179.728 52.805 179.728 52.5643C179.728 49.7538 179.728 46.9411 179.728 44.1264V44.1483Z" fill="#5B6376"/>
<path d="M163.492 44.2045V52.7174C163.492 53.5487 163.536 53.5206 162.737 53.5206H157.251C157.092 53.5206 156.939 53.5206 156.776 53.5018C156.723 53.4983 156.673 53.4758 156.636 53.4385C156.598 53.4013 156.575 53.3516 156.57 53.2987C156.554 53.1399 156.546 52.9802 156.548 52.8205C156.548 47.0932 156.548 41.3637 156.548 35.6322C156.548 34.8384 156.492 34.8259 157.313 34.829H162.799C162.955 34.829 163.111 34.829 163.274 34.8477C163.327 34.8501 163.378 34.8727 163.416 34.9109C163.453 34.9492 163.475 35.0003 163.476 35.054C163.476 35.2915 163.492 35.529 163.492 35.7697V44.2076V44.2045Z" fill="#5B6376"/>
<path d="M116.878 44.2045V35.8478C116.878 35.7134 116.878 35.5822 116.878 35.4509C116.878 34.8446 116.878 34.8259 117.503 34.8259C119.41 34.8259 121.318 34.8259 123.226 34.8259C123.332 34.8259 123.438 34.8259 123.538 34.8259C123.577 34.8265 123.616 34.8354 123.651 34.8517C123.687 34.8681 123.719 34.8918 123.745 34.9211C123.771 34.9505 123.791 34.985 123.803 35.0224C123.815 35.0598 123.819 35.0993 123.816 35.1384C123.816 35.2696 123.816 35.404 123.816 35.5353C123.816 41.2918 123.816 47.0484 123.816 52.8049C123.816 52.8862 123.816 52.9643 123.816 53.0456C123.8 53.4456 123.766 53.4956 123.347 53.4956H117.247C116.953 53.4737 116.9 53.4206 116.887 53.0956C116.887 52.8831 116.887 52.6705 116.887 52.4705V44.2045H116.878Z" fill="#5B6376"/>
<path d="M15.1225 53.1581C14.9583 53.2497 14.7685 53.2849 14.5824 53.2581H8.85003C8.74387 53.2581 8.63772 53.2581 8.53781 53.2581C8.35984 53.2581 8.22559 53.1675 8.22559 52.9675C8.22559 52.7674 8.22559 52.5987 8.22559 52.4112C8.22559 46.9109 8.22559 41.4137 8.22559 35.9197C8.22559 35.6791 8.22559 35.4415 8.22559 35.204C8.22559 34.9071 8.2974 34.854 8.61898 34.8353C8.75012 34.8353 8.88125 34.8353 9.0155 34.8353H14.3544C14.5386 34.8353 14.726 34.8353 14.9102 34.854C14.9433 34.8523 14.9765 34.8574 15.0075 34.8691C15.0386 34.8808 15.0669 34.8989 15.0906 34.9221C15.1144 34.9452 15.1331 34.9731 15.1456 35.0039C15.158 35.0347 15.164 35.0677 15.1631 35.1009C15.1631 35.3103 15.1787 35.5228 15.1787 35.7259V52.4487C15.2075 52.6865 15.1884 52.9277 15.1225 53.1581Z" fill="#5B6376"/>
<path d="M36.4846 44.317V52.508C36.4846 52.6924 36.4846 52.8799 36.4846 53.0643C36.4846 53.4706 36.4378 53.5175 36.0194 53.5175H29.978C29.8984 53.5165 29.8191 53.5092 29.7407 53.4956C29.6877 53.4901 29.6387 53.4649 29.6034 53.425C29.5682 53.385 29.5492 53.3333 29.5502 53.28C29.5502 53.0956 29.5315 52.9112 29.5315 52.7237V35.7853C29.5315 35.0915 29.5315 35.0884 30.2371 35.0853C32.0917 35.0853 33.9463 35.0853 35.8008 35.0853C35.907 35.0853 36.0132 35.0853 36.1131 35.0853C36.4034 35.104 36.4627 35.1634 36.4752 35.4853C36.4752 35.7228 36.4752 35.9634 36.4752 36.2009L36.4846 44.317Z" fill="#5B6376"/>
<path d="M133.426 44.2014V35.8416C133.426 35.6041 133.426 35.3634 133.441 35.1259C133.439 35.0929 133.444 35.0597 133.455 35.0285C133.466 34.9974 133.483 34.9687 133.506 34.9445C133.528 34.9202 133.555 34.9008 133.586 34.8874C133.616 34.874 133.649 34.8669 133.682 34.8665C133.813 34.8665 133.944 34.8665 134.078 34.8665H139.645C139.751 34.8665 139.857 34.8665 139.957 34.8665C140.223 34.8853 140.291 34.9446 140.307 35.179C140.307 35.3665 140.307 35.5509 140.307 35.7384C140.307 41.4179 140.307 47.0974 140.307 52.7768C140.307 52.9362 140.307 53.0893 140.307 53.2518C140.307 53.2849 140.301 53.3178 140.289 53.3485C140.276 53.3792 140.258 53.4071 140.235 53.4307C140.212 53.4542 140.184 53.4729 140.154 53.4857C140.123 53.4984 140.09 53.505 140.057 53.505C139.951 53.505 139.845 53.505 139.745 53.505H133.847C133.466 53.4894 133.426 53.455 133.41 53.105C133.41 52.8924 133.41 52.6799 133.41 52.4799V44.2014H133.426Z" fill="#5B6376"/>
<path d="M225.251 44.2794V52.7173C225.251 53.558 225.289 53.5175 224.496 53.5175H219.085C218.926 53.5175 218.773 53.5175 218.607 53.5175C218.574 53.5182 218.541 53.5124 218.511 53.5001C218.48 53.4878 218.452 53.4695 218.429 53.4461C218.405 53.4228 218.387 53.3948 218.375 53.3641C218.362 53.3333 218.357 53.3005 218.357 53.2675C218.357 53.083 218.357 52.8955 218.357 52.7111C218.357 47.0858 218.357 41.4605 218.357 35.8352C218.357 34.757 218.251 34.8758 219.353 34.8727C221.024 34.8727 222.694 34.8727 224.349 34.8727C224.561 34.8727 224.773 34.8727 224.973 34.8727C225.006 34.8717 225.039 34.8777 225.07 34.8902C225.1 34.9027 225.128 34.9215 225.151 34.9453C225.174 34.9692 225.192 34.9976 225.203 35.0287C225.214 35.0598 225.219 35.0928 225.217 35.1258C225.217 35.3664 225.217 35.604 225.217 35.8446C225.217 38.6572 225.217 41.4699 225.217 44.2825L225.251 44.2794Z" fill="#5B6376"/>
<path d="M202.114 25.5004V31.9601C202.114 32.1445 202.114 32.332 202.114 32.5163C202.114 32.9101 202.054 32.9632 201.639 32.9632C199.624 32.9632 197.609 32.9632 195.594 32.9632C195.235 32.9632 195.185 32.9008 195.17 32.5476C195.17 32.3883 195.17 32.2351 195.17 32.0726V18.9375C195.17 18.7531 195.17 18.5657 195.17 18.3813C195.17 18.0688 195.235 18.0313 195.56 18.0125H201.683C202.051 18.0125 202.095 18.0688 202.11 18.4282C202.11 18.6125 202.11 18.8001 202.11 18.9844L202.114 25.5004Z" fill="#5B6376"/>
<path d="M116.878 25.5004C116.878 23.244 116.878 20.9877 116.878 18.7313C116.878 18 116.878 18 117.577 18H123.144C123.304 18.0011 123.464 18.0115 123.622 18.0313C123.675 18.0344 123.725 18.0579 123.762 18.0968C123.798 18.1358 123.819 18.1872 123.819 18.2406C123.819 18.425 123.841 18.6125 123.841 18.7969V32.1757C123.841 32.9883 123.872 32.9695 123.066 32.9664H117.656C117.471 32.9664 117.287 32.9664 117.103 32.9414C117.076 32.9406 117.05 32.9345 117.026 32.9236C117.001 32.9126 116.979 32.897 116.961 32.8775C116.943 32.8581 116.929 32.8352 116.919 32.8102C116.91 32.7853 116.905 32.7587 116.906 32.732C116.906 32.5195 116.887 32.307 116.887 32.107C116.881 29.8985 116.878 27.6963 116.878 25.5004Z" fill="#5B6376"/>
<path d="M93.1897 25.5004C93.1897 27.7568 93.1897 30.0121 93.1897 32.2664C93.1897 32.9727 93.1897 32.9789 92.5091 32.982H86.9391C86.808 32.982 86.6737 32.982 86.5426 32.982C86.5095 32.9817 86.4768 32.9746 86.4466 32.9612C86.4164 32.9478 86.3892 32.9283 86.3667 32.9041C86.3442 32.8798 86.3268 32.8512 86.3158 32.82C86.3047 32.7888 86.3 32.7557 86.3022 32.7226C86.3022 32.5101 86.3022 32.2976 86.3022 32.0976V18.9375C86.2803 17.925 86.2085 18 87.1764 18H92.4248H92.8993C93.096 18 93.1772 18.125 93.1835 18.3125C93.1897 18.5 93.1835 18.7375 93.1835 18.9375L93.1897 25.5004Z" fill="#5B6376"/>
</svg>
