<svg width="240" height="80" viewBox="0 0 240 80" fill="none" xmlns="http://www.w3.org/2000/svg">
<path fill-rule="evenodd" clip-rule="evenodd" d="M198.593 47.6213C194.381 36.7194 201.564 25.0437 214.515 21.7384C217.212 21.0504 221.411 21.297 224.156 22.0416C231.911 24.1456 235.995 28.2312 238.792 34.873C239.335 36.1616 239.612 37.528 239.611 38.9058L239.604 48.0082V57.6552C239.604 58.3701 239.332 59.0634 238.833 59.62C238.641 59.8341 238.424 60.032 238.175 60.1909C235.616 61.8208 233.017 61.5285 231.466 59.3981L231.452 59.3789C231.045 58.8205 230.814 58.5037 230.501 58.4101C230.091 58.2872 229.539 58.5472 228.265 59.1477L228.232 59.1632C218.862 63.5797 206.719 60.736 201.46 52.8941C201.027 52.248 200.482 51.5226 200.249 51.2821C200.016 51.0416 199.626 50.3208 199.382 49.6802C199.138 49.04 198.783 48.113 198.593 47.6213ZM221.893 52.1338C233.47 48.9741 233.47 33.7514 221.893 30.5888C212.789 28.1018 204.469 36.484 207.499 45.0872C209.474 50.6914 215.811 53.7938 221.893 52.1338ZM178.507 32.4272C180.457 26.9426 184.409 23.2557 189.924 21.7784C191.23 21.4285 197.231 21.3637 197.91 21.6922C202.77 24.0464 200.93 29.996 195.34 29.996C192.346 29.996 190.611 30.5656 189.133 32.0333C187.01 34.1424 186.999 34.2144 186.992 47.2533C186.986 56.2754 186.928 58.3114 186.665 58.7864C185.01 61.7698 180.647 62.1018 178.69 59.3933L178.554 59.2048C178.154 58.6506 177.941 58.0034 177.941 57.3424V46.189V35.5458C177.941 34.5365 178.115 33.5333 178.456 32.572L178.507 32.4272ZM91.378 32.6917C94.3267 27.2258 99.7762 23.153 105.818 21.8992C116.501 19.6826 128.291 26.4618 130.806 36.2674C131.448 38.7712 132.102 41.5477 130.809 46.6298C127.853 58.2456 112.623 64.8837 101.293 59.4944L101.035 59.3712C100.051 58.9008 99.4286 58.6032 99.0343 58.7626C98.3549 59.0376 98.3531 60.6685 98.3475 65.1088L98.3466 65.7858L98.3557 72.0082C98.3566 72.6314 98.306 73.2637 97.9839 73.8154C97.4686 74.6981 96.306 75.9341 93.8346 75.9341C90.3596 75.9341 89.7839 73.5898 89.6396 73.0026V73.0024V73.0018L89.6393 73.0016C89.6319 72.9712 89.6257 72.9456 89.62 72.9253C89.6144 72.9042 89.6097 72.889 89.6052 72.88C89.2417 72.1202 88.9353 39.3917 89.2956 37.8874C89.8725 35.4776 90.3083 34.6712 91.2402 32.9472L91.378 32.6917ZM118.714 49.3573C125.051 43.3712 122.46 33.3696 113.877 30.6853C104.935 27.8885 96.2846 35.9234 98.9353 44.564C101.426 52.6826 112.383 55.3378 118.714 49.3573ZM2.29071 32.6928C5.23936 27.2269 10.689 23.1541 16.731 21.9002C27.4137 19.6837 39.2037 26.4629 41.7187 36.2685C42.3608 38.7722 43.0147 41.5488 41.7217 46.6309C38.7655 58.2464 23.5353 64.8848 12.206 59.4954L11.9478 59.3722H11.9478C10.9638 58.9018 10.3412 58.6042 9.94686 58.7637C9.26763 59.0386 9.26564 60.6696 9.26022 65.1098L9.25933 65.7869L9.26831 72.0093C9.26926 72.6325 9.2188 73.2648 8.89669 73.8165C8.38134 74.6992 7.21853 75.9349 4.74724 75.9349C1.27229 75.9349 0.696551 73.5909 0.55232 73.0037C0.537011 72.9413 0.526563 72.8989 0.518024 72.881C0.154445 72.1213 -0.212455 39.4498 0.147734 37.9458C0.705571 35.6162 1.18276 34.7362 2.06013 33.1186L2.29071 32.6928ZM29.6263 49.3573C35.9634 43.3712 33.3726 33.3696 24.7894 30.6853C15.8473 27.8885 7.19666 35.9232 9.84754 44.5637C12.3381 52.6826 23.2948 55.3378 29.6263 49.3573ZM149.394 21.7384C136.443 25.0437 129.26 36.7194 133.471 47.6213C133.661 48.113 134.016 49.0397 134.26 49.68C134.504 50.3205 134.894 51.0416 135.127 51.2818C135.36 51.5226 135.906 52.248 136.339 52.8941C141.597 60.7357 153.741 63.5797 163.111 59.1632L163.144 59.1477C164.418 58.5472 164.97 58.2872 165.38 58.4101C165.693 58.5037 165.923 58.8205 166.33 59.3789L166.344 59.3978C167.896 61.5285 170.495 61.8205 173.054 60.1909C173.303 60.032 173.52 59.8341 173.712 59.6197C174.211 59.0634 174.483 58.3701 174.483 57.6552V48.0082L174.49 38.9058C174.491 37.528 174.214 36.1616 173.671 34.873C170.874 28.2312 165.955 23.9186 159.034 22.0416C156.88 21.457 151.197 21.2784 149.394 21.7384ZM156.773 30.5885C168.35 33.7512 168.35 48.9738 156.773 52.1336C150.692 53.7933 144.355 50.6909 142.38 45.0869C139.349 36.4834 147.67 28.1016 156.773 30.5885ZM44.8378 47.6213C40.6263 36.7194 47.8088 25.0437 60.7599 21.7384C62.5629 21.2784 68.2458 21.457 70.4008 22.0416C77.3208 23.9186 82.2399 28.2312 85.0372 34.873C85.5797 36.1616 85.8574 37.528 85.8562 38.9058L85.8491 48.0082V57.6552C85.8491 58.3701 85.5771 59.0634 85.0781 59.6197C84.8861 59.8341 84.6695 60.032 84.42 60.1909C81.8612 61.8205 79.2624 61.5285 77.7107 59.3978L77.6968 59.3789C77.29 58.8205 77.0592 58.5037 76.7463 58.4101C76.3359 58.2872 75.7842 58.5472 74.5101 59.1477L74.4772 59.1632C65.1072 63.5797 52.9634 60.7357 47.7051 52.8941C47.2719 52.248 46.7267 51.5226 46.4938 51.2818C46.2609 51.0416 45.8707 50.3205 45.6266 49.68C45.383 49.0397 45.0277 48.113 44.8378 47.6213ZM68.1439 52.1336C79.7211 48.9738 79.7211 33.7512 68.1439 30.5885C59.0405 28.1016 50.7199 36.4834 53.7507 45.0869C55.7252 50.6909 62.0621 53.7933 68.1439 52.1336Z" fill="#5C6374"/>
</svg>
