<svg width="41" height="29" viewBox="0 0 41 29" fill="none" xmlns="http://www.w3.org/2000/svg">
<path d="M40.9358 26.039L36.4729 20.2695V2.6039C36.4729 1.16697 35.336 0 33.9361 0H8.06271C6.66277 0 5.52585 1.16697 5.52585 2.6039V20.2695L1.05878 26.039C0.995148 26.1218 0.982421 26.2263 1.01636 26.3221L1.48725 27.5674C1.50846 27.6197 1.5424 27.6632 1.58482 27.698L3.27747 28.9434C3.32413 28.9782 3.38352 28.9956 3.44292 28.9956H38.5516C38.611 28.9956 38.6662 28.9782 38.7171 28.9434L40.4097 27.698C40.4521 27.6632 40.4903 27.6197 40.5073 27.5674L40.9782 26.3221C41.0164 26.2263 40.9994 26.1174 40.9358 26.039ZM28.3957 26.3917C28.3448 26.4658 28.26 26.5093 28.1709 26.5093H13.8279C13.7388 26.5093 13.6582 26.4658 13.6031 26.3917C13.5479 26.3177 13.5309 26.2263 13.5564 26.1392L14.1758 23.9489C14.2097 23.8227 14.32 23.7399 14.4473 23.7399H27.5515C27.6788 23.7399 27.7891 23.8227 27.823 23.9489L28.4424 26.1435C28.4636 26.2263 28.4466 26.3177 28.3957 26.3917ZM33.4652 17.2824C33.4652 17.4435 33.3379 17.5698 33.181 17.5698H8.81358C8.65662 17.5698 8.53359 17.4392 8.53359 17.2824V3.37462C8.53359 3.21351 8.66086 3.08724 8.81358 3.08724H33.181C33.3379 3.08724 33.4652 3.21787 33.4652 3.37462V17.2824Z" fill="white"/>
</svg>
