<svg width="240" height="80" viewBox="0 0 240 80" fill="none" xmlns="http://www.w3.org/2000/svg">
<path d="M107.377 38.2015C107.377 40.0652 107.062 41.929 106.432 43.793C105.802 45.6567 105.172 46.8992 103.912 48.4525L108.322 52.18L105.172 54.9757L100.762 50.9375C98.8715 52.18 96.3515 52.8012 93.2013 52.8012C90.9963 52.8012 88.7913 52.4907 87.216 51.8695C85.641 51.248 84.066 50.0055 82.806 48.763C81.546 47.5205 80.601 45.9672 79.971 44.1035C79.341 42.5502 79.026 40.376 79.026 38.2015C79.026 36.027 79.341 34.1632 79.971 32.2995C80.601 30.4357 81.546 28.8825 82.806 27.64C84.066 26.3975 85.641 25.4655 87.216 24.5336C89.1063 23.9123 90.9963 23.6017 93.2013 23.6017C95.4063 23.6017 97.6115 23.9123 99.1865 24.5336C101.077 25.1547 102.337 26.3975 103.597 27.64C104.857 28.8825 105.802 30.4357 106.432 32.2995C107.062 34.1632 107.377 36.3377 107.377 38.2015ZM102.022 38.2015C102.022 36.6482 101.707 35.0952 101.392 33.8525C101.077 32.61 100.447 31.3675 99.5015 30.4357C98.5565 29.5037 97.6115 28.8825 96.6665 28.2612C95.7213 27.64 94.4613 27.64 93.2013 27.64C91.9413 27.64 90.6813 27.9505 89.7363 28.2612C88.7913 28.8825 87.8463 29.5037 86.901 30.4357C85.956 31.3675 85.326 32.2995 85.011 33.8525C84.696 35.0952 84.381 36.6482 84.381 38.2015C84.381 39.7547 84.696 41.3077 85.011 42.5502C85.326 43.793 85.956 45.0355 86.901 45.9672C87.8463 46.8992 88.7913 47.5205 89.7363 48.1417C90.6813 48.763 91.9413 48.763 93.2013 48.763C94.4613 48.763 96.0365 48.4525 96.9815 47.8312L94.1463 45.346L97.6115 42.2397L100.447 44.7247C101.077 43.793 101.392 42.861 101.707 41.6185C102.022 40.9972 102.022 39.7547 102.022 38.2015Z" fill="#5C6374"/>
<path d="M135.098 32.6097C135.098 33.8522 134.783 34.7842 134.153 36.0267C133.523 37.2692 132.893 38.2012 131.633 38.8225C132.893 39.4437 133.523 40.065 133.838 41.3075C134.153 42.2395 134.468 43.482 134.468 44.414V48.4522C134.468 49.0735 134.468 49.6947 134.783 50.316C135.098 50.9372 135.413 51.5585 135.728 52.4905H130.058C129.427 51.869 129.427 51.2477 129.112 50.316C129.112 49.6947 129.112 49.0735 129.112 48.4522V44.414C129.112 44.1032 129.112 43.482 128.797 43.1712C128.797 42.8607 128.482 42.55 128.167 41.9287C127.852 41.6182 127.222 41.3075 126.907 40.997C126.277 40.6862 125.647 40.6862 125.017 40.6862H117.142V51.869H111.787V23.912H125.017C126.592 23.912 128.167 24.2227 129.427 24.5333C130.688 25.1545 131.633 25.7757 132.578 26.397C133.523 27.329 134.153 27.9502 134.468 29.1927C134.783 30.746 135.098 31.678 135.098 32.6097ZM117.457 36.9587H125.332C125.962 36.9587 126.592 36.9587 127.222 36.648C127.852 36.3375 128.167 36.0267 128.797 35.7162C129.112 35.4055 129.427 34.7842 129.742 34.4735C130.058 33.8522 130.058 33.231 130.058 32.6097C130.058 31.3672 129.742 30.4352 128.797 29.5035C127.852 28.5715 126.907 28.261 125.332 28.261H117.457V36.9587Z" fill="#5C6374"/>
<path d="M154.944 24.2227V36.3375C157.149 34.4737 159.354 32.2992 161.559 30.4355C163.764 28.5715 165.969 26.3972 168.174 24.5333H175.104L162.504 35.7162C163.449 36.9587 164.394 38.512 165.654 39.7545C166.599 41.3075 167.859 42.5502 168.804 44.1032C170.064 45.6565 171.009 46.899 171.954 48.4522C172.899 50.0052 174.159 51.248 175.104 52.4905H168.804L158.724 39.1332L154.944 42.5502V52.4905H149.589V24.5333H154.944V24.2227Z" fill="#5C6374"/>
<path d="M204.084 38.2015C204.084 40.376 203.769 42.2397 203.139 44.1035C202.509 45.9672 201.564 47.5205 200.304 48.763C199.044 50.0055 197.469 50.9375 195.894 51.8695C194.004 52.4907 192.114 52.8012 189.909 52.8012C187.704 52.8012 185.498 52.4907 183.923 51.8695C182.033 51.2482 180.773 50.0055 179.513 48.763C178.253 47.5205 177.308 45.9672 176.678 44.1035C176.048 42.2397 175.733 40.376 175.733 38.2015C175.733 36.027 176.048 34.1632 176.678 32.2995C177.308 30.4357 178.253 28.8825 179.513 27.64C180.773 26.3975 182.348 25.4655 183.923 24.5336C185.813 23.9123 187.704 23.6017 189.909 23.6017C192.114 23.6017 194.319 23.9123 195.894 24.5336C197.784 25.1547 199.044 26.3975 200.304 27.64C201.564 28.8825 202.509 30.4357 203.139 32.2995C203.769 34.1632 204.084 36.3377 204.084 38.2015ZM198.729 38.2015C198.729 36.6482 198.414 35.0952 198.099 33.8525C197.784 32.61 197.154 31.3675 196.209 30.4357C195.264 29.5037 194.319 28.8825 193.374 28.2612C192.114 27.64 191.169 27.64 189.909 27.64C188.649 27.64 187.389 27.9505 186.443 28.2612C185.498 28.8825 184.553 29.5037 183.608 30.4357C182.663 31.3675 182.033 32.2995 181.718 33.8525C181.403 35.0952 181.088 36.6482 181.088 38.2015C181.088 39.7547 181.403 41.3077 181.718 42.5502C182.033 43.793 182.663 45.0355 183.608 45.9672C184.553 46.8992 185.498 47.5205 186.443 48.1417C187.389 48.763 188.649 48.763 189.909 48.763C191.169 48.763 192.429 48.4525 193.374 48.1417C194.634 47.5205 195.579 46.8992 196.209 45.9672C197.154 45.0355 197.784 43.793 198.099 42.5502C198.414 41.6185 198.729 40.0652 198.729 38.2015Z" fill="#5C6374"/>
<path d="M208.179 24.2227H220.149C222.354 24.2227 224.244 24.5333 225.819 25.4652C227.394 26.0865 228.969 27.329 230.229 28.5715C231.489 29.8142 232.434 31.3672 233.064 32.9205C233.694 34.4737 234.009 36.3375 234.009 38.2012C234.009 40.065 233.694 41.9287 233.064 43.7927C232.434 45.3457 231.489 46.899 230.229 48.1415C228.969 49.384 227.709 50.316 225.819 51.248C224.244 51.8692 222.354 52.1797 220.149 52.1797H208.179V24.2227ZM213.219 48.1415H218.574C219.834 48.1415 221.094 47.831 222.354 47.5202C223.614 47.2097 224.559 46.2777 225.504 45.6565C226.449 44.7245 227.079 43.7927 227.394 42.5502C227.709 41.3075 228.024 40.065 228.024 38.512C228.024 36.9587 227.709 35.4055 227.394 34.163C227.079 32.9205 226.134 31.9885 225.504 31.0567C224.559 30.1247 223.614 29.5035 222.354 29.1927C221.094 28.8822 219.834 28.5715 218.574 28.5715H213.219V48.1415Z" fill="#5C6374"/>
<path d="M64.8508 10.5554H6.25916V68.3332H64.8508V10.5554Z" fill="#5C6374"/>
<path d="M11.9273 13.9722H9.72229V16.1466H11.9273V13.9722Z" fill="#6C7790"/>
<path d="M13.8207 13.9722H11.6156V16.1466H13.8207V13.9722Z" fill="#6C7790"/>
<path d="M16.0259 13.9722H13.8208V16.1466H16.0259V13.9722Z" fill="#6C7790"/>
<path d="M18.2286 13.9722H16.0236V16.1466H18.2286V13.9722Z" fill="#6C7790"/>
<path d="M20.1201 13.9722H17.915V16.1466H20.1201V13.9722Z" fill="#6C7790"/>
<path d="M22.3253 13.9722H20.1202V16.1466H22.3253V13.9722Z" fill="#6C7790"/>
<path d="M24.2144 13.9722H22.0093V16.1466H24.2144V13.9722Z" fill="#6C7790"/>
<path d="M28.3085 13.9722H26.1035V16.1466H28.3085V13.9722Z" fill="#6C7790"/>
<path d="M30.5138 13.9722H28.3088V16.1466H30.5138V13.9722Z" fill="#6C7790"/>
<path d="M32.4035 13.9722H30.1982V16.1466H32.4035V13.9722Z" fill="#6C7790"/>
<path d="M34.6085 13.9722H32.4035V16.1466H34.6085V13.9722Z" fill="#6C7790"/>
<path d="M40.5962 13.9722H38.391V16.1466H40.5962V13.9722Z" fill="#6C7790"/>
<path d="M44.6905 13.9722H42.4852V16.1466H44.6905V13.9722Z" fill="#6C7790"/>
<path d="M48.7853 13.9722H46.5803V16.1466H48.7853V13.9722Z" fill="#6C7790"/>
<path d="M50.9905 13.9722H48.7855V16.1466H50.9905V13.9722Z" fill="#6C7790"/>
<path d="M52.8795 13.9722H50.6745V16.1466H52.8795V13.9722Z" fill="#6C7790"/>
<path d="M55.0848 13.9722H52.8798V16.1466H55.0848V13.9722Z" fill="#6C7790"/>
<path d="M56.9762 13.9722H54.771V16.1466H56.9762V13.9722Z" fill="#6C7790"/>
<path d="M59.179 13.9722H56.974V16.1466H59.179V13.9722Z" fill="#6C7790"/>
<path d="M61.0705 13.9722H58.8652V16.1466H61.0705V13.9722Z" fill="#6C7790"/>
<path d="M11.9273 16.1468H9.72229V18.3213H11.9273V16.1468Z" fill="#6C7790"/>
<path d="M24.2144 16.1468H22.0093V18.3213H24.2144V16.1468Z" fill="#6C7790"/>
<path d="M34.6085 16.1468H32.4035V18.3213H34.6085V16.1468Z" fill="#6C7790"/>
<path d="M36.5013 16.1468H34.2963V18.3213H36.5013V16.1468Z" fill="#6C7790"/>
<path d="M48.7853 16.1468H46.5803V18.3213H48.7853V16.1468Z" fill="#6C7790"/>
<path d="M61.0705 16.1468H58.8652V18.3213H61.0705V16.1468Z" fill="#6C7790"/>
<path d="M11.9273 18.0103H9.72229V20.1847H11.9273V18.0103Z" fill="#6C7790"/>
<path d="M16.0259 18.0103H13.8208V20.1847H16.0259V18.0103Z" fill="#6C7790"/>
<path d="M18.2286 18.0103H16.0236V20.1847H18.2286V18.0103Z" fill="#6C7790"/>
<path d="M20.1201 18.0103H17.915V20.1847H20.1201V18.0103Z" fill="#6C7790"/>
<path d="M24.2144 18.0103H22.0093V20.1847H24.2144V18.0103Z" fill="#6C7790"/>
<path d="M30.5138 18.0103H28.3088V20.1847H30.5138V18.0103Z" fill="#6C7790"/>
<path d="M34.6085 18.0103H32.4035V20.1847H34.6085V18.0103Z" fill="#6C7790"/>
<path d="M38.7027 18.0103H36.4977V20.1847H38.7027V18.0103Z" fill="#6C7790"/>
<path d="M44.6905 18.0103H42.4852V20.1847H44.6905V18.0103Z" fill="#6C7790"/>
<path d="M48.7853 18.0103H46.5803V20.1847H48.7853V18.0103Z" fill="#6C7790"/>
<path d="M52.8795 18.0103H50.6745V20.1847H52.8795V18.0103Z" fill="#6C7790"/>
<path d="M55.0848 18.0103H52.8798V20.1847H55.0848V18.0103Z" fill="#6C7790"/>
<path d="M56.9762 18.0103H54.771V20.1847H56.9762V18.0103Z" fill="#6C7790"/>
<path d="M61.0705 18.0103H58.8652V20.1847H61.0705V18.0103Z" fill="#6C7790"/>
<path d="M11.9273 20.1849H9.72229V22.3594H11.9273V20.1849Z" fill="#6C7790"/>
<path d="M16.0259 20.1849H13.8208V22.3594H16.0259V20.1849Z" fill="#6C7790"/>
<path d="M18.2286 20.1849H16.0236V22.3594H18.2286V20.1849Z" fill="#6C7790"/>
<path d="M20.1201 20.1849H17.915V22.3594H20.1201V20.1849Z" fill="#6C7790"/>
<path d="M24.2144 20.1849H22.0093V22.3594H24.2144V20.1849Z" fill="#6C7790"/>
<path d="M32.4035 20.1849H30.1982V22.3594H32.4035V20.1849Z" fill="#6C7790"/>
<path d="M34.6085 20.1849H32.4035V22.3594H34.6085V20.1849Z" fill="#6C7790"/>
<path d="M38.7027 20.1849H36.4977V22.3594H38.7027V20.1849Z" fill="#6C7790"/>
<path d="M44.6905 20.1849H42.4852V22.3594H44.6905V20.1849Z" fill="#6C7790"/>
<path d="M48.7853 20.1849H46.5803V22.3594H48.7853V20.1849Z" fill="#6C7790"/>
<path d="M52.8795 20.1849H50.6745V22.3594H52.8795V20.1849Z" fill="#6C7790"/>
<path d="M55.0848 20.1849H52.8798V22.3594H55.0848V20.1849Z" fill="#6C7790"/>
<path d="M56.9762 20.1849H54.771V22.3594H56.9762V20.1849Z" fill="#6C7790"/>
<path d="M61.0705 20.1849H58.8652V22.3594H61.0705V20.1849Z" fill="#6C7790"/>
<path d="M11.9273 22.0483H9.72229V24.2228H11.9273V22.0483Z" fill="#6C7790"/>
<path d="M16.0259 22.0483H13.8208V24.2228H16.0259V22.0483Z" fill="#6C7790"/>
<path d="M18.2286 22.0483H16.0236V24.2228H18.2286V22.0483Z" fill="#6C7790"/>
<path d="M20.1201 22.0483H17.915V24.2228H20.1201V22.0483Z" fill="#6C7790"/>
<path d="M24.2144 22.0483H22.0093V24.2228H24.2144V22.0483Z" fill="#6C7790"/>
<path d="M32.4035 22.0483H30.1982V24.2228H32.4035V22.0483Z" fill="#6C7790"/>
<path d="M34.6085 22.0483H32.4035V24.2228H34.6085V22.0483Z" fill="#6C7790"/>
<path d="M36.5013 22.0483H34.2963V24.2228H36.5013V22.0483Z" fill="#6C7790"/>
<path d="M40.5962 22.0483H38.391V24.2228H40.5962V22.0483Z" fill="#6C7790"/>
<path d="M44.6905 22.0483H42.4852V24.2228H44.6905V22.0483Z" fill="#6C7790"/>
<path d="M48.7853 22.0483H46.5803V24.2228H48.7853V22.0483Z" fill="#6C7790"/>
<path d="M52.8795 22.0483H50.6745V24.2228H52.8795V22.0483Z" fill="#6C7790"/>
<path d="M55.0848 22.0483H52.8798V24.2228H55.0848V22.0483Z" fill="#6C7790"/>
<path d="M56.9762 22.0483H54.771V24.2228H56.9762V22.0483Z" fill="#6C7790"/>
<path d="M61.0705 22.0483H58.8652V24.2228H61.0705V22.0483Z" fill="#6C7790"/>
<path d="M11.9273 24.2236H9.72229V26.398H11.9273V24.2236Z" fill="#6C7790"/>
<path d="M24.2144 24.2236H22.0093V26.398H24.2144V24.2236Z" fill="#6C7790"/>
<path d="M30.5138 24.2236H28.3088V26.398H30.5138V24.2236Z" fill="#6C7790"/>
<path d="M34.6085 24.2236H32.4035V26.398H34.6085V24.2236Z" fill="#6C7790"/>
<path d="M38.7027 24.2236H36.4977V26.398H38.7027V24.2236Z" fill="#6C7790"/>
<path d="M48.7853 24.2236H46.5803V26.398H48.7853V24.2236Z" fill="#6C7790"/>
<path d="M61.0705 24.2236H58.8652V26.398H61.0705V24.2236Z" fill="#6C7790"/>
<path d="M11.9273 26.087H9.72229V28.2615H11.9273V26.087Z" fill="#6C7790"/>
<path d="M13.8207 26.087H11.6156V28.2615H13.8207V26.087Z" fill="#6C7790"/>
<path d="M16.0259 26.087H13.8208V28.2615H16.0259V26.087Z" fill="#6C7790"/>
<path d="M18.2286 26.087H16.0236V28.2615H18.2286V26.087Z" fill="#6C7790"/>
<path d="M20.1201 26.087H17.915V28.2615H20.1201V26.087Z" fill="#6C7790"/>
<path d="M22.3253 26.087H20.1202V28.2615H22.3253V26.087Z" fill="#6C7790"/>
<path d="M24.2144 26.087H22.0093V28.2615H24.2144V26.087Z" fill="#6C7790"/>
<path d="M28.3085 26.087H26.1035V28.2615H28.3085V26.087Z" fill="#6C7790"/>
<path d="M32.4035 26.087H30.1982V28.2615H32.4035V26.087Z" fill="#6C7790"/>
<path d="M36.5013 26.087H34.2963V28.2615H36.5013V26.087Z" fill="#6C7790"/>
<path d="M40.5962 26.087H38.391V28.2615H40.5962V26.087Z" fill="#6C7790"/>
<path d="M44.6905 26.087H42.4852V28.2615H44.6905V26.087Z" fill="#6C7790"/>
<path d="M48.7853 26.087H46.5803V28.2615H48.7853V26.087Z" fill="#6C7790"/>
<path d="M50.9905 26.087H48.7855V28.2615H50.9905V26.087Z" fill="#6C7790"/>
<path d="M52.8795 26.087H50.6745V28.2615H52.8795V26.087Z" fill="#6C7790"/>
<path d="M55.0848 26.087H52.8798V28.2615H55.0848V26.087Z" fill="#6C7790"/>
<path d="M56.9762 26.087H54.771V28.2615H56.9762V26.087Z" fill="#6C7790"/>
<path d="M59.179 26.087H56.974V28.2615H59.179V26.087Z" fill="#6C7790"/>
<path d="M61.0705 26.087H58.8652V28.2615H61.0705V26.087Z" fill="#6C7790"/>
<path d="M28.3085 28.2615H26.1035V30.4357H28.3085V28.2615Z" fill="#6C7790"/>
<path d="M30.5138 28.2615H28.3088V30.4357H30.5138V28.2615Z" fill="#6C7790"/>
<path d="M36.5013 28.2615H34.2963V30.4357H36.5013V28.2615Z" fill="#6C7790"/>
<path d="M38.7027 28.2615H36.4977V30.4357H38.7027V28.2615Z" fill="#6C7790"/>
<path d="M44.6905 28.2615H42.4852V30.4357H44.6905V28.2615Z" fill="#6C7790"/>
<path d="M11.9273 30.1257H9.72229V32.3002H11.9273V30.1257Z" fill="#6C7790"/>
<path d="M13.8207 30.1257H11.6156V32.3002H13.8207V30.1257Z" fill="#6C7790"/>
<path d="M18.2286 30.1257H16.0236V32.3002H18.2286V30.1257Z" fill="#6C7790"/>
<path d="M20.1201 30.1257H17.915V32.3002H20.1201V30.1257Z" fill="#6C7790"/>
<path d="M24.2144 30.1257H22.0093V32.3002H24.2144V30.1257Z" fill="#6C7790"/>
<path d="M30.5138 30.1257H28.3088V32.3002H30.5138V30.1257Z" fill="#6C7790"/>
<path d="M36.5013 30.1257H34.2963V32.3002H36.5013V30.1257Z" fill="#6C7790"/>
<path d="M40.5962 30.1257H38.391V32.3002H40.5962V30.1257Z" fill="#6C7790"/>
<path d="M42.8014 30.1257H40.5962V32.3002H42.8014V30.1257Z" fill="#6C7790"/>
<path d="M48.7853 30.1257H46.5803V32.3002H48.7853V30.1257Z" fill="#6C7790"/>
<path d="M61.0705 30.1257H58.8652V32.3002H61.0705V30.1257Z" fill="#6C7790"/>
<path d="M11.9273 32.2997H9.72229V34.4742H11.9273V32.2997Z" fill="#6C7790"/>
<path d="M13.8207 32.2997H11.6156V34.4742H13.8207V32.2997Z" fill="#6C7790"/>
<path d="M16.0259 32.2997H13.8208V34.4742H16.0259V32.2997Z" fill="#6C7790"/>
<path d="M18.2286 32.2997H16.0236V34.4742H18.2286V32.2997Z" fill="#6C7790"/>
<path d="M26.4195 32.2997H24.2145V34.4742H26.4195V32.2997Z" fill="#6C7790"/>
<path d="M32.4035 32.2997H30.1982V34.4742H32.4035V32.2997Z" fill="#6C7790"/>
<path d="M38.7027 32.2997H36.4977V34.4742H38.7027V32.2997Z" fill="#6C7790"/>
<path d="M40.5962 32.2997H38.391V34.4742H40.5962V32.2997Z" fill="#6C7790"/>
<path d="M42.8014 32.2997H40.5962V34.4742H42.8014V32.2997Z" fill="#6C7790"/>
<path d="M50.9905 32.2997H48.7855V34.4742H50.9905V32.2997Z" fill="#6C7790"/>
<path d="M52.8795 32.2997H50.6745V34.4742H52.8795V32.2997Z" fill="#6C7790"/>
<path d="M55.0848 32.2997H52.8798V34.4742H55.0848V32.2997Z" fill="#6C7790"/>
<path d="M56.9762 32.2997H54.771V34.4742H56.9762V32.2997Z" fill="#6C7790"/>
<path d="M59.179 32.2997H56.974V34.4742H59.179V32.2997Z" fill="#6C7790"/>
<path d="M16.0259 34.1635H13.8208V36.338H16.0259V34.1635Z" fill="#6C7790"/>
<path d="M18.2286 34.1635H16.0236V36.338H18.2286V34.1635Z" fill="#6C7790"/>
<path d="M24.2144 34.1635H22.0093V36.338H24.2144V34.1635Z" fill="#6C7790"/>
<path d="M30.5138 34.1635H28.3088V36.338H30.5138V34.1635Z" fill="#6C7790"/>
<path d="M36.5013 34.1635H34.2963V36.338H36.5013V34.1635Z" fill="#6C7790"/>
<path d="M38.7027 34.1635H36.4977V36.338H38.7027V34.1635Z" fill="#6C7790"/>
<path d="M42.8014 34.1635H40.5962V36.338H42.8014V34.1635Z" fill="#6C7790"/>
<path d="M46.8954 34.1635H44.6904V36.338H46.8954V34.1635Z" fill="#6C7790"/>
<path d="M48.7853 34.1635H46.5803V36.338H48.7853V34.1635Z" fill="#6C7790"/>
<path d="M55.0848 34.1635H52.8798V36.338H55.0848V34.1635Z" fill="#6C7790"/>
<path d="M61.0705 34.1635H58.8652V36.338H61.0705V34.1635Z" fill="#6C7790"/>
<path d="M11.9273 36.3382H9.72229V38.5127H11.9273V36.3382Z" fill="#6C7790"/>
<path d="M16.0259 36.3382H13.8208V38.5127H16.0259V36.3382Z" fill="#6C7790"/>
<path d="M18.2286 36.3382H16.0236V38.5127H18.2286V36.3382Z" fill="#6C7790"/>
<path d="M26.4195 36.3382H24.2145V38.5127H26.4195V36.3382Z" fill="#6C7790"/>
<path d="M40.5962 36.3382H38.391V38.5127H40.5962V36.3382Z" fill="#6C7790"/>
<path d="M48.7853 36.3382H46.5803V38.5127H48.7853V36.3382Z" fill="#6C7790"/>
<path d="M55.0848 36.3382H52.8798V38.5127H55.0848V36.3382Z" fill="#6C7790"/>
<path d="M56.9762 36.3382H54.771V38.5127H56.9762V36.3382Z" fill="#6C7790"/>
<path d="M59.179 36.3382H56.974V38.5127H59.179V36.3382Z" fill="#6C7790"/>
<path d="M61.0705 36.3382H58.8652V38.5127H61.0705V36.3382Z" fill="#6C7790"/>
<path d="M11.9273 38.202H9.72229V40.3762H11.9273V38.202Z" fill="#6C7790"/>
<path d="M16.0259 38.202H13.8208V40.3762H16.0259V38.202Z" fill="#6C7790"/>
<path d="M18.2286 38.202H16.0236V40.3762H18.2286V38.202Z" fill="#6C7790"/>
<path d="M24.2144 38.202H22.0093V40.3762H24.2144V38.202Z" fill="#6C7790"/>
<path d="M30.5138 38.202H28.3088V40.3762H30.5138V38.202Z" fill="#6C7790"/>
<path d="M32.4035 38.202H30.1982V40.3762H32.4035V38.202Z" fill="#6C7790"/>
<path d="M44.6905 38.202H42.4852V40.3762H44.6905V38.202Z" fill="#6C7790"/>
<path d="M48.7853 38.202H46.5803V40.3762H48.7853V38.202Z" fill="#6C7790"/>
<path d="M61.0705 38.202H58.8652V40.3762H61.0705V38.202Z" fill="#6C7790"/>
<path d="M11.9273 40.3762H9.72229V42.5507H11.9273V40.3762Z" fill="#6C7790"/>
<path d="M13.8207 40.3762H11.6156V42.5507H13.8207V40.3762Z" fill="#6C7790"/>
<path d="M16.0259 40.3762H13.8208V42.5507H16.0259V40.3762Z" fill="#6C7790"/>
<path d="M32.4035 40.3762H30.1982V42.5507H32.4035V40.3762Z" fill="#6C7790"/>
<path d="M36.5013 40.3762H34.2963V42.5507H36.5013V40.3762Z" fill="#6C7790"/>
<path d="M40.5962 40.3762H38.391V42.5507H40.5962V40.3762Z" fill="#6C7790"/>
<path d="M42.8014 40.3762H40.5962V42.5507H42.8014V40.3762Z" fill="#6C7790"/>
<path d="M44.6905 40.3762H42.4852V42.5507H44.6905V40.3762Z" fill="#6C7790"/>
<path d="M52.8795 40.3762H50.6745V42.5507H52.8795V40.3762Z" fill="#6C7790"/>
<path d="M59.179 40.3762H56.974V42.5507H59.179V40.3762Z" fill="#6C7790"/>
<path d="M11.9273 42.24H9.72229V44.4145H11.9273V42.24Z" fill="#6C7790"/>
<path d="M13.8207 42.24H11.6156V44.4145H13.8207V42.24Z" fill="#6C7790"/>
<path d="M16.0259 42.24H13.8208V44.4145H16.0259V42.24Z" fill="#6C7790"/>
<path d="M18.2286 42.24H16.0236V44.4145H18.2286V42.24Z" fill="#6C7790"/>
<path d="M20.1201 42.24H17.915V44.4145H20.1201V42.24Z" fill="#6C7790"/>
<path d="M24.2144 42.24H22.0093V44.4145H24.2144V42.24Z" fill="#6C7790"/>
<path d="M30.5138 42.24H28.3088V44.4145H30.5138V42.24Z" fill="#6C7790"/>
<path d="M32.4035 42.24H30.1982V44.4145H32.4035V42.24Z" fill="#6C7790"/>
<path d="M38.7027 42.24H36.4977V44.4145H38.7027V42.24Z" fill="#6C7790"/>
<path d="M40.5962 42.24H38.391V44.4145H40.5962V42.24Z" fill="#6C7790"/>
<path d="M42.8014 42.24H40.5962V44.4145H42.8014V42.24Z" fill="#6C7790"/>
<path d="M46.8954 42.24H44.6904V44.4145H46.8954V42.24Z" fill="#6C7790"/>
<path d="M48.7853 42.24H46.5803V44.4145H48.7853V42.24Z" fill="#6C7790"/>
<path d="M50.9905 42.24H48.7855V44.4145H50.9905V42.24Z" fill="#6C7790"/>
<path d="M55.0848 42.24H52.8798V44.4145H55.0848V42.24Z" fill="#6C7790"/>
<path d="M56.9762 42.24H54.771V44.4145H56.9762V42.24Z" fill="#6C7790"/>
<path d="M59.179 42.24H56.974V44.4145H59.179V42.24Z" fill="#6C7790"/>
<path d="M61.0705 42.24H58.8652V44.4145H61.0705V42.24Z" fill="#6C7790"/>
<path d="M11.9273 44.4142H9.72229V46.5888H11.9273V44.4142Z" fill="#6C7790"/>
<path d="M30.5138 44.4142H28.3088V46.5888H30.5138V44.4142Z" fill="#6C7790"/>
<path d="M36.5013 44.4142H34.2963V46.5888H36.5013V44.4142Z" fill="#6C7790"/>
<path d="M42.8014 44.4142H40.5962V46.5888H42.8014V44.4142Z" fill="#6C7790"/>
<path d="M44.6905 44.4142H42.4852V46.5888H44.6905V44.4142Z" fill="#6C7790"/>
<path d="M46.8954 44.4142H44.6904V46.5888H46.8954V44.4142Z" fill="#6C7790"/>
<path d="M50.9905 44.4142H48.7855V46.5888H50.9905V44.4142Z" fill="#6C7790"/>
<path d="M52.8795 44.4142H50.6745V46.5888H52.8795V44.4142Z" fill="#6C7790"/>
<path d="M56.9762 44.4142H54.771V46.5888H56.9762V44.4142Z" fill="#6C7790"/>
<path d="M61.0705 44.4142H58.8652V46.5888H61.0705V44.4142Z" fill="#6C7790"/>
<path d="M11.9273 46.2785H9.72229V48.4528H11.9273V46.2785Z" fill="#6C7790"/>
<path d="M16.0259 46.2785H13.8208V48.4528H16.0259V46.2785Z" fill="#6C7790"/>
<path d="M20.1201 46.2785H17.915V48.4528H20.1201V46.2785Z" fill="#6C7790"/>
<path d="M24.2144 46.2785H22.0093V48.4528H24.2144V46.2785Z" fill="#6C7790"/>
<path d="M26.4195 46.2785H24.2145V48.4528H26.4195V46.2785Z" fill="#6C7790"/>
<path d="M28.3085 46.2785H26.1035V48.4528H28.3085V46.2785Z" fill="#6C7790"/>
<path d="M34.6085 46.2785H32.4035V48.4528H34.6085V46.2785Z" fill="#6C7790"/>
<path d="M36.5013 46.2785H34.2963V48.4528H36.5013V46.2785Z" fill="#6C7790"/>
<path d="M38.7027 46.2785H36.4977V48.4528H38.7027V46.2785Z" fill="#6C7790"/>
<path d="M40.5962 46.2785H38.391V48.4528H40.5962V46.2785Z" fill="#6C7790"/>
<path d="M42.8014 46.2785H40.5962V48.4528H42.8014V46.2785Z" fill="#6C7790"/>
<path d="M44.6905 46.2785H42.4852V48.4528H44.6905V46.2785Z" fill="#6C7790"/>
<path d="M46.8954 46.2785H44.6904V48.4528H46.8954V46.2785Z" fill="#6C7790"/>
<path d="M48.7853 46.2785H46.5803V48.4528H48.7853V46.2785Z" fill="#6C7790"/>
<path d="M50.9905 46.2785H48.7855V48.4528H50.9905V46.2785Z" fill="#6C7790"/>
<path d="M52.8795 46.2785H50.6745V48.4528H52.8795V46.2785Z" fill="#6C7790"/>
<path d="M56.9762 46.2785H54.771V48.4528H56.9762V46.2785Z" fill="#6C7790"/>
<path d="M59.179 46.2785H56.974V48.4528H59.179V46.2785Z" fill="#6C7790"/>
<path d="M28.3085 48.4525H26.1035V50.627H28.3085V48.4525Z" fill="#6C7790"/>
<path d="M30.5138 48.4525H28.3088V50.627H30.5138V48.4525Z" fill="#6C7790"/>
<path d="M32.4035 48.4525H30.1982V50.627H32.4035V48.4525Z" fill="#6C7790"/>
<path d="M34.6085 48.4525H32.4035V50.627H34.6085V48.4525Z" fill="#6C7790"/>
<path d="M38.7027 48.4525H36.4977V50.627H38.7027V48.4525Z" fill="#6C7790"/>
<path d="M44.6905 48.4525H42.4852V50.627H44.6905V48.4525Z" fill="#6C7790"/>
<path d="M52.8795 48.4525H50.6745V50.627H52.8795V48.4525Z" fill="#6C7790"/>
<path d="M59.179 48.4525H56.974V50.627H59.179V48.4525Z" fill="#6C7790"/>
<path d="M11.9273 50.3165H9.72229V52.491H11.9273V50.3165Z" fill="#6C7790"/>
<path d="M13.8207 50.3165H11.6156V52.491H13.8207V50.3165Z" fill="#6C7790"/>
<path d="M16.0259 50.3165H13.8208V52.491H16.0259V50.3165Z" fill="#6C7790"/>
<path d="M18.2286 50.3165H16.0236V52.491H18.2286V50.3165Z" fill="#6C7790"/>
<path d="M20.1201 50.3165H17.915V52.491H20.1201V50.3165Z" fill="#6C7790"/>
<path d="M22.3253 50.3165H20.1202V52.491H22.3253V50.3165Z" fill="#6C7790"/>
<path d="M24.2144 50.3165H22.0093V52.491H24.2144V50.3165Z" fill="#6C7790"/>
<path d="M32.4035 50.3165H30.1982V52.491H32.4035V50.3165Z" fill="#6C7790"/>
<path d="M36.5013 50.3165H34.2963V52.491H36.5013V50.3165Z" fill="#6C7790"/>
<path d="M44.6905 50.3165H42.4852V52.491H44.6905V50.3165Z" fill="#6C7790"/>
<path d="M48.7853 50.3165H46.5803V52.491H48.7853V50.3165Z" fill="#6C7790"/>
<path d="M52.8795 50.3165H50.6745V52.491H52.8795V50.3165Z" fill="#6C7790"/>
<path d="M55.0848 50.3165H52.8798V52.491H55.0848V50.3165Z" fill="#6C7790"/>
<path d="M61.0705 50.3165H58.8652V52.491H61.0705V50.3165Z" fill="#6C7790"/>
<path d="M11.9273 52.4905H9.72229V54.665H11.9273V52.4905Z" fill="#6C7790"/>
<path d="M24.2144 52.4905H22.0093V54.665H24.2144V52.4905Z" fill="#6C7790"/>
<path d="M30.5138 52.4905H28.3088V54.665H30.5138V52.4905Z" fill="#6C7790"/>
<path d="M32.4035 52.4905H30.1982V54.665H32.4035V52.4905Z" fill="#6C7790"/>
<path d="M34.6085 52.4905H32.4035V54.665H34.6085V52.4905Z" fill="#6C7790"/>
<path d="M38.7027 52.4905H36.4977V54.665H38.7027V52.4905Z" fill="#6C7790"/>
<path d="M42.8014 52.4905H40.5962V54.665H42.8014V52.4905Z" fill="#6C7790"/>
<path d="M44.6905 52.4905H42.4852V54.665H44.6905V52.4905Z" fill="#6C7790"/>
<path d="M52.8795 52.4905H50.6745V54.665H52.8795V52.4905Z" fill="#6C7790"/>
<path d="M11.9273 54.3545H9.72229V56.529H11.9273V54.3545Z" fill="#6C7790"/>
<path d="M16.0259 54.3545H13.8208V56.529H16.0259V54.3545Z" fill="#6C7790"/>
<path d="M18.2286 54.3545H16.0236V56.529H18.2286V54.3545Z" fill="#6C7790"/>
<path d="M20.1201 54.3545H17.915V56.529H20.1201V54.3545Z" fill="#6C7790"/>
<path d="M24.2144 54.3545H22.0093V56.529H24.2144V54.3545Z" fill="#6C7790"/>
<path d="M28.3085 54.3545H26.1035V56.529H28.3085V54.3545Z" fill="#6C7790"/>
<path d="M30.5138 54.3545H28.3088V56.529H30.5138V54.3545Z" fill="#6C7790"/>
<path d="M34.6085 54.3545H32.4035V56.529H34.6085V54.3545Z" fill="#6C7790"/>
<path d="M38.7027 54.3545H36.4977V56.529H38.7027V54.3545Z" fill="#6C7790"/>
<path d="M42.8014 54.3545H40.5962V56.529H42.8014V54.3545Z" fill="#6C7790"/>
<path d="M44.6905 54.3545H42.4852V56.529H44.6905V54.3545Z" fill="#6C7790"/>
<path d="M46.8954 54.3545H44.6904V56.529H46.8954V54.3545Z" fill="#6C7790"/>
<path d="M48.7853 54.3545H46.5803V56.529H48.7853V54.3545Z" fill="#6C7790"/>
<path d="M50.9905 54.3545H48.7855V56.529H50.9905V54.3545Z" fill="#6C7790"/>
<path d="M52.8795 54.3545H50.6745V56.529H52.8795V54.3545Z" fill="#6C7790"/>
<path d="M55.0848 54.3545H52.8798V56.529H55.0848V54.3545Z" fill="#6C7790"/>
<path d="M59.179 54.3545H56.974V56.529H59.179V54.3545Z" fill="#6C7790"/>
<path d="M61.0705 54.3545H58.8652V56.529H61.0705V54.3545Z" fill="#6C7790"/>
<path d="M11.9273 56.5292H9.72229V58.7037H11.9273V56.5292Z" fill="#6C7790"/>
<path d="M16.0259 56.5292H13.8208V58.7037H16.0259V56.5292Z" fill="#6C7790"/>
<path d="M18.2286 56.5292H16.0236V58.7037H18.2286V56.5292Z" fill="#6C7790"/>
<path d="M20.1201 56.5292H17.915V58.7037H20.1201V56.5292Z" fill="#6C7790"/>
<path d="M24.2144 56.5292H22.0093V58.7037H24.2144V56.5292Z" fill="#6C7790"/>
<path d="M28.3085 56.5292H26.1035V58.7037H28.3085V56.5292Z" fill="#6C7790"/>
<path d="M36.5013 56.5292H34.2963V58.7037H36.5013V56.5292Z" fill="#6C7790"/>
<path d="M38.7027 56.5292H36.4977V58.7037H38.7027V56.5292Z" fill="#6C7790"/>
<path d="M40.5962 56.5292H38.391V58.7037H40.5962V56.5292Z" fill="#6C7790"/>
<path d="M46.8954 56.5292H44.6904V58.7037H46.8954V56.5292Z" fill="#6C7790"/>
<path d="M48.7853 56.5292H46.5803V58.7037H48.7853V56.5292Z" fill="#6C7790"/>
<path d="M55.0848 56.5292H52.8798V58.7037H55.0848V56.5292Z" fill="#6C7790"/>
<path d="M59.179 56.5292H56.974V58.7037H59.179V56.5292Z" fill="#6C7790"/>
<path d="M61.0705 56.5292H58.8652V58.7037H61.0705V56.5292Z" fill="#6C7790"/>
<path d="M11.9273 58.7035H9.72229V60.878H11.9273V58.7035Z" fill="#6C7790"/>
<path d="M16.0259 58.7035H13.8208V60.878H16.0259V58.7035Z" fill="#6C7790"/>
<path d="M18.2286 58.7035H16.0236V60.878H18.2286V58.7035Z" fill="#6C7790"/>
<path d="M20.1201 58.7035H17.915V60.878H20.1201V58.7035Z" fill="#6C7790"/>
<path d="M24.2144 58.7035H22.0093V60.878H24.2144V58.7035Z" fill="#6C7790"/>
<path d="M30.5138 58.7035H28.3088V60.878H30.5138V58.7035Z" fill="#6C7790"/>
<path d="M34.6085 58.7035H32.4035V60.878H34.6085V58.7035Z" fill="#6C7790"/>
<path d="M38.7027 58.7035H36.4977V60.878H38.7027V58.7035Z" fill="#6C7790"/>
<path d="M44.6905 58.7035H42.4852V60.878H44.6905V58.7035Z" fill="#6C7790"/>
<path d="M46.8954 58.7035H44.6904V60.878H46.8954V58.7035Z" fill="#6C7790"/>
<path d="M50.9905 58.7035H48.7855V60.878H50.9905V58.7035Z" fill="#6C7790"/>
<path d="M52.8795 58.7035H50.6745V60.878H52.8795V58.7035Z" fill="#6C7790"/>
<path d="M56.9762 58.7035H54.771V60.878H56.9762V58.7035Z" fill="#6C7790"/>
<path d="M59.179 58.7035H56.974V60.878H59.179V58.7035Z" fill="#6C7790"/>
<path d="M61.0705 58.7035H58.8652V60.878H61.0705V58.7035Z" fill="#6C7790"/>
<path d="M11.9273 60.5672H9.72229V62.7417H11.9273V60.5672Z" fill="#6C7790"/>
<path d="M24.2144 60.5672H22.0093V62.7417H24.2144V60.5672Z" fill="#6C7790"/>
<path d="M28.3085 60.5672H26.1035V62.7417H28.3085V60.5672Z" fill="#6C7790"/>
<path d="M30.5138 60.5672H28.3088V62.7417H30.5138V60.5672Z" fill="#6C7790"/>
<path d="M32.4035 60.5672H30.1982V62.7417H32.4035V60.5672Z" fill="#6C7790"/>
<path d="M34.6085 60.5672H32.4035V62.7417H34.6085V60.5672Z" fill="#6C7790"/>
<path d="M36.5013 60.5672H34.2963V62.7417H36.5013V60.5672Z" fill="#6C7790"/>
<path d="M38.7027 60.5672H36.4977V62.7417H38.7027V60.5672Z" fill="#6C7790"/>
<path d="M50.9905 60.5672H48.7855V62.7417H50.9905V60.5672Z" fill="#6C7790"/>
<path d="M52.8795 60.5672H50.6745V62.7417H52.8795V60.5672Z" fill="#6C7790"/>
<path d="M56.9762 60.5672H54.771V62.7417H56.9762V60.5672Z" fill="#6C7790"/>
<path d="M59.179 60.5672H56.974V62.7417H59.179V60.5672Z" fill="#6C7790"/>
<path d="M61.0705 60.5672H58.8652V62.7417H61.0705V60.5672Z" fill="#6C7790"/>
<path d="M11.9273 62.742H9.72229V64.9165H11.9273V62.742Z" fill="#6C7790"/>
<path d="M13.8207 62.742H11.6156V64.9165H13.8207V62.742Z" fill="#6C7790"/>
<path d="M16.0259 62.742H13.8208V64.9165H16.0259V62.742Z" fill="#6C7790"/>
<path d="M18.2286 62.742H16.0236V64.9165H18.2286V62.742Z" fill="#6C7790"/>
<path d="M20.1201 62.742H17.915V64.9165H20.1201V62.742Z" fill="#6C7790"/>
<path d="M22.3253 62.742H20.1202V64.9165H22.3253V62.742Z" fill="#6C7790"/>
<path d="M24.2144 62.742H22.0093V64.9165H24.2144V62.742Z" fill="#6C7790"/>
<path d="M28.3085 62.742H26.1035V64.9165H28.3085V62.742Z" fill="#6C7790"/>
<path d="M34.6085 62.742H32.4035V64.9165H34.6085V62.742Z" fill="#6C7790"/>
<path d="M36.5013 62.742H34.2963V64.9165H36.5013V62.742Z" fill="#6C7790"/>
<path d="M38.7027 62.742H36.4977V64.9165H38.7027V62.742Z" fill="#6C7790"/>
<path d="M44.6905 62.742H42.4852V64.9165H44.6905V62.742Z" fill="#6C7790"/>
<path d="M55.0848 62.742H52.8798V64.9165H55.0848V62.742Z" fill="#6C7790"/>
<path d="M61.0705 62.742H58.8652V64.9165H61.0705V62.742Z" fill="#6C7790"/>
</svg>
