<svg width="240" height="96" viewBox="0 0 240 96" fill="none" xmlns="http://www.w3.org/2000/svg">
<g clip-path="url(#clip0_107_14)">
<path fill-rule="evenodd" clip-rule="evenodd" d="M211.9 51.1L217.5 60.2H211.1L205.8 51.7H205.7V60.2H200V38.1H208.6C210.6 38 212.6 38.6 214.2 39.7C215.7 41 216.5 42.9 216.3 44.8C216.3 46.3 215.9 47.7 215 48.9C214.4 50.1 213.2 50.9 211.9 51.1ZM210 43.8C209.8 43.4 209.5 43.1 209.1 42.9C208.7 42.7 208.3 42.6 207.8 42.5C207.3 42.4 206.8 42.4 206.3 42.4H205.7V47.9H206.3C206.8 47.9 207.3 47.9 207.8 47.8C208.2 47.7 208.7 47.6 209.1 47.4C209.5 47.2 209.8 46.9 210 46.5C210.4 45.7 210.4 44.7 210 43.8ZM183.8 38.1H196.4V43H189.6V46.6H196.4V51.6H189.6V55.2H196.4V60.2H183.8V38.1ZM100.4 43H93.5999V46.6H100.4V51.6H93.5999V55.2H100.4V60.2H87.7999V38.1H100.4V43ZM78.9999 60.2L73.6999 51.7H73.5999V60.2H67.7999V38.1H76.3999C78.3999 38 80.3999 38.6 81.9999 39.7C83.4999 41 84.2999 42.9 84.0999 44.8C84.0999 46.3 83.6999 47.7 82.7999 48.9C81.8999 50.1 80.6999 50.8 79.1999 51L85.1999 60.1L78.9999 60.2ZM77.8999 43.8C77.6999 43.4 77.3999 43.1 76.9999 42.9C76.5999 42.7 76.1999 42.6 75.6999 42.5C75.1999 42.4 74.6999 42.4 74.1999 42.4H73.5999V47.9H74.1999C74.6999 47.9 75.1999 47.9 75.6999 47.8C76.0999 47.7 76.5999 47.6 76.9999 47.4C77.3999 47.2 77.6999 46.9 77.8999 46.5C78.3999 45.7 78.3999 44.7 77.8999 43.8ZM115.6 38.9C116.9 39.5 118 40.3 118.9 41.3C119.9 42.3 120.6 43.5 121.1 44.9C122.2 47.7 122.2 50.8 121.1 53.5C120.6 54.8 119.8 56 118.8 57C117.9 58 116.7 58.8 115.5 59.4C114.2 60 112.9 60.3 111.5 60.3H104V38.2H111.6C112.9 38.1 114.3 38.3 115.6 38.9ZM109.3 42.9V55.3H110.5C111.3 55.3 112 55.2 112.8 54.9C114.3 54.4 115.4 53.3 115.9 51.8C116.2 50.9 116.4 50 116.4 49.1C116.5 47.4 115.9 45.8 114.8 44.6C113.7 43.5 112.1 42.9 110.6 43L109.3 42.9ZM146 42.9H141.2V60.2H135.4V42.9H130.6V38H146V42.9ZM155.3 60.2H149.5V38H155.3V60.2ZM161.8 41.1C162.8 40.1 164 39.3 165.3 38.8C166.7 38.3 168.3 38 169.8 38C171.8 38 173.7 38.5 175.4 39.5C177 40.5 178.3 42.1 179.1 43.8L174 45.9C173.7 44.9 173.1 44.1 172.3 43.5C171.5 42.9 170.6 42.6 169.6 42.6C168.8 42.6 168 42.8 167.3 43.1C166.6 43.5 166.1 44 165.6 44.6C165.1 45.2 164.8 46 164.6 46.7C164.1 48.3 164.1 49.9 164.6 51.5C164.8 52.3 165.2 53 165.6 53.6C166.1 54.2 166.6 54.7 167.3 55.1C168 55.5 168.8 55.6 169.6 55.6C170.7 55.6 171.7 55.3 172.6 54.7C173.4 54 173.9 53.1 173.9 52H169.5V47.8H180.1C180.1 49.3 179.9 50.9 179.7 52.4C179.4 53.7 178.8 55 178.1 56C177.2 57.3 175.9 58.4 174.5 59.1C173 59.8 171.3 60.1 169.7 60.1C168.2 60.1 166.7 59.9 165.3 59.3C164 58.8 162.8 58 161.8 57.1C160.8 56.1 160 54.9 159.5 53.6C159 52.2 158.7 50.7 158.7 49.2C158.7 47.6 159 46.1 159.5 44.6C160 43.3 160.8 42.1 161.8 41.1Z" fill="#5C6374"/>
<path fill-rule="evenodd" clip-rule="evenodd" d="M44 42.9C44 43.5 44 44.2 43.1 44.5C42.5 44.7 41.9 43.9 41.8 43.4C42.1 43 42.5 42.7 42.9 42.6C43.8 42.2 44 42.2 44 42.9ZM27.8 44.5C26.9 44.2 26.9 43.5 26.9 42.9C26.9 42.2 27.1 42.2 28 42.6C28.4 42.8 28.8 43 29.1 43.4C29.1 43.9 28.4 44.7 27.8 44.5ZM49.1 62.1C49.7 61.8 50.2 61.5 50.6 61C52.8 58.7 53.2 56 53.5 52.8C53.6 52 53.6 51.2 53.6 50.3C53.6 50.2 53.6 49.6 53.7 49.6C53.9 49.8 54 50 54.1 50.2C54.4 50.9 54.5 51.7 54.6 52.5C54.9 54 54.9 55.6 54.7 57.1C54.6 57.6 54.4 58.1 54.2 58.6C52.8 60.9 51.3 63 49.9 65.3C49.8 65.5 49.7 65.1 49.6 65.1L49.5 65C49.2 64.8 49 64.8 48.9 64.9C48.8 65 48.8 65.1 48.8 65.2C48.5 66 47.8 67.2 47.4 67.9C47.3 68 47.2 68.1 47.1 68C47 68 47 67.9 47 67.8C47 66.9 47 66.1 47 65.2C47 64.7 47 64 46.3 64C45.6 64 45.6 64.6 45.5 65.2C45.5 65.7 45.5 66.2 45.5 66.8C45.5 66.9 45.4 67.1 45.3 67.1H45.2C44.6 66.6 43.9 66.3 43.2 66C42 65.5 40.7 65.7 39.7 66.4L39.9 66.3C40.8 65.5 42 65.2 43.1 65.4C43.4 65.5 43.7 65.5 44.1 65.5C44.2 65.5 44.3 65.4 44.3 65.2V65.1C43.9 63.9 42.4 59.5 45.3 58C45.4 58 45.4 57.9 45.4 57.8C45.5 57 47 53.5 43 51.2C42.4 51.8 41.6 53.1 40.6 53.9C42.3 54.3 43.3 53.2 44.1 52.5C43.8 54.5 42.2 54.7 40.9 55.4C42 54.9 43.1 55.6 44.3 54.9C43.4 56.7 41.5 55.8 40.4 56.7C41.5 57.4 42.5 57 43.5 56.9C43.8 56.9 44.1 56.9 44.3 56.9C44.1 57.2 43.8 57.6 43.5 57.8C43.1 58.1 42.7 58.3 42.2 58.4C41.7 58.5 41.2 58.6 40.7 58.4C39.3 58 37.9 57.4 36.5 56.9C36.2 57 36 56.7 36 56.4C35.9 55.9 36 55.5 36 55C35.9 54.4 36.3 53.8 36.9 53.7C38.2 53.3 39.4 52.5 40.2 51.5C40.5 51.1 40.7 50.7 40.8 50.2C40.8 49.8 40.7 49.4 40.6 49C40.5 48.7 40.5 48.3 40.6 48V47.9L40.9 46.7C41 46.3 41.2 46 41.5 45.8L41.6 45.7L41.7 45.6C42.2 45.3 42.8 45.1 43.4 44.9C45.4 44.1 47 42.4 47.6 40.4C47.8 39.7 47.9 39 47.8 38.2C47.6 38.6 47.3 39.4 47.1 39.8C46.9 40.4 46.2 40.8 45.6 40.8C43.8 40.8 42 41.1 41 43.1C40.6 44.1 39.8 45 38.8 45.5C38.8 44.9 38.9 44.4 39.1 43.9C38.2 43.5 38.6 43 39 42.5C39.6 41.8 40.3 41.2 40.9 40.4C40.3 40.3 39.8 40 39.4 39.6H43V39.5C41.9 39.3 40.8 38.9 39.8 38.4C41.5 37.4 45 37.9 45.6 37.7C45.6 37.6 45.1 37.5 44.6 37.3C43.4 37 43 36.9 41.8 36.6C40.7 36.3 39.5 35.8 38.5 35.3H43.2C41.6 34.4 39.8 33.8 38 33.6C37 33.5 36.2 33.5 35.6 33.5V33.2V33.5C35 33.5 34.2 33.5 33.2 33.6C31.4 33.8 29.6 34.4 28 35.3H32.7C31.7 35.9 30.6 36.3 29.4 36.6C28.2 36.9 27.8 37 26.7 37.3C26.2 37.5 25.7 37.6 25.7 37.7C26.3 37.9 29.8 37.4 31.5 38.4C30.5 38.9 29.5 39.3 28.3 39.5V39.6H31.9C31.5 40 31 40.3 30.4 40.4C31.1 41.1 31.7 41.8 32.3 42.5C32.8 43 33.1 43.5 32.2 43.9C32.4 44.4 32.5 45 32.5 45.5C31.5 45 30.7 44.1 30.3 43.1C29.3 41.2 27.5 40.9 25.7 40.8C25 40.9 24.4 40.5 24.2 39.8C24 39.4 23.7 38.6 23.5 38.2C23.4 38.9 23.4 39.7 23.7 40.4C24.3 42.5 25.9 44.2 27.9 44.9C28.5 45.1 29 45.3 29.6 45.6C29.6 45.6 29.7 45.6 29.7 45.7C29.7 45.7 29.8 45.7 29.8 45.8C30.1 46 30.3 46.4 30.4 46.7L30.7 47.9V48C30.8 48.3 30.8 48.6 30.7 49C30.6 49.4 30.5 49.8 30.5 50.2C30.6 50.7 30.8 51.1 31.1 51.5C31.9 52.6 33.1 53.4 34.4 53.7C35 53.8 35.4 54.4 35.3 55C35.3 55.5 35.4 55.9 35.3 56.4C35.2 56.7 35 56.9 34.7 57.1C33.3 57.6 31.9 58.2 30.5 58.6C30 58.7 29.5 58.7 29 58.6C28.5 58.5 28.1 58.3 27.7 58C27.4 57.7 27.1 57.4 26.9 57.1C27.2 57 27.5 57 27.7 57.1C28.7 57.2 29.7 57.6 30.8 56.9C29.7 56 27.8 56.8 26.9 55.1C28.2 55.8 29.3 55.1 30.3 55.6C29 54.9 27.5 54.7 27.1 52.7C27.9 53.4 28.9 54.5 30.6 54.1C29.6 53.3 28.8 52 28.2 51.4C24.2 53.7 25.7 57.2 25.8 58C25.8 58.1 25.9 58.2 25.9 58.2C28.8 59.7 27.4 64.1 26.9 65.3C26.9 65.4 26.9 65.5 26.9 65.5C26.9 65.6 27 65.6 27.1 65.6C27.4 65.6 27.7 65.6 28.1 65.5C29.3 65.2 30.5 65.6 31.3 66.4L31.5 66.5C30.5 65.8 29.2 65.6 28 66.1C27.3 66.4 26.6 66.7 26 67.2C25.9 67.3 25.7 67.2 25.7 67.1V67C25.7 66.4 25.7 65.9 25.7 65.4C25.7 64.8 25.7 64.2 24.9 64.2C24 64 24 64.7 24 65.2C24 66.1 24 66.9 24 67.8C24 67.9 23.9 68 23.7 68C23.6 68 23.5 68 23.5 67.9C23.1 67.1 22.5 65.9 22.1 65.2C22.1 65.1 22 65 22 64.9C21.8 64.8 21.7 64.8 21.4 65L21.3 65.1C21.2 65.2 21.1 65.5 21 65.3C19.6 63 18 60.9 16.7 58.6C16.4 58.1 16.3 57.6 16.2 57.1C16 55.6 16.1 54 16.3 52.5C16.4 51.7 16.5 51 16.8 50.2C16.9 50 17 49.7 17.2 49.6C17.3 49.6 17.3 50.2 17.3 50.3C17.3 51.1 17.3 52 17.4 52.8C17.7 55.9 18.1 58.6 20.3 61C20.7 61.5 21.3 61.8 21.8 62.1C21.9 62.2 22.1 62.1 22.1 62C22.1 61.9 22.1 61.9 22.1 61.8C21.4 60.4 20.7 59.1 20.2 57.7C19.7 56.3 19.3 54.7 18.9 53.3C18.9 53.2 18.9 53 19.1 53H19.2C19.5 53.1 19.9 53.3 20.3 53.4C20.4 53.4 20.6 53.4 20.6 53.3C20.6 53.2 20.6 53.2 20.6 53.1C20.2 51.7 18.8 47.5 18.8 47.5C18.9 47.6 19.7 48.8 19.7 48.9C20.3 49.9 20.9 51 21.4 52.1C21.6 52.7 21.8 53.1 21.9 53.3C21.9 53.4 22 53.5 21.9 53.6C20.8 54.6 21.7 56.4 22.2 56.9C22.9 57.7 23.3 58.6 23.6 59.6C23.7 59.8 23.8 60.1 23.9 60.4C23.9 60.5 24.1 60.6 24.2 60.5C24.3 60.5 24.4 60.4 24.4 60.3C24.3 59 24.1 57.3 23.7 56.9C23 56.3 23.2 54.2 23.9 53.8C24.6 53.4 24.7 53.1 24.4 52.5C24.3 52.4 24.4 52.2 24.5 52.2L27.6 50.4C27.7 50.3 27.8 50.2 27.7 50.1C27.7 50 27.6 50 27.5 50C26.4 49.9 25.3 50.2 24.5 50.9C23.8 51.3 23 51.1 22.6 50.4C22.5 50.3 22.5 50.2 22.5 50.1C22.4 49.9 22.4 49.8 22.3 49.6C22.3 49.5 22.4 49.3 22.5 49.3C24 48.9 24.3 48.8 24.4 48.4C24.4 48.3 24.3 48.1 24.2 48.1C23.7 48.2 23.1 48.1 22.6 47.9C22.3 47.6 22.1 47.2 22 46.8C22 46.7 22 46.5 22.2 46.5C22.3 46.5 22.3 46.5 22.4 46.5C22.9 46.7 23.1 46.7 23.4 46.5C23.5 46.4 23.5 46.3 23.4 46.1C23.3 46 23.3 45.9 23.2 45.9C22.1 45 20.3 40.1 20.4 38.7C19.9 39.1 19.6 39.6 19.4 40.2C18.2 39.7 17.3 39.6 17.5 37.9L18.8 38.6C18.8 38.6 18.9 38.1 18.2 37.5C16.7 36.2 16.4 34.5 16.4 32.7C16.3 31.8 17 31 17.9 30.9C18.2 30.9 18.6 31 18.9 31.1C21.9 32.5 25.9 33.9 29.3 33.5H29.4C31.5 33.1 33.6 32.8 35.8 32.8C37.9 32.8 40.1 33 42.2 33.5H42.3C45.7 33.9 49.7 32.5 52.7 31.1C53.5 30.6 54.5 30.9 54.9 31.6C55.1 31.9 55.2 32.2 55.1 32.6C55.1 34.4 54.8 36.1 53.3 37.4C52.6 38 52.7 38.5 52.7 38.5L54 37.8C54.2 39.5 53.3 39.6 52.1 40.1C51.9 39.5 51.6 39 51.1 38.6C51.2 40 49.4 44.9 48.3 45.8C48.2 45.9 48.1 45.9 48.1 46C48.1 46.1 48 46.1 48 46.2C48 46.3 48 46.3 48.1 46.4C48.4 46.6 48.5 46.6 49.1 46.4C49.2 46.3 49.4 46.4 49.4 46.5C49.4 46.6 49.4 46.6 49.4 46.7C49.3 47.1 49.1 47.5 48.8 47.8C48.3 48 47.7 48.1 47.2 48C47.1 48 46.9 48.1 47 48.3C47.1 48.8 47.3 48.8 48.9 49.2C49 49.2 49.2 49.3 49.1 49.5C49.1 49.7 49 49.8 48.9 50C48.7 50.7 47.9 51.1 47.2 50.9C47.1 50.9 47 50.8 46.9 50.8C46 50.1 45 49.8 43.9 49.9C43.8 49.9 43.7 50.1 43.7 50.2C43.7 50.3 43.8 50.3 43.8 50.4L46.9 52.2C47 52.3 47.1 52.4 47 52.6C46.7 53.2 46.8 53.6 47.5 53.9C48.2 54.3 48.4 56.4 47.7 57C47.3 57.4 47 59.1 47 60.4C47 60.5 47.1 60.7 47.2 60.7C47.3 60.7 47.4 60.6 47.4 60.5C47.5 60.2 47.6 59.9 47.7 59.7C48 58.7 48.4 57.8 49.1 57C49.6 56.4 50.5 54.6 49.4 53.7C49.3 53.6 49.3 53.5 49.4 53.4C49.5 53.2 49.7 52.8 49.9 52.2C50.4 51.1 50.9 50 51.6 49C51.7 48.9 52.5 47.7 52.5 47.6C52.5 47.6 51.1 51.8 50.7 53.2C50.7 53.3 50.7 53.5 50.9 53.5C51 53.5 51 53.5 51.1 53.5C51.4 53.4 51.8 53.2 52.2 53.1C52.3 53.1 52.5 53.1 52.5 53.3C52.5 53.3 52.5 53.4 52.5 53.5C52.1 55 51.7 56.5 51.2 57.9C50.7 59.3 49.9 60.7 49.3 62C49.2 62.1 49.3 62.3 49.4 62.3C49 62.1 49.1 62.1 49.1 62.1ZM28.5 51C28.4 51 28.5 51 28.5 51V51ZM22.8 32.6C23.1 32.7 23.3 32.7 23.6 32.8C23.3 32.7 23.1 32.6 22.8 32.6ZM22.5 33C19 32.7 19.7 35.3 20.3 36.8L20.9 37.7L21 37.8C21.9 39.9 22.6 44.2 26.8 45.9C26.6 45.8 26.5 45.7 26.3 45.6C25.1 44.6 24.1 43.3 23.4 41.9C21.5 38.1 22 35.8 21.8 34.8C22.2 34.9 23.4 35.2 23.7 35.3C23.7 35.2 21.5 34.3 20.8 33.9C21.1 33.7 21.4 33.6 21.7 33.6C23.2 33.4 23.7 33.9 24.7 34.1C25.3 34.2 26 34.1 26.6 34L22.5 33ZM42.4 51C42.4 51 42.5 51 42.4 51V51ZM47.3 32.8C47.5 32.7 47.8 32.7 48.1 32.6C47.8 32.6 47.6 32.7 47.3 32.8ZM49.9 37.9C49.9 37.9 49.9 37.8 49.9 37.9C49.9 37.8 50 37.8 50 37.7L50.6 36.8C51.3 35.3 51.9 32.7 48.4 33L44.3 34C44.9 34.2 45.6 34.2 46.2 34.1C47.2 34 47.7 33.5 49.2 33.6C49.5 33.6 49.9 33.8 50.1 33.9C49.5 34.2 47.2 35.2 47.2 35.3C47.5 35.2 48.7 34.9 49.1 34.8C48.9 35.7 49.4 38.1 47.5 41.9C46.8 43.3 45.8 44.6 44.6 45.6C44.4 45.7 44.3 45.8 44.1 45.9C48.3 44.3 49.1 39.9 49.9 37.9ZM35.5 51.2C35 51.2 34.5 51.2 33.8 51.2C33.2 51.2 32.5 51.1 32 50.8C31.7 50.6 31.5 50.2 31.6 49.8C31.6 49.3 32.3 48.9 32.3 48.9C32.3 50.1 33.3 50.5 35.6 50.5C37.8 50.5 38.9 50.2 38.9 48.9C38.9 48.9 39.6 49.3 39.6 49.8C39.7 50.2 39.5 50.6 39.2 50.8C38.6 51 38 51.2 37.4 51.2C36.5 51.2 36 51.2 35.5 51.2ZM35.5 64.4C35.6 66 32.8 66.2 30.4 64.8C30.3 64.3 30.5 63.4 30.3 63.2C29.9 62.9 29.2 63.3 28.8 63.6C28.4 63.9 28.1 64.4 27.7 64.7C27.9 62.2 30.4 59.9 34.2 59.7C34.6 59.7 35 59.6 35.4 59.7C35.8 59.7 36.2 59.7 36.6 59.7C40.4 59.9 43 62.2 43.1 64.7C42.7 64.4 42.4 63.9 42 63.6C41.6 63.3 40.9 63 40.5 63.2C40.2 63.4 40.5 64.3 40.4 64.8C38.2 66.2 35.4 66 35.5 64.4Z" fill="#5C6374"/>
<path opacity="0.05" fill-rule="evenodd" clip-rule="evenodd" d="M216.7 44.5C216.6 44.6 216.9 45.2 217.3 45.1C217.5 45.1 217.7 44.7 217.7 44.6C217.7 44.5 217.5 44.6 217.2 44.6C216.9 44.6 216.8 44.4 216.7 44.5Z" fill="#5C6374"/>
<path opacity="0.2" fill-rule="evenodd" clip-rule="evenodd" d="M201.7 38.1C201.6 38.1 201.5 38.2 201.5 38.3C201.5 38.5 202.3 38.5 202.4 38.5C204 38.6 207.3 39.6 208.4 40C209.7 40.5 211.9 41.3 213.5 43.4C214.8 45.2 215.4 47.4 215.7 47.3C215.9 47.3 215.8 46.8 215.8 46.6C215.7 44 212.7 41.4 212.7 41.4C207.7 37.1 202.3 37.7 201.7 38.1Z" fill="#5C6374"/>
<path opacity="0.1" fill-rule="evenodd" clip-rule="evenodd" d="M208.4 39.4C208.5 39.6 209.4 39.3 209.3 39.1C209.3 38.9 208.7 38.7 208.5 39C208.4 39.1 208.3 39.3 208.4 39.4Z" fill="#5C6374"/>
</g>
<defs>
<clipPath id="clip0_107_14">
<rect width="208.6" height="38.8" fill="white" transform="translate(16 29)"/>
</clipPath>
</defs>
</svg>
