<svg width="240" height="96" viewBox="0 0 240 96" fill="none" xmlns="http://www.w3.org/2000/svg">
<path fill-rule="evenodd" clip-rule="evenodd" d="M33.32 25C41.1074 26.1179 48.4211 28.7232 54.9674 32.5126C61.6368 36.3779 67.5105 41.4747 72.2474 47.5C67.5011 53.5253 61.6274 58.6221 54.9579 62.4874C48.4116 66.2768 41.1074 68.8821 33.3105 70C30.5347 63.0463 29 55.4484 29 47.5C29 39.5516 30.5347 31.9537 33.32 25ZM44.9063 39.1442C42.1874 37.5621 39.9611 38.8411 39.9611 41.9863V53.0137C39.9611 56.159 42.1874 57.4379 44.9063 55.8558L54.2947 50.38C57.0137 48.7979 57.0137 46.2021 54.2947 44.62L44.9063 39.1442Z" fill="#5C6374"/>
<path d="M56.3411 47.5H72.2569C67.5106 41.4747 61.6369 36.3779 54.9674 32.5126V45.0653C55.8864 45.7853 56.3411 46.6474 56.3411 47.5Z" fill="#686F81"/>
<path d="M56.3411 47.5C56.3411 48.3526 55.8864 49.2053 54.9674 49.9253V62.4874C61.6369 58.6221 67.5106 53.5253 72.2569 47.5H56.3411Z" fill="#5C6374"/>
<path d="M41.3253 56.14L33.3201 70C41.1169 68.8821 48.4211 66.2769 54.9674 62.4874L44.1295 56.2253C43.0306 56.6611 42.0548 56.6137 41.3253 56.14Z" fill="#5C6374"/>
<path d="M40.0274 53.8663L29 47.5C29 55.4484 30.5347 63.0463 33.3105 70L41.3158 56.14C40.6526 55.7137 40.1884 54.9368 40.0274 53.8663Z" fill="#686F81"/>
<path d="M41.3158 38.8505L33.32 25C30.5347 31.9537 29 39.5516 29 47.5L40.0274 41.1337C40.1789 40.0632 40.6526 39.2863 41.3158 38.8505Z" fill="#686F81"/>
<path d="M44.1295 38.7653L54.9674 32.5126C48.4306 28.7232 41.1169 26.1179 33.3201 25L41.3253 38.86C42.0548 38.3863 43.0306 38.3295 44.1295 38.7653Z" fill="#5C6374"/>
<path d="M44.9064 39.1442L54.2948 44.62C54.5411 44.7621 54.759 44.9137 54.9674 45.0747V32.5126L44.1295 38.7653C44.3853 38.8695 44.6411 38.9926 44.9064 39.1442Z" fill="#5C6374"/>
<path d="M39.9611 53.0042V41.9863C39.9611 41.6831 39.98 41.3989 40.0179 41.1337L29 47.5L40.0274 53.8663C39.9895 53.5916 39.9611 53.3073 39.9611 53.0042Z" fill="#5C6374"/>
<path d="M54.3042 50.38L44.9158 55.8558C44.6505 56.0074 44.3852 56.14 44.1389 56.2347L54.9768 62.4968V49.9253C54.7684 50.0863 54.541 50.2379 54.3042 50.38Z" fill="#686F81"/>
<path d="M85.6621 49.2905V55.9032H82.5168V38.9832H87.68C88.8263 38.9832 89.8116 39.1063 90.6358 39.3432C91.46 39.58 92.1326 39.9116 92.6632 40.3474C93.1937 40.7737 93.5821 41.2853 93.8284 41.8821C94.0747 42.4789 94.2074 43.1326 94.2074 43.8526C94.2074 44.421 94.1221 44.961 93.9516 45.4632C93.7811 45.9747 93.5442 46.4295 93.2221 46.8463C92.9095 47.2632 92.5116 47.6232 92.0568 47.9358C91.5926 48.2484 91.0621 48.4947 90.4747 48.6842C90.8726 48.9116 91.2137 49.2337 91.5074 49.6505L95.7421 55.8937H92.9C92.36 55.8937 91.9716 55.6853 91.7347 55.2589L88.1537 49.8589C88.0211 49.66 87.879 49.5084 87.7179 49.4232C87.5568 49.3379 87.32 49.2905 87.0074 49.2905H85.6621V49.2905ZM85.6621 47.0358H87.6232C88.22 47.0358 88.7316 46.96 89.1768 46.8179C89.6221 46.6663 89.9821 46.4674 90.2663 46.2021C90.5505 45.9368 90.759 45.6337 90.9011 45.2737C91.0432 44.9137 91.1095 44.5253 91.1095 44.0895C91.1095 43.2274 90.8253 42.5737 90.2568 42.1095C89.6884 41.6453 88.8263 41.4179 87.6611 41.4179H85.6526L85.6621 47.0358Z" fill="#5C6374"/>
<path d="M104.231 53.3642C104.837 53.3642 105.386 53.26 105.86 53.061C106.343 52.8621 106.741 52.5779 107.073 52.2084C107.404 51.8389 107.651 51.3937 107.831 50.8726C108.011 50.3516 108.096 49.7642 108.096 49.12V38.9832H111.241V49.1105C111.241 50.1147 111.08 51.0432 110.758 51.9053C110.436 52.7579 109.972 53.4968 109.365 54.1126C108.759 54.7284 108.03 55.221 107.158 55.5621C106.296 55.9126 105.32 56.0832 104.231 56.0832C103.141 56.0832 102.156 55.9126 101.294 55.5621C100.432 55.2116 99.6927 54.7284 99.0864 54.1126C98.48 53.4968 98.0158 52.7579 97.6937 51.9053C97.3716 51.0526 97.2106 50.1242 97.2106 49.1105V38.9832H100.356V49.1105C100.356 49.7547 100.441 50.3421 100.621 50.8632C100.801 51.3842 101.047 51.8295 101.379 52.1989C101.711 52.5684 102.118 52.8526 102.592 53.061C103.075 53.26 103.624 53.3642 104.231 53.3642Z" fill="#5C6374"/>
<path d="M114.794 55.9032V38.9832H120.62C121.728 38.9832 122.676 39.0874 123.462 39.2958C124.248 39.5042 124.893 39.8074 125.395 40.1958C125.897 40.5842 126.266 41.0579 126.503 41.6074C126.74 42.1568 126.854 42.7821 126.854 43.4832C126.854 43.881 126.797 44.26 126.674 44.62C126.56 44.98 126.38 45.321 126.134 45.6337C125.887 45.9463 125.575 46.24 125.196 46.4958C124.817 46.7516 124.372 46.9695 123.841 47.1495C126.162 47.6705 127.327 48.9305 127.327 50.92C127.327 51.64 127.195 52.3032 126.92 52.9095C126.645 53.5158 126.247 54.0463 125.726 54.4821C125.205 54.9274 124.561 55.2684 123.794 55.5147C123.026 55.761 122.155 55.8937 121.169 55.8937H114.794V55.9032ZM117.948 46.3063H120.449C121.529 46.3063 122.335 46.1074 122.894 45.7189C123.443 45.3305 123.718 44.7053 123.718 43.8621C123.718 42.981 123.472 42.3558 122.969 41.9768C122.467 41.5979 121.691 41.4179 120.629 41.4179H117.948V46.3063ZM117.948 48.4853V53.4495H121.132C121.719 53.4495 122.212 53.3832 122.609 53.241C123.007 53.0989 123.329 52.9095 123.566 52.6821C123.803 52.4547 123.974 52.1705 124.078 51.8674C124.182 51.5547 124.239 51.2232 124.239 50.8726C124.239 50.5032 124.182 50.181 124.059 49.8874C123.936 49.5937 123.756 49.3474 123.509 49.1389C123.263 48.9305 122.941 48.7789 122.543 48.6653C122.145 48.5516 121.672 48.5042 121.122 48.5042L117.948 48.4853Z" fill="#5C6374"/>
<path d="M137.265 49.3474V55.9032H134.129V49.3474L127.962 38.9832H130.738C131.013 38.9832 131.23 39.0495 131.392 39.1821C131.553 39.3147 131.685 39.4853 131.799 39.6842L134.887 45.3305C135.067 45.6716 135.228 45.9937 135.361 46.2874C135.494 46.581 135.617 46.8747 135.73 47.1684C135.835 46.8747 135.948 46.5716 136.081 46.2779C136.214 45.9842 136.365 45.6621 136.536 45.3305L139.615 39.6842C139.7 39.5137 139.833 39.3526 140.003 39.201C140.174 39.0495 140.392 38.9832 140.657 38.9832H143.442L137.265 49.3474Z" fill="#5C6374"/>
<path d="M153.408 49.9442V55.9032H150.263V38.9832H155.758C156.885 38.9832 157.871 39.1158 158.695 39.381C159.519 39.6463 160.201 40.0158 160.741 40.4895C161.281 40.9632 161.679 41.5316 161.944 42.1947C162.21 42.8579 162.333 43.5874 162.333 44.3737C162.333 45.1884 162.2 45.9463 161.925 46.6284C161.651 47.3105 161.243 47.8979 160.694 48.3905C160.144 48.8832 159.462 49.2621 158.638 49.5368C157.814 49.8116 156.857 49.9442 155.758 49.9442H153.408ZM153.408 47.4905H155.758C156.336 47.4905 156.838 47.4147 157.264 47.2726C157.691 47.1305 158.051 46.9221 158.335 46.6568C158.619 46.3916 158.827 46.06 158.97 45.6716C159.112 45.2832 159.178 44.8568 159.178 44.3832C159.178 43.9284 159.112 43.521 158.97 43.1516C158.827 42.7821 158.619 42.4695 158.335 42.2137C158.051 41.9579 157.7 41.7589 157.274 41.6263C156.847 41.4937 156.336 41.4179 155.748 41.4179H153.399L153.408 47.4905Z" fill="#5C6374"/>
<path d="M168.14 53.3074H174.781L173.654 55.9032H164.995V38.9832H168.14V53.3074Z" fill="#5C6374"/>
<path d="M191.767 55.9032H189.333C189.058 55.9032 188.84 55.8369 188.669 55.6947C188.499 55.5621 188.366 55.3916 188.281 55.1832L187.021 51.7347H180.011L178.751 55.1832C178.684 55.3632 178.571 55.5242 178.391 55.6758C178.211 55.8274 177.993 55.8937 177.727 55.8937H175.274L181.934 38.9737H185.136L191.767 55.9032ZM180.816 49.5179H186.206L184.151 43.8905C184.046 43.6442 183.942 43.3505 183.838 43.0095C183.724 42.6684 183.62 42.299 183.506 41.9011C183.393 42.299 183.288 42.6684 183.184 43.0095C183.08 43.3505 182.976 43.6537 182.872 43.9095L180.816 49.5179Z" fill="#5C6374"/>
<path d="M198.285 49.3474V55.9032H195.149V49.3474L188.982 38.9832H191.758C192.033 38.9832 192.25 39.0495 192.412 39.1821C192.573 39.3147 192.705 39.4853 192.819 39.6842L195.907 45.3305C196.087 45.6716 196.248 45.9937 196.381 46.2874C196.514 46.581 196.637 46.8747 196.75 47.1684C196.855 46.8747 196.968 46.5716 197.101 46.2779C197.234 45.9842 197.385 45.6621 197.556 45.3305L200.635 39.6842C200.72 39.5137 200.853 39.3526 201.023 39.201C201.194 39.0495 201.412 38.9832 201.677 38.9832H204.462L198.285 49.3474Z" fill="#5C6374"/>
<path d="M210.374 40.6884C210.317 40.4705 210.232 40.2716 210.118 40.0821C210.004 39.8926 209.872 39.7221 209.72 39.5705C209.568 39.4189 209.388 39.2863 209.208 39.1726C209.019 39.0589 208.82 38.9737 208.602 38.9168C208.166 38.7937 207.683 38.7937 207.247 38.9168C207.03 38.9737 206.831 39.0589 206.641 39.1726C206.452 39.2863 206.281 39.4189 206.13 39.5705C205.978 39.7221 205.845 39.9021 205.732 40.0821C205.618 40.2716 205.533 40.4705 205.476 40.6884C205.419 40.9063 205.381 41.1337 205.381 41.361C205.381 41.5979 205.41 41.8253 205.476 42.0337C205.533 42.2516 205.618 42.4505 205.732 42.64C205.845 42.8295 205.978 43 206.13 43.1516C206.281 43.3031 206.461 43.4358 206.641 43.5495C206.831 43.6631 207.03 43.7484 207.247 43.8053C207.465 43.8621 207.693 43.9 207.92 43.9C208.157 43.9 208.384 43.8716 208.593 43.8053C208.811 43.7484 209.01 43.6631 209.199 43.5495C209.388 43.4358 209.559 43.3031 209.711 43.1516C209.862 43 209.995 42.82 210.108 42.64C210.222 42.4505 210.307 42.2516 210.364 42.0337C210.421 41.8158 210.459 41.5884 210.459 41.361C210.468 41.1337 210.44 40.9063 210.374 40.6884ZM205.987 40.8116C206.035 40.6316 206.101 40.4705 206.186 40.3189C206.272 40.1674 206.376 40.0253 206.499 39.9021C206.622 39.7789 206.755 39.6653 206.906 39.58C207.058 39.4947 207.21 39.4189 207.39 39.3716C207.56 39.3242 207.74 39.2958 207.93 39.2958C208.119 39.2958 208.299 39.3242 208.47 39.3716C208.64 39.4189 208.801 39.4853 208.953 39.58C209.104 39.6747 209.237 39.7789 209.36 39.9021C209.483 40.0253 209.587 40.1674 209.673 40.3189C209.758 40.4705 209.824 40.641 209.872 40.8116C209.919 40.9821 209.947 41.1716 209.947 41.361C209.947 41.6453 209.9 41.92 209.796 42.1663C209.692 42.4126 209.55 42.6305 209.37 42.82C209.19 43 208.972 43.1516 208.725 43.2558C208.479 43.36 208.214 43.4168 207.939 43.4168C207.655 43.4168 207.399 43.36 207.153 43.2558C206.906 43.1516 206.698 43 206.518 42.82C206.338 42.64 206.196 42.4221 206.092 42.1663C205.987 41.9105 205.94 41.6453 205.94 41.361C205.921 41.1716 205.95 40.9916 205.987 40.8116Z" fill="#5C6374"/>
<path d="M208.602 41.6737C208.564 41.6263 208.526 41.5979 208.479 41.5695C208.697 41.5031 208.848 41.3895 208.953 41.2474C209.057 41.0958 209.104 40.9253 209.104 40.7358C209.104 40.461 209.009 40.2431 208.82 40.101C208.631 39.9495 208.327 39.8831 207.911 39.8831H206.849V42.8579H207.56V41.7779H207.74C207.797 41.7779 207.835 41.7874 207.863 41.8063C207.892 41.8253 207.92 41.8442 207.939 41.8821L208.413 42.7537C208.451 42.8295 208.526 42.8674 208.621 42.8674H209.303L208.706 41.8537C208.668 41.7684 208.631 41.721 208.602 41.6737ZM208.375 41.0105C208.356 41.0674 208.327 41.1147 208.289 41.1526C208.252 41.1905 208.195 41.2189 208.119 41.2379C208.043 41.2568 207.948 41.2663 207.844 41.2663H207.551V40.4137H207.901C208.005 40.4137 208.091 40.4231 208.147 40.4421C208.214 40.461 208.261 40.48 208.299 40.5179C208.337 40.5558 208.356 40.5937 208.375 40.6505C208.384 40.6979 208.394 40.7642 208.394 40.8305C208.403 40.8874 208.394 40.9537 208.375 41.0105Z" fill="#5C6374"/>
</svg>
