<svg width="240" height="80" viewBox="0 0 240 80" fill="none" xmlns="http://www.w3.org/2000/svg">
<path d="M143.867 30.2933C144.753 30.2933 145.619 30.0306 146.356 29.5383C147.092 29.0461 147.667 28.3464 148.006 27.5278C148.345 26.7092 148.433 25.8084 148.261 24.9393C148.088 24.0703 147.661 23.272 147.034 22.6455C146.408 22.019 145.61 21.5923 144.741 21.4194C143.872 21.2466 142.971 21.3353 142.152 21.6744C141.334 22.0134 140.634 22.5877 140.142 23.3244C139.649 24.0611 139.387 24.9273 139.387 25.8133C139.387 27.0015 139.859 28.141 140.699 28.9812C141.539 29.8213 142.678 30.2933 143.867 30.2933ZM109.52 32.72C108.289 35.9414 106.542 38.9408 104.347 41.6V23.3867L94.96 25.2533V58.32H104.347V48C106.219 51.1736 107.587 54.6193 108.4 58.2133H119.653C118.102 53.6441 116.102 49.2403 113.68 45.0667C116.572 41.3326 118.8 37.1291 120.267 32.64L109.52 32.72ZM134.213 32.3733C125.813 32.64 121.547 36.4267 121.547 43.92V58.2934H130.667V46.5867C130.667 42.1067 131.253 40.16 136.587 40V32.5333C135.78 32.456 134.967 32.456 134.16 32.5333L134.213 32.3733ZM79.1733 36.3733C78.0266 36.3733 75.36 36.1333 75.36 33.7067C75.36 30.8267 79.2 30.8267 80.6933 30.8267C83.4556 30.95 86.1899 31.4341 88.8266 32.2667C88.8266 32.2667 90.1333 32.72 91.2533 33.2V25.2H91.12C87.2997 23.8303 83.2567 23.1882 79.2 23.3067C68.9333 23.3067 65.3066 29.28 65.3066 34.4C65.3066 37.36 66.56 44.2933 78.32 45.0667C79.3066 45.0667 81.9466 45.28 81.9466 47.7333C81.9466 49.7867 79.7866 50.9867 76.1333 50.9867C72.6368 50.9597 69.1749 50.2908 65.92 49.0133V57.1733C69.9093 58.1974 74.0147 58.6994 78.1333 58.6667C88.16 58.6667 92.6666 53.0133 92.6666 47.4133C92.6666 41.0667 87.6533 36.9333 79.3333 36.3733H79.1733ZM139.307 58.2934H148.4V32.7467H139.307V58.2934ZM165.547 25.0133V58.2934H174.64V23.3867L165.547 25.0133ZM152.213 25.0133L161.307 23.3867V58.2934H152.267V25.0133H152.213Z" fill="#5C6374"/>
</svg>
