<svg width="240" height="96" viewBox="0 0 240 96" fill="none" xmlns="http://www.w3.org/2000/svg">
<path d="M63.0125 60.2917C61.5426 60.2917 60.1404 60.0306 58.8059 59.5084C57.4907 58.9863 56.4754 58.3093 55.7598 57.4777L56.282 56.7814C56.9589 57.555 57.8969 58.1933 59.096 58.6961C60.3145 59.1797 61.6103 59.4214 62.9835 59.4214C65.0142 59.4214 66.5421 59.0249 67.5672 58.232C68.6116 57.4197 69.1338 56.3849 69.1338 55.1278C69.1338 54.1608 68.863 53.3872 68.3215 52.8069C67.7799 52.2074 67.1127 51.7625 66.3197 51.4724C65.5268 51.163 64.4437 50.8439 63.0705 50.5151C61.6006 50.1476 60.4208 49.7898 59.5312 49.4417C58.6415 49.0935 57.8872 48.5617 57.2683 47.8461C56.6494 47.1305 56.34 46.1731 56.34 44.974C56.34 44.0263 56.5914 43.156 57.0943 42.363C57.5971 41.5701 58.3611 40.9415 59.3861 40.4773C60.4305 39.9938 61.7263 39.752 63.2736 39.752C64.376 39.752 65.4591 39.9164 66.5228 40.2452C67.6059 40.574 68.5246 41.0285 69.2788 41.6087L68.8437 42.392C68.0507 41.8118 67.161 41.3767 66.1747 41.0865C65.2076 40.7771 64.2503 40.6224 63.3026 40.6224C61.3299 40.6224 59.831 41.0382 58.8059 41.8698C57.8002 42.6821 57.2973 43.7169 57.2973 44.974C57.2973 45.9604 57.5681 46.7533 58.1096 47.3529C58.6705 47.9331 59.3474 48.3779 60.1404 48.6874C60.9527 48.9968 62.0358 49.316 63.3896 49.6448C64.8595 50.0122 66.0393 50.37 66.929 50.7182C67.8186 51.0469 68.5632 51.5691 69.1628 52.2847C69.7817 52.981 70.0911 53.919 70.0911 55.0988C70.0911 56.0465 69.83 56.9168 69.3078 57.7098C68.805 58.5027 68.0217 59.1313 66.958 59.5955C65.8942 60.0597 64.5791 60.2917 63.0125 60.2917Z" fill="#5B6376"/>
<path d="M83.7702 45.0031C85.1434 45.0031 86.3909 45.3319 87.5126 45.9895C88.6344 46.6277 89.5144 47.5367 90.1526 48.7165C90.8102 49.8769 91.139 51.1921 91.139 52.662C91.139 54.1319 90.8102 55.447 90.1526 56.6075C89.5144 57.7486 88.6344 58.6479 87.5126 59.3055C86.3909 59.9437 85.1434 60.2628 83.7702 60.2628C82.3197 60.2628 81.0142 59.8954 79.8538 59.1604C78.7127 58.4255 77.8617 57.4198 77.3008 56.1433V65.8039H76.3434V45.1192H77.2718V49.2387C77.8327 47.9235 78.6836 46.8888 79.8247 46.1345C80.9852 45.3803 82.3003 45.0031 83.7702 45.0031ZM83.7412 59.3925C84.9597 59.3925 86.0524 59.1121 87.0194 58.5512C88.0058 57.971 88.7794 57.178 89.3403 56.1723C89.9012 55.1472 90.1816 53.9771 90.1816 52.662C90.1816 51.3468 89.9012 50.1767 89.3403 49.1517C88.7794 48.1266 88.0058 47.3337 87.0194 46.7728C86.0524 46.1926 84.9597 45.9024 83.7412 45.9024C82.5228 45.9024 81.4203 46.1926 80.434 46.7728C79.4669 47.3337 78.703 48.1266 78.1421 49.1517C77.5812 50.1767 77.3008 51.3468 77.3008 52.662C77.3008 53.9771 77.5812 55.1472 78.1421 56.1723C78.703 57.178 79.4669 57.971 80.434 58.5512C81.4203 59.1121 82.5228 59.3925 83.7412 59.3925Z" fill="#5B6376"/>
<path d="M97.314 45.119H98.2713V60.1756H97.314V45.119ZM97.7782 41.1735C97.5267 41.1735 97.3043 41.0864 97.1109 40.9124C96.9175 40.719 96.8208 40.4966 96.8208 40.2451C96.8208 39.9744 96.9078 39.7519 97.0819 39.5779C97.2753 39.3845 97.5074 39.2878 97.7782 39.2878C98.0296 39.2878 98.252 39.3845 98.4454 39.5779C98.6388 39.7519 98.7355 39.9647 98.7355 40.2161C98.7355 40.4675 98.6388 40.69 98.4454 40.8834C98.252 41.0768 98.0296 41.1735 97.7782 41.1735Z" fill="#5B6376"/>
<path d="M113.267 45.0031C115.143 45.0031 116.622 45.5543 117.705 46.6567C118.788 47.7398 119.33 49.2967 119.33 51.3275V60.1758H118.372V51.3855C118.372 49.6062 117.918 48.2523 117.009 47.324C116.119 46.3763 114.843 45.9024 113.18 45.9024C111.304 45.9024 109.824 46.4633 108.741 47.5851C107.658 48.6875 107.116 50.1767 107.116 52.0528V60.1758H106.159V45.1192H107.087V48.8035C107.571 47.6238 108.344 46.6954 109.408 46.0185C110.491 45.3416 111.777 45.0031 113.267 45.0031Z" fill="#5B6376"/>
<path d="M132.759 60.2628C131.366 60.2628 130.1 59.9437 128.959 59.3055C127.837 58.6479 126.957 57.7389 126.319 56.5784C125.68 55.418 125.361 54.1029 125.361 52.633C125.361 51.1631 125.68 49.8479 126.319 48.6875C126.957 47.5271 127.837 46.6277 128.959 45.9895C130.1 45.3319 131.366 45.0031 132.759 45.0031C134.171 45.0031 135.438 45.3319 136.559 45.9895C137.681 46.6277 138.561 47.5271 139.199 48.6875C139.838 49.8479 140.157 51.1631 140.157 52.633C140.157 54.1029 139.838 55.418 139.199 56.5784C138.561 57.7389 137.681 58.6479 136.559 59.3055C135.438 59.9437 134.171 60.2628 132.759 60.2628ZM132.759 59.3925C133.977 59.3925 135.07 59.1121 136.037 58.5512C137.024 57.971 137.797 57.1683 138.358 56.1433C138.919 55.1182 139.199 53.9481 139.199 52.633C139.199 51.3178 138.919 50.1574 138.358 49.1517C137.797 48.1266 137.024 47.3337 136.037 46.7728C135.07 46.1926 133.977 45.9024 132.759 45.9024C131.54 45.9024 130.438 46.1926 129.452 46.7728C128.485 47.3337 127.721 48.1266 127.16 49.1517C126.599 50.1574 126.319 51.3178 126.319 52.633C126.319 53.9481 126.599 55.1182 127.16 56.1433C127.721 57.1683 128.485 57.971 129.452 58.5512C130.438 59.1121 131.54 59.3925 132.759 59.3925Z" fill="#5B6376"/>
<path d="M165.085 45.0031C166.922 45.0031 168.363 45.5446 169.407 46.6277C170.471 47.7108 171.003 49.2774 171.003 51.3275V60.1758H170.045V51.3855C170.045 49.6062 169.61 48.2523 168.74 47.324C167.87 46.3763 166.632 45.9024 165.027 45.9024C163.228 45.9024 161.797 46.4633 160.733 47.5851C159.669 48.7068 159.137 50.1961 159.137 52.0528V60.1758H158.18V51.3855C158.18 49.6062 157.745 48.2523 156.874 47.324C156.004 46.3763 154.776 45.9024 153.19 45.9024C151.372 45.9024 149.931 46.4633 148.867 47.5851C147.823 48.6875 147.301 50.1767 147.301 52.0528V60.1758H146.344V45.1192H147.272V48.7455C147.736 47.5851 148.481 46.6761 149.506 46.0185C150.55 45.3416 151.798 45.0031 153.248 45.0031C154.699 45.0031 155.917 45.3512 156.903 46.0475C157.89 46.7438 158.547 47.7591 158.876 49.0936C159.321 47.8365 160.085 46.8405 161.168 46.1055C162.251 45.3706 163.557 45.0031 165.085 45.0031Z" fill="#5B6376"/>
<path d="M191.176 52.778H177.976C177.996 54.0545 178.296 55.1956 178.876 56.2013C179.456 57.207 180.249 57.9903 181.255 58.5512C182.28 59.1121 183.421 59.3925 184.678 59.3925C185.703 59.3925 186.651 59.2088 187.521 58.8413C188.391 58.4545 189.107 57.8936 189.668 57.1587L190.277 57.7969C189.6 58.5899 188.778 59.1991 187.811 59.6246C186.844 60.0501 185.8 60.2628 184.678 60.2628C183.208 60.2628 181.893 59.9437 180.733 59.3055C179.591 58.6479 178.692 57.7389 178.034 56.5784C177.377 55.418 177.048 54.1029 177.048 52.633C177.048 51.1631 177.348 49.8479 177.947 48.6875C178.566 47.5271 179.417 46.6277 180.5 45.9895C181.583 45.3319 182.792 45.0031 184.127 45.0031C185.442 45.0031 186.631 45.3222 187.695 45.9605C188.778 46.5987 189.629 47.4884 190.248 48.6295C190.867 49.7706 191.176 51.0664 191.176 52.5169V52.778ZM184.127 45.8734C183.005 45.8734 181.99 46.1345 181.081 46.6567C180.172 47.1789 179.446 47.9139 178.905 48.8616C178.363 49.7899 178.064 50.8343 178.005 51.9947H190.277C190.2 50.8343 189.881 49.7899 189.32 48.8616C188.778 47.9139 188.053 47.1789 187.144 46.6567C186.254 46.1345 185.249 45.8734 184.127 45.8734Z" fill="#5B6376"/>
<path d="M204.458 45.0031C206.334 45.0031 207.814 45.5543 208.897 46.6567C209.98 47.7398 210.521 49.2967 210.521 51.3275V60.1758H209.564V51.3855C209.564 49.6062 209.11 48.2523 208.201 47.324C207.311 46.3763 206.034 45.9024 204.371 45.9024C202.495 45.9024 201.016 46.4633 199.932 47.5851C198.849 48.6875 198.308 50.1767 198.308 52.0528V60.1758H197.351V45.1192H198.279V48.8035C198.762 47.6238 199.536 46.6954 200.6 46.0185C201.683 45.3416 202.969 45.0031 204.458 45.0031Z" fill="#5B6376"/>
<path d="M223.168 45.0031C224.967 45.0031 226.34 45.4673 227.287 46.3956C228.255 47.324 228.738 48.6682 228.738 50.4281V60.1758H227.81V57.1587C227.326 58.1257 226.601 58.8896 225.634 59.4505C224.686 59.9921 223.545 60.2628 222.211 60.2628C220.528 60.2628 219.203 59.876 218.236 59.1024C217.288 58.3288 216.815 57.3037 216.815 56.0272C216.815 54.8088 217.25 53.8224 218.12 53.0681C218.99 52.2945 220.383 51.9077 222.298 51.9077H227.781V50.4281C227.781 48.9389 227.384 47.8075 226.591 47.0339C225.818 46.2602 224.667 45.8734 223.139 45.8734C222.075 45.8734 221.079 46.0572 220.151 46.4246C219.222 46.7921 218.429 47.2853 217.772 47.9042L217.25 47.2079C217.985 46.5117 218.865 45.9701 219.89 45.5833C220.934 45.1965 222.027 45.0031 223.168 45.0031ZM222.269 59.4505C224.976 59.4505 226.814 58.2417 227.781 55.8242V52.691H222.298C220.731 52.691 219.58 52.9908 218.845 53.5903C218.13 54.1705 217.772 54.9635 217.772 55.9692C217.772 57.0523 218.168 57.9033 218.961 58.5222C219.774 59.1411 220.876 59.4505 222.269 59.4505Z" fill="#5B6376"/>
<path d="M236.459 38.6497H237.416V60.1758H236.459V38.6497Z" fill="#5B6376"/>
<path d="M17.7127 67.0048C12.3853 65.3696 3.9985 57.985 3.9985 54.8729C3.9985 54.6092 5.21168 54.8202 6.63585 55.4004C8.90398 56.2444 10.7501 56.4026 19.8754 56.4026H30.4248L30.2665 54.9784L30.1083 53.5015L17.8182 53.2378L5.52816 52.9741L4.52597 51.6554C3.04905 49.7565 2.89081 48.2268 3.04905 37.6774L3.20729 28.1829L11.9106 28.0247C21.7743 27.8665 26.2578 28.4467 30.2665 30.3983C33.6951 32.0335 38.8116 36.8862 40.2357 39.84L41.2379 41.9499L38.0731 40.6312C35.1193 39.4181 34.0643 39.3126 24.7281 39.1016L14.5479 38.8906V40.5258V42.1609H25.3611C41.9764 42.1609 41.4489 41.6862 41.4489 56.7718V67.4795L30.2665 67.4267C24.0951 67.4267 18.4512 67.2158 17.7127 67.0048Z" fill="#5B6376"/>
</svg>
