<svg width="240" height="96" viewBox="0 0 240 96" fill="none" xmlns="http://www.w3.org/2000/svg">
<path d="M103.998 49.0417C103.998 50.9321 105.483 52.418 107.329 52.418C107.735 52.418 108.14 52.3278 109.13 51.9681L110.526 55.4345C109.175 55.9749 108.275 56.1548 107.329 56.1548C103.413 56.1548 100.216 53.0028 100.216 49.0417V26.0356H103.998V31.7982H110.526V35.5351H103.998V49.0417Z" fill="#5B6376"/>
<path d="M113.016 49.0418V37.5161C113.016 33.5542 116.213 30.403 120.129 30.403C124.046 30.403 127.242 33.5542 127.242 37.5161V49.0418C127.242 53.0029 124.046 56.1549 120.129 56.1549C116.213 56.1549 113.016 53.0029 113.016 49.0418ZM120.129 34.1394C118.328 34.1394 116.798 35.6701 116.798 37.5161V49.0418C116.798 50.8869 118.328 52.4181 120.129 52.4181C121.975 52.4181 123.461 50.9322 123.461 49.0418V37.5161C123.461 35.6253 121.975 34.1394 120.129 34.1394Z" fill="#5B6376"/>
<path d="M148.641 36.751C148.641 35.3553 147.471 34.1399 146.03 34.1399C144.635 34.1399 143.419 35.3553 143.419 36.751V55.6593H139.683V36.751C139.683 35.3553 138.512 34.1399 137.071 34.1399C135.676 34.1399 134.46 35.3553 134.46 36.751V55.6593H130.724V36.751C130.724 33.2393 133.56 30.403 137.071 30.403C138.827 30.403 140.403 31.078 141.574 32.2486C142.699 31.078 144.275 30.403 146.03 30.403C149.587 30.403 152.423 33.2393 152.423 36.751V55.6593H148.642V36.751H148.641Z" fill="#5B6376"/>
<path d="M172.548 37.5161C172.548 35.6701 171.062 34.1843 169.216 34.1843C167.415 34.1843 165.885 35.6701 165.885 37.5161V55.6593H162.103V21.3535H165.885V31.2579C166.875 30.7179 168.001 30.4031 169.216 30.4031C173.133 30.4031 176.329 33.5542 176.329 37.5161V55.6593H172.547V37.5161H172.548Z" fill="#5B6376"/>
<path d="M179.684 49.0418V37.5161C179.684 33.5542 182.88 30.403 186.797 30.403C190.714 30.403 193.91 33.5542 193.91 37.5161V49.0418C193.91 53.0029 190.714 56.1549 186.797 56.1549C182.88 56.1549 179.684 53.0029 179.684 49.0418ZM186.797 34.1394C184.996 34.1394 183.465 35.6701 183.465 37.5161V49.0418C183.465 50.8869 184.996 52.4181 186.797 52.4181C188.643 52.4181 190.128 50.9322 190.128 49.0418V37.5161C190.129 35.6253 188.643 34.1394 186.797 34.1394Z" fill="#5B6376"/>
<path d="M204.369 34.1394C202.568 34.1394 201.038 35.6701 201.038 37.5161V55.6593H197.301V37.5161C197.301 33.5542 200.452 30.403 204.369 30.403C206.845 30.403 209.187 31.7082 210.717 34.3197L207.52 36.2105C206.62 34.7696 205.585 34.1394 204.369 34.1394Z" fill="#5B6376"/>
<path d="M222.085 37.5161C222.085 35.6701 220.554 34.1394 218.754 34.1394C216.908 34.1394 215.422 35.6253 215.422 37.5161V55.6593H211.64V37.5161C211.64 33.5542 214.837 30.403 218.754 30.403C222.671 30.403 225.822 33.5542 225.822 37.5161V55.6593H222.085V37.5161Z" fill="#5B6376"/>
<path d="M131.706 73.5935V67.0308C131.706 65.4968 132.939 64.2635 134.473 64.2635C135.58 64.2635 136.576 64.9277 137.098 66.1136L135.88 66.6354C135.579 65.9238 135.042 65.5919 134.472 65.5919C133.666 65.5919 133.018 66.2399 133.018 67.0308V73.5935C133.018 74.384 133.682 75.0486 134.472 75.0486C135.263 75.0486 135.927 74.384 135.927 73.5935V72.1704H133.824V70.842H137.24V73.5935C137.24 75.1275 136.006 76.3608 134.473 76.3608C132.939 76.3608 131.706 75.1275 131.706 73.5935Z" fill="#5B6376"/>
<path d="M147.345 72.5028H144.451V76.203H143.139V67.0625C143.139 65.5289 144.372 64.2952 145.906 64.2952C147.44 64.2952 148.673 65.5289 148.673 67.0625V76.203H147.345V72.5028ZM145.906 65.6078C145.115 65.6078 144.451 66.2562 144.451 67.0625V71.1901H147.345V67.0625C147.345 66.2562 146.696 65.6078 145.906 65.6078Z" fill="#5B6376"/>
<path d="M160.502 68.4223L158.668 73.7044H157.94L156.121 68.4223V76.2025H154.809V64.4056H156.137L158.304 70.7311L160.486 64.4056H161.815V76.2025H160.502V68.4223Z" fill="#5B6376"/>
<path d="M170.227 64.4061H168.915V76.203H170.227V64.4061Z" fill="#5B6376"/>
<path d="M178.544 68.2804V76.2026H177.216V64.4061H178.513L181.438 72.3599V64.4061H182.751V76.2026H181.454L178.544 68.2804Z" fill="#5B6376"/>
<path d="M188.823 73.5935V67.0308C188.823 65.4968 190.057 64.2635 191.591 64.2635C192.698 64.2635 193.694 64.9277 194.215 66.1136L192.997 66.6354C192.697 65.9238 192.16 65.5919 191.59 65.5919C190.783 65.5919 190.135 66.2399 190.135 67.0308V73.5935C190.135 74.384 190.799 75.0486 191.59 75.0486C192.381 75.0486 193.045 74.384 193.045 73.5935V72.1704H190.942V70.842H194.358V73.5935C194.358 75.1275 193.124 76.3608 191.591 76.3608C190.057 76.3608 188.823 75.1275 188.823 73.5935Z" fill="#5B6376"/>
<path fill-rule="evenodd" clip-rule="evenodd" d="M77.9121 32.0741C80.6422 29.7605 80.9798 25.6717 78.6661 22.9416C65.5893 7.51099 42.4593 5.69195 27.0118 18.7831C11.5644 31.8742 9.56514 54.9893 22.642 70.4199C29.1187 78.0623 38.0826 82.3711 47.334 83.1743C50.8992 83.4838 54.0403 80.8446 54.3498 77.2794C54.6593 73.7141 52.0201 70.573 48.4549 70.2635C42.4607 69.7431 36.7011 66.9649 32.5286 62.0414C24.1183 52.1173 25.3567 37.1728 35.3904 28.6697C45.424 20.1666 60.3692 21.396 68.7795 31.3201C71.0932 34.0502 75.182 34.3878 77.9121 32.0741Z" fill="#5B6376"/>
<path fill-rule="evenodd" clip-rule="evenodd" d="M44.0176 16.5174C44.0176 12.9483 46.9235 10.0549 50.5082 10.0549C70.7688 10.0549 87.1383 26.4809 87.1383 46.6757C87.1383 66.8706 70.7688 83.2966 50.5082 83.2966C40.4736 83.2966 31.3757 79.2545 24.7706 72.7333C22.2252 70.2203 22.2078 66.1285 24.7318 63.5941C27.2558 61.0597 31.3654 61.0424 33.9109 63.5555C38.1905 67.7807 44.0436 70.3716 50.5082 70.3716C63.5387 70.3716 74.157 59.7929 74.157 46.6757C74.157 33.5586 63.5387 22.9799 50.5082 22.9799C46.9235 22.9799 44.0176 20.0865 44.0176 16.5174Z" fill="#5C6374"/>
<path fill-rule="evenodd" clip-rule="evenodd" d="M77.6362 32.0929C80.371 29.7753 80.7091 25.6796 78.3915 22.9449C65.2926 7.48816 42.1234 5.66605 26.6499 18.7793C23.9151 21.0969 23.577 25.1926 25.8945 27.9274C28.2121 30.6621 32.3078 31.0003 35.0426 28.6827C45.0931 20.1652 60.0637 21.3967 68.4882 31.3376C70.8058 34.0723 74.9015 34.4105 77.6362 32.0929Z" fill="#5B6376"/>
</svg>
