<svg width="240" height="84" viewBox="0 0 240 84" fill="none" xmlns="http://www.w3.org/2000/svg">
<path d="M109.645 20.3913C111.983 20.3913 114.321 20.7351 115.991 21.4225C117.662 22.11 119.332 23.1412 120.334 24.5161C121.67 25.891 122.338 27.2658 123.007 28.9847C123.675 30.7033 124.009 32.7657 124.009 34.4843C124.009 39.2966 122.673 42.7338 120 45.1398C117.328 47.5461 113.319 48.5773 107.974 48.5773H103.298V66.1075H90.27V20.3913H109.645ZM105.636 40.3276C107.306 40.3276 108.643 39.984 109.311 38.9528C110.313 37.9216 110.647 36.5465 110.647 34.8279C110.647 31.0469 108.976 29.3283 105.636 29.3283H103.298V40.6714H105.636V40.3276ZM61.8759 56.8268V47.5461H77.2422V37.9216H61.8759V30.0157H78.2442V20.3913H61.8759V15.9229H48.8481V20.0476V25.2035V66.451H78.9123V56.483H61.8759V56.8268ZM141.379 35.5156C144.052 35.5156 146.39 36.203 147.726 37.5777C149.062 38.9528 149.73 41.0152 149.73 43.0774C149.73 43.765 149.73 44.7963 149.396 45.4837C149.062 46.171 149.062 46.8584 148.394 47.5461C148.06 48.2335 147.392 48.5773 147.058 49.2647C146.39 49.6085 145.722 49.9521 145.054 50.2959C146.056 50.2959 146.724 50.6395 147.726 50.9833C148.394 51.3271 149.062 52.0145 149.396 52.7019C149.73 53.3893 150.064 54.077 150.398 54.7644C150.733 55.4517 150.733 56.483 150.733 57.1703C150.733 58.5454 150.398 59.5766 150.064 60.9514C149.73 61.9826 149.062 63.0138 148.394 63.7012C147.726 64.3889 146.724 65.0763 145.722 65.4201C144.72 65.7637 143.049 66.1075 141.713 66.1075H130.022V35.1717H141.379V35.5156ZM139.041 47.5461C139.709 47.5461 140.377 47.2023 141.045 46.5149C141.379 45.8275 141.713 45.1398 141.713 44.4524C141.713 43.4212 141.379 42.7338 141.045 42.0464C140.711 41.3588 140.043 41.0152 139.041 41.0152H137.037V47.2023H139.041V47.5461ZM139.375 60.6078C140.043 60.6078 140.711 60.264 141.379 59.5766C142.047 58.8892 142.381 57.858 142.381 56.8268C142.381 55.4517 142.047 54.7643 141.379 54.077C140.711 53.3893 140.043 53.0457 139.375 53.0457H137.037V60.6078H139.375ZM172.445 35.5156L179.795 66.451H171.443L170.775 60.9514H164.428L163.426 66.451H155.075L162.424 35.5156H172.445ZM167.435 42.0464L165.431 55.1082H169.773L167.435 42.0464ZM193.825 35.5156L198.835 54.4205V35.5156H206.185V66.451H197.499L192.154 47.2023V66.451H184.805V35.5156H193.825ZM221.885 35.5156V47.5461L227.563 35.5156H235.915L228.232 48.9209L236.583 66.451H227.563L223.555 55.7956L221.885 58.5454V66.7949H214.202V35.8591H221.885V35.5156ZM24.7966 50.9833C24.7966 52.0145 24.7966 52.7019 24.7966 53.3893C24.7966 54.7644 24.4625 56.1391 24.1285 56.8268C23.7944 57.858 23.4604 58.2016 22.7923 58.5454C22.1242 58.8892 21.7901 59.2328 20.788 59.2328C19.7859 59.2328 19.1178 58.8892 18.4497 58.5454C17.7816 58.2016 17.4475 57.1703 17.1135 56.1394C16.7794 54.7643 16.7794 53.3893 16.4454 51.3271C16.4454 49.2647 16.4454 46.5149 16.4454 43.4212C16.4454 40.3276 16.4454 37.5777 16.4454 35.5156C16.4454 33.4531 16.7794 31.7345 17.1135 30.7033C17.4475 29.3283 17.7816 28.6409 18.4497 28.297C19.1178 27.9535 19.7859 27.6097 20.788 27.6097C22.1242 27.6097 22.7923 27.9535 23.4604 28.9847C24.1285 30.0157 24.4625 31.7345 24.4625 34.4843V35.8591H37.1564V34.1405C37.1564 31.7345 36.8223 30.0157 36.1542 27.9535C35.4861 26.2349 34.4841 24.5161 33.4818 23.4849C32.1456 22.11 30.4753 21.0788 28.471 20.3913C26.4668 19.7039 23.7944 19.3601 21.1221 19.3601C17.7816 19.3601 15.1092 19.7039 12.7709 20.7351C10.4325 21.4225 8.76229 22.7974 7.42612 24.8598C6.08992 26.9223 5.08779 29.3283 4.41967 32.4219C3.75159 35.5156 3.41754 39.2966 3.41754 43.765C3.41754 48.2335 3.75158 51.6707 4.08563 54.7644C4.41967 57.858 5.42183 60.264 6.758 62.3264C8.0942 64.3889 9.76445 65.7637 12.1028 66.451C14.4411 67.1387 17.4475 67.8261 21.1221 67.8261C23.1263 67.8261 25.1306 67.4823 27.1349 67.1387C29.1391 66.7949 30.8095 65.7637 32.4796 64.7324C34.1499 63.7012 35.1522 61.9826 36.1542 59.9202C37.1564 57.858 37.4903 55.1082 37.4903 52.0145V51.6707H24.7966V50.9833Z" fill="#5C6374"/>
</svg>
