<svg width="240" height="96" viewBox="0 0 240 96" fill="none" xmlns="http://www.w3.org/2000/svg">
<path d="M178.968 91.0883C177.821 89.8174 177.252 88.0704 177.252 85.8522C177.252 83.3325 177.796 81.3761 178.885 79.983C179.974 78.5899 181.712 77.8933 184.097 77.8933C185.546 77.8719 186.989 78.0792 188.37 78.5074V79.6403C187.037 79.2106 185.641 78.9952 184.238 79.0024C182.16 79.0024 180.686 79.5895 179.814 80.7637C178.942 81.9378 178.505 83.6403 178.501 85.8712C178.501 89.9173 180.422 91.9403 184.262 91.9403C184.978 91.9393 185.692 91.8788 186.396 91.7595C187.026 91.6594 187.643 91.4901 188.234 91.2549V86.0426H183.98V85.043H189.391V91.8832C188.76 92.2569 188.07 92.5255 187.349 92.6782C186.29 92.9119 185.206 93.019 184.121 92.9971C181.833 92.9971 180.115 92.3624 178.968 91.0931" fill="#5B6376"/>
<path d="M134.768 87.4754L131.54 79.1311L128.336 87.4754H134.768ZM130.753 78.1313H132.376L138.02 92.7734H136.718L135.069 88.4893H128.059L126.411 92.7734H125.089L130.753 78.1313Z" fill="#5B6376"/>
<path d="M140.456 78.1313H141.943L147.354 88.9748L152.765 78.1313H154.252V92.7734H152.993V79.9497L147.864 90.2267H146.868L141.715 79.9497V92.7734H140.456V78.1313Z" fill="#5B6376"/>
<path d="M159.012 78.1313H157.734V92.7734H159.012V78.1313Z" fill="#5B6376"/>
<path d="M162.493 78.1313H163.699L172.965 90.9074V78.1313H174.243V92.7734H173.013L163.772 80.0163V92.7734H162.493V78.1313Z" fill="#5B6376"/>
<path d="M112.109 91.0884C110.961 89.8174 110.388 88.0705 110.388 85.8523C110.388 83.3326 110.934 81.3762 112.026 79.9831C113.118 78.59 114.852 77.8966 117.228 77.9029C118.677 77.8815 120.12 78.0888 121.501 78.517V79.6404C120.168 79.2107 118.772 78.9953 117.369 79.0025C115.291 79.0025 113.817 79.5896 112.945 80.7637C112.073 81.9379 111.635 83.6404 111.632 85.8713C111.632 89.9174 113.553 91.9404 117.393 91.9404C118.108 91.9394 118.822 91.8789 119.527 91.7596C120.157 91.6595 120.774 91.4902 121.365 91.255V86.0427H117.116V85.0431H122.522V91.8833C121.891 92.257 121.201 92.5256 120.48 92.6783C119.421 92.9117 118.337 93.0188 117.252 92.9972C114.964 92.9972 113.246 92.3625 112.099 91.0931" fill="#5B6376"/>
<path d="M86.0556 87.3612L80.6934 78.1313H83.9651L87.6356 84.7479L91.3011 78.1313H94.5535L89.1912 87.3612V92.7734H86.0556V87.3612Z" fill="#5B6376"/>
<path d="M99.0798 85.4286L93.8099 78.1313H97.5047L100.961 83.0152L104.423 78.1313H108.112L102.843 85.4286L108.253 92.7734H104.515L100.961 87.88L97.4074 92.7734H93.6689L99.0798 85.4286Z" fill="#5B6376"/>
<path d="M110.908 49.5328C95.0303 25.9466 96.3477 16.1408 97.7332 12.9325C93.9654 17.0256 91.4204 22.055 90.3772 27.4698C89.334 32.8847 89.8327 38.4763 91.8187 43.6321C93.8046 48.788 97.2013 53.3093 101.637 56.701C106.072 60.0926 111.375 62.2238 116.965 62.8611C116.965 59.2672 113.985 54.2929 110.893 49.5328" fill="#5B6376"/>
<path d="M120.514 50.7181C138.234 27.7745 141.875 14.3795 142.39 12.009C139.536 9.15754 136.129 6.89229 132.369 5.34587C128.609 3.79945 124.572 3.00293 120.494 3.00293C116.416 3.00293 112.379 3.79945 108.619 5.34587C104.86 6.89229 101.453 9.15754 98.5981 12.009C99.1378 14.389 102.779 27.7745 120.475 50.7181" fill="#5B6376"/>
<path d="M143.3 12.9279C144.67 16.1028 145.978 25.7277 130.66 48.7713C130.645 48.8009 130.629 48.8295 130.611 48.857C127.364 53.798 124.097 59.096 124.097 62.8612C129.685 62.2207 134.987 60.0871 139.42 56.694C143.853 53.3009 147.248 48.779 149.232 43.6234C151.216 38.4677 151.713 32.8769 150.67 27.463C149.626 22.049 147.081 17.0205 143.314 12.9279" fill="#5B6376"/>
<path d="M61.9526 89.1891C62.6203 88.3926 62.9541 87.1693 62.9541 85.5191C62.9541 83.7166 62.63 82.4314 61.9818 81.6634C61.3304 80.9018 60.2949 80.5162 58.8704 80.5162C57.446 80.5162 56.4105 80.9018 55.7591 81.6634C55.1076 82.425 54.7868 83.715 54.7868 85.5191C54.7868 87.1724 55.1206 88.3958 55.7883 89.1891C56.4543 89.9888 57.4801 90.3839 58.8753 90.3839C60.2705 90.3839 61.306 89.9888 61.9623 89.1891H61.9526ZM51.5977 85.5191C51.5977 82.8693 52.1972 80.9399 53.3964 79.7308C54.5956 78.5218 56.4267 77.9125 58.8899 77.903C61.3368 77.903 63.1599 78.5122 64.3591 79.7308C65.5582 80.9494 66.1578 82.8788 66.1578 85.5191C66.1578 90.5077 63.7352 93.0004 58.8899 92.9972C54.0446 92.994 51.6139 90.5013 51.5977 85.5191Z" fill="#5B6376"/>
<path d="M74.6752 85.3811C75.3702 85.4255 76.0589 85.2282 76.6198 84.824C76.8598 84.5938 77.0446 84.3142 77.1606 84.0055C77.2766 83.6968 77.3211 83.3666 77.2907 83.039C77.3206 82.7154 77.2826 82.3894 77.1789 82.0807C77.0753 81.7721 76.9081 81.4874 76.6879 81.2444C76.1762 80.8281 75.5182 80.6247 74.8551 80.678H71.4521V85.3811H74.6752ZM68.3164 78.1313H75.492C77.1643 78.1313 78.4088 78.5597 79.2402 79.4261C80.0715 80.2924 80.4798 81.4967 80.4798 83.039C80.5152 83.9466 80.243 84.8401 79.7058 85.5805C79.1686 86.3209 78.3964 86.8666 77.5095 87.1327C77.7285 87.3129 77.9201 87.5228 78.0783 87.7562C78.267 88.0499 78.4297 88.3588 78.5644 88.6797L80.3778 92.7734H77.1157L75.351 88.8368C75.246 88.5575 75.0664 88.3109 74.8308 88.1228C74.5499 87.973 74.231 87.9053 73.912 87.9276H71.4521V92.7734H68.3164V78.1313Z" fill="#5B6376"/>
</svg>
