<svg width="240" height="96" viewBox="0 0 240 96" fill="none" xmlns="http://www.w3.org/2000/svg">
<g clip-path="url(#clip0)">
<path d="M11.3601 36.7C11.0101 35.7 10.6601 34.7 10.3601 33.7C10.0819 32.667 9.86486 31.6185 9.7101 30.56C9.6201 29.97 9.63011 29.95 10.2001 29.76C11.3404 29.3566 12.5153 29.0587 13.7101 28.87C14.2701 28.79 14.2901 28.8 14.3701 29.37C14.681 31.7489 15.3555 34.0659 16.3701 36.24C16.4901 36.49 16.5501 36.89 16.8101 36.9C17.0701 36.91 17.1901 36.49 17.3101 36.23C18.3275 34.0816 19.0023 31.7871 19.3101 29.43C19.3901 28.79 19.4101 28.77 20.0601 28.87C21.2552 29.0664 22.4301 29.371 23.5701 29.78C24.0901 29.96 24.0801 29.98 24.0001 30.55C23.7154 32.4367 23.2396 34.2895 22.5801 36.08C22.5101 36.28 22.2801 36.52 22.5001 36.71C22.7201 36.9 22.8901 36.71 23.0801 36.59C24.947 35.8194 26.6455 34.6917 28.0801 33.27L28.2801 33.07C28.8101 32.55 28.8101 32.55 29.4001 33.07C30.2854 33.7858 31.1053 34.5789 31.8501 35.44C32.2201 35.88 32.2201 35.89 31.8501 36.29C29.1096 39.1809 25.5859 41.2104 21.7101 42.13C21.5301 42.13 21.3501 42.21 21.1701 42.26C20.7401 42.39 20.7101 42.48 21.0401 42.81C22.1185 43.9043 23.3083 44.883 24.5901 45.73C24.9901 46 25.0001 45.99 25.4701 45.55C27.43 43.7228 29.6766 42.2296 32.1201 41.13C32.8401 40.8 33.5801 40.52 34.3201 40.25C34.8201 40.06 34.9101 40.11 35.1101 40.61C35.5707 41.7055 35.9321 42.84 36.1901 44C36.3001 44.53 36.3001 44.56 35.7501 44.75C34.5635 45.1652 33.4185 45.6909 32.3301 46.32C31.6394 46.7297 30.9717 47.177 30.3301 47.66C30.1501 47.79 29.8601 47.9 29.8901 48.15C29.9201 48.4 30.2801 48.44 30.5001 48.51C32.1659 49.0398 33.8873 49.3754 35.6301 49.51C36.9401 49.61 36.6901 49.57 36.6301 50.69C36.5218 51.7447 36.3108 52.7863 36.0001 53.8C35.8401 54.34 35.8301 54.36 35.2701 54.32C33.3666 54.1874 31.4826 53.8522 29.6501 53.32C25.0709 51.9862 20.9068 49.5083 17.5501 46.12C16.8801 45.45 17.0001 45.38 16.2801 46.12C12.7093 49.7471 8.21335 52.3271 3.28011 53.58C1.7728 53.9733 0.233328 54.231 -1.31989 54.35C-2.03989 54.41 -2.02989 54.35 -2.22989 53.71C-2.5315 52.6338 -2.73566 51.5327 -2.83989 50.42C-2.91989 49.68 -2.90989 49.66 -2.12989 49.6C-0.435488 49.4888 1.2414 49.1903 2.87011 48.71L3.73011 48.43C3.98011 48.34 4.00011 48.18 3.81011 48.02C3.54427 47.7961 3.26724 47.5858 2.98011 47.39C1.44425 46.3064 -0.230889 45.4352 -1.99989 44.8C-2.61989 44.59 -2.61989 44.58 -2.47989 43.96C-2.22429 42.8253 -1.86271 41.7171 -1.39989 40.65C-1.13989 40.06 -1.12989 40.04 -0.519898 40.25C1.48225 40.9453 3.38761 41.8929 5.15011 43.07C6.27075 43.8232 7.3337 44.6588 8.33011 45.57C8.77011 45.97 8.77011 45.97 9.27011 45.64C10.4279 44.8684 11.5065 43.9841 12.4901 43C12.6101 42.89 12.7201 42.77 12.8301 42.65C12.9401 42.53 12.9201 42.31 12.7001 42.23C12.5691 42.1854 12.4355 42.1487 12.3001 42.12C8.37472 41.2438 4.79315 39.234 2.00011 36.34L1.81011 36.14C1.7685 36.1072 1.73487 36.0655 1.71175 36.0178C1.68863 35.9702 1.67661 35.9179 1.67661 35.865C1.67661 35.812 1.68863 35.7598 1.71175 35.7121C1.73487 35.6645 1.7685 35.6227 1.81011 35.59C2.72266 34.555 3.72673 33.6045 4.81011 32.75C5.03011 32.57 5.19011 32.68 5.35011 32.84C5.86543 33.4111 6.41654 33.9488 7.00011 34.45C8.16706 35.3808 9.46419 36.1355 10.8501 36.69C10.9246 36.733 11.0091 36.7556 11.0951 36.7556C11.1811 36.7556 11.2656 36.733 11.3401 36.69" fill="#5B6376"/>
<path d="M16.8102 68.2C16.2302 68.2 15.6502 68.2 15.0702 68.2C14.4902 68.2 14.4802 68.08 14.4802 67.55C14.4802 65.78 14.4802 64.01 14.4802 62.25C14.4971 61.7186 14.3193 61.1994 13.9802 60.79C12.0502 58.31 10.1502 55.79 8.24017 53.33C7.75017 52.69 7.76017 52.69 8.50017 52.33C9.46809 51.8732 10.4096 51.3624 11.3202 50.8C12.0102 50.37 12.0102 50.38 12.4902 51L16.3502 56C16.8702 56.67 16.8802 56.67 17.3502 56L21.2902 50.85C21.6902 50.33 21.7002 50.32 22.2402 50.66C23.2683 51.2964 24.3335 51.8707 25.4302 52.38C25.9102 52.61 25.9202 52.68 25.6002 53.1C23.6002 55.69 21.6502 58.28 19.6602 60.85C19.3653 61.2065 19.209 61.6575 19.2202 62.12C19.2202 63.89 19.2202 65.66 19.2202 67.42C19.2202 68.06 19.2202 68.11 18.5802 68.15C17.9402 68.19 17.3702 68.15 16.7702 68.15" fill="#5B6376"/>
<path d="M86.5199 51.27C86.5199 52.27 86.5199 53.27 86.5199 54.27C86.538 54.5215 86.4892 54.7732 86.3785 54.9998C86.2679 55.2263 86.0993 55.4196 85.8899 55.56C82.0399 58.48 76.7299 58.56 73.4899 56.5C70.4199 54.59 69.1999 51.74 69.2699 48.22C69.3799 42.11 74.7999 38.47 80.1299 39.16C81.9827 39.3483 83.7561 40.0094 85.2799 41.08C85.7899 41.45 85.9099 41.83 85.4299 42.32C85.2699 42.48 85.1499 42.67 84.9999 42.84C84.4699 43.41 84.1599 44.31 83.3999 44.52C82.6399 44.73 82.1499 43.9 81.5099 43.59C80.5362 43.0728 79.4289 42.8619 78.3332 42.9851C77.2375 43.1082 76.2046 43.5596 75.3699 44.28C74.4679 45.1413 73.862 46.2662 73.6392 47.4933C73.4164 48.7205 73.5882 49.9866 74.1299 51.11C74.5906 52.1198 75.3622 52.9558 76.332 53.4956C77.3019 54.0353 78.419 54.2507 79.5199 54.11C80.3091 54.0583 81.082 53.8617 81.7999 53.53C82.0091 53.4523 82.1923 53.3173 82.3284 53.1405C82.4646 52.9637 82.5483 52.7521 82.5699 52.53C82.7599 51.04 82.5699 50.77 81.0399 50.74C78.0999 50.67 78.5999 51.27 78.5499 48.09C78.5499 47.43 78.6299 47.04 79.4399 47.09C81.4399 47.09 83.4899 47.09 85.5199 47.09C86.2499 47.09 86.5199 47.38 86.5199 48.09C86.5199 49.16 86.5199 50.23 86.5199 51.3V51.27Z" fill="#5B6376"/>
<path d="M111.94 51.19C111.94 52.19 111.94 53.19 111.94 54.19C111.955 54.468 111.898 54.7452 111.773 54.9943C111.649 55.2433 111.461 55.4555 111.23 55.61C109.498 56.8819 107.448 57.6486 105.306 57.8252C103.165 58.0017 101.016 57.5811 99.0998 56.61C97.337 55.5445 95.9749 53.9273 95.2246 52.0091C94.4743 50.0909 94.3777 47.9787 94.9498 46C95.5654 43.7808 96.9671 41.8612 98.8934 40.5991C100.82 39.3369 103.139 38.8184 105.42 39.14C107.276 39.313 109.055 39.968 110.58 41.04C111.18 41.47 111.26 41.88 110.73 42.41C110.57 42.57 110.44 42.76 110.3 42.93C109.82 43.48 109.43 44.23 108.82 44.51C108.21 44.79 107.6 43.92 106.96 43.62C105.864 43.0243 104.597 42.8224 103.37 43.0481C102.144 43.2737 101.032 43.9133 100.22 44.86C99.3691 45.924 98.9107 47.2484 98.9216 48.6107C98.9325 49.9729 99.4121 51.2898 100.28 52.34C101.157 53.2212 102.286 53.8081 103.512 54.0195C104.737 54.2309 105.998 54.0563 107.12 53.52C107.494 53.2398 107.767 52.8451 107.897 52.3957C108.027 51.9463 108.007 51.4669 107.84 51.03C107.79 50.9317 107.715 50.8488 107.621 50.7906C107.528 50.7324 107.42 50.7011 107.31 50.7C106.97 50.7 106.63 50.7 106.31 50.7C105.55 50.6 104.51 51.11 104.1 50.4C103.69 49.69 103.95 48.53 103.97 47.58C103.97 47.24 104.22 47.09 104.53 47.09H111.28C111.77 47.09 111.97 47.36 111.96 47.84C111.96 48.97 111.96 50.09 111.96 51.22L111.94 51.19Z" fill="#5B6376"/>
<path d="M201.13 39.27C203.209 39.1842 205.263 39.7544 207 40.9C207.9 41.46 207.91 41.56 207.27 42.47C206.79 43.15 206.49 44.14 205.73 44.4C204.97 44.66 204.39 43.74 203.64 43.51C202.89 43.28 202.37 43.06 201.72 42.9C201.362 42.8118 200.991 42.7956 200.627 42.8522C200.263 42.9089 199.914 43.0373 199.6 43.23C199.368 43.3359 199.171 43.5062 199.033 43.7208C198.895 43.9353 198.822 44.185 198.822 44.44C198.822 44.695 198.895 44.9447 199.033 45.1593C199.171 45.3738 199.368 45.5441 199.6 45.65C200.31 45.9833 201.05 46.2478 201.81 46.44C203.229 46.7839 204.607 47.2801 205.92 47.92C206.723 48.3345 207.382 48.9823 207.811 49.7783C208.239 50.5743 208.417 51.4813 208.32 52.38C208.379 53.3177 208.166 54.2524 207.706 55.072C207.247 55.8915 206.561 56.561 205.73 57C203 58.41 200.18 58.16 197.4 57.13C196.346 56.7319 195.361 56.1718 194.48 55.47C194.04 55.12 193.95 54.79 194.39 54.37C194.63 54.14 194.83 53.86 195.06 53.61C195.47 53.15 195.81 52.54 196.33 52.3C197 51.99 197.33 52.84 197.86 53.12C199.076 53.8274 200.453 54.2097 201.86 54.23C202.368 54.244 202.871 54.1378 203.33 53.92C203.587 53.833 203.812 53.6706 203.975 53.454C204.138 53.2375 204.232 52.9768 204.245 52.7059C204.258 52.435 204.189 52.1665 204.047 51.9354C203.906 51.7042 203.697 51.5211 203.45 51.41C202.444 50.9115 201.384 50.5322 200.29 50.28C199.44 50.01 198.55 49.81 197.72 49.47C196.858 49.1825 196.107 48.6347 195.57 47.9021C195.032 47.1696 194.735 46.2884 194.72 45.38C194.577 44.37 194.738 43.3404 195.181 42.4218C195.625 41.5031 196.331 40.7368 197.21 40.22C198.391 39.5185 199.761 39.2005 201.13 39.31" fill="#5B6376"/>
<path d="M46.26 40.4999C47.5878 40.3512 48.925 40.3044 50.26 40.3599C50.9 40.3599 51.11 40.8399 51.36 41.2599C52.26 42.7499 53.14 43.2599 54.04 44.7999C54.33 45.2799 54.63 45.7499 54.91 46.1999C55.48 46.1999 55.56 45.7499 55.75 45.4499C56.75 43.7699 57.83 42.1099 58.81 40.3999C58.9352 40.0886 59.1552 39.8245 59.4387 39.6451C59.7223 39.4656 60.055 39.3799 60.39 39.3999C61.5 39.3999 62.62 39.3999 63.67 39.3999C64 39.9899 63.62 40.2699 63.43 40.5699C61.65 43.3699 59.88 46.1799 58.06 48.9499C57.4351 49.8217 57.1217 50.8784 57.17 51.9499C57.25 53.4099 57.17 54.8799 57.17 56.3399C57.17 57.5699 57.17 57.5699 55.98 57.6199C53.07 57.7399 52.9 57.7199 53.12 54.8999C53.36 51.8999 52.54 50.2799 50.74 47.8999C49.3 45.9699 48.11 43.8399 46.83 41.7999C46.5051 41.45 46.3017 41.0046 46.25 40.5299" fill="#5B6376"/>
<path d="M230.83 48.37C230.83 45.84 230.83 43.31 230.83 40.78C230.83 39.45 230.83 39.45 232.09 39.42C234.94 39.35 234.93 39.35 234.94 42.23C234.94 45.66 234.94 49.09 234.94 52.52C234.94 53.82 234.94 53.83 236.21 53.84C238.4 53.84 240.6 53.84 242.79 53.84C243.96 53.84 243.99 53.84 243.99 55.08C243.99 58.13 244.31 57.6 241.55 57.62C238.4 57.62 235.25 57.62 232.1 57.62C230.84 57.62 230.82 57.62 230.81 56.3C230.81 53.66 230.81 51.01 230.81 48.37H230.83Z" fill="#5B6376"/>
<path d="M221.25 48.49C221.25 51.08 221.25 53.67 221.25 56.26C221.25 57.6 221.25 57.6 219.99 57.63C217.07 57.7 217.06 57.7 217.06 54.73C217.06 50.17 217.06 45.61 217.06 41.05C217.06 39.44 217.06 39.44 218.58 39.42C221.25 39.42 221.25 39.42 221.25 42.08C221.25 44.22 221.25 46.36 221.25 48.5" fill="#5B6376"/>
<path d="M155.6 47.88C154.03 48.47 152.39 48.13 150.78 48.16C150.35 48.16 150.28 47.78 150.28 47.43C150.28 46.81 150.28 46.2 150.28 45.43C150.28 42.73 149.86 43.2 152.78 43.15C153.677 43.0985 154.577 43.2 155.44 43.45C155.904 43.5733 156.316 43.8398 156.62 44.2114C156.923 44.5831 157.102 45.041 157.13 45.52C157.166 46.0262 157.038 46.5306 156.764 46.9578C156.49 47.385 156.085 47.7121 155.61 47.89L155.6 47.88ZM157.61 51.31C157.804 51.1514 158.008 51.0045 158.22 50.87C159.394 50.2325 160.322 49.2213 160.856 47.9968C161.391 46.7723 161.501 45.4044 161.17 44.11C160.65 41.44 158.91 39.97 155.8 39.58C152.69 39.19 149.8 39.5 146.86 39.42C146.11 39.42 146.09 39.89 146.09 40.42C146.09 45.8267 146.09 51.2333 146.09 56.64C146.09 57.33 146.27 57.69 147.04 57.64C147.769 57.5902 148.501 57.5902 149.23 57.64C150.05 57.7 150.32 57.36 150.29 56.56C150.29 55.32 150.29 54.08 150.29 52.84C150.29 52.51 150.29 52.17 150.68 52C151.258 51.8204 151.876 51.8199 152.455 51.9983C153.033 52.1768 153.544 52.526 153.92 53C154.81 54.3 155.69 55.61 156.58 56.91C156.83 57.28 157.04 57.66 157.58 57.65C158.9 57.65 160.22 57.65 161.93 57.65L157.61 51.33" fill="#5B6376"/>
<path d="M133.24 49.0899C133.16 50.4092 132.567 51.6447 131.588 52.5324C130.609 53.4201 129.321 53.8893 128 53.8399C127.66 53.8399 127.32 53.8399 127 53.8399C124.56 53.8399 124.89 54.0899 124.87 51.6599C124.87 49.4099 124.87 47.1599 124.87 44.9099C124.87 42.9099 124.82 43.1399 126.73 43.1499C127.4 43.1386 128.069 43.1854 128.73 43.2899C130.085 43.4839 131.31 44.2005 132.144 45.2862C132.977 46.372 133.353 47.7408 133.19 49.0999L133.24 49.0899ZM129.78 39.6399C127.04 39.1899 124.27 39.5199 121.52 39.4199C120.78 39.4199 120.74 39.8699 120.74 40.4199C120.74 45.8199 120.74 51.2299 120.74 56.6299C120.74 57.4899 121.11 57.6299 121.86 57.6299C122.93 57.6299 124 57.6299 125.07 57.6299C126.2 57.6299 127.33 57.6899 128.45 57.6299C129.835 57.6218 131.201 57.3021 132.445 56.6945C133.69 56.0869 134.782 55.2069 135.64 54.1199C136.615 52.8736 137.244 51.3924 137.464 49.8255C137.683 48.2587 137.486 46.6616 136.892 45.1953C136.298 43.7289 135.327 42.4451 134.079 41.4733C132.83 40.5015 131.348 39.876 129.78 39.6599" fill="#5B6376"/>
<path d="M175.75 49.86L177.94 44.58C178.773 46.289 179.488 48.0531 180.08 49.86H175.75ZM187.08 56.18C185.027 51.26 182.94 46.3433 180.82 41.43C179.69 38.79 180.17 39.43 177.52 39.29C177.082 39.2216 176.635 39.3189 176.265 39.563C175.895 39.8072 175.629 40.1805 175.52 40.61C173.39 45.75 171.18 50.87 169 56C168.702 56.4926 168.566 57.066 168.61 57.64C169.69 57.64 170.71 57.64 171.71 57.64C171.989 57.6784 172.272 57.6086 172.5 57.4449C172.729 57.2812 172.887 57.0361 172.94 56.76C173.2 56.02 173.54 55.3 173.82 54.57C173.889 54.264 174.068 53.9937 174.322 53.8097C174.576 53.6256 174.888 53.5404 175.2 53.57C177.06 53.57 178.91 53.57 180.77 53.57C181.05 53.5385 181.331 53.6078 181.564 53.7655C181.797 53.9232 181.966 54.1588 182.04 54.43C182.33 55.22 182.66 56 182.98 56.78C183.15 57.2 183.34 57.6 183.92 57.59C185.09 57.59 186.25 57.59 187.37 57.59C187.462 57.1002 187.358 56.5938 187.08 56.18Z" fill="#5B6376"/>
</g>
<defs>
<clipPath id="clip0">
<rect width="240" height="96" fill="white"/>
</clipPath>
</defs>
</svg>
