<svg width="240" height="96" viewBox="0 0 240 96" fill="none" xmlns="http://www.w3.org/2000/svg">
<path d="M185.074 23.549V39.5126L202.747 31.5364L185.074 23.549Z" fill="#5B6376"/>
<path d="M202.747 31.5363V47.5L220.409 39.5126L202.747 31.5363Z" fill="#5B6376"/>
<path d="M202.747 47.5V63.4637L220.409 55.4874L202.747 47.5Z" fill="#5B6376"/>
<path d="M220.409 39.5126V55.4874L238.082 47.5L220.409 39.5126Z" fill="#5B6376"/>
<path d="M185.074 39.5126V55.4874L202.747 47.5L185.074 39.5126Z" fill="#5B6376"/>
<path d="M185.074 55.4763V71.4511L202.747 63.4637L185.074 55.4763Z" fill="#5B6376"/>
<path d="M19.9861 29.6931C20.5464 29.6888 21.1017 29.7991 21.6172 30.017C22.1104 30.2244 22.5634 30.5155 22.956 30.8772C23.3471 31.2377 23.6581 31.6753 23.8693 32.162C24.0804 32.6486 24.187 33.1737 24.1822 33.7035V39.9371C24.187 40.467 24.0804 40.992 23.8693 41.4787C23.6581 41.9653 23.3471 42.4029 22.956 42.7634C22.5634 43.1251 22.1104 43.4162 21.6172 43.6236C21.1015 43.841 20.5463 43.9512 19.9861 43.9476H4.74284H4.40535V51.935H0.917969V29.6931H19.9861ZM20.6948 33.7035C20.6949 33.6131 20.6759 33.5236 20.6391 33.4409C20.6023 33.3582 20.5485 33.284 20.481 33.2232C20.4159 33.159 20.3387 33.1082 20.2537 33.0737C20.1688 33.0392 20.0778 33.0216 19.9861 33.0221H5.11407C5.02042 33.0201 4.92733 33.0369 4.84035 33.0715C4.75338 33.106 4.6743 33.1576 4.60784 33.2232C4.53986 33.2836 4.48564 33.3576 4.44878 33.4405C4.41192 33.5233 4.39328 33.613 4.3941 33.7035V39.9371C4.39328 40.0276 4.41192 40.1173 4.44878 40.2002C4.48564 40.283 4.53986 40.3571 4.60784 40.4174C4.6743 40.483 4.75338 40.5346 4.84035 40.5691C4.92733 40.6037 5.02042 40.6205 5.11407 40.6185H19.9861C20.0778 40.619 20.1688 40.6015 20.2537 40.567C20.3387 40.5325 20.4159 40.4817 20.481 40.4174C20.549 40.3571 20.6032 40.283 20.6401 40.2002C20.677 40.1173 20.6956 40.0276 20.6948 39.9371V33.7035Z" fill="#5B6376"/>
<path d="M25.8696 29.6261H29.357V48.5278H49.1338V51.8568H25.8696V29.6261Z" fill="#5B6376"/>
<path d="M70.1369 29.6596C70.696 29.6569 71.2502 29.7632 71.7681 29.9724C72.2653 30.172 72.7197 30.4639 73.1068 30.8325C73.4886 31.1981 73.7944 31.6346 74.0067 32.1172C74.224 32.6064 74.3352 33.1354 74.333 33.67V51.8679H70.8456V44.0481H54.5674V51.8679H51.08V33.67C51.0653 33.134 51.165 32.601 51.3725 32.1061C51.5849 31.6234 51.8907 31.1869 52.2725 30.8214C52.663 30.4516 53.1212 30.1595 53.6225 29.9612C54.1404 29.752 54.6945 29.6457 55.2536 29.6484L70.1369 29.6596ZM70.8456 40.7638V33.67C70.8464 33.5795 70.8278 33.4898 70.7909 33.407C70.7541 33.3241 70.6998 33.25 70.6319 33.1897C70.5654 33.1241 70.4863 33.0725 70.3993 33.038C70.3124 33.0034 70.2193 32.9866 70.1256 32.9886H55.2761C55.1825 32.9866 55.0894 33.0034 55.0024 33.038C54.9155 33.0725 54.8364 33.1241 54.7699 33.1897C54.7019 33.25 54.6477 33.3241 54.6109 33.407C54.574 33.4898 54.5554 33.5795 54.5562 33.67V40.7638H70.8456Z" fill="#5B6376"/>
<path d="M99.7793 29.6595L89.0471 43.5341V51.8567H85.5598V43.5341L74.8276 29.6595H78.9337L87.3035 39.7694L95.6394 29.6595H99.7793Z" fill="#5B6376"/>
<path d="M123.302 34.9659H119.815V33.67C119.816 33.5795 119.797 33.4898 119.76 33.4069C119.723 33.3241 119.669 33.25 119.601 33.1897C119.535 33.1241 119.456 33.0725 119.369 33.038C119.282 33.0034 119.189 32.9866 119.095 32.9886H104.245C104.152 32.9866 104.059 33.0034 103.972 33.038C103.885 33.0725 103.806 33.1241 103.739 33.1897C103.671 33.25 103.617 33.3241 103.58 33.4069C103.543 33.4898 103.525 33.5795 103.525 33.67V38.4178C103.525 38.5084 103.543 38.598 103.58 38.6809C103.617 38.7637 103.671 38.8378 103.739 38.8982C103.806 38.9637 103.885 39.0153 103.972 39.0499C104.059 39.0844 104.152 39.1012 104.245 39.0992H119.117C119.677 39.0966 120.231 39.2028 120.749 39.412C121.246 39.6119 121.7 39.9038 122.087 40.2722C122.469 40.6376 122.775 41.0741 122.987 41.5569C123.205 42.0459 123.316 42.5751 123.314 43.1097V47.8575C123.316 48.3921 123.205 48.9212 122.987 49.4103C122.775 49.8932 122.47 50.3298 122.087 50.695C121.281 51.4363 120.216 51.8369 119.117 51.8121H104.245C103.147 51.8369 102.082 51.4363 101.276 50.695C100.894 50.3296 100.588 49.893 100.376 49.4103C100.158 48.9212 100.047 48.3921 100.049 47.8575V46.5616H103.537V47.8575C103.536 47.948 103.555 48.0377 103.591 48.1206C103.628 48.2034 103.683 48.2775 103.75 48.3378C103.817 48.4034 103.896 48.455 103.983 48.4895C104.07 48.5241 104.163 48.5409 104.257 48.5389H119.129C119.222 48.5409 119.315 48.5241 119.402 48.4895C119.489 48.455 119.568 48.4034 119.635 48.3378C119.703 48.2775 119.757 48.2034 119.794 48.1206C119.831 48.0377 119.849 47.948 119.849 47.8575V43.0985C119.849 43.008 119.831 42.9183 119.794 42.8355C119.757 42.7526 119.703 42.6785 119.635 42.6182C119.568 42.5526 119.489 42.501 119.402 42.4665C119.315 42.4319 119.222 42.4151 119.129 42.4171H104.245C103.147 42.4407 102.082 42.0403 101.276 41.3C100.894 40.9346 100.588 40.498 100.376 40.0153C100.158 39.5261 100.047 38.9971 100.049 38.4625V33.67C100.047 33.1354 100.158 32.6063 100.376 32.1172C100.588 31.6346 100.894 31.1981 101.276 30.8325C101.663 30.4637 102.117 30.1717 102.614 29.9724C103.132 29.7632 103.686 29.6569 104.245 29.6596H119.117C119.677 29.6569 120.231 29.7632 120.749 29.9724C121.246 30.172 121.7 30.4639 122.087 30.8325C122.469 31.1979 122.775 31.6345 122.987 32.1172C123.205 32.6063 123.316 33.1354 123.314 33.67L123.302 34.9659Z" fill="#5B6376"/>
<path d="M144.474 29.6596C145.573 29.6359 146.637 30.0364 147.444 30.7767C147.826 31.1421 148.132 31.5786 148.344 32.0614C148.561 32.5506 148.672 33.0796 148.67 33.6142V47.8016C148.672 48.3362 148.561 48.8652 148.344 49.3544C148.132 49.8372 147.826 50.2737 147.444 50.6391C146.638 51.3804 145.573 51.781 144.474 51.7562H129.602C128.504 51.781 127.439 51.3804 126.632 50.6391C126.251 50.2735 125.945 49.837 125.733 49.3544C125.515 48.8653 125.404 48.3362 125.406 47.8016V33.67C125.404 33.1354 125.515 32.6064 125.733 32.1172C125.945 31.6346 126.251 31.1981 126.632 30.8325C127.02 30.4641 127.474 30.1722 127.971 29.9724C128.489 29.7632 129.043 29.6569 129.602 29.6596H144.474ZM144.474 48.5389C144.568 48.5409 144.661 48.5241 144.748 48.4895C144.835 48.455 144.914 48.4034 144.981 48.3378C145.049 48.2775 145.103 48.2034 145.14 48.1206C145.177 48.0377 145.195 47.948 145.194 47.8575V33.67C145.195 33.5795 145.177 33.4898 145.14 33.4069C145.103 33.3241 145.049 33.25 144.981 33.1897C144.914 33.1241 144.835 33.0725 144.748 33.038C144.661 33.0034 144.568 32.9866 144.474 32.9886H129.602C129.509 32.9866 129.416 33.0034 129.329 33.038C129.242 33.0725 129.163 33.1241 129.096 33.1897C129.028 33.25 128.974 33.3241 128.937 33.4069C128.9 33.4898 128.882 33.5795 128.882 33.67V47.8575C128.882 47.948 128.9 48.0377 128.937 48.1206C128.974 48.2034 129.028 48.2775 129.096 48.3378C129.163 48.4034 129.242 48.455 129.329 48.4895C129.416 48.5241 129.509 48.5409 129.602 48.5389H144.474Z" fill="#5B6376"/>
<path d="M170.72 29.6595H174.207V51.8567H170.067L154.43 34.0944V51.8567H150.932V29.6595H155.071L170.72 47.4217V29.6595Z" fill="#5B6376"/>
<path d="M41.7764 66.5469V65.9995C40.9548 66.4263 40.048 66.6667 39.1215 66.7033C37.2878 66.7033 36.8716 65.6756 36.8716 64.0669V59.7995H37.7491V64.0781C37.7491 65.5192 38.109 66.0219 39.3015 66.0219C40.1698 65.9694 41.0189 65.7453 41.7989 65.3628V59.7772H42.6989V66.4799L41.7764 66.5469Z" fill="#5B6376"/>
<path d="M49.3248 66.5469V62.2683C49.3248 60.8273 48.9761 60.3245 47.7836 60.3245C46.9166 60.3773 46.0684 60.5974 45.2862 60.9725V66.5581H44.3862V59.8554H45.2862V60.3245C46.0787 59.8924 46.9594 59.6441 47.8624 59.5984C49.7973 59.5984 50.236 60.5145 50.236 62.246V66.5246L49.3248 66.5469Z" fill="#5B6376"/>
<path d="M51.98 58.4812V56.9731H52.9025V58.5147L51.98 58.4812ZM51.98 66.5468V59.8441H52.8912V66.5468H51.98Z" fill="#5B6376"/>
<path d="M59.2472 69.1386V66.2788C58.5315 66.562 57.7677 66.7061 56.9973 66.7033C55.1186 66.7033 54.2637 65.8431 54.2637 63.4637V62.961C54.2637 60.3469 55.3099 59.6096 57.6386 59.6096C58.4811 59.6069 59.3228 59.6592 60.1585 59.766V69.1275L59.2472 69.1386ZM59.2472 60.4028C58.7185 60.4028 57.9985 60.3357 57.6048 60.3357C55.9511 60.3357 55.1974 60.7491 55.1974 62.961V63.4637C55.1974 65.3739 55.7374 65.9884 57.1661 65.9884C57.8761 65.9763 58.5793 65.8479 59.2472 65.6085V60.4028Z" fill="#5B6376"/>
<path d="M66.7955 66.5469V65.9995C65.9738 66.4263 65.0671 66.6667 64.1405 66.7033C62.3069 66.7033 61.8906 65.6756 61.8906 64.0669V59.7995H62.7681V64.0781C62.7681 65.5192 63.1281 66.0219 64.3205 66.0219C65.1889 65.9694 66.038 65.7453 66.818 65.3628V59.7772H67.7179V66.4799L66.7955 66.5469Z" fill="#5B6376"/>
<path d="M69.9566 63.4525V63.5977C69.9566 65.1393 70.4291 65.9995 72.4653 65.9995C73.3122 65.9894 74.1576 65.926 74.9965 65.8096V66.4575C74.1443 66.6243 73.2776 66.7066 72.4091 66.7033C69.8554 66.7033 69.0342 65.6756 69.0342 63.419V62.9498C69.0342 60.8384 69.9904 59.5984 72.1391 59.5984C74.2877 59.5984 75.2552 60.7937 75.2552 63.0168V63.4301L69.9566 63.4525ZM74.344 62.6593C74.344 61.4528 73.9728 60.3357 72.1616 60.3357C70.3504 60.3357 69.9679 61.4528 69.9679 62.6593V62.771H74.3552L74.344 62.6593Z" fill="#5B6376"/>
<path d="M81.5549 69.2615C80.681 69.2507 79.8089 69.1799 78.9449 69.0494V68.4572C79.7549 68.5242 80.6549 68.569 81.5549 68.569C83.1973 68.569 83.5348 68.0663 83.5348 66.7928V66.4575C82.9503 66.6085 82.3499 66.6911 81.7461 66.7034C79.6649 66.7034 78.585 65.8878 78.585 63.5977V62.7264C78.585 60.6038 79.5524 59.6208 81.9598 59.6208C82.8025 59.6351 83.6437 59.6948 84.4798 59.7995V66.7928C84.4348 68.4014 83.8498 69.2615 81.5549 69.2615ZM83.5348 60.4251C82.9938 60.3552 82.4491 60.3179 81.9036 60.3134C80.1037 60.3134 79.4737 61.0395 79.4737 62.7264V63.5977C79.4737 65.4074 80.1262 66.0107 81.7236 66.0107C82.3232 66.0012 82.9197 65.9225 83.501 65.7761L83.5348 60.4251Z" fill="#5B6376"/>
<path d="M90.4983 66.5469V66.0665C89.7347 66.4895 88.8752 66.7125 88.0009 66.7146C86.5384 66.7146 85.751 66.1224 85.751 64.7707V64.5809C85.751 62.8605 86.9772 62.5141 89.1259 62.5141H90.3971V61.9445C90.3971 60.6263 90.0821 60.3134 88.4171 60.3134C87.684 60.3179 86.9516 60.3627 86.2235 60.4474V59.8554C86.9646 59.7085 87.7177 59.63 88.4734 59.6208C90.8583 59.6208 91.297 60.3582 91.297 61.9445V66.5469H90.4983ZM90.4983 63.1955H89.2271C87.4272 63.1955 86.7072 63.4191 86.7072 64.6256V64.793C86.7072 65.7202 87.2809 66.0442 88.2259 66.0442C89.0141 66.0178 89.7849 65.8074 90.4758 65.4299L90.4983 63.1955Z" fill="#5B6376"/>
<path d="M101.445 66.5469V62.0784C101.445 60.9613 101.343 60.3804 100.14 60.3804C99.3977 60.4254 98.677 60.6435 98.0359 61.0172C98.1133 61.3844 98.1473 61.7593 98.1372 62.1343V66.6028H97.2259V62.1343C97.2259 61.0172 97.1585 60.4363 95.9885 60.4363C95.255 60.4883 94.5431 60.7061 93.9073 61.073V66.6586H92.9961V59.9559H93.8961V60.3245C94.5665 59.8888 95.3451 59.6453 96.146 59.6208C96.4674 59.5788 96.7942 59.6279 97.0887 59.7623C97.3833 59.8967 97.6336 60.1109 97.8109 60.3804C98.5291 59.9149 99.3613 59.6523 100.218 59.6208C102.232 59.6208 102.322 60.9054 102.322 62.0337V66.5022L101.445 66.5469Z" fill="#5B6376"/>
<path d="M104.088 58.4812V56.9731H105.01V58.5147L104.088 58.4812ZM104.088 66.5468V59.8441H104.999V66.5468H104.088Z" fill="#5B6376"/>
<path d="M111.727 66.5469V62.2683C111.727 60.8273 111.378 60.3245 110.185 60.3245C109.318 60.3773 108.47 60.5974 107.688 60.9725V66.5581H106.788V59.8554H107.688V60.3245C108.481 59.8924 109.361 59.6441 110.264 59.5984C112.199 59.5984 112.638 60.5145 112.638 62.246V66.5246L111.727 66.5469Z" fill="#5B6376"/>
<path d="M116.935 69.2615C116.061 69.2507 115.189 69.1799 114.325 69.0494V68.4572C115.135 68.5242 116.035 68.569 116.935 68.569C118.578 68.569 118.915 68.0663 118.915 66.7928V66.4575C118.331 66.6085 117.73 66.6911 117.126 66.7034C115.045 66.7034 113.965 65.8878 113.965 63.5977V62.7264C113.965 60.6038 114.933 59.6208 117.34 59.6208C118.183 59.6352 119.024 59.6948 119.86 59.7995V66.7928C119.815 68.4014 119.23 69.2615 116.935 69.2615ZM118.87 60.4251C118.329 60.3552 117.784 60.3179 117.239 60.3134C115.439 60.3134 114.809 61.0395 114.809 62.7264V63.5977C114.809 65.4074 115.462 66.0107 117.059 66.0107C117.659 66.0012 118.255 65.9225 118.836 65.7761L118.87 60.4251Z" fill="#5B6376"/>
<path d="M125.901 66.7033C125.096 66.7008 124.294 66.6185 123.505 66.4576V65.8208C124.292 65.9261 125.085 65.9895 125.879 66.0107C127.285 66.0107 127.724 65.575 127.724 64.8936C127.724 64.2121 127.397 63.9664 126.047 63.4637L125.507 63.2738C124.079 62.7487 123.415 62.2125 123.415 61.2629C123.415 60.3134 124.281 59.6208 126.092 59.6208C126.83 59.6165 127.566 59.6952 128.286 59.8554V60.481C127.573 60.3935 126.856 60.345 126.137 60.3357C124.9 60.3357 124.338 60.5368 124.338 61.2629C124.338 61.9891 124.72 62.1678 125.879 62.5923L126.419 62.7934C128.084 63.4302 128.669 63.9105 128.669 64.8824C128.669 65.8543 128.016 66.7033 125.901 66.7033Z" fill="#5B6376"/>
<path d="M132.628 66.7033C130.502 66.7033 129.512 65.5862 129.512 63.5195V62.7934C129.512 60.7155 130.502 59.6096 132.628 59.6096C134.755 59.6096 135.744 60.7267 135.744 62.7934V63.5195C135.744 65.6085 134.755 66.7033 132.628 66.7033ZM134.878 62.8046C134.878 61.073 134.215 60.3469 132.628 60.3469C131.042 60.3469 130.378 61.0842 130.378 62.8046V63.5307C130.378 65.2622 131.042 65.9995 132.628 65.9995C134.215 65.9995 134.878 65.2511 134.878 63.5307V62.8046Z" fill="#5B6376"/>
<path d="M137.196 66.5468V56.9731H138.096V66.5803L137.196 66.5468Z" fill="#5B6376"/>
<path d="M144.744 66.5469V65.9995C143.923 66.4263 143.016 66.6667 142.089 66.7033C140.256 66.7033 139.839 65.6756 139.839 64.0669V59.7995H140.717V64.0781C140.717 65.5192 141.077 66.0219 142.269 66.0219C143.131 65.963 143.972 65.7352 144.744 65.3516V59.766H145.644V66.4687L144.744 66.5469Z" fill="#5B6376"/>
<path d="M149.896 66.7033C148.625 66.7033 148.198 66.2676 148.198 65.0276V60.481L146.566 60.4139V59.7883H148.198V57.9786H149.098V59.7883H151.246V60.4698H149.098V64.9383C149.098 65.7985 149.221 65.9995 149.998 65.9995C150.369 65.9995 150.92 65.9995 151.246 65.9325V66.5022C150.803 66.6095 150.351 66.6768 149.896 66.7033Z" fill="#5B6376"/>
<path d="M152.326 58.4812V56.9731H153.249V58.5147L152.326 58.4812ZM152.326 66.5468V59.8441H153.237V66.5468H152.326Z" fill="#5B6376"/>
<path d="M157.816 66.7033C155.69 66.7033 154.7 65.5862 154.7 63.5195V62.7934C154.7 60.7155 155.69 59.6096 157.816 59.6096C159.943 59.6096 160.932 60.7267 160.932 62.7934V63.5195C160.932 65.6085 159.931 66.7033 157.816 66.7033ZM160.066 62.8046C160.066 61.073 159.403 60.3469 157.816 60.3469C156.23 60.3469 155.566 61.0842 155.566 62.8046V63.5307C155.566 65.2622 156.23 65.9995 157.816 65.9995C159.403 65.9995 160.066 65.2511 160.066 63.5307V62.8046Z" fill="#5B6376"/>
<path d="M167.243 66.5469V62.2683C167.243 60.8273 166.895 60.3245 165.702 60.3245C164.835 60.3773 163.987 60.5974 163.205 60.9725V66.5581H162.305V59.8554H163.205V60.3245C163.997 59.8924 164.878 59.6441 165.781 59.5984C167.705 59.5984 168.154 60.5145 168.154 62.246V66.5246L167.243 66.5469Z" fill="#5B6376"/>
<path d="M171.912 66.7033C171.107 66.7008 170.304 66.6185 169.516 66.4576V65.8208C170.303 65.9261 171.095 65.9895 171.889 66.0107C173.296 66.0107 173.734 65.575 173.734 64.8936C173.734 64.2121 173.408 63.9664 172.058 63.4637L171.518 63.2738C170.09 62.7487 169.426 62.2125 169.426 61.2629C169.426 60.3134 170.292 59.6208 172.103 59.6208C172.841 59.6165 173.577 59.6952 174.297 59.8554V60.481C173.584 60.3935 172.867 60.345 172.148 60.3357C170.911 60.3357 170.348 60.5368 170.348 61.2629C170.348 61.9891 170.731 62.1678 171.889 62.5923L172.429 62.7934C174.094 63.4302 174.679 63.9105 174.679 64.8824C174.679 65.8543 173.993 66.7033 171.912 66.7033Z" fill="#5B6376"/>
</svg>
