<svg width="240" height="96" viewBox="0 0 240 96" fill="none" xmlns="http://www.w3.org/2000/svg">
<g clip-path="url(#clip0)">
<path d="M48.9186 80.1042C48.9186 81.871 47.5515 83.5216 45.0177 83.5216C43.2336 83.5216 41.9498 82.9714 41.0834 82.5047V80.9377C42.067 81.5046 43.5672 82.0713 45.0177 82.0713C46.6512 82.0713 47.2845 81.204 47.2845 80.1042C47.2845 79.271 46.7015 78.4871 45.5178 78.237L43.8341 77.8706C42.0833 77.4869 41 76.4863 41 74.6529C41 72.8693 42.467 71.3517 45.1175 71.3517C46.4677 71.3517 47.4512 71.6688 48.3181 72.0358V73.6361C47.3346 73.1356 46.2012 72.7859 45.1175 72.7859C43.5839 72.7859 42.6003 73.5026 42.6003 74.6529C42.6003 75.5694 43.117 76.153 44.1174 76.37L45.8847 76.7535C47.8518 77.1865 48.9186 78.387 48.9186 80.1042Z" fill="#5C6374"/>
<path d="M62.8051 77.9868V83.2715H61.3049V78.3699C61.3049 77.1533 60.6047 76.4368 59.6043 76.4368C58.7711 76.4368 58.1043 76.8199 57.5871 77.4699C57.604 77.6365 57.6208 77.8036 57.6208 77.9868V83.2715H56.1369V78.3699C56.1369 77.1533 55.4701 76.4368 54.4697 76.4368C53.6196 76.4368 52.9526 76.8532 52.436 77.5036V83.2715H50.9354V75.2694H52.4028V76.0362C52.9526 75.4693 53.7532 75.0032 54.82 75.0032C55.737 75.0032 56.5703 75.3697 57.0704 76.1031C57.5207 75.6698 58.4039 75.0032 59.8381 75.0032C61.3715 75.0032 62.8051 76.0362 62.8051 77.9868" fill="#5C6374"/>
<path d="M70.1574 81.438V79.9706C69.8577 79.7372 69.0741 79.3706 68.1571 79.3706C67.1403 79.3706 66.3735 79.8538 66.3735 80.7207C66.3735 81.6544 67.1403 82.238 68.1571 82.238C69.1072 82.238 69.8577 81.7375 70.1574 81.438V81.438ZM64.8064 80.7207C64.8064 79.0702 66.2565 78.1207 67.8906 78.1207C68.7907 78.1207 69.6407 78.3367 70.1574 78.6201V77.7704C70.1574 76.9866 69.5575 76.3366 68.3238 76.3366C67.1566 76.3366 66.0064 76.7867 65.273 77.2534V75.7367C66.1398 75.3028 67.1234 75.0032 68.3238 75.0032C70.7078 75.0032 71.6582 76.37 71.6582 77.9369V83.2715H70.2076V82.6215C69.7242 83.0882 68.9073 83.5216 67.8906 83.5216C66.0898 83.5216 64.8064 82.5047 64.8064 80.7207Z" fill="#5C6374"/>
<path d="M73.9919 75.2694H75.4592V76.6533C75.8761 75.5862 76.8597 75.0032 77.9098 75.0032C78.1598 75.0032 78.343 75.0365 78.46 75.0527V76.7203C78.2264 76.6866 77.9599 76.6699 77.7429 76.6699C76.4259 76.6699 75.7094 77.5368 75.4926 78.3034V83.2715H73.9919V75.2694Z" fill="#5C6374"/>
<path d="M80.9938 81.3047V76.6031H79.5433V75.2694H81.0938V72.9025L82.494 72.0689V75.2694H84.4445V76.6031H82.494V81.071C82.494 81.8044 82.8942 82.1714 83.6945 82.1714C83.961 82.1714 84.2613 82.1212 84.4445 82.0548V83.3549C84.3113 83.4048 83.7778 83.5216 83.2445 83.5216C81.8773 83.5216 80.9938 82.755 80.9938 81.3047Z" fill="#5C6374"/>
<path d="M91.5797 71.6018H93.1805L97.5816 78.7872L102.016 71.6018H103.583V83.2715H102.049V74.3363L97.6486 81.438H97.4815L93.1135 74.3363V83.2715H91.5797V71.6018Z" fill="#5C6374"/>
<path d="M112.602 79.2539C112.602 77.4034 111.335 76.4197 109.968 76.4197C108.601 76.4197 107.334 77.4034 107.334 79.2539C107.334 81.1209 108.601 82.1045 109.968 82.1045C111.335 82.1045 112.602 81.1209 112.602 79.2539V79.2539ZM105.751 79.2539C105.751 76.8199 107.534 75.0032 109.968 75.0032C112.402 75.0032 114.186 76.8199 114.186 79.2539C114.186 81.7043 112.402 83.5216 109.968 83.5216C107.534 83.5216 105.751 81.7043 105.751 79.2539Z" fill="#5C6374"/>
<path d="M114.853 75.2694H116.57L118.987 81.4712L121.421 75.2694H123.055L119.771 83.2715H118.187L114.853 75.2694Z" fill="#5C6374"/>
<path d="M129.94 78.5537C129.907 77.2866 129.107 76.3865 127.656 76.3865C126.339 76.3865 125.455 77.4034 125.389 78.5537H129.94ZM123.722 79.2372C123.722 76.6699 125.539 75.0032 127.656 75.0032C130.14 75.0032 131.574 76.8033 131.574 79.3203C131.574 79.5206 131.557 79.7542 131.54 79.8538H125.339C125.406 81.1879 126.489 82.1382 127.839 82.1382C129.14 82.1382 130.107 81.7713 131.19 80.921V82.4045C130.507 82.9382 129.473 83.5216 127.839 83.5216C125.606 83.5216 123.722 82.0713 123.722 79.2372Z" fill="#5C6374"/>
<path d="M191.276 25.4527C194.902 25.4527 198.002 22.3532 198.002 18.7264C198.002 15.0995 194.902 12 191.276 12C187.583 12 184.483 15.0995 184.483 18.7264C184.483 22.3532 187.583 25.4527 191.276 25.4527Z" fill="#5C6374"/>
<path d="M41.1788 58.4105H70.3842V48.8352H51.3528V42.0721H68.5292V32.7962H51.3528V25.7935H70.3842V16.517H41.1788V58.4105ZM73.9743 58.4105H101.265V50.1516H87.2014L100.966 36.7454V28.846H74.2144V36.9254H87.7399L73.9743 50.331V58.4105ZM116.406 59.3685C120.057 59.3685 122.571 57.992 124.366 56.2562V58.4105H134.121V28.846H124.246V47.7573C123.109 49.3737 121.493 50.391 119.638 50.391C117.244 50.391 115.628 48.7751 115.628 46.2016V28.846H105.753V48.6551C105.753 55.5375 110.9 59.3685 116.406 59.3685ZM153.572 71.3374C164.045 71.3374 168.952 66.1909 168.952 57.4527V28.846H159.078V30.5218C157.282 28.846 154.649 27.888 151.716 27.888C143.637 27.888 138.31 33.9326 138.31 42.3714C138.31 50.9295 143.637 57.0941 151.716 57.0941C154.649 57.0941 157.282 55.8969 159.078 54.4605V57.4527C159.078 60.6851 157.222 62.3609 152.973 62.3609C149.561 62.3609 144.954 61.0435 141.003 58.2905V67.8667C143.517 69.4823 148.544 71.3374 153.572 71.3374V71.3374ZM153.691 48.4159C150.28 48.4159 148.484 45.6629 148.484 42.3714C148.484 39.1991 150.28 36.5663 153.691 36.5663C155.606 36.5663 157.581 37.344 159.078 38.9006V46.0223C157.581 47.578 155.606 48.4159 153.691 48.4159V48.4159ZM174.039 58.4105H183.914V28.846H174.039V58.4105Z" fill="#5C6374"/>
<path d="M143.492 51.9526V51.9051H141.071V51.8102H141.024V51.7152H140.976V51.6678H140.929V51.5728H140.881V51.5254H140.834V51.4304H140.787V51.3829H140.739V51.288H140.692V51.2405H140.644V51.1456H140.597V51.0981H140.549V51.0032H140.502V50.9557H140.454V50.8607H140.407V50.7658H140.359V50.6709H140.312V50.6234H140.264V50.5284H140.217V50.4335H140.169V50.3386H140.122V50.2436H140.074V50.1487H140.027V50.0537H139.979V49.9588H139.932V49.8638H139.885V49.7689H139.837V49.6739H139.79V49.579H139.742V49.4841H139.695V49.3416H139.647V49.2467H139.6V49.1043H139.552V49.0093H139.505V48.8669H139.457V48.772H139.41V48.677H139.362V48.5346H139.315V48.4397H139.267V48.2972H139.22V48.1548H139.172V47.9649H139.125V47.8225H139.078V47.6801H139.03V47.4902H138.983V47.3478H138.935V47.2054H138.888V47.063H138.84V46.8731H138.793V46.6357H138.745V46.3984H138.698V46.161H138.65V45.9236H138.603V45.7338H138.555V45.4964H138.508V45.0691H138.46V44.6894H138.413V44.3096H138.365V43.8349H138.318V42.9329H138.27V41.7936H138.318V40.9391H138.365V40.4643H138.413V40.0846H138.46V39.7048H138.508V39.2775H138.555V39.0876H138.603V38.8503H138.65V38.6129H138.698V38.423H138.745V38.1857H138.793V37.9483H138.84V37.7584H138.888V37.616H138.935V37.4736H138.983V37.2837H139.03V37.1413H139.078V36.9989H139.125V36.8565H139.172V36.6666H139.22V36.5241H139.267V36.4292H139.315V36.2868H139.362V36.1918H139.41V36.0494H139.457V35.9545H139.505V35.8121H139.552V35.7171H139.6V35.6222H139.647V35.4798H139.695V35.3848H139.742V35.2424H139.79V35.1475H139.837V35.0525H139.885V35.005H139.932V34.9101H139.979V34.8152H140.027V34.7202H140.074V34.6253H140.122V34.5303H140.169V34.4354H140.217V34.3404H140.264V34.2455H140.312V34.198H140.359V34.1031H140.407V34.0081H140.454V33.9132H140.502V33.8657H140.549V33.7708H140.597V33.7233H140.644V33.6283H140.692V33.5809H140.739V33.4859H140.787V33.4385H140.834V33.3435H140.881V33.296H140.929V33.2011H140.976V33.1536H141.024V33.0587H141.071V33.0112H141.119V32.9163H141.166V32.8688H141.214V32.8213H141.261V32.7738H141.309V32.7264H141.356V32.6314H141.404V32.584H141.451V32.5365H141.499V32.489H141.546V32.3941H141.594V32.3466H141.641V32.2991H141.688V32.2517H141.736V32.2042H141.783V32.1092H141.831V32.0618H141.878V32.0143H141.926V31.9668H141.973V31.9193H142.021V31.8719H142.068V31.8244H142.116V31.7769H142.163V31.7295H142.211V31.682H142.258V31.6345H142.306V31.587H142.353V31.5396H142.401V31.4921H142.448V31.4446H142.496V31.3972H142.543V31.3497H142.59V31.3022H142.638V31.2547H142.685V31.2073H142.733V31.1598H142.78V31.1123H142.828V31.0648H142.875V31.0174H142.923V30.9699H142.97V30.9224H143.065V30.875H143.113V30.8275H143.16V30.78H143.208V30.7325H143.303V30.6851H143.35V30.6376H143.397V30.5901H143.445V30.5427H143.54V30.4952H143.587V30.4477H143.635V30.4002H143.682V30.3528H143.777V30.3053H143.825V30.2578H143.872V30.2103H143.967V30.1629H144.015V30.1154H144.11V30.0679H144.157V30.0205H144.252V29.973H144.347V29.9255H144.394V29.878H144.489V29.8306H144.537V29.7831H144.632V29.7356H144.727V29.6882H144.774V29.6407H144.869V29.5932H144.917V29.5457H145.012V29.4983H145.106V29.4508H145.201V29.4033H145.296V29.3559H145.391V29.3084H145.486V29.2609H145.581V29.2134H145.676V29.166H145.771V29.1185H145.866V29.071H145.961V29.0235H146.056V28.9761H146.151V28.9286H146.293V28.8811H146.436V28.8337H146.531V28.7862H146.673V28.7387H146.815V28.6912H146.958V28.6438H147.053V28.5963H147.195V28.5488H147.338V28.5014H147.433V28.4539H147.623V28.4064H147.812V28.3589H148.002V28.3115H148.192V28.264H148.382V28.2165H148.572V28.169H148.762V28.1216H149.094V28.0741H149.426V28.0266H149.759V27.9792H150.044V27.9317H150.613V27.8842H152.797V27.9317H153.177V27.9792H153.557V28.0266H153.936V28.0741H154.126V28.1216H154.364V28.169H154.601V28.2165H154.791V28.264H154.981V28.3115H155.123V28.3589H155.313V28.4064H155.455V28.4539H155.598V28.5014H155.74V28.5488H155.883V28.5963H156.025V28.6438H156.12V28.6912H156.262V28.7387H156.357V28.7862H156.452V28.8337H156.595V28.8811H156.69V28.9286H156.785V28.9761H156.88V29.0235H156.975V29.071H157.069V29.1185H157.164V29.166H157.259V29.2134H157.354V29.2609H157.449V29.3084H157.497V29.3559H157.592V29.4033H157.687V29.4508H157.734V29.4983H157.829V29.5457H157.877V29.5932H157.971V29.6407H158.019V29.6882H158.114V29.7356H158.161V29.7831H158.256V29.8306H158.304V29.878H158.399V29.9255H158.446V29.973H158.494V30.0205H158.541V30.0679H158.636V30.1154H158.684V30.1629H158.731V30.2103H158.778V30.2578H158.873V30.3053H158.921V30.3528H158.968V30.4002H159.016V30.4477H159.063V28.8337H168.985V50.386H168.89V50.4335H168.558V50.481H168.225V50.5284H167.798V50.5759H167.418V50.6234H166.991V50.6709H166.611V50.7183H166.232V50.7658H165.804V50.8133H165.425V50.8607H164.997V50.9082H164.618V50.9557H164.238V51.0032H163.811V51.0506H163.288V51.0981H162.766V51.1456H162.244V51.1931H161.674V51.2405H161.152V51.288H160.63V51.3355H160.06V51.3829H159.538V51.4304H159.016V51.4779H158.256V51.5254H157.402V51.5728H156.595V51.6203H155.788V51.6678H154.981V51.7152H154.174V51.7627H152.939V51.8102H151.563V51.8577H150.186V51.9051H144.869V51.9526H143.492ZM133.903 51.7152V51.6678H133.049V51.6203H132.194V51.5728H131.34V51.5254H130.533V51.4779H129.678V51.4304H128.918V51.3829H128.349V51.3355H127.732V51.288H127.115V51.2405H126.497V51.1931H125.88V51.1456H125.311V51.0981H124.693V51.0506H124.219V51.0032H123.744V50.9557H123.269V50.9082H122.795V50.8607H122.32V50.8133H121.845V50.7658H121.418V50.7183H120.943V50.6709H120.468V50.6234H120.041V50.5759H119.661V50.5284H119.282V50.481H118.902V50.4335H118.522V50.386H118.142V50.3386H117.763V50.2911H117.383V50.2436H117.003V50.1961H116.623V50.1487H116.196V50.1012H115.864V50.0537H115.579V50.0062H115.246V49.9588H114.914V49.9113H114.582V49.8638H114.297V49.8164H113.965V49.7689H113.632V49.7214H113.3V49.6739H113.015V49.6265H112.683V49.579H112.351V49.5315H112.018V49.4841H111.781V49.4366H111.496V49.3891H111.211V49.3416H110.927V49.2942H110.642V49.2467H110.404V49.1992H110.119V49.1517H109.835V49.1043H109.55V49.0568H109.312V49.0093H109.028V48.9619H108.743V48.9144H108.458V48.8669H108.173V48.8194H107.936V48.772H107.698V48.7245H107.461V48.677H107.224V48.6296H106.986V48.5821H106.749V48.5346H106.512V48.4871H106.274V48.4397H106.037V48.3922H105.8V48.3447H105.752V28.8337H115.674V46.8256H115.721V47.1579H115.769V47.3478H115.816V47.5377H115.864V47.7276H115.911V47.87H115.959V48.0124H116.006V48.1074H116.054V48.2023H116.101V48.2972H116.148V48.3922H116.196V48.4871H116.243V48.5821H116.291V48.677H116.338V48.7245H116.386V48.772H116.433V48.8669H116.481V48.9144H116.528V48.9619H116.576V49.0093H116.623V49.1043H116.671V49.1517H116.718V49.1992H116.766V49.2467H116.813V49.2942H116.861V49.3416H116.908V49.3891H116.955V49.4366H117.05V49.4841H117.098V49.5315H117.145V49.579H117.193V49.6265H117.24V49.6739H117.335V49.7214H117.383V49.7689H117.478V49.8164H117.573V49.8638H117.668V49.9113H117.763V49.9588H117.857V50.0062H117.952V50.0537H118.047V50.1012H118.19V50.1487H118.38V50.1961H118.522V50.2436H118.712V50.2911H118.997V50.3386H119.424V50.386H119.851V50.3386H120.326V50.2911H120.563V50.2436H120.801V50.1961H120.991V50.1487H121.133V50.1012H121.275V50.0537H121.37V50.0062H121.513V49.9588H121.655V49.9113H121.75V49.8638H121.845V49.8164H121.94V49.7689H122.035V49.7214H122.13V49.6739H122.177V49.6265H122.272V49.579H122.32V49.5315H122.415V49.4841H122.462V49.4366H122.557V49.3891H122.605V49.3416H122.7V49.2942H122.747V49.2467H122.795V49.1992H122.89V49.1517H122.937V49.1043H122.984V49.0568H123.032V49.0093H123.079V48.9619H123.174V48.9144H123.222V48.8669H123.269V48.8194H123.317V48.772H123.364V48.7245H123.412V48.677H123.459V48.6296H123.507V48.5821H123.554V48.5346H123.602V48.4871H123.649V48.4397H123.697V48.3447H123.744V48.2972H123.791V48.2498H123.839V48.2023H123.886V48.1548H123.934V48.0599H123.981V48.0124H124.029V47.9649H124.076V47.9175H124.124V47.8225H124.171V47.7751H124.219V28.8337H134.14V51.7152H133.903ZM174.017 49.579V28.8337H183.939V47.4902H183.796V47.5377H183.606V47.5852H183.417V47.6326H183.227V47.6801H183.037V47.7276H182.847V47.7751H182.657V47.8225H182.467V47.87H182.277V47.9175H182.087V47.9649H181.897V48.0124H181.755V48.0599H181.518V48.1074H181.328V48.1548H181.09V48.2023H180.901V48.2498H180.663V48.2972H180.426V48.3447H180.236V48.3922H179.999V48.4397H179.809V48.4871H179.571V48.5346H179.334V48.5821H179.144V48.6296H178.907V48.677H178.669V48.7245H178.479V48.772H178.242V48.8194H178.052V48.8669H177.815V48.9144H177.577V48.9619H177.388V49.0093H177.15V49.0568H176.865V49.1043H176.628V49.1517H176.343V49.1992H176.106V49.2467H175.821V49.2942H175.584V49.3416H175.299V49.3891H175.061V49.4366H174.777V49.4841H174.539V49.5315H174.254V49.579H174.017ZM153.224 48.3447V48.3922H154.174V48.3447H154.601V48.2972H154.886V48.2498H155.171V48.2023H155.313V48.1548H155.503V48.1074H155.693V48.0599H155.835V48.0124H155.978V47.9649H156.073V47.9175H156.215V47.87H156.357V47.8225H156.452V47.7751H156.595V47.7276H156.69V47.6801H156.785V47.6326H156.88V47.5852H156.975V47.5377H157.069V47.4902H157.164V47.4427H157.212V47.3953H157.307V47.3478H157.402V47.3003H157.449V47.2529H157.544V47.2054H157.592V47.1579H157.687V47.1104H157.782V47.063H157.829V47.0155H157.877V46.968H157.971V46.9206H158.019V46.8731H158.066V46.8256H158.161V46.7781H158.209V46.7307H158.256V46.6832H158.351V46.6357H158.399V46.5883H158.446V46.5408H158.494V46.4933H158.541V46.4458H158.589V46.3984H158.684V46.3509H158.731V46.3034H158.778V46.2559H158.826V46.2085H158.873V46.161H158.921V46.1135H158.968V46.0661H159.016V46.0186H159.063V38.8978H159.016V38.8503H158.968V38.8028H158.921V38.7553H158.873V38.7079H158.826V38.6604H158.778V38.6129H158.684V38.5655H158.636V38.518H158.589V38.4705H158.541V38.423H158.494V38.3756H158.446V38.3281H158.399V38.2806H158.304V38.2331H158.256V38.1857H158.209V38.1382H158.114V38.0907H158.066V38.0433H158.019V37.9958H157.924V37.9483H157.877V37.9008H157.829V37.8534H157.734V37.8059H157.639V37.7584H157.592V37.711H157.497V37.6635H157.402V37.616H157.354V37.5685H157.259V37.5211H157.164V37.4736H157.069V37.4261H156.975V37.3786H156.88V37.3312H156.785V37.2837H156.69V37.2362H156.595V37.1888H156.5V37.1413H156.357V37.0938H156.215V37.0463H156.12V36.9989H155.978V36.9514H155.835V36.9039H155.693V36.8565H155.503V36.809H155.313V36.7615H155.123V36.714H154.791V36.6666H154.506V36.6191H153.936V36.5716H153.462V36.6191H152.939V36.6666H152.655V36.714H152.417V36.7615H152.227V36.809H152.037V36.8565H151.895V36.9039H151.8V36.9514H151.658V36.9989H151.515V37.0463H151.42V37.0938H151.325V37.1413H151.23V37.1888H151.135V37.2362H151.088V37.2837H150.993V37.3312H150.898V37.3786H150.851V37.4261H150.756V37.4736H150.708V37.5211H150.613V37.5685H150.566V37.616H150.518V37.6635H150.471V37.711H150.423V37.7584H150.328V37.8059H150.281V37.8534H150.233V37.9008H150.186V37.9483H150.139V37.9958H150.091V38.0433H150.044V38.0907H149.996V38.1382H149.949V38.1857H149.901V38.2331H149.854V38.3281H149.806V38.3756H149.759V38.423H149.711V38.518H149.664V38.5655H149.616V38.6129H149.569V38.7079H149.521V38.7553H149.474V38.8503H149.426V38.8978H149.379V38.9927H149.332V39.0876H149.284V39.1351H149.237V39.2775H149.189V39.3725H149.142V39.4674H149.094V39.5624H149.047V39.6573H148.999V39.7997H148.952V39.8947H148.904V40.0371H148.857V40.1795H148.809V40.3694H148.762V40.5118H148.714V40.7017H148.667V40.9391H148.619V41.2239H148.572V41.6511H148.524V43.1228H148.572V43.5975H148.619V43.8349H148.667V44.1197H148.714V44.3096H148.762V44.452H148.809V44.6419H148.857V44.7843H148.904V44.9267H148.952V45.0691H148.999V45.2116H149.047V45.3065H149.094V45.4014H149.142V45.4964H149.189V45.5913H149.237V45.7338H149.284V45.7812H149.332V45.8762H149.379V45.9711H149.426V46.0661H149.474V46.1135H149.521V46.2085H149.569V46.2559H149.616V46.3509H149.664V46.3984H149.711V46.4458H149.759V46.5408H149.806V46.5883H149.854V46.6357H149.901V46.7307H149.949V46.7781H149.996V46.8256H150.044V46.8731H150.091V46.9206H150.139V46.968H150.186V47.0155H150.233V47.063H150.281V47.1104H150.328V47.1579H150.376V47.2054H150.423V47.2529H150.471V47.3003H150.566V47.3478H150.613V47.3953H150.661V47.4427H150.756V47.4902H150.803V47.5377H150.851V47.5852H150.946V47.6326H150.993V47.6801H151.088V47.7276H151.183V47.7751H151.278V47.8225H151.325V47.87H151.42V47.9175H151.515V47.9649H151.658V48.0124H151.753V48.0599H151.895V48.1074H152.037V48.1548H152.18V48.2023H152.37V48.2498H152.56V48.2972H152.844V48.3447H153.224ZM92.3649 45.0217V44.9742H92.2225V44.9267H92.0801V44.8793H91.9376V44.8318H91.7952V44.7843H91.6053V44.7368H91.4629V44.6894H91.3205V44.6419H91.1781V44.5944H90.9882V44.5469H90.8458V44.4995H90.7034V44.452H90.561V44.4045H90.4185V44.3571H90.2286V44.3096H90.1337V44.2621H89.9913V44.2146H89.8489V44.1672H89.7065V44.1197H89.564V44.0722H89.4216V44.0248H89.2792V43.9773H89.1368V43.9298H88.9944V43.8823H88.852V43.8349H88.7095V43.7874H88.5671V43.7399H88.4247V43.6924H88.2823V43.645H88.1399V43.5975H88.0449V43.55H87.9025V43.5026H87.7601V43.4551H87.6177V43.4076H87.4753V43.3601H87.3328V43.3127H87.1904V43.2652H87.048V43.2177H86.9056V43.1703H86.8107V43.1228H86.6682V43.0753H86.5258V43.0278H86.4309V42.9804H86.2885V42.9329H86.146V42.8854H86.0511V42.8379H85.9087V42.7905H85.7663V42.743H85.6713V42.6955H85.5289V42.6481H85.3865V42.6006H85.2915V42.5531H85.1491V42.5056H85.0067V42.4582H84.9118V42.4107H84.7693V42.3632H84.6269V42.3158H84.4845V42.2683H84.3896V42.2208H84.2472V42.1733H84.1047V42.1259H84.0098V42.0784H83.8674V42.0309H83.7724V41.9834H83.6775V41.936H83.5351V41.8885H83.4401V41.841H83.2977V41.7936H83.2028V41.7461H83.0603V41.6986H82.9654V41.6511H82.8705V41.6037H82.9179V41.5562H82.9654V41.5087H83.0129V41.4613H83.0603V41.4138H83.1078V41.3663H83.1553V41.3188H83.2028V41.2714H83.2502V41.2239H83.2977V41.1764H83.3452V41.129H83.3927V41.0815H83.4401V41.034H83.4876V40.9865H83.5351V40.9391H83.5825V40.8916H83.63V40.8441H83.6775V40.7966H83.725V40.7492H83.7724V40.7017H83.8199V40.6542H83.8674V40.6068H83.9148V40.5593H83.9623V40.5118H84.0573V40.4643H84.1047V40.4169H84.1522V40.3694H84.1997V40.3219H84.2472V40.2745H84.2946V40.227H84.3421V40.1795H84.3896V40.132H84.437V40.0846H84.4845V40.0371H84.532V39.9896H84.5795V39.9421H84.6269V39.8947H84.6744V39.8472H84.7219V39.7997H84.7693V39.7523H84.8168V39.7048H84.8643V39.6573H84.9118V39.6098H84.9592V39.5624H85.0067V39.5149H85.0542V39.4674H85.1017V39.42H85.1491V39.3725H85.1966V39.325H85.2441V39.2775H85.2915V39.2301H85.339V39.1826H85.3865V39.1351H85.434V39.0876H85.4814V39.0402H85.5289V38.9927H85.5764V38.9452H85.6238V38.8978H85.6713V38.8503H85.7188V38.8028H85.7663V38.7553H85.8137V38.7079H85.9087V38.6604H85.9562V38.6129H86.0036V38.5655H86.0511V38.518H86.0986V38.4705H86.146V38.423H86.1935V38.3756H86.241V38.3281H86.2885V38.2806H86.3359V38.2331H86.3834V38.1857H86.4309V38.1382H86.4783V38.0907H86.5258V38.0433H86.5733V37.9958H86.6208V37.9483H86.6682V37.9008H86.7157V37.8534H86.7632V37.8059H86.8107V37.7584H86.8581V37.711H86.9056V37.6635H86.9531V37.616H87.0005V37.5685H87.048V37.5211H87.0955V37.4736H87.143V37.4261H87.1904V37.3786H87.2379V37.3312H87.2854V37.2837H87.3328V37.2362H87.3803V37.1888H87.4278V37.1413H87.4753V37.0938H87.5227V37.0463H87.5702V36.9989H87.6177V36.9514H74.1831V28.8337H101.005V36.7615H100.957V36.809H100.91V36.8565H100.862V36.9039H100.815V36.9514H100.767V36.9989H100.72V37.0463H100.673V37.0938H100.625V37.1413H100.578V37.1888H100.53V37.2362H100.483V37.2837H100.435V37.3312H100.388V37.3786H100.34V37.4261H100.293V37.4736H100.245V37.5211H100.198V37.5685H100.15V37.616H100.103V37.6635H100.055V37.711H100.008V37.7584H99.9604V37.8059H99.913V37.8534H99.8655V37.9008H99.818V37.9483H99.7706V37.9958H99.7231V38.0433H99.6756V38.0907H99.6281V38.1382H99.5807V38.1857H99.5332V38.2331H99.4857V38.2806H99.3908V38.3281H99.3433V38.3756H99.2958V38.423H99.2484V38.4705H99.2009V38.518H99.1534V38.5655H99.1059V38.6129H99.0585V38.6604H99.011V38.7079H98.9635V38.7553H98.9161V38.8028H98.8686V38.8503H98.8211V38.8978H98.7736V38.9452H98.7262V38.9927H98.6787V39.0402H98.6312V39.0876H98.5838V39.1351H98.5363V39.1826H98.4888V39.2301H98.4413V39.2775H98.3939V39.325H98.3464V39.3725H98.2989V39.42H98.2514V39.4674H98.204V39.5149H98.1565V39.5624H98.109V39.6098H98.0616V39.6573H98.0141V39.7048H97.9666V39.7523H97.9191V39.7997H97.8717V39.8472H97.8242V39.8947H97.7767V39.9421H97.7293V39.9896H97.6818V40.0371H97.5868V40.0846H97.5394V40.132H97.4919V40.1795H97.4444V40.227H97.3969V40.2745H97.3495V40.3219H97.302V40.3694H97.2545V40.4169H97.2071V40.4643H97.1596V40.5118H97.1121V40.5593H97.0646V40.6068H97.0172V40.6542H96.9697V40.7017H96.9222V40.7492H96.8748V40.7966H96.8273V40.8441H96.7798V40.8916H96.7323V40.9391H96.6849V40.9865H96.6374V41.034H96.5899V41.0815H96.5424V41.129H96.495V41.1764H96.4475V41.2239H96.4V41.2714H96.3526V41.3188H96.3051V41.3663H96.2576V41.4138H96.2101V41.4613H96.1627V41.5087H96.1152V41.5562H96.0677V41.6037H96.0203V41.6511H95.9728V41.6986H95.9253V41.7461H95.8778V41.7936H95.7829V41.841H95.7354V41.8885H95.6879V41.936H95.6405V41.9834H95.593V42.0309H95.5455V42.0784H95.4981V42.1259H95.4506V42.1733H95.4031V42.2208H95.3556V42.2683H95.3082V42.3158H95.2607V42.3632H95.2132V42.4107H95.1658V42.4582H95.1183V42.5056H95.0708V42.5531H95.0233V42.6006H94.9759V42.6481H94.9284V42.6955H94.8809V42.743H94.8335V42.7905H94.786V42.8379H94.7385V42.8854H94.691V42.9329H94.6436V42.9804H94.5961V43.0278H94.5486V43.0753H94.5011V43.1228H94.4537V43.1703H94.4062V43.2177H94.3587V43.2652H94.3113V43.3127H94.2638V43.3601H94.2163V43.4076H94.1688V43.4551H94.1214V43.5026H94.0739V43.55H94.0264V43.5975H93.9315V43.645H93.884V43.6924H93.8365V43.7399H93.7891V43.7874H93.7416V43.8349H93.6941V43.8823H93.6466V43.9298H93.5992V43.9773H93.5517V44.0248H93.5042V44.0722H93.4568V44.1197H93.4093V44.1672H93.3618V44.2146H93.3143V44.2621H93.2669V44.3096H93.2194V44.3571H93.1719V44.4045H93.1245V44.452H93.077V44.4995H93.0295V44.5469H92.982V44.5944H92.9346V44.6419H92.8871V44.6894H92.8396V44.7368H92.7921V44.7843H92.7447V44.8318H92.6972V44.8793H92.6497V44.9267H92.6023V44.9742H92.5548V45.0217H92.3649ZM68.4864 34.5303V34.4828H68.3914V34.4354H68.344V34.3879H68.249V34.3404H68.1541V34.293H68.1066V34.2455H68.0117V34.198H67.9642V34.1505H67.8693V34.1031H67.7743V34.0556H67.7268V34.0081H67.6319V33.9607H67.5844V33.9132H67.4895V33.8657H67.3945V33.8182H67.3471V33.7708H67.2521V33.7233H67.2046V33.6758H67.1097V33.6283H67.0622V33.5809H66.9673V33.5334H66.8723V33.4859H66.8249V33.4385H66.7299V33.391H66.6824V33.3435H66.5875V33.296H66.54V33.2486H66.4451V33.2011H66.3501V33.1536H66.3027V33.1062H66.2077V33.0587H66.1603V33.0112H66.0653V32.9637H65.9704V32.9163H65.9229V32.8688H65.8279V32.8213H65.7805V32.7738H68.5339V34.5303H68.4864ZM56.5709 25.7954V25.748H56.5234V25.7005H56.4285V25.653H56.381V25.6055H56.3335V25.5581H56.286V25.5106H56.2386V25.4631H56.1911V25.4157H56.0961V25.3682H56.0487V25.3207H56.0012V25.2732H55.9537V25.2258H55.9063V25.1783H55.8588V25.1308H55.8113V25.0834H55.7638V25.0359H55.7164V24.9884H55.6689V24.9409H55.6214V24.8935H55.5265V24.846H55.479V24.7985H55.4315V24.751H55.3841V24.7036H55.3366V24.6561H55.2891V24.6086H55.2417V24.5612H55.1942V24.5137H55.1467V24.4662H55.0992V24.4187H55.0518V24.3713H55.0043V24.3238H54.9568V24.2763H54.8619V24.2289H54.8144V24.1814H54.7669V24.1339H54.7195V24.0864H54.672V24.039H54.6245V23.9915H54.577V23.944H54.5296V23.8966H54.4821V23.8491H54.4346V23.8016H54.3872V23.7541H54.3397V23.7067H54.2922V23.6592H54.2447V23.6117H54.1973V23.5642H54.1498V23.5168H54.1023V23.4693H54.0074V23.4218H53.9599V23.3744H53.9124V23.3269H53.865V23.2794H53.8175V23.2319H53.77V23.1845H53.7225V23.137H53.6751V23.0895H53.6276V23.0421H53.5801V22.9946H53.5327V22.9471H53.4852V22.8996H53.4377V22.8522H53.3902V22.8047H53.3428V22.7572H53.2953V22.7097H53.2478V22.6623H53.2003V22.6148H53.1529V22.5673H53.1054V22.5199H53.0579V22.4724H53.0105V22.4249H52.963V22.3774H52.9155V22.33H52.868V22.2825H52.8206V22.235H52.7731V22.1876H52.7256V22.1401H52.6782V22.0926H52.6307V22.0451H52.5832V21.9977H52.5357V21.9502H52.4883V21.9027H52.4408V21.8552H52.3933V21.8078H52.3458V21.7603H52.2984V21.7128H52.2509V21.6179H52.2034V21.5704H52.156V21.5229H52.1085V21.4755H52.061V21.428H52.0135V21.3805H51.9661V21.3331H51.9186V21.2856H51.8711V21.2381H51.8237V21.1906H51.7762V21.1432H51.7287V21.0957H51.6812V21.0482H51.6338V21.0007H51.5863V20.9533H51.5388V20.9058H51.4913V20.8583H51.4439V20.8109H51.3964V20.7634H51.3489V20.7159H51.3015V20.6684H51.254V20.621H51.2065V20.526H51.159V20.4786H51.1116V20.4311H51.0641V20.3836H51.0166V20.3361H50.9692V20.2887H50.9217V20.2412H50.8742V20.1937H50.8267V20.1462H50.7793V20.0513H50.7318V20.0038H50.6843V19.9564H50.6368V19.9089H50.5894V19.8614H50.5419V19.8139H50.4944V19.7665H50.447V19.719H50.3995V19.6715H50.352V19.6241H50.3045V19.5291H50.2571V19.4816H50.2096V19.4342H50.1621V19.3867H50.1147V19.3392H50.0672V19.2917H50.0197V19.2443H49.9722V19.1968H49.9248V19.1493H49.8773V19.0544H49.8298V19.0069H49.7823V18.9594H49.7349V18.912H49.6874V18.8645H49.6399V18.817H49.5925V18.7221H49.545V18.6746H49.4975V18.6271H49.45V18.5797H49.4026V18.5322H49.3551V18.4847H49.3076V18.3898H49.2602V18.3423H49.2127V18.2948H49.1652V18.2474H49.1177V18.1999H49.0703V18.1524H49.0228V18.0575H48.9753V18.01H48.9278V17.9625H48.8804V17.9151H48.8329V17.8676H48.7854V17.8201H48.738V17.7252H48.6905V17.6777H48.643V17.6302H48.5955V17.5828H48.5481V17.5353H48.5006V17.4403H48.4531V17.3929H48.4057V17.3454H48.3582V17.2979H48.3107V17.2504H48.2632V17.1555H48.2158V17.108H48.1683V17.0606H48.1208V17.0131H48.0734V16.9181H48.0259V16.8707H47.9784V16.8232H47.9309V16.7757H47.8835V16.6808H47.836V16.6333H47.7885V16.5858H47.741V16.5384H47.6936V16.4909H70.3853V25.7954" fill="#5C6374"/>
</g>
<defs>
<clipPath id="clip0">
<rect width="157" height="71.5216" fill="white" transform="translate(41 12)"/>
</clipPath>
</defs>
</svg>
