<svg width="240" height="96" viewBox="0 0 240 96" fill="none" xmlns="http://www.w3.org/2000/svg">
<path d="M95.4868 63.5619C95.2375 63.4995 95.0194 63.4372 94.8324 63.3126C94.6454 63.1879 94.4896 63.0321 94.3961 62.814C94.2715 62.5958 94.2403 62.3465 94.2403 62.0661C94.2403 61.7544 94.3026 61.5051 94.3961 61.287C94.5208 61.0689 94.6454 60.9131 94.8324 60.7884C95.0194 60.6638 95.2375 60.5391 95.4556 60.4768C95.7049 60.3833 95.9542 60.321 96.2035 60.2898C96.484 60.2586 96.7333 60.1963 97.0138 60.1652C97.2942 60.134 97.5435 60.1028 97.7928 60.0405C98.0421 59.9782 98.2602 59.947 98.4784 59.8535C98.6965 59.7912 98.8523 59.6977 99.0081 59.5419V60.7884C99.0081 60.9754 98.977 61.2247 98.9458 61.5363C98.9147 61.8479 98.79 62.1595 98.6342 62.4712C98.4472 62.7828 98.1979 63.0321 97.824 63.2502C97.45 63.4684 96.9514 63.593 96.297 63.593C95.9854 63.6242 95.7361 63.593 95.4868 63.5619ZM99.1328 64.3721C99.1328 64.5902 99.164 64.7772 99.2263 64.9642C99.2574 65.1511 99.3198 65.3381 99.3821 65.5562H102.779C102.623 65.307 102.498 64.933 102.436 64.4344C102.374 63.9358 102.343 63.406 102.343 62.8451V56.488C102.343 55.7401 102.187 55.148 101.844 54.7117C101.501 54.2755 101.096 53.9015 100.566 53.6522C100.037 53.4029 99.4756 53.216 98.8523 53.1536C98.2291 53.0601 97.6058 53.029 96.9826 53.029C96.297 53.029 95.6426 53.0913 94.957 53.2471C94.2715 53.3718 93.6794 53.5899 93.1496 53.9327C92.6199 54.2443 92.1836 54.6494 91.8096 55.1792C91.4669 55.7089 91.2799 56.3634 91.2176 57.1424H94.5831C94.6454 56.488 94.8636 55.9894 95.2375 55.7089C95.6115 55.4285 96.1412 55.2727 96.7956 55.2727C97.1072 55.2727 97.3877 55.3038 97.637 55.335C97.8863 55.3662 98.1356 55.4597 98.3226 55.5843C98.5095 55.7089 98.6654 55.8648 98.79 56.0829C98.9147 56.301 98.977 56.5815 98.977 56.9554C98.977 57.2982 98.8835 57.5787 98.6654 57.7345C98.4472 57.9215 98.1356 58.0461 97.7617 58.1396C97.3877 58.2331 96.9514 58.2954 96.4528 58.3577C95.9542 58.4201 95.4556 58.4824 94.957 58.5447C94.4584 58.6382 93.9598 58.7317 93.4612 58.8563C92.9626 58.981 92.5264 59.1991 92.1213 59.4484C91.7473 59.7289 91.4045 60.0717 91.1864 60.5391C90.9371 60.9754 90.8124 61.5675 90.8124 62.253C90.8124 62.8763 90.9059 63.4372 91.1241 63.8735C91.3422 64.3409 91.6227 64.7149 91.9966 64.9953C92.3706 65.3069 92.8068 65.5251 93.3366 65.6497C93.8352 65.8055 94.3961 65.8679 94.957 65.8679C95.7049 65.8679 96.4528 65.7432 97.1696 65.5251C97.9486 65.3069 98.603 64.9018 99.1328 64.3721ZM112.314 60.8507C112.221 61.3182 112.065 61.7544 111.847 62.1284C111.629 62.5023 111.317 62.7828 110.943 63.0009C110.569 63.2191 110.102 63.3437 109.572 63.3437C109.042 63.3437 108.606 63.2191 108.232 63.0009C107.858 62.7828 107.547 62.4712 107.297 62.0972C107.048 61.7233 106.861 61.3182 106.768 60.8196C106.643 60.3521 106.612 59.8847 106.612 59.3861C106.612 58.8875 106.674 58.3889 106.768 57.9215C106.861 57.454 107.048 57.0489 107.266 56.675C107.484 56.301 107.796 56.0206 108.17 55.8024C108.544 55.5843 109.011 55.4596 109.572 55.4596C110.133 55.4596 110.569 55.5843 110.943 55.8024C111.317 56.0206 111.598 56.301 111.816 56.675C112.034 57.0178 112.221 57.4229 112.314 57.8903C112.408 58.3577 112.47 58.8252 112.47 59.3549C112.439 59.9159 112.408 60.3833 112.314 60.8507ZM112.314 48.6663V54.8052H112.252C111.878 54.2132 111.348 53.7457 110.694 53.4341C110.04 53.1225 109.354 52.9667 108.637 52.9667C107.734 52.9667 106.955 53.1536 106.269 53.4964C105.583 53.8392 105.022 54.3066 104.586 54.8987C104.15 55.4908 103.807 56.1452 103.558 56.9243C103.34 57.6722 103.215 58.4824 103.215 59.2926C103.215 60.134 103.34 60.9754 103.558 61.7544C103.776 62.5335 104.119 63.2502 104.586 63.8423C105.022 64.4344 105.615 64.933 106.3 65.2758C106.986 65.6186 107.796 65.8055 108.7 65.8055C109.51 65.8055 110.227 65.6497 110.85 65.3693C111.504 65.0888 112.003 64.5902 112.408 63.9358H112.439V65.4939H115.618V49.3207C114.278 49.2895 113.187 49.009 112.314 48.6663ZM122.006 61.661H121.944L119.357 53.3094H115.836L120.012 65.5251H123.751L127.896 53.3094H124.561L122.006 61.661ZM130.918 58.1084C130.918 57.8591 130.981 57.6099 131.074 57.2982C131.168 56.9866 131.323 56.7061 131.51 56.4568C131.729 56.1764 132.009 55.9582 132.352 55.7713C132.695 55.5843 133.162 55.4908 133.692 55.4908C134.502 55.4908 135.125 55.7089 135.53 56.1452C135.936 56.5815 136.216 57.2359 136.372 58.0773H130.918V58.1084ZM139.488 57.5164C139.27 56.6438 138.896 55.8648 138.397 55.2103C137.899 54.5248 137.275 53.995 136.496 53.5899C135.717 53.1848 134.814 52.9978 133.785 52.9978C132.85 52.9978 132.009 53.1536 131.23 53.4964C130.451 53.8392 129.797 54.2755 129.267 54.8676C128.706 55.4285 128.301 56.1141 127.989 56.9243C127.677 57.7033 127.553 58.5759 127.553 59.4796C127.553 60.4145 127.709 61.287 127.989 62.0661C128.27 62.8451 128.706 63.5307 129.236 64.0916C129.765 64.6525 130.42 65.0888 131.199 65.4004C131.978 65.7121 132.85 65.8679 133.816 65.8679C135.188 65.8679 136.372 65.5562 137.369 64.933C138.335 64.3098 139.083 63.2502 139.55 61.7856H136.59C136.465 62.1596 136.185 62.5335 135.686 62.8451C135.188 63.1879 134.627 63.3437 133.941 63.3437C133.006 63.3437 132.258 63.0944 131.76 62.5958C131.261 62.0972 130.981 61.3182 130.918 60.2275H139.737C139.8 59.2926 139.706 58.3889 139.488 57.5164ZM151.112 54.369C150.769 53.9327 150.333 53.5899 149.74 53.3406C149.18 53.0913 148.432 52.9667 147.528 52.9667C146.811 52.9667 146.126 53.1225 145.44 53.4653C144.754 53.7769 144.225 54.3066 143.788 55.0234H143.726V53.3094H140.548V65.5251H143.913V59.1368C143.913 57.8903 144.131 56.9866 144.536 56.4568C144.941 55.9271 145.596 55.6466 146.531 55.6466C147.341 55.6466 147.902 55.8959 148.213 56.3945C148.525 56.8931 148.681 57.641 148.681 58.6382V65.5251H152.046V58.015C152.046 57.2671 151.984 56.5815 151.859 55.9582C151.672 55.335 151.423 54.8052 151.112 54.369ZM168.625 59.7289C168.625 60.9754 168.407 61.8791 168.002 62.4089C167.596 62.9386 166.942 63.2191 166.007 63.2191C165.197 63.2191 164.636 62.9698 164.324 62.4712C164.013 61.9726 163.857 61.2247 163.857 60.2275V53.3406H161.052H160.491H157.593V49.6635H154.228V53.3406H152.233C152.233 53.3406 152.95 54.5248 153.075 55.5843H154.29V62.7828C154.29 63.406 154.384 63.9046 154.602 64.2786C154.82 64.6525 155.1 64.9642 155.443 65.1511C155.786 65.3381 156.222 65.4939 156.658 65.5562C157.126 65.6186 157.625 65.6497 158.123 65.6497C158.466 65.6497 158.809 65.6497 159.151 65.6186C159.494 65.5874 159.806 65.5874 160.086 65.5251V62.9386C159.931 62.9698 159.775 63.0009 159.588 63.0009C159.401 63.0321 159.245 63.0321 159.058 63.0321C158.497 63.0321 158.123 62.9386 157.936 62.7516C157.749 62.5647 157.656 62.1907 157.656 61.6298V55.5843H160.554V60.8507C160.554 61.5986 160.616 62.2842 160.741 62.9075C160.865 63.5307 161.115 64.0604 161.426 64.4967C161.769 64.933 162.205 65.2758 162.797 65.4939C163.358 65.7432 164.106 65.8367 165.01 65.8367C165.727 65.8367 166.412 65.6809 167.098 65.3693C167.783 65.0577 168.313 64.5279 168.749 63.8423H168.812V65.5562H171.99V53.3406H168.625V59.7289V59.7289ZM181.246 53.1225C180.965 53.0601 180.747 52.9978 180.498 52.9978C180.061 52.9978 179.656 53.0601 179.282 53.1848C178.877 53.3094 178.503 53.4964 178.16 53.7146C177.818 53.9327 177.506 54.2131 177.226 54.5248C176.945 54.8364 176.758 55.2104 176.602 55.5843H176.54V53.3094H173.361V65.5251H176.727V60.0405C176.727 59.4796 176.789 58.981 176.883 58.5136C177.007 58.0461 177.194 57.641 177.444 57.2671C177.693 56.9243 178.036 56.6438 178.472 56.4257C178.877 56.2387 179.376 56.1141 179.968 56.1141C180.217 55.5843 180.653 54.8364 181.246 54.1508V53.1225V53.1225ZM183.707 58.1084C183.707 57.8591 183.77 57.6099 183.863 57.2982C183.957 56.9866 184.113 56.7061 184.299 56.4568C184.518 56.1764 184.798 55.9582 185.141 55.7713C185.484 55.5843 185.951 55.4908 186.481 55.4908C187.291 55.4908 187.914 55.7089 188.319 56.1452C188.725 56.5815 189.005 57.2359 189.161 58.0773H183.707V58.1084ZM191.218 55.2103C190.719 54.5248 190.096 53.995 189.317 53.5899C188.538 53.1848 187.634 52.9978 186.605 52.9978C185.671 52.9978 184.829 53.1536 184.05 53.4964C183.427 53.7769 182.866 54.1508 182.367 54.5871C182.274 54.6806 182.18 54.7741 182.087 54.8676C181.557 55.3973 181.152 56.0517 180.872 56.7685C180.84 56.7996 180.84 56.862 180.809 56.8931C180.498 57.6722 180.373 58.5447 180.373 59.4484C180.373 60.3833 180.529 61.2558 180.809 62.0349C181.09 62.814 181.526 63.4995 182.056 64.0605C182.586 64.6214 183.24 65.0577 184.019 65.3693C184.798 65.6809 185.671 65.8367 186.637 65.8367C188.008 65.8367 189.192 65.5251 190.189 64.9018C191.155 64.2786 191.903 63.2191 192.371 61.7544H189.41C189.285 62.1284 189.005 62.5023 188.506 62.814C188.008 63.1567 187.447 63.3126 186.761 63.3126C185.826 63.3126 185.079 63.0633 184.58 62.5647C184.081 62.0661 183.801 61.287 183.739 60.1963H192.558C192.62 59.2615 192.557 58.3577 192.308 57.4852C192.09 56.675 191.716 55.8959 191.218 55.2103ZM202.872 59.2303C202.498 58.981 202.093 58.7629 201.626 58.607C201.158 58.4512 200.691 58.3266 200.192 58.2019C199.725 58.0773 199.257 57.9838 198.79 57.8903C198.323 57.7968 197.917 57.7033 197.575 57.5787C197.232 57.454 196.92 57.2982 196.702 57.1113C196.484 56.9243 196.359 56.675 196.359 56.3634C196.359 56.1141 196.422 55.9271 196.546 55.7713C196.671 55.6155 196.827 55.522 197.014 55.4285C197.201 55.3662 197.388 55.3038 197.606 55.2727C197.824 55.2415 198.042 55.2415 198.229 55.2415C198.821 55.2415 199.351 55.3662 199.787 55.5843C200.223 55.8024 200.473 56.2387 200.535 56.8931H203.714C203.651 56.1452 203.464 55.522 203.122 55.0234C202.81 54.5248 202.405 54.1197 201.906 53.8392C201.408 53.5276 200.878 53.3406 200.255 53.216C199.631 53.0913 198.977 53.029 198.323 53.029C197.668 53.029 197.014 53.0913 196.39 53.216C195.767 53.3406 195.206 53.5276 194.677 53.8392C194.178 54.1197 193.773 54.5248 193.461 55.0234C193.15 55.522 192.994 56.1764 192.994 56.9554C192.994 57.4852 193.087 57.9526 193.337 58.3266C193.555 58.7005 193.835 59.0122 194.209 59.2615C194.583 59.5108 194.988 59.6977 195.456 59.8535C195.923 60.0093 196.39 60.134 196.889 60.2587C198.073 60.508 199.008 60.7572 199.694 61.0065C200.348 61.2558 200.691 61.6298 200.691 62.1284C200.691 62.44 200.629 62.6893 200.473 62.8763C200.317 63.0633 200.161 63.2191 199.943 63.3437C199.725 63.4684 199.507 63.5619 199.226 63.593C198.977 63.6553 198.728 63.6865 198.478 63.6865C198.136 63.6865 197.824 63.6553 197.512 63.5619C197.201 63.4684 196.92 63.3749 196.702 63.1879C196.453 63.0321 196.266 62.814 196.11 62.5647C195.954 62.3154 195.892 62.0037 195.892 61.6298H192.744C192.776 62.44 192.963 63.1256 193.305 63.6865C193.648 64.2163 194.084 64.6837 194.614 64.9953C195.144 65.3381 195.736 65.5562 196.422 65.7121C197.107 65.8679 197.793 65.9302 198.51 65.9302C199.195 65.9302 199.881 65.8679 200.566 65.7432C201.221 65.6186 201.844 65.3693 202.342 65.0577C202.872 64.7149 203.277 64.2786 203.62 63.7488C203.932 63.1879 204.119 62.5335 204.119 61.7233C204.119 61.1624 203.994 60.6949 203.776 60.2898C203.527 59.7912 203.246 59.4796 202.872 59.2303ZM156.16 39.2864C156.285 38.819 156.44 38.3827 156.69 38.0399C156.939 37.6659 157.219 37.3855 157.593 37.1674C157.967 36.9492 158.372 36.8557 158.871 36.8557C159.37 36.8557 159.806 36.9492 160.149 37.1674C160.491 37.3855 160.803 37.6659 161.021 38.0399C161.271 38.4138 161.426 38.819 161.551 39.2864C161.644 39.7538 161.707 40.2524 161.707 40.7822C161.707 41.2808 161.644 41.7794 161.551 42.2468C161.426 42.7142 161.271 43.1505 161.021 43.4933C160.772 43.8673 160.491 44.1477 160.149 44.3659C159.806 44.584 159.37 44.6775 158.871 44.6775C158.372 44.6775 157.967 44.584 157.593 44.3659C157.219 44.1477 156.939 43.8673 156.69 43.4933C156.44 43.1194 156.285 42.7142 156.16 42.2468C156.035 41.7794 156.004 41.2808 156.004 40.7822C156.004 40.2524 156.066 39.7538 156.16 39.2864ZM155.973 45.3007H156.004C156.378 45.9863 156.908 46.4537 157.625 46.7342C158.341 47.0146 159.151 47.1705 160.024 47.1705C160.647 47.1705 161.239 47.0458 161.831 46.7965C162.424 46.5472 162.984 46.1733 163.452 45.6435C163.919 45.1137 164.324 44.4593 164.636 43.6491C164.948 42.8389 165.072 41.8729 165.072 40.751C165.072 39.6292 164.916 38.6631 164.636 37.8529C164.324 37.0427 163.95 36.3883 163.452 35.8585C162.984 35.3288 162.424 34.9548 161.831 34.7055C161.239 34.4562 160.616 34.3316 160.024 34.3316C159.276 34.3316 158.528 34.4874 157.843 34.7678C157.126 35.0483 156.596 35.5157 156.16 36.139H156.098V30H152.732V46.8588H155.973V45.3007ZM168.968 38.6631C169.061 38.3515 169.217 38.0711 169.404 37.8218C169.622 37.5413 169.902 37.3232 170.245 37.1362C170.588 36.9492 171.055 36.8557 171.585 36.8557C172.395 36.8557 173.019 37.0739 173.424 37.5101C173.829 37.9464 174.109 38.6008 174.265 39.4422H168.812C168.812 39.2241 168.874 38.9436 168.968 38.6631ZM167.129 45.3942C167.659 45.9551 168.313 46.3914 169.092 46.703C169.871 47.0147 170.744 47.1705 171.679 47.1705C173.081 47.1705 174.234 46.8588 175.231 46.2356C176.197 45.6124 176.945 44.5528 177.413 43.0882H174.452C174.328 43.4621 174.047 43.8361 173.548 44.1477C173.05 44.4905 172.489 44.6463 171.803 44.6463C170.868 44.6463 170.121 44.397 169.622 43.9296C169.123 43.431 168.843 42.6519 168.781 41.5612H177.6C177.662 40.6264 177.6 39.7227 177.35 38.8501C177.132 37.9776 176.758 37.1985 176.291 36.5441C175.792 35.8585 175.169 35.3288 174.39 34.9237C173.611 34.5186 172.707 34.3316 171.679 34.3316C170.744 34.3316 169.902 34.4874 169.123 34.8302C168.344 35.173 167.69 35.6092 167.16 36.2013C166.599 36.7934 166.194 37.4478 165.883 38.258C165.571 39.0371 165.446 39.9096 165.446 40.8133C165.446 41.7482 165.602 42.6208 165.883 43.3998C166.163 44.1789 166.599 44.8333 167.129 45.3942ZM179.314 36.8869V44.0854C179.314 44.7086 179.407 45.2072 179.625 45.5812C179.843 45.9551 180.124 46.2668 180.466 46.4537C180.809 46.6719 181.246 46.7965 181.682 46.8588C182.149 46.9212 182.648 46.9523 183.146 46.9523C183.489 46.9523 183.801 46.9523 184.175 46.9212C184.518 46.89 184.829 46.8588 185.11 46.8277V44.2412C184.954 44.2724 184.798 44.3035 184.611 44.3035C184.424 44.3035 184.268 44.3347 184.081 44.3347C183.52 44.3347 183.146 44.2412 182.959 44.0542C182.773 43.8673 182.679 43.4933 182.679 42.9324V36.8869H184.424H185.141H186.481V44.0854C186.481 44.7086 186.574 45.2072 186.792 45.5812C187.011 45.9551 187.291 46.2668 187.634 46.4537C187.977 46.6719 188.382 46.7965 188.849 46.8588C189.317 46.9212 189.815 46.9523 190.314 46.9523C190.657 46.9523 190.968 46.9523 191.342 46.9212C191.685 46.89 191.997 46.8588 192.277 46.8277V44.2412C192.121 44.2724 191.965 44.3035 191.778 44.3035C191.591 44.3035 191.436 44.3347 191.249 44.3347C190.688 44.3347 190.314 44.2412 190.127 44.0542C189.94 43.8673 189.846 43.4933 189.846 42.9324V36.8869H192.308V34.6432H189.846V30.9972H186.481V34.6432H185.141H184.424H182.679V30.9972H179.314V34.6432H177.288V34.7367C177.631 35.2041 178.192 36.0143 178.503 36.8869H179.314V36.8869ZM195.487 39.4422C195.518 39.1929 195.549 38.9436 195.643 38.632C195.736 38.3204 195.892 38.0399 196.079 37.7906C196.297 37.5101 196.577 37.292 196.92 37.105C197.263 36.9181 197.73 36.8246 198.26 36.8246C199.07 36.8246 199.694 37.0427 200.099 37.479C200.504 37.9153 200.784 38.5697 200.94 39.411H195.487V39.4422ZM202.997 36.5441C202.498 35.8585 201.875 35.3288 201.096 34.9237C200.317 34.5186 199.413 34.3316 198.385 34.3316C197.45 34.3316 196.609 34.4874 195.83 34.8302C195.05 35.173 194.396 35.6092 193.866 36.2013C193.305 36.7934 192.9 37.4478 192.589 38.258C192.277 39.0371 192.152 39.9096 192.152 40.8133C192.152 41.7482 192.308 42.6208 192.589 43.3998C192.869 44.1789 193.305 44.8645 193.835 45.4254C194.365 45.9863 195.019 46.4226 195.798 46.7342C196.577 47.0458 197.45 47.2016 198.385 47.2016C199.787 47.2016 200.94 46.89 201.937 46.2668C202.903 45.6435 203.651 44.584 204.119 43.1194H201.158C201.034 43.4933 200.753 43.8673 200.255 44.1789C199.756 44.5217 199.195 44.6775 198.51 44.6775C197.575 44.6775 196.827 44.4282 196.328 43.9607C195.83 43.4621 195.549 42.6831 195.487 41.5924H204.306C204.368 40.6575 204.275 39.7538 204.056 38.8813C203.838 38.0087 203.495 37.2297 202.997 36.5441ZM212.252 34.3316C211.816 34.3316 211.411 34.3939 211.037 34.5186C210.632 34.6432 210.258 34.8302 209.915 35.0483C209.572 35.2664 209.261 35.5469 208.98 35.8897C208.7 36.2013 208.513 36.5753 208.357 36.9492H208.294V34.6744H205.116V46.89H208.481V41.3743C208.481 40.8133 208.544 40.3148 208.637 39.8473C208.762 39.3799 208.918 38.9748 209.198 38.6008C209.447 38.258 209.79 37.9776 210.227 37.7594C210.663 37.5413 211.161 37.4478 211.785 37.4478C212.003 37.4478 212.19 37.4478 212.439 37.479C212.657 37.5101 212.844 37.5413 213 37.5725V34.4562C212.72 34.3627 212.47 34.3316 212.252 34.3316ZM94.8324 39.785C94.8324 39.1929 94.9259 38.6943 95.0817 38.3204C95.2687 37.9464 95.4556 37.666 95.7049 37.479C95.9542 37.292 96.2035 37.1362 96.4528 37.0739C96.7021 37.0115 96.9203 36.9804 97.0761 36.9804C97.6058 36.9804 98.0109 37.0739 98.2914 37.2608C98.5719 37.4478 98.7588 37.6971 98.8835 37.9776C99.0081 38.2892 99.0705 38.6008 99.0705 38.9436C99.1016 39.2864 99.1016 39.6603 99.1016 40.0031V46.8588H102.467V40.0654C102.467 39.6915 102.498 39.3175 102.561 38.9436C102.623 38.5697 102.716 38.258 102.903 37.9464C103.059 37.666 103.309 37.4166 103.589 37.2297C103.869 37.0427 104.275 36.9492 104.742 36.9492C105.209 36.9492 105.583 37.0427 105.864 37.1985C106.144 37.3543 106.362 37.5725 106.487 37.8218C106.643 38.1022 106.705 38.4138 106.736 38.7566C106.768 39.1306 106.799 39.5045 106.799 39.9096V46.8277H110.008H110.164V46.7342V38.6631C110.164 37.8841 110.04 37.1985 109.821 36.6376C109.603 36.0767 109.292 35.6404 108.887 35.2664C108.481 34.9237 108.014 34.6744 107.453 34.5186C106.892 34.3627 106.3 34.2693 105.646 34.2693C104.804 34.2693 104.056 34.4874 103.433 34.8925C102.81 35.2976 102.311 35.765 101.969 36.326C101.626 35.5781 101.158 35.0483 100.504 34.7367C99.8807 34.4251 99.164 34.3004 98.3849 34.3004C97.5747 34.3004 96.8579 34.4874 96.2347 34.8302C95.6114 35.173 95.0817 35.6716 94.6454 36.2948H94.5831V34.6432H91.4669V46.8588H94.8324V39.785ZM116.085 47.1705C116.802 47.1705 117.487 47.0147 118.173 46.703C118.859 46.3914 119.388 45.8616 119.825 45.1761H119.887V46.89H123.065V34.6744H119.7V41.0626C119.7 42.3091 119.482 43.2129 119.077 43.7426C118.672 44.2724 118.017 44.5528 117.082 44.5528C116.272 44.5528 115.711 44.3035 115.4 43.8049C115.088 43.3063 114.932 42.5584 114.932 41.5612V34.6744H111.567V42.1845C111.567 42.9324 111.629 43.618 111.754 44.2412C111.878 44.8644 112.127 45.3942 112.439 45.8305C112.782 46.2668 113.218 46.6095 113.81 46.8277C113.997 46.89 114.184 46.9523 114.402 47.0147C114.807 47.1081 115.306 47.1705 115.836 47.1705C115.96 47.1705 116.023 47.1705 116.085 47.1705ZM125.777 45.4254C126.306 45.9863 126.961 46.4226 127.74 46.703C128.519 47.0147 129.329 47.1705 130.264 47.1705C131.884 47.1705 133.224 46.7342 134.253 45.8928C135.281 45.0514 135.936 43.8049 136.154 42.1845H132.913C132.788 42.9324 132.539 43.5556 132.103 43.9919C131.666 44.4282 131.043 44.6775 130.233 44.6775C129.703 44.6775 129.267 44.5528 128.893 44.3347C128.519 44.0854 128.238 43.8049 128.02 43.431C127.802 43.057 127.646 42.6519 127.553 42.1845C127.459 41.7171 127.397 41.2808 127.397 40.8445C127.397 40.3771 127.428 39.9408 127.553 39.4734C127.646 39.0059 127.802 38.5697 128.051 38.1957C128.27 37.8218 128.581 37.479 128.924 37.2608C129.298 37.0115 129.734 36.8869 130.264 36.8869C131.697 36.8869 132.539 37.5725 132.757 38.9748H136.06C135.998 38.1957 135.811 37.5101 135.499 36.918C135.156 36.326 134.751 35.8585 134.222 35.4846C133.692 35.1106 133.1 34.799 132.414 34.612C131.729 34.4251 131.043 34.3316 130.326 34.3316C129.329 34.3316 128.457 34.4874 127.677 34.8302C126.898 35.173 126.244 35.6092 125.714 36.2013C125.185 36.7934 124.779 37.479 124.499 38.2892C124.218 39.0994 124.094 39.972 124.094 40.938C124.094 41.8417 124.25 42.6831 124.53 43.4621C124.811 44.21 125.247 44.8645 125.777 45.4254ZM142.822 36.9804C143.633 36.9804 144.194 37.2297 144.505 37.7283C144.817 38.2269 144.973 38.9748 144.973 39.972V46.8588H148.338V39.3487C148.338 38.6008 148.276 37.9152 148.151 37.292C148.027 36.6688 147.777 36.139 147.466 35.7027C147.123 35.2664 146.687 34.9237 146.094 34.6744C145.534 34.4251 144.786 34.3004 143.882 34.3004C143.259 34.3004 142.604 34.4562 141.95 34.799C141.295 35.1106 140.735 35.6404 140.329 36.3571H140.267V30H136.902V46.8588H140.267V40.4394C140.267 39.1929 140.485 38.2892 140.89 37.7594C141.233 37.2297 141.888 36.9804 142.822 36.9804ZM51.1739 66.5846C49.1796 66.4288 47.2163 65.1511 46.5931 63.406C45.2219 59.6666 47.6838 55.5843 51.2051 54.1508C53.293 53.2783 55.6302 53.7457 57.7492 52.9355C60.1487 52.0006 61.5822 49.7258 61.5822 47.2951C61.5822 43.9919 58.9957 41.3119 55.786 41.3119C54.9134 41.3119 54.072 41.5301 53.3553 41.8729C52.7321 42.091 52.1711 42.4338 51.6725 42.8701C50.8 43.618 50.0833 44.6463 49.4912 45.8305C49.2419 46.3291 48.9926 46.8277 48.7433 47.3263C47.6214 49.6635 46.4996 52.0006 45.3466 54.3066C44.0689 56.8931 43.0094 59.5731 41.3266 61.9103C39.2076 64.8083 35.8421 66.6158 32.2272 66.6469H31.4482C22.5358 66.6781 27.2413 59.1056 27.2413 59.1056L38.5844 38.3515C40.236 34.7055 44.1001 32.2125 48.12 33.0539C51.1428 33.6772 53.1372 35.7027 54.4772 38.4138L55.6302 40.751L56.9701 38.3515C58.2166 35.6404 60.7096 32.7111 64.8231 32.7111C69.03 32.7111 71.3048 35.2665 72.8629 38.4138L74.4834 41.6859C73.8913 41.5301 71.1178 41.2185 67.7523 47.0147L60.772 61.0377C60.8031 61.0689 58.4036 67.1455 51.1739 66.5846Z" fill="#5C6374"/>
<path d="M79.407 60.508C79.407 60.508 81.3079 61.0377 82.1493 62.3777C82.1493 62.3777 81.7442 66.7716 74.2029 66.6781C66.6616 66.5846 65.9761 62.0038 65.9761 62.0038C65.9761 62.0038 67.2537 59.8847 69.3416 60.0094C69.3416 60.0094 68.0951 58.5136 68.3132 57.1736C68.3132 57.1736 69.7467 55.9894 70.8997 56.0829C70.8997 56.0829 70.2453 55.2727 70.1518 54.1197C70.1518 54.1197 70.7128 53.1225 72.302 52.8732C72.302 52.8732 72.489 51.0346 74.3899 49.8193C74.3899 49.8193 76.5401 50.5672 76.2285 52.9667C76.2285 52.9667 78.3164 53.4964 78.6903 54.1197C78.6903 54.1197 78.5345 55.2104 77.5685 56.2076C77.5685 56.2076 80.4354 56.9555 81.0587 57.7345C81.0275 57.7345 81.0586 59.8536 79.407 60.508Z" fill="#5C6374"/>
</svg>
