<svg width="157" height="72" viewBox="0 0 157 72" fill="none" xmlns="http://www.w3.org/2000/svg">
<g clip-path="url(#clip0_812_283)">
<path d="M101.135 56.3756C99.5763 56.3756 98.0197 56.3756 96.4606 56.3756C96.3371 56.2401 96.3703 56.0714 96.3703 55.9145C96.368 54.3769 96.3703 52.8393 96.3703 51.3017C96.3703 50.9911 96.2111 50.8358 95.8927 50.8358C94.374 50.8311 92.8554 50.8477 91.3368 50.8287C90.2959 50.8406 89.255 50.843 88.2141 50.8287C87.8314 50.8073 87.4417 50.9048 87.0662 50.7622C87.04 50.7289 87.0424 50.6956 87.0709 50.6647C87.2278 50.5649 87.4013 50.5958 87.57 50.5958C90.6738 50.5958 93.7775 50.5958 96.8813 50.5958C97.26 50.5958 97.4493 50.4017 97.4493 50.0136C97.4493 49.5192 97.4493 49.0273 97.4493 48.533C97.4493 48.3714 97.4422 48.2098 97.3732 48.0601C97.3233 47.8937 97.3328 47.7226 97.3328 47.5515C97.3328 45.1963 97.3281 42.8435 97.3328 40.4884C97.34 37.223 97.3257 33.9577 97.3328 30.6923C97.3328 30.5164 97.2972 30.3287 97.4089 30.1671C97.4422 30.1481 97.4778 30.1386 97.5158 30.1386C98.697 30.1386 99.8757 30.1386 101.057 30.1386C101.085 30.1386 101.112 30.1504 101.138 30.1576C101.249 30.2978 101.221 30.4642 101.221 30.6234C101.223 32.0089 101.221 33.3944 101.221 34.7823C101.221 41.7884 101.221 48.7944 101.221 55.8028C101.221 55.9977 101.273 56.2045 101.128 56.3779L101.135 56.3756Z" fill="#5C6374"/>
<path d="M85.0035 56.3756C83.7677 56.3756 82.5342 56.3756 81.2984 56.3756C81.2152 56.2948 81.2129 56.1902 81.2081 56.0856C81.2034 55.9811 81.2057 55.8765 81.2057 55.7719C81.2057 47.4303 81.2057 39.0886 81.2057 30.747C81.2057 30.5521 81.1606 30.3453 81.2818 30.1647C81.2913 30.1599 81.2984 30.1528 81.3079 30.1528C82.5437 30.1291 83.7772 30.1195 85.013 30.1576C85.1247 30.2978 85.0961 30.4641 85.0961 30.6234C85.0985 32.0089 85.0961 33.3944 85.0961 34.7823C85.0961 41.7884 85.0961 48.7944 85.0961 55.8028C85.0961 55.9977 85.1484 56.2044 85.0035 56.3779V56.3756Z" fill="#5C6374"/>
<path d="M85.0035 56.3756V30.1671C85.0344 30.1433 85.07 30.1338 85.108 30.1338C86.0943 30.1338 87.0782 30.1338 88.0645 30.1338C88.093 30.1338 88.1191 30.1457 88.1476 30.1528C88.2427 30.2645 88.2308 30.4024 88.2308 30.5331C88.2308 32.8858 88.2308 35.241 88.2308 37.5938C88.2308 37.7173 88.2356 37.8409 88.1714 37.955C88.0146 38.1047 87.8125 38.0572 87.6296 38.0548C87.3967 38.0501 87.3087 38.1404 87.3111 38.3733C87.3206 38.9912 87.3111 39.6067 87.3159 40.2246C87.3159 40.5335 87.3444 40.5478 87.6652 40.5621C87.8696 40.5716 88.0859 40.5122 88.2736 40.6452C88.3687 40.8021 88.3425 40.9756 88.3425 41.1443C88.3496 43.0337 88.333 44.9206 88.352 46.8076C88.3972 46.9882 88.2902 47.1142 88.1952 47.2449C87.8339 47.744 87.4323 48.2145 87.102 48.735C87.0425 49.1105 87.0877 49.4907 87.0758 49.8662C87.0687 50.1562 87.0829 50.4461 87.0521 50.736C87.4323 50.736 87.8125 50.736 88.1928 50.736C88.2902 50.8453 88.2855 50.9808 88.2855 51.1115C88.2855 52.7395 88.2855 54.3674 88.2855 55.9929C88.2855 56.1236 88.2974 56.2615 88.1928 56.3684H85.0011L85.0035 56.3756Z" fill="#5C6374"/>
<path d="M76.2791 30.1528C77.3106 30.3548 77.8239 31.1771 77.8239 32.1396C77.812 39.5734 77.8168 47.0048 77.8191 54.4387C77.8191 55.2705 77.484 55.8907 76.714 56.2496C76.5406 56.3304 76.3576 56.3755 76.1674 56.3803C75.7492 56.3874 75.3333 56.3803 74.915 56.3755C74.8318 56.2947 74.8294 56.1902 74.8247 56.0856C74.8199 55.9905 74.8223 55.8955 74.8223 55.8004C74.8223 47.4421 74.8223 39.0862 74.8223 30.7279C74.8223 30.5402 74.7843 30.3453 74.8936 30.1718C75.3547 30.1005 75.8181 30.1385 76.2815 30.1528H76.2791Z" fill="#5C6374"/>
<path d="M131.175 48.8491C130.319 48.8491 129.464 48.8491 128.611 48.8491C128.527 48.7683 128.525 48.6637 128.52 48.5591C128.515 48.4546 128.518 48.35 128.518 48.2454C128.518 39.9038 128.518 31.5645 128.518 23.2228C128.518 23.028 128.473 22.8212 128.594 22.6406C128.843 22.5764 129.1 22.6121 129.352 22.6144C129.963 22.6192 130.576 22.5812 131.187 22.6334C131.298 22.7737 131.27 22.94 131.27 23.0993C131.272 24.789 131.27 26.4787 131.27 28.1684C131.27 34.8703 131.27 41.5721 131.27 48.2739C131.27 48.4688 131.322 48.6756 131.177 48.8491H131.175Z" fill="#5C6374"/>
<path d="M58.4954 56.3756C57.6588 56.3756 56.8223 56.3756 55.9881 56.3756C55.9049 56.2948 55.9026 56.1902 55.8978 56.0856C55.8931 55.981 55.8954 55.8765 55.8954 55.7719C55.8954 47.4303 55.8954 39.091 55.8954 30.7493C55.8954 30.5544 55.8503 30.3477 55.9715 30.1671C56.24 30.0982 56.5133 30.1386 56.7843 30.1409C57.357 30.1433 57.9321 30.1077 58.5073 30.1599C58.6332 30.3287 58.5904 30.5259 58.5904 30.7113C58.5928 35.6284 58.5952 40.5454 58.5904 45.4649C58.5881 48.9299 58.5976 52.3948 58.5904 55.8598C58.5904 56.0357 58.6332 56.2235 58.4977 56.3779L58.4954 56.3756Z" fill="#5C6374"/>
<path d="M55.9883 30.1671C55.9883 38.9032 55.9883 47.637 55.9883 56.3732C55.1708 56.3732 54.3533 56.3732 53.5381 56.3732C53.4549 56.2924 53.4526 56.1878 53.4478 56.0832C53.4431 55.9787 53.4454 55.8741 53.4454 55.7695C53.4454 47.4279 53.4454 39.0886 53.4454 30.747C53.4454 30.5521 53.4003 30.3453 53.5191 30.1647C53.9849 30.0982 54.4555 30.1386 54.9236 30.1386C55.2777 30.1386 55.6342 30.091 55.9883 30.1671Z" fill="#5C6374"/>
<path d="M128.611 22.6453V48.8514C127.793 48.8514 126.976 48.8514 126.16 48.8514C126.077 48.7706 126.075 48.6661 126.07 48.5615C126.065 48.4569 126.068 48.3524 126.068 48.2478C126.068 39.9061 126.068 31.5669 126.068 23.2252C126.068 23.0303 126.023 22.8236 126.144 22.643C126.61 22.5764 127.08 22.6168 127.548 22.6168C127.902 22.6168 128.259 22.5693 128.613 22.6477L128.611 22.6453Z" fill="#5C6374"/>
<path d="M115.157 48.849C114.378 48.849 113.598 48.849 112.821 48.849C112.738 48.7682 112.735 48.6637 112.731 48.5591C112.726 48.4641 112.728 48.369 112.728 48.2739C112.728 39.9133 112.728 31.555 112.728 23.1943C112.728 23.0089 112.688 22.8117 112.804 22.6406C113.111 22.5716 113.422 22.612 113.731 22.6144C114.211 22.6144 114.691 22.5812 115.169 22.6334C115.285 22.7832 115.25 22.9614 115.252 23.1278C115.254 24.922 115.252 26.7163 115.252 28.5106C115.252 35.0984 115.252 41.6862 115.252 48.2739C115.252 48.4688 115.304 48.6756 115.159 48.849H115.157Z" fill="#5C6374"/>
<path d="M111.053 48.849H108.717C108.633 48.7682 108.631 48.6637 108.626 48.5591C108.621 48.4545 108.624 48.35 108.624 48.2454C108.624 39.9038 108.624 31.5645 108.624 23.2228C108.624 23.0279 108.579 22.8212 108.7 22.6406C109.006 22.5716 109.318 22.612 109.627 22.6144C110.107 22.6144 110.587 22.5812 111.065 22.6334C111.181 22.7832 111.145 22.9614 111.148 23.1278C111.15 24.922 111.148 26.7163 111.148 28.5106C111.148 35.0984 111.148 41.6862 111.148 48.2739C111.148 48.4688 111.2 48.6756 111.055 48.849H111.053Z" fill="#5C6374"/>
<path d="M73.2611 56.3756C72.5006 56.3756 71.7401 56.3756 70.982 56.3756C70.8988 56.2948 70.8964 56.1902 70.8917 56.0856C70.8869 55.981 70.8893 55.8765 70.8893 55.7719C70.8893 47.4303 70.8893 39.091 70.8893 30.7493C70.8893 30.5544 70.8441 30.3477 70.963 30.1671C71.2885 30.1005 71.6189 30.1386 71.9468 30.1409C72.3889 30.1409 72.8309 30.1077 73.2729 30.1599C73.3894 30.3097 73.3538 30.4879 73.3538 30.6543C73.3561 32.5056 73.3538 34.3569 73.3538 36.2082C73.3538 42.739 73.3538 49.2697 73.3538 55.8028C73.3538 55.9977 73.406 56.2044 73.2611 56.3779V56.3756Z" fill="#5C6374"/>
<path d="M101.135 56.3756V30.1671C101.416 30.0958 101.698 30.1362 101.981 30.1386C102.426 30.1386 102.87 30.1029 103.315 30.1599C103.429 30.3097 103.395 30.4879 103.395 30.6543C103.398 32.8668 103.395 35.077 103.395 37.2896C103.395 43.4686 103.395 49.6476 103.395 55.8266C103.395 56.0119 103.443 56.2092 103.303 56.3732C102.58 56.3732 101.858 56.3732 101.138 56.3732L101.135 56.3756Z" fill="#5C6374"/>
<path d="M81.2984 30.1671C81.2984 38.9032 81.2984 47.637 81.2984 56.3732C80.7898 56.4136 80.3097 56.3779 79.8819 56.0381C79.4969 55.7339 79.2735 55.3536 79.2118 54.8712C79.1975 54.7595 79.1927 54.6431 79.1927 54.5314C79.1927 47.0215 79.1927 39.514 79.188 32.0041C79.188 31.4409 79.3425 30.9727 79.7584 30.5877C80.0364 30.3287 80.3691 30.217 80.7304 30.1528C80.9205 30.1362 81.1106 30.1077 81.2984 30.1695V30.1671Z" fill="#5C6374"/>
<path d="M103.3 56.3756V30.1671C103.488 30.1053 103.678 30.1338 103.868 30.1505C104.864 30.3453 105.418 31.1296 105.416 32.1349C105.404 39.5711 105.408 47.0049 105.411 54.4411C105.411 55.2895 105.054 55.9074 104.275 56.2615C103.963 56.4017 103.633 56.3993 103.3 56.3756V56.3756Z" fill="#5C6374"/>
<path d="M53.5381 30.1671C53.5381 38.9032 53.5381 47.637 53.5381 56.3732C52.5613 56.4873 51.8792 55.8622 51.644 55.0827C51.5917 54.9092 51.6012 54.731 51.6012 54.5575C51.6012 47.0239 51.6036 39.4902 51.5917 31.9566C51.5917 31.0915 52.1644 30.3025 53.0818 30.1528C53.2339 30.1267 53.386 30.1077 53.5357 30.1671H53.5381Z" fill="#5C6374"/>
<path d="M108.716 22.6453V48.8514C107.725 48.9536 107.053 48.3619 106.803 47.4802C106.761 47.3304 106.787 47.1617 106.787 47.0025C106.787 39.4902 106.794 31.9804 106.78 24.4681C106.78 23.4082 107.521 22.7047 108.32 22.6287C108.453 22.6097 108.588 22.5812 108.716 22.6453V22.6453Z" fill="#5C6374"/>
<path d="M70.9794 30.1671V56.3732C70.39 56.3732 69.8006 56.3732 69.2112 56.3732C69.09 56.2377 69.1209 56.069 69.1209 55.9121C69.1185 54.4125 69.1209 52.9129 69.1209 51.4133C69.1209 51.3183 69.1162 51.2232 69.1209 51.1282C69.1328 50.9048 69.0235 50.8287 68.8096 50.8311C68.4008 50.8358 67.9944 50.8358 67.5857 50.8311C67.5096 50.8311 67.4336 50.8287 67.3599 50.8049C67.3243 50.7931 67.2934 50.774 67.2672 50.7503C67.253 50.7123 67.2625 50.6814 67.2934 50.6576C67.4146 50.5863 67.55 50.6006 67.6831 50.6006C68.3676 50.6006 69.0496 50.6006 69.7341 50.6006C70.0383 50.6006 70.0644 50.5697 69.9693 50.2964C69.6343 49.3339 69.5368 48.3333 69.5297 47.3233C69.5178 45.548 69.5297 43.7728 69.5249 41.9975C69.5226 40.9471 69.1827 40.025 68.4602 39.2526C68.3699 39.1575 68.2654 39.0672 68.2773 38.9151C68.3248 38.7202 68.3224 38.5206 68.3224 38.321C68.3224 35.7686 68.3224 33.2138 68.3224 30.6614C68.3224 30.4927 68.2891 30.3168 68.4008 30.1647C69.2611 30.129 70.1191 30.1148 70.9794 30.1718V30.1671Z" fill="#5C6374"/>
<path d="M124.449 48.8491C123.822 48.8491 123.194 48.8491 122.567 48.8491C122.484 48.7683 122.481 48.6637 122.477 48.5591C122.472 48.4641 122.474 48.369 122.474 48.2739C122.474 39.9156 122.474 31.555 122.474 23.1967C122.474 23.0113 122.434 22.8141 122.548 22.643C123.185 22.5859 123.822 22.6002 124.459 22.6358C124.573 22.7855 124.54 22.9638 124.54 23.1301C124.542 25.1526 124.54 27.175 124.54 29.1951C124.54 35.5547 124.54 41.9143 124.54 48.2739C124.54 48.4688 124.592 48.6756 124.447 48.8491H124.449Z" fill="#5C6374"/>
<path d="M131.175 48.8491V22.6453C131.265 22.5835 131.363 22.6097 131.458 22.6287C132.473 22.8521 132.998 23.5056 132.998 24.5442C132.998 32.0279 132.998 39.5116 132.998 46.993C132.998 48.0886 132.204 48.8942 131.175 48.8491Z" fill="#5C6374"/>
<path d="M111.053 48.8491V22.6453C111.642 22.5883 112.231 22.5883 112.821 22.6453V48.8514C112.231 48.8514 111.642 48.8514 111.053 48.8514V48.8491Z" fill="#5C6374"/>
<path d="M115.157 48.8491V22.6453C115.751 22.5835 116.343 22.6002 116.937 22.6382C117.049 22.7903 117.015 22.9662 117.015 23.1349C117.015 25.7253 117.015 28.3181 117.015 30.9086C117.015 36.7073 117.015 42.5061 117.015 48.3072C117.015 48.4926 117.063 48.6898 116.923 48.8538H115.154L115.157 48.8491Z" fill="#5C6374"/>
<path d="M116.925 48.8491V22.6453C116.992 22.5883 117.07 22.6121 117.144 22.6121C117.966 22.6216 118.788 22.5883 119.611 22.6287C119.706 22.7309 119.684 22.8592 119.687 22.9804C119.687 24.2115 119.689 25.4425 119.687 26.6712C119.687 27.0586 119.637 27.1037 119.237 27.1085C118.955 27.1108 118.669 27.1085 118.387 27.1085C118.282 27.1085 118.175 27.099 118.099 27.1916C118.042 27.2748 118.047 27.3723 118.047 27.465C118.047 28.2207 118.047 28.9741 118.047 29.7298C118.047 29.8249 118.044 29.9199 118.099 30.0031C118.177 30.0958 118.284 30.0839 118.389 30.0839C118.7 30.0839 119.014 30.0791 119.325 30.0863C119.615 30.0934 119.684 30.1528 119.694 30.4356C119.708 30.9276 119.703 31.4195 119.694 31.9115C119.691 32.1301 119.587 32.2394 119.361 32.2394C119.04 32.2394 118.717 32.2394 118.396 32.2394C118.284 32.2394 118.166 32.2252 118.087 32.3345C118.035 32.4628 118.049 32.5959 118.049 32.729C118.049 36.2772 118.049 39.823 118.049 43.3711C118.049 43.5113 118.028 43.6563 118.099 43.7894C118.185 43.8916 118.303 43.8773 118.415 43.8773C118.719 43.8773 119.021 43.8726 119.325 43.8797C119.618 43.8892 119.684 43.9463 119.687 44.2314C119.694 45.6835 119.691 47.1332 119.687 48.5853C119.687 48.6803 119.684 48.7754 119.608 48.8491C118.715 48.8491 117.821 48.8491 116.93 48.8491H116.925Z" fill="#5C6374"/>
<path d="M124.449 48.8491C124.449 40.1129 124.449 31.3791 124.449 22.643C125.02 22.5859 125.59 22.5859 126.16 22.643C126.16 31.3791 126.16 40.1129 126.16 48.8491C125.59 48.8491 125.02 48.8491 124.449 48.8491Z" fill="#5C6374"/>
<path d="M73.261 56.3755C73.261 47.6394 73.261 38.9056 73.261 30.1694C73.8123 30.1148 74.3637 30.1148 74.9151 30.1694C74.9151 38.9056 74.9151 47.6394 74.9151 56.3755H73.261Z" fill="#5C6374"/>
<path d="M117.949 27.0799C118.106 26.9754 118.28 27.0419 118.446 27.03C118.819 27.0015 119.314 27.1893 119.539 26.954C119.76 26.7235 119.599 26.2315 119.601 25.856C119.608 24.7866 119.604 23.7148 119.604 22.6453C119.656 22.6025 119.703 22.6049 119.746 22.6572C119.827 22.7974 119.808 22.9519 119.808 23.1016C119.808 24.2495 119.808 25.395 119.813 26.5429C119.813 26.6617 119.751 26.8732 119.92 26.8708C120.079 26.8684 120.022 26.6569 120.022 26.5357C120.029 25.3783 120.022 24.2233 120.027 23.066C120.027 22.9163 120 22.7594 120.11 22.6311C120.93 22.6121 121.747 22.5812 122.567 22.6477V48.8538C121.75 48.8538 120.932 48.8538 120.117 48.8538C119.996 48.7183 120.027 48.5496 120.027 48.3928C120.024 47.0928 120.027 45.7952 120.022 44.4952C120.022 44.3621 120.098 44.1245 119.903 44.1269C119.756 44.1269 119.813 44.3645 119.813 44.4952C119.808 45.7952 119.813 47.0928 119.808 48.3928C119.808 48.5496 119.841 48.7183 119.718 48.8538H119.604C119.604 47.3281 119.599 45.8023 119.608 44.279C119.608 44.0366 119.556 43.9391 119.297 43.9558C118.938 43.9795 118.577 43.9629 118.218 43.9605C118.128 43.9605 118.026 43.9914 117.952 43.9035C118.08 43.7918 118.237 43.8132 118.387 43.8108C119.366 43.8084 120.343 43.8108 121.322 43.8108C121.721 43.8108 121.733 43.7965 121.733 43.3925C121.733 39.8396 121.733 36.2867 121.733 32.7337C121.733 32.3274 121.719 32.3131 121.322 32.3131C120.343 32.3131 119.366 32.3131 118.387 32.3131C118.237 32.3131 118.08 32.3321 117.952 32.2228C118.026 32.1325 118.125 32.1657 118.218 32.1657C118.596 32.1634 118.976 32.1586 119.354 32.1657C119.527 32.1705 119.613 32.1325 119.608 31.9328C119.596 31.4219 119.596 30.9109 119.608 30.4C119.613 30.2027 119.527 30.1623 119.354 30.1671C118.976 30.1766 118.596 30.1718 118.218 30.1671C118.128 30.1671 118.026 30.198 117.952 30.11C118.08 30.0007 118.237 30.0197 118.387 30.0197C119.373 30.0174 120.359 30.0197 121.346 30.0197C121.716 30.0197 121.735 30.0007 121.735 29.6371C121.735 28.955 121.735 28.2706 121.735 27.5885C121.735 27.194 121.723 27.1821 121.312 27.1821C120.336 27.1821 119.359 27.1821 118.382 27.1821C118.232 27.1821 118.075 27.2012 117.949 27.0847V27.0799Z" fill="#5C6374"/>
<path d="M58.4956 56.3756V30.1671C59.0684 30.1077 59.6435 30.1243 60.2186 30.1576C60.3113 30.2716 60.2994 30.4071 60.2994 30.5402C60.2994 33.3326 60.2994 36.1251 60.2994 38.9175C60.2994 39.0221 60.2946 39.1266 60.2685 39.2288C60.2257 39.369 60.1307 39.4784 60.0356 39.5829C59.5936 40.0654 59.3987 40.6476 59.3321 41.2845C59.2941 41.6434 59.344 41.7076 59.7029 41.7076C60.3945 41.7099 61.086 41.7076 61.7776 41.7099C61.9154 41.7099 62.0652 41.6862 62.1769 41.8074C62.2814 42.3112 62.2387 42.8174 62.203 43.3212C62.1079 43.5113 61.9107 43.5161 61.7443 43.5613C61.1264 43.7324 60.5442 43.97 60.0309 44.3669C59.1919 45.0133 58.7927 45.8784 58.7428 46.9169C58.7047 47.7202 58.8592 48.4783 59.2537 49.1889C59.432 49.5074 59.6435 49.7902 59.931 50.0183C60.0522 50.1158 60.2138 50.1847 60.24 50.37C60.24 52.2475 60.24 54.1226 60.24 56.0001C60.24 56.1308 60.2542 56.2686 60.1497 56.3756C59.5983 56.3756 59.047 56.3756 58.4956 56.3756V56.3756Z" fill="#5C6374"/>
<path d="M91.3298 50.7408C92.9244 50.7408 94.5191 50.7455 96.1137 50.7336C96.3823 50.7336 96.4678 50.7954 96.4655 51.0759C96.4536 52.8416 96.4583 54.6074 96.4583 56.3732H91.3274C91.2228 56.2662 91.2347 56.1284 91.2347 55.9977C91.2323 54.3697 91.2323 52.7418 91.2347 51.1163C91.2347 50.9856 91.2276 50.8477 91.3274 50.7408H91.3298Z" fill="#5C6374"/>
<path d="M64.9953 56.3756C63.9306 56.3756 62.8683 56.3756 61.8036 56.3756C61.7062 56.2781 61.7133 56.1498 61.7133 56.0286C61.711 54.4102 61.711 52.7941 61.7133 51.1757C61.7133 51.0806 61.7181 50.9856 61.7561 50.8976C61.8393 50.7622 61.97 50.8145 62.0888 50.8168C62.5808 50.8263 63.0727 50.8691 63.5599 50.7788C63.9354 50.7099 64.2895 50.5839 64.6246 50.3986C64.7244 50.3439 64.8218 50.2821 64.943 50.3082C65.0951 50.3795 65.0856 50.5221 65.088 50.6528C65.0951 52.4543 65.0928 54.2581 65.088 56.0595C65.088 56.1735 65.088 56.29 64.9977 56.3779L64.9953 56.3756Z" fill="#5C6374"/>
<path d="M91.3297 50.7408C91.3297 52.6183 91.3297 54.4957 91.3297 56.3732C90.284 56.3732 89.2407 56.3732 88.1951 56.3732C88.1951 54.4957 88.1951 52.6183 88.1951 50.7408C89.2407 50.7408 90.284 50.7408 91.3297 50.7408Z" fill="#5C6374"/>
<path d="M64.9954 56.3755C64.9954 54.4648 64.9954 52.5517 64.993 50.641C64.993 50.534 65.0643 50.3795 64.8742 50.3415C64.8599 50.2251 64.9502 50.1728 65.0239 50.1181C65.435 49.8163 65.7535 49.4313 66.0434 49.0178C66.1005 48.937 66.148 48.8134 66.2787 48.8514C66.3857 48.8847 66.3738 49.0035 66.3928 49.0938C66.4974 49.6143 66.5995 50.1371 66.8586 50.6101C66.9774 50.7241 67.1652 50.6148 67.2792 50.7431C67.3767 50.8525 67.3719 50.9879 67.3719 51.121C67.3719 52.7489 67.3719 54.3769 67.3719 56.0024C67.3719 56.1331 67.3838 56.271 67.2792 56.3779C66.5187 56.3779 65.7583 56.3779 65.0001 56.3779L64.9954 56.3755Z" fill="#5C6374"/>
<path d="M112.707 20.5207C111.114 20.5231 109.52 20.535 107.927 20.5255C107.3 20.5207 106.799 19.9717 106.789 19.3324C106.78 18.7145 107.255 18.137 107.844 18.1323C109.465 18.118 111.086 18.1323 112.709 18.1323C112.79 18.225 112.799 18.3367 112.799 18.4507C112.802 19.0354 112.804 19.6176 112.799 20.2022C112.799 20.3139 112.799 20.4304 112.709 20.5183L112.707 20.5207Z" fill="#5C6374"/>
<path d="M67.2743 56.3756C67.2743 54.4981 67.2743 52.6206 67.2743 50.7432C67.8162 50.7432 68.3557 50.755 68.8975 50.7384C69.1447 50.7289 69.2207 50.7978 69.2184 51.0545C69.2065 52.8298 69.2112 54.6027 69.2112 56.3779C68.5648 56.3779 67.9184 56.3779 67.272 56.3779L67.2743 56.3756Z" fill="#5C6374"/>
<path d="M112.707 20.5207C112.707 19.7246 112.707 18.9284 112.707 18.1346C114.095 18.1109 115.48 18.1109 116.868 18.1346C116.949 18.2273 116.958 18.339 116.958 18.4531C116.961 19.0377 116.963 19.62 116.958 20.2046C116.958 20.3163 116.958 20.4328 116.868 20.5207C115.48 20.5207 114.095 20.5207 112.707 20.5207V20.5207Z" fill="#5C6374"/>
<path d="M61.8036 50.8667C61.8036 52.7038 61.8036 54.5385 61.8036 56.3755C61.2522 56.3755 60.7009 56.3755 60.1495 56.3755C60.1495 54.4696 60.1495 52.5636 60.1495 50.6552C60.1495 50.534 60.1257 50.4057 60.2065 50.2964C60.2945 50.2369 60.3729 50.2868 60.4466 50.3249C60.8197 50.5174 61.2071 50.6671 61.6182 50.7503C61.6919 50.7645 61.7655 50.7907 61.8036 50.8667V50.8667Z" fill="#5C6374"/>
<path d="M129.865 20.5183C128.592 20.5183 127.32 20.5183 126.046 20.5183C125.956 20.4304 125.956 20.3139 125.956 20.2022C125.951 19.6176 125.951 19.0354 125.956 18.4507C125.956 18.3367 125.965 18.2226 126.046 18.1323C127.32 18.1085 128.592 18.1085 129.865 18.1323C129.946 18.225 129.956 18.3367 129.956 18.4507C129.958 19.0354 129.96 19.6176 129.956 20.2022C129.956 20.3139 129.956 20.4304 129.865 20.5183Z" fill="#5C6374"/>
<path d="M126.046 18.1323C126.046 18.9284 126.046 19.7246 126.046 20.5207C124.886 20.5207 123.729 20.5207 122.569 20.5207C122.479 20.4328 122.479 20.3163 122.479 20.2046C122.474 19.62 122.474 19.0377 122.479 18.4531C122.479 18.339 122.488 18.225 122.569 18.1346C123.729 18.1109 124.886 18.1109 126.046 18.1346V18.1323Z" fill="#5C6374"/>
<path d="M122.567 18.1323C122.567 18.9284 122.567 19.7246 122.567 20.5183H119.489C119.399 20.4304 119.399 20.3139 119.399 20.2022C119.394 19.6176 119.394 19.0354 119.399 18.4507C119.399 18.3367 119.409 18.2226 119.489 18.1323C120.516 18.1085 121.54 18.1085 122.567 18.1323Z" fill="#5C6374"/>
<path d="M129.865 20.5183C129.865 19.7222 129.865 18.926 129.865 18.1323C130.528 18.1275 131.194 18.1133 131.857 18.1228C132.498 18.1323 132.993 18.6575 133 19.3015C133.005 19.9503 132.494 20.5112 131.859 20.5231C131.196 20.535 130.531 20.5207 129.865 20.5183V20.5183Z" fill="#5C6374"/>
<path d="M107.172 15.9744C106.898 15.8936 106.768 15.7177 106.791 15.4658C106.815 15.2163 106.998 15.0309 107.252 15.0048C107.272 15.0048 107.291 15.0048 107.31 15.0048C109.356 15.0071 111.402 15.0119 113.448 15.0143C113.588 15.3399 113.591 15.6631 113.448 15.9863C113.251 16.0172 113.051 16.0005 112.854 16.0005C111.064 16.0005 109.275 16.0005 107.483 16.0005C107.381 16.0005 107.274 16.0219 107.174 15.9791L107.172 15.9744Z" fill="#5C6374"/>
<path d="M119.489 18.1323C119.489 18.9284 119.489 19.7246 119.489 20.5207H116.868C116.868 19.7246 116.868 18.9284 116.868 18.1323C117.743 18.1085 118.617 18.1085 119.489 18.1323Z" fill="#5C6374"/>
<path d="M113.448 15.9625C113.448 15.644 113.448 15.328 113.448 15.0095C115.159 15.0095 116.868 15.0095 118.579 15.0095C118.722 15.3327 118.722 15.6583 118.579 15.9815C117.945 16.0148 117.312 15.9934 116.678 15.9958C115.694 16.0005 114.708 15.9958 113.724 15.9958C113.631 15.9958 113.534 16.0267 113.448 15.9625V15.9625Z" fill="#5C6374"/>
<path d="M113.448 15.9625C115.159 15.9625 116.868 15.9625 118.579 15.9625C118.665 15.8888 118.769 15.8793 118.874 15.8793C120.124 15.8793 121.374 15.8674 122.622 15.8841C123.796 15.8722 124.972 15.8698 126.146 15.8841C127.206 15.8698 128.263 15.8841 129.323 15.8769C129.768 15.8769 129.765 15.8746 129.775 15.4397C129.777 15.2923 129.749 15.1331 129.865 15.0071C130.74 15.0048 131.612 14.9976 132.487 15C132.788 15 132.998 15.2186 133 15.4967C133.002 15.7676 132.817 15.9696 132.525 16.0029C132.43 16.0124 132.334 16.0077 132.239 16.0077C124.005 16.0077 115.77 16.0077 107.535 16.0077C107.414 16.0077 107.288 16.0386 107.174 15.9696C109.135 15.9696 111.093 15.9673 113.054 15.9649C113.187 15.9649 113.317 15.9601 113.451 15.9578L113.448 15.9625Z" fill="#5C6374"/>
<path d="M122.624 15.9625C121.274 15.9625 119.927 15.9625 118.577 15.9625C118.577 15.644 118.577 15.328 118.577 15.0095C119.927 15.0095 121.274 15.0095 122.624 15.0095C122.762 15.328 122.762 15.644 122.624 15.9625Z" fill="#5C6374"/>
<path d="M129.865 15.0095C129.865 15.2472 129.856 15.4848 129.868 15.7201C129.877 15.8983 129.825 15.9744 129.63 15.972C128.473 15.9625 127.315 15.9649 126.158 15.9625C126.02 15.644 126.02 15.328 126.158 15.0095C127.394 15.0095 128.627 15.0095 129.863 15.0095H129.865Z" fill="#5C6374"/>
<path d="M126.16 15.0095C126.16 15.328 126.16 15.644 126.16 15.9625C124.981 15.9625 123.805 15.9625 122.626 15.9625C122.626 15.644 122.626 15.328 122.626 15.0095H126.16V15.0095Z" fill="#5C6374"/>
<path d="M119.717 48.8491C119.717 47.3114 119.717 45.7762 119.72 44.2386C119.72 44.1388 119.658 43.9914 119.831 43.9629C119.995 43.9367 120.143 43.9463 120.119 44.1815C120.107 44.2932 120.119 44.4097 120.119 44.5238C120.119 45.9663 120.119 47.4089 120.119 48.8491H119.72H119.717Z" fill="#5C6374"/>
<path d="M42.6487 30.1671H39.9703C39.8776 30.2479 39.7636 30.2526 39.6495 30.2526C38.466 30.2526 37.2824 30.2645 36.0989 30.2455C35.1982 30.2621 34.2975 30.2503 33.3968 30.2526C33.2827 30.2526 33.1687 30.2479 33.0736 30.1671H27.1441C26.5928 30.1623 26.0438 30.1576 25.4924 30.1528C25.5827 30.072 25.6921 30.1053 25.7919 30.1053C33.3231 30.1053 40.8568 30.1053 48.388 30.1053C48.4878 30.1053 48.5995 30.072 48.6898 30.1504C47.7986 30.1552 46.9051 30.16 46.0139 30.1671C44.8921 30.1671 43.7728 30.1671 42.651 30.1671H42.6487Z" fill="#5C6374"/>
<path d="M60.2067 30.1671H58.4956C57.6591 30.1671 56.8225 30.1671 55.9884 30.1671C55.1708 30.1671 54.3533 30.1671 53.5381 30.1671L53.0842 30.1528C53.1745 30.0696 53.2839 30.1053 53.3837 30.1053C60.9149 30.1053 68.4486 30.1053 75.9798 30.1053C76.0796 30.1053 76.1913 30.072 76.2816 30.1504C75.8253 30.1552 75.3714 30.1623 74.9151 30.1671H70.982C70.1264 30.1671 69.2708 30.1671 68.4177 30.1671C68.325 30.2479 68.2109 30.2526 68.0968 30.2526C67.0844 30.2526 66.072 30.2645 65.0596 30.2455C64.052 30.2574 63.0467 30.2598 62.039 30.2455C61.5376 30.2621 61.0338 30.2503 60.5323 30.2503C60.4182 30.2503 60.3042 30.2455 60.2091 30.1647L60.2067 30.1671Z" fill="#5C6374"/>
<path d="M103.868 30.1528C103.678 30.1576 103.49 30.1647 103.3 30.1695C102.578 30.1695 101.855 30.1695 101.135 30.1695C99.8995 30.1695 98.6661 30.1695 97.4303 30.1695C97.3376 30.2503 97.2235 30.255 97.1095 30.255C96.4773 30.255 95.8451 30.2669 95.2106 30.2503C94.5262 30.2621 93.8393 30.2621 93.1549 30.2503C92.2447 30.2621 91.3321 30.2645 90.4219 30.2503C89.7683 30.2669 89.1148 30.255 88.4612 30.255C88.3472 30.255 88.2331 30.2503 88.138 30.1695C87.0923 30.1695 86.049 30.1695 85.0034 30.1695C83.7676 30.1695 82.5341 30.1695 81.2983 30.1695C81.1082 30.1647 80.9205 30.16 80.7303 30.1528C80.8207 30.0744 80.93 30.1077 81.0322 30.1077C88.5444 30.1077 96.0566 30.1077 103.569 30.1077C103.669 30.1077 103.78 30.0744 103.871 30.1528H103.868Z" fill="#5C6374"/>
<path d="M122.567 22.6453C121.749 22.6453 120.932 22.6453 120.117 22.6453C119.984 22.738 119.851 22.738 119.717 22.6453H116.925C116.336 22.6453 115.746 22.6453 115.157 22.6453H112.821C112.231 22.6453 111.642 22.6453 111.053 22.6453C110.273 22.6453 109.494 22.6453 108.716 22.6453C108.583 22.6406 108.453 22.6334 108.32 22.6287C108.41 22.5479 108.519 22.5835 108.619 22.5835C116.131 22.5835 123.644 22.5835 131.158 22.5835C131.258 22.5835 131.37 22.5503 131.46 22.6287L131.177 22.6453H128.613C127.795 22.6453 126.978 22.6453 126.163 22.6453H122.572H122.567Z" fill="#5C6374"/>
<path d="M87.0496 48.6304C87.4868 48.079 87.917 47.5206 88.3163 46.9383C88.3424 46.7815 88.447 46.6674 88.5373 46.5462C89.9062 44.7115 91.2869 42.8863 92.6653 41.0588C92.7342 40.9684 92.8079 40.8805 92.8697 40.7664C92.7699 40.6975 92.6629 40.726 92.5679 40.726C91.2679 40.726 89.9656 40.726 88.6656 40.7237C88.5254 40.7237 88.378 40.7522 88.2521 40.6547C87.9669 40.65 87.6841 40.6405 87.3989 40.6476C87.2611 40.65 87.2207 40.6048 87.2207 40.4694C87.2254 39.7017 87.2254 38.9317 87.2207 38.1641C87.2207 38.0287 87.2611 37.9811 87.3989 37.9835C87.6461 37.9883 87.8909 37.9764 88.138 37.9716C88.2283 37.8884 88.3424 37.8789 88.4565 37.8789C89.11 37.8789 89.7612 37.8671 90.4147 37.8837C91.325 37.8718 92.2328 37.8694 93.143 37.8837C93.8084 37.8718 94.4762 37.8742 95.1417 37.8837C95.7786 37.898 96.4131 37.8837 97.05 37.8908C97.3828 37.8956 97.3994 37.917 97.3994 38.2497C97.3994 38.7155 97.3899 39.1813 97.4041 39.6447C97.4136 39.9156 97.3328 40.1367 97.1689 40.3529C95.3413 42.7817 93.5185 45.2129 91.6957 47.6465C91.6292 47.7345 91.5341 47.8081 91.527 47.9365C91.6315 48.0101 91.748 47.9745 91.8573 47.9745C93.5755 47.9769 95.2962 47.9745 97.0144 47.9769C97.1546 47.9769 97.3019 47.9507 97.4279 48.0458C97.5657 48.0458 97.5634 48.1408 97.5634 48.2407C97.5634 48.9916 97.5539 49.7426 97.5681 50.4912C97.5729 50.7123 97.4422 50.6766 97.3138 50.6766C95.3579 50.6766 93.3997 50.6766 91.4438 50.6766C89.9798 50.6766 88.5183 50.6766 87.0543 50.6766C87.0068 49.9922 87.0163 49.3077 87.0496 48.6233V48.6304Z" fill="#FEFEFE"/>
<path d="M97.4303 48.0529H91.3463C91.3226 47.9507 91.401 47.908 91.4414 47.8533C93.3711 45.2747 95.3033 42.6986 97.2378 40.1224C97.3257 40.006 97.3756 39.8895 97.3732 39.735C97.3637 39.2407 97.359 38.7488 97.3732 38.2544C97.3803 38.0453 97.3281 37.9788 97.1094 37.9835C96.4749 37.9954 95.8403 37.9788 95.2034 37.974C95.106 37.8647 95.1108 37.7292 95.1108 37.5961C95.1108 35.2457 95.1108 32.8954 95.1108 30.5426C95.1108 30.4119 95.1012 30.274 95.2034 30.1671C95.9449 30.1671 96.6864 30.1671 97.4255 30.1671C97.4255 36.1274 97.4255 42.0902 97.4255 48.0505L97.4303 48.0529Z" fill="#5C6374"/>
<path d="M87.0496 48.6304C87.0496 49.3149 87.052 49.9993 87.0544 50.6837C87.0544 50.7028 87.0544 50.7218 87.0544 50.7408C87.0044 50.7028 86.9973 50.6481 86.9973 50.5887C86.9973 49.9874 86.9973 49.3862 86.9973 48.7825C86.9973 48.7255 87.0021 48.6684 87.0496 48.628V48.6304Z" fill="#5C6374"/>
<path d="M90.4172 37.974C89.6567 37.9978 88.8962 37.9978 88.1381 37.974C88.1381 35.3717 88.1381 32.7694 88.1381 30.1671C88.8986 30.1671 89.659 30.1671 90.4172 30.1671C90.5194 30.274 90.5098 30.4119 90.5098 30.5426C90.5098 32.893 90.5098 35.2434 90.5098 37.5961C90.5098 37.7292 90.5146 37.8647 90.4172 37.974V37.974Z" fill="#5C6374"/>
<path d="M88.2522 40.6571H93.0077C93.0338 40.7379 92.9673 40.7783 92.9316 40.8259C91.4273 42.8293 89.9206 44.8327 88.4138 46.8361C88.3853 46.8742 88.3497 46.9027 88.3164 46.9383C88.2427 46.8171 88.2522 46.684 88.2522 46.551C88.2522 44.5856 88.2522 42.6225 88.2522 40.6571Z" fill="#5C6374"/>
<path d="M34.1667 50.8928C34.1714 50.0872 34.1762 49.2792 34.1786 48.4735C34.1786 46.7268 34.1738 44.98 34.1857 43.2333C34.1857 42.9742 34.1144 42.9077 33.8696 42.9291C33.6058 42.9528 33.3397 42.9409 33.0735 42.9433C32.8834 42.9409 32.6932 42.9243 32.5055 42.9386C32.3296 42.9504 32.2821 42.891 32.2821 42.7152C32.2892 41.9951 32.2821 41.2774 32.2773 40.5573C32.2964 40.5169 32.332 40.5097 32.3724 40.5121C32.8263 40.5501 33.2755 40.4408 33.7294 40.4551C34.0479 40.4646 34.0716 40.4361 34.0716 40.12C34.0693 39.3333 34.0669 38.5467 34.2451 37.7743C34.5042 36.6574 35.1054 35.7852 36.1202 35.2219C37.192 34.6516 38.3375 34.5042 39.5305 34.6421C39.6232 34.6516 39.723 34.6492 39.792 34.73C40.0391 34.7823 40.2863 34.8441 40.5358 34.8845C40.6713 34.9059 40.7354 34.9415 40.7188 35.096C40.6309 35.8351 40.5501 36.5766 40.4693 37.318C40.455 37.4464 40.3956 37.4725 40.2792 37.4464C40.1984 37.4274 40.1128 37.425 40.0272 37.4155L39.8704 37.4012C39.54 37.3608 39.2073 37.3584 38.877 37.4012C38.0785 37.5058 37.6246 38.0571 37.6293 38.9175C37.5747 39.3975 37.6222 39.88 37.6055 40.3624C37.6008 40.524 37.7054 40.5145 37.8123 40.5145C38.4373 40.5145 39.0624 40.5145 39.6874 40.5145C40.1152 40.5145 40.0558 40.467 40.0581 40.8971C40.0605 41.4841 40.0581 42.0711 40.0581 42.6581C40.0581 42.7508 40.0867 42.8483 40.0272 42.9338C39.3262 42.9338 38.6227 42.9457 37.9216 42.9291C37.6697 42.9243 37.5913 42.979 37.5913 43.2499C37.6032 45.7072 37.5937 48.1646 37.6032 50.6219C37.6032 50.8643 37.5556 50.9427 37.2966 50.938C36.3579 50.919 35.4168 50.9309 34.478 50.9309C34.3758 50.9309 34.2689 50.9475 34.1714 50.8952L34.1667 50.8928Z" fill="#FEFEFE"/>
<path fillRule="evenodd" clipRule="evenodd" d="M42.6489 56.3709V56.3732H40.2009V56.3756H36.2107L36.2083 56.373V56.3732H33.0806L33.0762 56.378L33.0738 56.3756H29.8821L29.882 56.3754V56.3756H27.1466H27.1457L27.1418 56.3802L27.1442 56.3754C26.9683 56.3754 26.7918 56.3804 26.6151 56.3854C26.2212 56.3966 25.8267 56.4078 25.4378 56.3635C24.9198 56.3041 24.5134 55.9952 24.2377 55.5246C24.0452 55.1943 24.0072 54.8497 24.0072 54.4837V32.9546C24.0072 32.8639 24.009 32.7731 24.0108 32.6825C24.0148 32.4787 24.0189 32.2752 24.0024 32.0729C23.9311 31.1532 24.5181 30.3238 25.4901 30.1574C26.0432 30.1314 26.5963 30.1148 27.1494 30.1661C27.2189 30.122 27.2945 30.1281 27.3698 30.1343C27.3961 30.1365 27.4224 30.1386 27.4484 30.1386C28.1685 30.1362 28.8862 30.1362 29.6063 30.1386C29.629 30.1386 29.6519 30.1369 29.6749 30.1352C29.7422 30.1302 29.8099 30.1252 29.8718 30.1629C29.9129 30.1366 29.9586 30.1375 30.005 30.1383L30.0295 30.1386C30.4133 30.1431 30.7971 30.1408 31.181 30.1385C31.8143 30.1347 32.4476 30.131 33.0809 30.1576C33.0845 30.1615 33.088 30.1655 33.0913 30.1695L36.0943 30.1695H39.9503C39.9544 30.1639 39.9588 30.1584 39.9634 30.1529L40.1567 30.1482C40.9828 30.128 41.8072 30.1078 42.6336 30.166L42.6345 30.1647C42.6889 30.129 42.7492 30.1319 42.8084 30.1347C42.8242 30.1354 42.84 30.1362 42.8556 30.1362H45.7977C45.8142 30.1362 45.831 30.1351 45.8478 30.134C45.904 30.1304 45.9608 30.1267 46.0111 30.1631C46.1411 30.1213 46.2734 30.1284 46.4053 30.1355C46.4556 30.1382 46.5058 30.1409 46.5558 30.1409C46.7927 30.1425 47.0295 30.1404 47.2664 30.1383C47.7401 30.134 48.2138 30.1298 48.6876 30.1552L48.6899 30.1528C49.4077 30.3073 49.9162 30.7042 50.1373 31.4219C50.199 31.6191 50.2228 31.8259 50.2228 32.035C50.2228 34.1727 50.2224 36.3104 50.222 38.4482V38.4483V38.4485V38.4487V38.4488V38.449V38.4492V38.4494V38.4495C50.2211 43.7952 50.2201 49.1413 50.2252 54.4886C50.2252 55.6768 49.3031 56.4326 48.3192 56.3898C47.7843 56.3666 47.2482 56.37 46.7118 56.3733H46.7118H46.7117H46.7117H46.7117H46.7117H46.7117H46.7117H46.7116C46.4783 56.3748 46.245 56.3763 46.0116 56.3755L46.0092 56.3732H42.6512L42.6489 56.3709ZM39.7947 34.7278C39.7939 34.7278 39.793 34.7277 39.7922 34.7277C38.9009 34.635 38.0193 34.6516 37.1471 34.8893C36.7977 34.9844 36.4721 35.1293 36.1489 35.2814V35.2791C34.6992 36.1417 34.193 37.4916 34.1788 39.0958C34.174 39.5022 34.1693 39.9109 34.1812 40.3173C34.1859 40.4956 34.1241 40.5383 33.9554 40.5383C33.6158 40.5369 33.2763 40.5407 32.9367 40.5455C32.873 40.5574 32.7919 40.5628 32.6888 40.5668L32.6588 40.5681C32.5736 40.5715 32.4888 40.5748 32.425 40.6429C32.365 40.7185 32.3653 40.8087 32.3656 40.8959L32.3656 40.9138C32.3656 41.068 32.366 41.222 32.3664 41.376V41.3762V41.3763V41.3763V41.3764V41.3765V41.3765V41.3766C32.3673 41.761 32.3683 42.1448 32.3632 42.5299C32.3585 42.758 32.4393 42.8626 32.6746 42.8507L32.7085 42.8489C32.8401 42.8418 32.9781 42.8343 33.0898 42.9298C33.386 42.7715 33.6952 42.8208 34.0021 42.8697L34.0024 42.8697C34.0327 42.8745 34.063 42.8794 34.0932 42.884C34.1859 42.8982 34.2144 42.9957 34.2334 43.0812C34.2529 43.1828 34.2527 43.2863 34.2525 43.39L34.2524 43.4211V50.4247C34.2524 50.4527 34.2534 50.4808 34.2543 50.509C34.2588 50.6415 34.2633 50.7749 34.1693 50.8905L34.1669 50.8929L34.1693 50.8976C34.2762 50.8158 34.3995 50.8192 34.5217 50.8227C34.5461 50.8233 34.5705 50.824 34.5947 50.824C35.152 50.8224 35.7083 50.823 36.2649 50.8235H36.2652H36.2654H36.2657C36.5443 50.8238 36.823 50.824 37.1019 50.824C37.4655 50.824 37.4869 50.8026 37.4869 50.4343V43.4544C37.4869 42.8745 37.5154 42.846 38.0977 42.846H39.5497C39.5684 42.846 39.5872 42.8462 39.6058 42.8465L39.606 42.8465C39.7107 42.848 39.8146 42.8496 39.9133 42.8032C40.0065 42.7328 40.0063 42.6342 40.0061 42.5323L40.006 42.518V40.8972C40.006 40.6168 39.9585 40.5692 39.6733 40.5669C39.3846 40.5645 39.0959 40.5651 38.807 40.5657H38.8069H38.8068H38.8067C38.5176 40.5663 38.2283 40.5669 37.9384 40.5645C37.6152 40.5597 37.563 40.5051 37.5582 40.1771C37.555 39.9189 37.5561 39.6596 37.5571 39.4006V39.4005V39.4004V39.4003V39.4001V39.3998V39.3995C37.5577 39.2704 37.5582 39.1414 37.5582 39.0126C37.5511 38.3947 37.7246 37.86 38.2854 37.5201C38.4803 37.4013 38.6989 37.3443 38.9295 37.33C39.0317 37.33 39.1338 37.3298 39.236 37.3295H39.2362C39.4405 37.329 39.6448 37.3284 39.8492 37.33C39.9158 37.3367 39.9804 37.3496 40.0254 37.4036C40.0374 37.3763 40.0631 37.3603 40.0917 37.3633C40.3823 37.3793 40.3997 37.1949 40.4197 36.9839L40.4221 36.9593C40.4791 36.4055 40.5409 35.8542 40.6193 35.3028C40.6526 35.0652 40.5623 34.9463 40.3294 34.9178C40.2082 34.9012 40.087 34.8798 39.9682 34.8537C39.9582 34.8514 39.9478 34.8495 39.9373 34.8474C39.8669 34.834 39.7898 34.8193 39.7947 34.7278ZM36.1489 35.279C36.1484 35.2783 36.1479 35.2776 36.1474 35.2768C36.1471 35.2776 36.1468 35.2783 36.1466 35.279L36.1489 35.279Z" fill="#5C6374"/>
<path d="M40.0227 42.9291C40.025 42.1971 40.0227 41.4675 40.0345 40.7356C40.0369 40.574 39.9894 40.5264 39.8278 40.5288C39.1624 40.5383 38.4969 40.5288 37.8339 40.5359C37.6533 40.5383 37.5772 40.5003 37.5891 40.303C37.62 39.8396 37.5487 39.3738 37.6271 38.9128C37.6271 39.35 37.639 39.7849 37.6271 40.2222C37.6224 40.4195 37.6842 40.486 37.8862 40.4836C38.5397 40.4741 39.1956 40.4836 39.8516 40.4789C39.9918 40.4789 40.0868 40.4931 40.0868 40.6738C40.0797 41.3748 40.0845 42.0783 40.0845 42.7818C40.0845 42.8412 40.0773 42.8958 40.0227 42.9315V42.9291Z" fill="#5C6374"/>
<path d="M38.8771 37.3989C39.2074 37.3133 39.5401 37.3276 39.8705 37.3989C39.5401 37.3989 39.2074 37.3989 38.8771 37.3989Z" fill="#5C6374"/>
<path d="M61.8037 50.8667C61.2381 50.7693 60.7081 50.572 60.2066 50.2964C59.5959 49.9423 59.218 49.3957 58.9613 48.7587C58.6334 47.946 58.5716 47.0975 58.7522 46.242C59.016 44.9896 59.843 44.2196 60.979 43.7347C61.3545 43.5731 61.749 43.4781 62.1435 43.3759C62.5594 43.1525 63.0228 43.1572 63.472 43.1406C64.2301 43.1145 64.9906 43.1359 65.7487 43.1335C66.0838 43.1335 66.1123 43.1097 66.1052 42.7794C66.0981 42.354 66.1504 41.9262 66.0339 41.5055C65.9484 41.2014 65.7963 40.9518 65.5634 40.7427C64.974 40.2127 63.693 40.1961 63.0918 40.7094C62.8303 40.9328 62.7234 41.2251 62.6545 41.5483C62.5856 41.8763 62.4549 41.9286 62.1459 41.7907C61.2832 41.786 60.4205 41.7717 59.5578 41.7812C59.3083 41.7836 59.2204 41.7194 59.2394 41.4651C59.2917 40.7403 59.4628 40.0701 59.9999 39.5402C60.0783 39.4617 60.1021 39.3381 60.209 39.2787C60.335 39.0339 60.5726 38.9032 60.7794 38.7464C61.1739 38.4517 61.6136 38.2402 62.0746 38.0667C62.992 37.7435 63.9378 37.6413 64.9027 37.6841C65.1879 37.7577 65.4849 37.7292 65.7725 37.7815C66.571 37.9312 67.3315 38.1713 67.9993 38.6513C68.111 38.7321 68.2512 38.7915 68.2869 38.9484C69.2779 39.8443 69.6415 40.9875 69.6296 42.2922C69.6154 43.7062 69.6368 45.1203 69.6249 46.5343C69.613 47.9341 69.6581 49.322 70.2024 50.6956H67.2769C67.1057 50.7075 66.9346 50.7503 66.7659 50.6719C66.5544 50.0872 66.3476 49.5026 66.2549 48.8633C65.8818 49.4479 65.4113 49.9256 64.8742 50.3391C63.9283 50.9689 62.8803 50.9974 61.8037 50.8667Z" fill="#FEFEFE"/>
<path d="M68.2844 38.9484C67.3291 38.1998 66.2335 37.8386 65.0309 37.7791C64.9953 37.7791 64.9573 37.7601 64.9216 37.7506C64.9525 37.5249 64.9573 37.2967 64.9573 37.0686C64.9573 34.932 64.9573 32.7955 64.9573 30.659C64.9573 30.4927 64.9216 30.3144 65.0476 30.1671C66.1693 30.1671 67.2887 30.1671 68.4104 30.1671C68.4104 32.9714 68.4104 35.7733 68.4104 38.5777C68.4104 38.7131 68.4603 38.8723 68.2821 38.9484H68.2844Z" fill="#5C6374"/>
<path d="M66.7657 50.6719C66.9369 50.679 67.1056 50.6885 67.2767 50.6956C67.2767 50.7099 67.2767 50.7265 67.2767 50.7408C67.108 50.7123 66.9226 50.8097 66.7681 50.6719H66.7657Z" fill="#5C6374"/>
<path d="M117.952 32.2157C119.176 32.2157 120.4 32.2157 121.626 32.2061C121.811 32.2061 121.842 32.2703 121.84 32.4343C121.835 36.1845 121.835 39.9323 121.84 43.6825C121.84 43.8488 121.809 43.913 121.624 43.9106C120.4 43.8987 119.176 43.9011 117.952 43.8987C117.952 40.0036 117.952 36.1108 117.952 32.2157V32.2157Z" fill="#FEFEFE"/>
<path d="M117.949 27.0799C119.183 27.0776 120.419 27.0752 121.652 27.0657C121.809 27.0657 121.84 27.1251 121.84 27.2653C121.835 28.1494 121.833 29.0311 121.84 29.9152C121.84 30.0863 121.778 30.1172 121.626 30.1148C120.402 30.1077 119.176 30.1077 117.952 30.1053V27.0799H117.949Z" fill="#FEFEFE"/>
<path d="M119.718 22.6453H120.117C120.117 24.0118 120.117 25.3783 120.117 26.7449C120.117 26.8851 120.15 27.0324 119.917 27.0324C119.684 27.0324 119.718 26.8851 119.718 26.7449C119.718 25.3783 119.718 24.0118 119.718 22.6453V22.6453Z" fill="#5C6374"/>
<path d="M62.0316 38.1427C61.3567 38.4113 60.7625 38.8129 60.2064 39.2764V30.1671C60.8148 30.1671 61.4232 30.1671 62.0316 30.1671C62.1338 30.274 62.1243 30.4119 62.1243 30.5426C62.1243 32.95 62.1243 35.3574 62.1243 37.7649C62.1243 37.898 62.129 38.0334 62.0316 38.1427V38.1427Z" fill="#5C6374"/>
<path d="M62.1459 41.7883C62.4477 41.8216 62.5737 41.7099 62.6141 41.382C62.6925 40.7664 63.1939 40.3814 63.9544 40.2721C64.2966 40.2222 64.6365 40.246 64.9716 40.3315C65.6917 40.5193 66.1432 41.0801 66.1907 41.8644C66.2121 42.2328 66.1931 42.6059 66.2098 42.9742C66.2169 43.1572 66.1456 43.1953 65.9792 43.1929C65.2378 43.1905 64.4986 43.2 63.7572 43.2024C63.2153 43.2024 62.6806 43.2927 62.1459 43.3711V41.7836V41.7883Z" fill="#5C6374"/>
<path d="M62.0317 38.1428C62.0317 35.4834 62.0317 32.8264 62.0317 30.1671C63.0394 30.1671 64.0447 30.1671 65.0523 30.1671C65.0523 32.5864 65.0523 35.0057 65.0499 37.4227C65.0499 37.5391 65.126 37.7031 64.924 37.7482C63.9401 37.7364 62.9705 37.8338 62.0317 38.1404V38.1428Z" fill="#5C6374"/>
<path d="M90.4172 37.974C90.4172 35.3717 90.4172 32.7694 90.4172 30.1671C91.3298 30.1671 92.2424 30.1671 93.1526 30.1671C93.2548 30.274 93.2453 30.4119 93.2453 30.5426C93.2453 32.893 93.2453 35.2434 93.2453 37.5961C93.2453 37.7292 93.2501 37.8647 93.1526 37.974C92.24 37.9978 91.3275 37.9978 90.4172 37.974V37.974Z" fill="#5C6374"/>
<path d="M93.1549 37.974V30.1671C93.8394 30.1671 94.5238 30.1671 95.2059 30.1671V37.974C94.5214 37.9978 93.837 37.9978 93.1549 37.974Z" fill="#5C6374"/>
<path d="M64.8813 45.1583C65.2592 45.1535 65.6394 45.1535 66.0173 45.144C66.1504 45.1393 66.2003 45.1797 66.1979 45.3175C66.1908 45.8285 66.1931 46.3418 66.1979 46.8528C66.1979 46.9645 66.1527 47.0548 66.0957 47.1403C65.7963 47.5966 65.3946 47.9293 64.8884 48.1313C64.7862 48.0363 64.7934 47.9103 64.7934 47.7891C64.7886 47.0262 64.7886 46.2634 64.7934 45.5005C64.7934 45.3793 64.7934 45.2534 64.886 45.1559L64.8813 45.1583Z" fill="#5C6374"/>
<path d="M64.8811 45.1583L64.8858 48.1337C64.5103 48.331 64.1063 48.4046 63.6857 48.3928C63.8782 48.205 63.8853 47.9697 63.8805 47.7202C63.871 47.0025 63.8758 46.2824 63.8805 45.5647C63.8805 45.4245 63.8615 45.2771 63.9685 45.1607C64.2727 45.1607 64.5769 45.1607 64.8811 45.1583Z" fill="#5C6374"/>
<path d="M63.9685 45.1607C63.9685 46.1041 63.959 47.05 63.9757 47.9935C63.9804 48.2335 63.9186 48.3571 63.6857 48.3904C63.4599 48.4118 63.2437 48.3904 63.0345 48.2977C63.132 47.4374 63.0583 46.5723 63.0797 45.7096C63.0821 45.5956 63.0749 45.4815 63.0963 45.3698C63.3673 45.2153 63.6596 45.1488 63.9709 45.1583L63.9685 45.1607Z" fill="#5C6374"/>
<path d="M63.0939 45.3722C63.2032 45.4458 63.1676 45.5575 63.1676 45.6574C63.1676 46.4416 63.17 47.2259 63.1676 48.0078C63.1676 48.1195 63.2175 48.2668 63.0321 48.3001C62.4499 48.1504 62.0934 47.6798 62.0839 47.0548C62.072 46.2729 62.4523 45.6383 63.0915 45.3722H63.0939Z" fill="#5C6374"/>
</g>
<defs>
<clipPath id="clip0_812_283">
<rect width="109" height="41.3946" fill="white" transform="translate(24 15)"/>
</clipPath>
</defs>
</svg>
