<svg width="319" height="57" viewBox="0 0 319 57" fill="none" xmlns="http://www.w3.org/2000/svg">
<g clip-path="url(#clip0)">
<path d="M125.7 0H131.8L143.9 28.4L155.7 0H161.8V43.6H155.4V16.4H155.2L145.9 39.2H141.9L132.2 16.4H132.1V43.6H125.7V0Z" fill="#5B6376"/>
<path d="M176.9 12.5H170.9V43.5H176.9V12.5Z" fill="#5B6376"/>
<path d="M185.8 0H209.7V6.2H192.2V19.1H209.7V24.9H192.2V43.6H185.8V0Z" fill="#5B6376"/>
<path d="M222 12.5H216V43.5H222V12.5Z" fill="#5B6376"/>
<path d="M230.3 12.5H236.3V15.8H236.4C238.4 13.3 241 12.1 244.2 12.1C246.7 12.1 249 13 251 14.8C253 16.6 254.1 19.3 254.2 22.9V43.5H248.2V25.1C248.2 22.9 247.6 21.3 246.5 20.1C245.4 18.9 244 18.4 242.2 18.4C240.5 18.4 239 19 237.9 20.1C236.8 21.2 236.2 22.9 236.2 25.1V43.6H230.2L230.3 12.5Z" fill="#5B6376"/>
<path d="M268.2 12.5H262.2V43.5H268.2V12.5Z" fill="#5B6376"/>
<path d="M277.2 0.0999756H283.2V12.5H287.6V17.3H283.2V35.4C283.2 37 283.9 37.7 285.3 37.7H287.6V43.6H284.5C282.4 43.6 280.6 42.9 279.3 41.6C277.9 40.3 277.2 38.4 277.2 36V17.3H274.2V12.5H277.2V0.0999756Z" fill="#5B6376"/>
<path d="M291.6 12.5H298L305.1 34.2H305.2L312.3 12.5H318.7L305.8 50C305 52.3 303.8 53.9 302.4 54.8C300.9 55.7 299.2 56.1 297.4 56.1H295.4V50.2H297.2C298 50.2 298.7 50 299.4 49.5C300.1 49 300.5 48.4 300.8 47.5L302.4 42.3L291.6 12.5Z" fill="#5B6376"/>
<path d="M173.9 7.4C175.944 7.4 177.6 5.74345 177.6 3.7C177.6 1.65655 175.944 0 173.9 0C171.857 0 170.2 1.65655 170.2 3.7C170.2 5.74345 171.857 7.4 173.9 7.4Z" fill="#5B6376"/>
<path d="M219 7.4C221.043 7.4 222.7 5.74345 222.7 3.7C222.7 1.65655 221.043 0 219 0C216.956 0 215.3 1.65655 215.3 3.7C215.3 5.74345 216.956 7.4 219 7.4Z" fill="#5B6376"/>
<path d="M265.2 7.4C267.243 7.4 268.9 5.74345 268.9 3.7C268.9 1.65655 267.243 0 265.2 0C263.157 0 261.5 1.65655 261.5 3.7C261.5 5.74345 263.157 7.4 265.2 7.4Z" fill="#5B6376"/>
<path d="M45.8 16.1C46.7941 16.1 47.6 15.2941 47.6 14.3C47.6 13.3059 46.7941 12.5 45.8 12.5C44.8059 12.5 44 13.3059 44 14.3C44 15.2941 44.8059 16.1 45.8 16.1Z" fill="#5B6376"/>
<path d="M41.2998 12.5C42.4044 12.5 43.2998 11.6046 43.2998 10.5C43.2998 9.39543 42.4044 8.5 41.2998 8.5C40.1952 8.5 39.2998 9.39543 39.2998 10.5C39.2998 11.6046 40.1952 12.5 41.2998 12.5Z" fill="#5B6376"/>
<path d="M36.1 9.2C37.2598 9.2 38.2 8.2598 38.2 7.1C38.2 5.9402 37.2598 5 36.1 5C34.9402 5 34 5.9402 34 7.1C34 8.2598 34.9402 9.2 36.1 9.2Z" fill="#5B6376"/>
<path d="M29.9999 6.90001C31.1597 6.90001 32.0999 5.95981 32.0999 4.80001C32.0999 3.64021 31.1597 2.70001 29.9999 2.70001C28.8401 2.70001 27.8999 3.64021 27.8999 4.80001C27.8999 5.95981 28.8401 6.90001 29.9999 6.90001Z" fill="#5B6376"/>
<path d="M23.2998 6.59998C24.6805 6.59998 25.7998 5.48069 25.7998 4.09998C25.7998 2.71926 24.6805 1.59998 23.2998 1.59998C21.9191 1.59998 20.7998 2.71926 20.7998 4.09998C20.7998 5.48069 21.9191 6.59998 23.2998 6.59998Z" fill="#5B6376"/>
<path d="M16.0002 8.39999C17.5466 8.39999 18.8002 7.14639 18.8002 5.59999C18.8002 4.05359 17.5466 2.79999 16.0002 2.79999C14.4538 2.79999 13.2002 4.05359 13.2002 5.59999C13.2002 7.14639 14.4538 8.39999 16.0002 8.39999Z" fill="#5B6376"/>
<path d="M8.9999 13.6C10.712 13.6 12.0999 12.2121 12.0999 10.5C12.0999 8.78794 10.712 7.40002 8.9999 7.40002C7.28782 7.40002 5.8999 8.78794 5.8999 10.5C5.8999 12.2121 7.28782 13.6 8.9999 13.6Z" fill="#5B6376"/>
<path d="M4.0002 20.8C5.82273 20.8 7.3002 19.3226 7.3002 17.5C7.3002 15.6775 5.82273 14.2 4.0002 14.2C2.17766 14.2 0.700195 15.6775 0.700195 17.5C0.700195 19.3226 2.17766 20.8 4.0002 20.8Z" fill="#5B6376"/>
<path d="M3.6 31.1C5.58822 31.1 7.2 29.4882 7.2 27.5C7.2 25.5118 5.58822 23.9 3.6 23.9C1.61177 23.9 0 25.5118 0 27.5C0 29.4882 1.61177 31.1 3.6 31.1Z" fill="#5B6376"/>
<path d="M9.3002 40.4C11.5646 40.4 13.4002 38.5644 13.4002 36.3C13.4002 34.0356 11.5646 32.2 9.3002 32.2C7.03583 32.2 5.2002 34.0356 5.2002 36.3C5.2002 38.5644 7.03583 40.4 9.3002 40.4Z" fill="#5B6376"/>
<path d="M52.9999 26.4C54.9881 26.4 56.5999 24.7882 56.5999 22.8C56.5999 20.8118 54.9881 19.2 52.9999 19.2C51.0117 19.2 49.3999 20.8118 49.3999 22.8C49.3999 24.7882 51.0117 26.4 52.9999 26.4Z" fill="#5B6376"/>
<path d="M60.8 18.6C62.8987 18.6 64.6 16.8987 64.6 14.8C64.6 12.7013 62.8987 11 60.8 11C58.7013 11 57 12.7013 57 14.8C57 16.8987 58.7013 18.6 60.8 18.6Z" fill="#5B6376"/>
<path d="M44 34.5C46.2091 34.5 48 32.7091 48 30.5C48 28.2909 46.2091 26.5 44 26.5C41.7909 26.5 40 28.2909 40 30.5C40 32.7091 41.7909 34.5 44 34.5Z" fill="#5B6376"/>
<path d="M33.8 41.6C36.451 41.6 38.6 39.451 38.6 36.8C38.6 34.149 36.451 32 33.8 32C31.149 32 29 34.149 29 36.8C29 39.451 31.149 41.6 33.8 41.6Z" fill="#5B6376"/>
<path d="M21.1001 45.3C24.1377 45.3 26.6001 42.8376 26.6001 39.8C26.6001 36.7624 24.1377 34.3 21.1001 34.3C18.0625 34.3 15.6001 36.7624 15.6001 39.8C15.6001 42.8376 18.0625 45.3 21.1001 45.3Z" fill="#5B6376"/>
<path d="M71.3002 12.9C73.8407 12.9 75.9002 10.8405 75.9002 8.30001C75.9002 5.7595 73.8407 3.70001 71.3002 3.70001C68.7597 3.70001 66.7002 5.7595 66.7002 8.30001C66.7002 10.8405 68.7597 12.9 71.3002 12.9Z" fill="#5B6376"/>
<path d="M84 10C86.7614 10 89 7.76142 89 5C89 2.23858 86.7614 0 84 0C81.2386 0 79 2.23858 79 5C79 7.76142 81.2386 10 84 10Z" fill="#5B6376"/>
<path d="M95.3002 12.7C97.5646 12.7 99.4002 10.8644 99.4002 8.6C99.4002 6.33563 97.5646 4.5 95.3002 4.5C93.0358 4.5 91.2002 6.33563 91.2002 8.6C91.2002 10.8644 93.0358 12.7 95.3002 12.7Z" fill="#5B6376"/>
<path d="M101 21.7C102.988 21.7 104.6 20.0882 104.6 18.1C104.6 16.1118 102.988 14.5 101 14.5C99.0117 14.5 97.3999 16.1118 97.3999 18.1C97.3999 20.0882 99.0117 21.7 101 21.7Z" fill="#5B6376"/>
<path d="M100.8 31.1C102.512 31.1 103.9 29.7121 103.9 28C103.9 26.2879 102.512 24.9 100.8 24.9C99.0881 24.9 97.7002 26.2879 97.7002 28C97.7002 29.7121 99.0881 31.1 100.8 31.1Z" fill="#5B6376"/>
<path d="M95.5998 37.8C97.1462 37.8 98.3998 36.5464 98.3998 35C98.3998 33.4536 97.1462 32.2 95.5998 32.2C94.0534 32.2 92.7998 33.4536 92.7998 35C92.7998 36.5464 94.0534 37.8 95.5998 37.8Z" fill="#5B6376"/>
<path d="M89.0002 42.3C90.5466 42.3 91.8002 41.0464 91.8002 39.5C91.8002 37.9536 90.5466 36.7 89.0002 36.7C87.4538 36.7 86.2002 37.9536 86.2002 39.5C86.2002 41.0464 87.4538 42.3 89.0002 42.3Z" fill="#5B6376"/>
<path d="M81.6001 43.5C82.9808 43.5 84.1001 42.3807 84.1001 41C84.1001 39.6193 82.9808 38.5 81.6001 38.5C80.2194 38.5 79.1001 39.6193 79.1001 41C79.1001 42.3807 80.2194 43.5 81.6001 43.5Z" fill="#5B6376"/>
<path d="M74.6 42.6C75.7598 42.6 76.7 41.6598 76.7 40.5C76.7 39.3402 75.7598 38.4 74.6 38.4C73.4402 38.4 72.5 39.3402 72.5 40.5C72.5 41.6598 73.4402 42.6 74.6 42.6Z" fill="#5B6376"/>
<path d="M68.7998 40C69.9044 40 70.7998 39.1046 70.7998 38C70.7998 36.8954 69.9044 36 68.7998 36C67.6952 36 66.7998 36.8954 66.7998 38C66.7998 39.1046 67.6952 40 68.7998 40Z" fill="#5B6376"/>
<path d="M63.5002 36.8C64.4943 36.8 65.3002 35.9941 65.3002 35C65.3002 34.0059 64.4943 33.2 63.5002 33.2C62.5061 33.2 61.7002 34.0059 61.7002 35C61.7002 35.9941 62.5061 36.8 63.5002 36.8Z" fill="#5B6376"/>
</g>
<defs>
<clipPath id="clip0">
<rect width="318.7" height="56.1" fill="white"/>
</clipPath>
</defs>
</svg>
