<svg width="240" height="96" viewBox="0 0 240 96" fill="none" xmlns="http://www.w3.org/2000/svg">
<path d="M32.9305 71.978C33.0151 72.8876 32.8888 73.8045 32.5612 74.6573C32.2337 75.5101 31.7138 76.2759 31.0421 76.895C30.0782 77.6442 28.8571 77.9815 27.6453 77.8332C26.8085 77.8523 25.9789 77.674 25.2237 77.313C24.4686 76.9519 23.809 76.4181 23.2984 75.7548C22.401 74.4392 21.9359 72.8766 21.9678 71.2844C21.9998 69.6922 22.5271 68.1496 23.4766 66.871C23.9982 66.3158 24.5708 65.8108 25.1868 65.3626C25.9468 64.9728 26.7913 64.7769 27.6453 64.7926C28.5351 64.8258 29.4189 64.9532 30.2819 65.1726C30.9834 65.3342 31.5958 65.7595 31.9922 66.3603C32.1497 66.5178 32.2382 66.7314 32.2382 66.9541C32.2382 67.1769 32.1497 67.3905 31.9922 67.548C31.8347 67.7055 31.6211 67.7939 31.3984 67.7939C31.1756 67.7939 30.962 67.7055 30.8045 67.548C30.2344 67.1679 29.8663 66.7878 29.4862 66.5978C28.9453 66.3656 28.3645 66.2406 27.776 66.2296C27.1405 66.2129 26.5114 66.3604 25.9496 66.6579C25.3879 66.9554 24.9124 67.3929 24.5692 67.928C23.9442 68.9505 23.6153 70.1264 23.6191 71.3248C23.5645 72.9129 24.1069 74.4638 25.1393 75.6717C25.4326 75.9764 25.7852 76.2179 26.1753 76.3813C26.5654 76.5447 26.9848 76.6266 27.4078 76.6218C28.0522 76.5859 28.6881 76.458 29.2962 76.2418C29.9598 75.9245 30.5127 75.4152 30.8833 74.7799C31.254 74.1446 31.4251 73.4125 31.3746 72.6787V72.1086H29.1537C29.0516 72.1177 28.9487 72.1043 28.8523 72.0693C28.756 72.0343 28.6685 71.9786 28.596 71.9062C28.5235 71.8337 28.4678 71.7462 28.4329 71.6498C28.3979 71.5535 28.3844 71.4506 28.3935 71.3485C28.3935 70.7903 28.5836 70.6003 29.1537 70.6003H31.9922C32.5504 70.6003 32.9305 71.1585 32.9305 71.9186V71.978Z" fill="#5B6376"/>
<path d="M217.222 71.978C217.307 72.8876 217.18 73.8045 216.853 74.6573C216.525 75.5102 216.005 76.2759 215.333 76.895C214.365 77.645 213.14 77.9822 211.925 77.8333C211.088 77.8495 210.26 77.67 209.505 77.3091C208.75 76.9483 208.09 76.416 207.578 75.7548C206.686 74.4367 206.225 72.8741 206.259 71.2827C206.293 69.6913 206.82 68.1497 207.768 66.871C208.288 66.3189 208.857 65.8142 209.466 65.3627C210.227 64.9755 211.071 64.7799 211.925 64.7926C212.819 64.8258 213.706 64.9532 214.573 65.1726C215.271 65.3347 215.88 65.7602 216.272 66.3603C216.393 66.4659 216.478 66.6074 216.514 66.7642C216.55 66.9211 216.535 67.0853 216.471 67.2331C216.408 67.381 216.299 67.505 216.161 67.5872C216.023 67.6694 215.862 67.7056 215.702 67.6905C215.6 67.7021 215.498 67.6911 215.401 67.6582C215.305 67.6254 215.217 67.5715 215.143 67.5005C214.573 67.1204 214.193 66.7404 213.813 66.5503C213.277 66.3167 212.7 66.1915 212.115 66.1822C211.479 66.1642 210.85 66.3112 210.288 66.6089C209.726 66.9065 209.25 67.3446 208.908 67.8805C208.283 68.903 207.954 70.0789 207.958 71.2773C207.905 72.8631 208.442 74.4122 209.466 75.6242C209.761 75.9273 210.114 76.1677 210.503 76.331C210.893 76.4943 211.312 76.577 211.735 76.5743C212.379 76.5408 213.016 76.4128 213.623 76.1943C214.289 75.8797 214.844 75.3709 215.215 74.7349C215.586 74.099 215.755 73.3656 215.702 72.6312V72.0612H213.433C213.332 72.0706 213.229 72.0572 213.133 72.0222C213.037 71.9871 212.95 71.9312 212.879 71.8585C212.807 71.7857 212.753 71.698 212.719 71.6016C212.686 71.5052 212.674 71.4025 212.685 71.3011C212.685 70.7428 212.875 70.5528 213.433 70.5528H216.224C216.388 70.5171 216.557 70.523 216.718 70.5701C216.878 70.6171 217.024 70.7037 217.143 70.822C217.261 70.9403 217.348 71.0864 217.395 71.2469C217.442 71.4074 217.448 71.5771 217.412 71.7405V72.1205L217.222 71.978Z" fill="#5B6376"/>
<path d="M110.996 76.8949C110.996 77.6431 110.806 78.0826 110.236 78.0826C110.136 78.0917 110.034 78.0786 109.939 78.0442C109.844 78.0098 109.758 77.955 109.687 77.8836C109.615 77.8122 109.561 77.726 109.526 77.6311C109.492 77.5362 109.479 77.4349 109.488 77.3343L107.968 66.9303L104.951 77.3343C104.761 77.7025 104.571 77.8925 104.191 77.8925C103.811 77.8925 103.431 77.7025 103.431 77.3343L100.414 66.9303L98.8937 77.3343C98.8937 77.8925 98.5137 78.0826 97.9555 78.0826C97.7317 78.0557 97.5271 77.9427 97.3852 77.7675C97.2433 77.5923 97.1752 77.3688 97.1954 77.1443V76.7642L99.0838 65.8851C99.0864 65.7381 99.1219 65.5935 99.1877 65.462C99.2534 65.3305 99.3478 65.2153 99.4638 65.125C99.6731 64.9246 99.9381 64.7921 100.224 64.7449C100.604 64.7449 100.782 64.7449 100.972 64.935C101.162 65.125 101.352 65.315 101.352 65.5051L104.001 74.7689L106.649 65.2675C106.649 65.0775 106.839 64.8875 107.029 64.6974C107.219 64.5074 107.398 64.5074 107.778 64.5074C108.158 64.5074 108.348 64.5074 108.538 64.6974C108.654 64.7878 108.748 64.9029 108.814 65.0344C108.88 65.166 108.915 65.3106 108.918 65.4576L110.996 76.8949Z" fill="#5B6376"/>
<path d="M140.486 77.085C140.486 77.6432 140.296 78.0233 139.726 78.0233C139.156 78.0233 138.966 77.8333 138.966 77.2751V65.8852C138.966 65.3151 139.156 65.1251 139.726 65.1251C140.296 65.1251 140.486 65.3151 140.486 65.8852V77.085Z" fill="#5B6376"/>
<path d="M178.468 77.085C178.468 77.6432 178.278 77.8333 177.72 77.8333C177.162 77.8333 177.15 77.6432 176.77 77.275L169.964 67.6311V76.895C169.964 77.4532 169.774 77.6432 169.216 77.6432C168.658 77.6432 168.456 77.4532 168.456 76.895V65.5527C168.456 64.9826 168.646 64.7926 169.026 64.7926C169.406 64.7926 169.584 64.9826 169.964 65.3627L176.58 75.0066V65.7427C176.566 65.6397 176.576 65.5349 176.61 65.4364C176.643 65.338 176.699 65.2485 176.772 65.175C176.846 65.1015 176.935 65.0459 177.034 65.0125C177.132 64.9792 177.237 64.9689 177.34 64.9826C177.91 64.9826 178.088 65.1726 178.088 65.7427V77.085H178.468Z" fill="#5B6376"/>
<path d="M70.3539 77.2751C70.3539 77.6432 70.1639 77.8333 69.6057 77.8333C69.5025 77.8458 69.3978 77.8353 69.2992 77.8025C69.2006 77.7696 69.1106 77.7152 69.0356 77.6432C68.8456 77.6432 68.8456 77.6432 68.8456 77.4532L68.0854 75.1847H62.2302L61.0425 77.4532C60.8644 77.8333 60.6743 78.0233 60.2943 78.0233C59.9142 78.0233 59.5342 77.8333 59.5342 77.4532V77.085L63.691 66.1228C63.8811 65.7427 63.8811 65.5527 64.0711 65.3627C64.1461 65.2907 64.2361 65.2363 64.3347 65.2034C64.4333 65.1706 64.538 65.1601 64.6412 65.1726C64.9036 65.1634 65.1632 65.2293 65.3894 65.3627C65.5055 65.453 65.5998 65.5681 65.6656 65.6997C65.7313 65.8312 65.7668 65.9758 65.7695 66.1228L69.9263 77.085C70.3064 77.085 70.3064 77.2751 70.3064 77.2751H70.3539ZM67.4797 73.712L65.0212 66.7166L62.4202 73.6764L67.4797 73.712Z" fill="#5B6376"/>
<path d="M185.653 27.1907C188.474 27.1907 190.76 24.9042 190.76 22.0837C190.76 19.2632 188.474 16.9767 185.653 16.9767C182.833 16.9767 180.546 19.2632 180.546 22.0837C180.546 24.9042 182.833 27.1907 185.653 27.1907Z" fill="#5B6376"/>
<path d="M217.412 22.0837C217.412 23.0938 217.113 24.0812 216.552 24.921C215.99 25.7609 215.193 26.4154 214.26 26.802C213.326 27.1885 212.3 27.2897 211.309 27.0926C210.318 26.8955 209.408 26.4091 208.694 25.6949C207.98 24.9807 207.493 24.0707 207.296 23.08C207.099 22.0894 207.2 21.0625 207.587 20.1293C207.974 19.1962 208.628 18.3986 209.468 17.8374C210.308 17.2762 211.295 16.9767 212.305 16.9767C212.977 16.9736 213.642 17.1035 214.263 17.3591C214.884 17.6146 215.449 17.9906 215.923 18.4655C216.398 18.9404 216.774 19.5046 217.03 20.1256C217.285 20.7467 217.415 21.4122 217.412 22.0837Z" fill="#5B6376"/>
<path d="M185.653 52.1318C188.474 52.1318 190.76 49.8453 190.76 47.0248C190.76 44.2043 188.474 41.9178 185.653 41.9178C182.833 41.9178 180.546 44.2043 180.546 47.0248C180.546 49.8453 182.833 52.1318 185.653 52.1318Z" fill="#5B6376"/>
<path d="M217.412 47.0248C217.415 48.0354 217.117 49.024 216.557 49.8654C215.998 50.7068 215.201 51.3632 214.268 51.7516C213.335 52.1399 212.308 52.2427 211.316 52.047C210.325 51.8513 209.414 51.3659 208.698 50.6521C207.983 49.9384 207.495 49.0284 207.297 48.0374C207.099 47.0464 207.2 46.019 207.586 45.0851C207.972 44.1512 208.627 43.3529 209.467 42.7912C210.307 42.2295 211.295 41.9297 212.305 41.9297C212.976 41.9266 213.64 42.0561 214.261 42.3109C214.881 42.5657 215.445 42.9407 215.919 43.4143C216.394 43.8879 216.77 44.4507 217.026 45.0704C217.283 45.6901 217.414 46.3543 217.412 47.0248Z" fill="#5B6376"/>
<path d="M204.181 34.5543C204.181 35.5644 203.882 36.5518 203.321 37.3916C202.759 38.2315 201.962 38.8861 201.029 39.2726C200.095 39.6591 199.069 39.7603 198.078 39.5632C197.087 39.3662 196.177 38.8798 195.463 38.1655C194.749 37.4513 194.262 36.5413 194.065 35.5507C193.868 34.56 193.969 33.5331 194.356 32.6C194.743 31.6668 195.397 30.8692 196.237 30.308C197.077 29.7468 198.064 29.4473 199.074 29.4473C199.746 29.4442 200.411 29.5741 201.032 29.8297C201.653 30.0852 202.218 30.4613 202.693 30.9361C203.167 31.411 203.543 31.9752 203.799 32.5962C204.054 33.2173 204.184 33.8828 204.181 34.5543Z" fill="#5B6376"/>
<path d="M172.043 50.9918L157.874 17.5468C157.684 17.1667 157.494 16.9767 157.113 16.9767H151.068C150.688 16.9767 150.498 17.1667 150.308 17.5468L135.949 50.9918V51.1818C135.937 51.2583 135.944 51.3365 135.967 51.4102C135.991 51.4839 136.032 51.551 136.086 51.6063C136.14 51.6616 136.206 51.7036 136.279 51.7288C136.353 51.7541 136.431 51.762 136.507 51.7519H142.933C143.313 51.7519 143.503 51.5619 143.693 51.1818L146.721 43.4381H161.84L164.857 51.1818C165.047 51.5619 165.237 51.7519 165.617 51.7519H172.043C172.12 51.7641 172.2 51.7577 172.274 51.7334C172.349 51.709 172.417 51.6674 172.473 51.6118C172.528 51.5562 172.57 51.4883 172.594 51.4136C172.619 51.3389 172.625 51.2594 172.613 51.1818C172.28 51.1818 172.28 50.9918 172.043 50.9918ZM148.8 37.381L154.085 23.9603L159.382 37.381H148.8Z" fill="#5B6376"/>
<path d="M71.3279 27.7489C71.4952 27.0571 71.8159 26.4118 72.2662 25.8605C72.8638 24.9413 73.7188 24.2184 74.7246 23.7821C75.7393 23.326 76.8317 23.068 77.9432 23.022H90.6039C90.8009 23.0082 90.9863 22.9236 91.126 22.784C91.2656 22.6443 91.3502 22.4589 91.364 22.2619V17.725C91.3474 17.53 91.2617 17.3475 91.1223 17.2102C90.9829 17.073 90.799 16.9902 90.6039 16.9767H76.5893C68.8456 16.9767 62.6104 23.7821 62.6104 32.0958V37.0128C62.6104 45.3266 68.8456 52.1319 76.5893 52.1319H90.5801C90.7771 52.1181 90.9626 52.0336 91.1022 51.8939C91.2419 51.7543 91.3264 51.5689 91.3402 51.3718V46.6211C91.3237 46.4262 91.238 46.2436 91.0986 46.1064C90.9592 45.9692 90.7753 45.8864 90.5801 45.8729H77.9195C76.8059 45.8429 75.7103 45.5841 74.7009 45.1128C73.6976 44.6723 72.8437 43.9503 72.2424 43.0343C71.8537 42.4576 71.546 41.8301 71.3279 41.1697C71.0833 40.1785 70.9557 39.162 70.9478 38.1411V37.381H90.6039C90.8009 37.3672 90.9863 37.2826 91.126 37.143C91.2656 37.0033 91.3502 36.8179 91.364 36.6209V31.8702C91.3502 31.6731 91.2656 31.4877 91.126 31.3481C90.9863 31.2084 90.8009 31.1239 90.6039 31.1101H70.9241V30.7419C70.9241 30.7419 71.1141 29.0673 71.3279 27.7489Z" fill="#5B6376"/>
<path d="M114.773 51.7519H126.305C126.686 51.7519 126.876 51.3718 126.876 50.9918V46.2411C126.876 45.861 126.686 45.481 126.305 45.481H115.913C114.983 45.4387 114.076 45.1784 113.265 44.7208C112.413 44.2073 111.7 43.4939 111.186 42.6424C110.682 42.0691 110.411 41.3275 110.426 40.564V17.5468C110.438 17.4692 110.432 17.3897 110.408 17.315C110.383 17.2403 110.342 17.1724 110.286 17.1168C110.231 17.0612 110.163 17.0196 110.088 16.9952C110.013 16.9709 109.934 16.9645 109.856 16.9767H103.811C103.616 16.9902 103.432 17.073 103.292 17.2102C103.153 17.3475 103.067 17.53 103.051 17.7249V34.7444V37.0128V40.7896C103.195 43.7825 104.5 46.6013 106.689 48.6479C108.878 50.6945 111.777 51.8079 114.773 51.7519Z" fill="#5B6376"/>
<path d="M52.7763 50.9918L44.6526 37.381C48.8094 36.4309 51.648 33.5923 51.648 27.357C51.838 19.0433 46.1609 17.1549 39.1655 16.9648H22.348C22.1529 16.9783 21.969 17.0612 21.8296 17.1984C21.6902 17.3356 21.6044 17.5182 21.5879 17.7131V51.1818C21.6017 51.3788 21.6862 51.5642 21.8259 51.7039C21.9656 51.8436 22.151 51.9281 22.348 51.9419H28.3933C28.5903 51.9281 28.7757 51.8436 28.9154 51.7039C29.055 51.5642 29.1396 51.3788 29.1534 51.1818V38.1174H37.6572L45.1989 51.3718C45.2859 51.5454 45.4201 51.691 45.586 51.7918C45.752 51.8926 45.943 51.9447 46.1372 51.9419H52.5625C52.6401 51.9541 52.7196 51.9477 52.7943 51.9234C52.869 51.8991 52.9369 51.8574 52.9925 51.8018C53.0481 51.7463 53.0897 51.6783 53.1141 51.6036C53.1384 51.5289 53.1448 51.4495 53.1326 51.3718C52.7763 51.1818 52.7763 50.9918 52.7763 50.9918ZM39.3555 31.9058L37.4671 32.0958H28.9634V23.212H39.3555C43.3224 23.212 44.4625 25.1004 44.4625 27.5589C44.2725 30.0174 43.1442 31.9058 39.3555 31.9058Z" fill="#5B6376"/>
</svg>
