<svg width="241" height="96" viewBox="0 0 241 96" fill="none" xmlns="http://www.w3.org/2000/svg">
<path d="M45.3768 35.962C45.2873 33.7081 44.5585 31.5262 43.2755 29.6709C42.647 28.9009 41.8449 28.2908 40.9351 27.8905C40.0253 27.4903 39.0336 27.3113 38.0413 27.3683C37.1707 27.3263 36.3007 27.4607 35.4833 27.7634C34.666 28.0661 33.9183 28.5309 33.2852 29.1298C32.7013 29.7218 32.244 30.4265 31.9412 31.2009C31.6383 31.9753 31.4963 32.8032 31.5236 33.6343C31.458 35.6617 32.195 37.6331 33.5746 39.1202C35.5035 40.9978 37.6105 42.6834 39.8657 44.1531C41.3698 45.1038 42.8229 46.1328 44.2192 47.2358C45.346 48.196 46.3783 49.262 47.3019 50.4191C48.3289 51.6455 49.1414 53.0365 49.7051 54.5335C50.359 56.2345 50.6752 58.0465 50.6362 59.8684C50.7269 61.4982 50.4922 63.1298 49.9456 64.6679C49.3991 66.206 48.5517 67.6199 47.4529 68.827C45.3768 70.9786 42.3444 72.0104 38.4313 72.0104C36.7729 72.0921 35.1176 71.7946 33.5914 71.1405C32.0652 70.4865 30.7083 69.493 29.6237 68.2357C27.3771 65.4766 26.1941 62.0034 26.2894 58.4466H31.0455C30.9822 60.8533 31.7214 63.2127 33.1468 65.153C33.8498 65.9695 34.7328 66.6115 35.7263 67.0286C36.7198 67.4456 37.7965 67.6262 38.8717 67.5562C39.8343 67.6071 40.7966 67.4503 41.6932 67.0964C42.5899 66.7426 43.3998 66.1999 44.0682 65.5053C45.412 63.8735 46.0785 61.7884 45.9304 59.6797C45.9832 57.5494 45.2125 55.4809 43.7788 53.9044C41.7743 51.8451 39.5411 50.0214 37.1228 48.4688C35.5206 47.3868 34.1617 46.3844 33.0461 45.4617C31.9476 44.5574 30.9172 43.5733 29.9634 42.5174C28.9655 41.4151 28.1843 40.1345 27.6609 38.7427C27.0588 37.2478 26.7595 35.6483 26.7801 34.0369C26.7234 32.5436 26.9771 31.0547 27.525 29.6643C28.0729 28.2739 28.9032 27.0123 29.9634 25.9591C32.2279 23.8933 35.218 22.8076 38.2803 22.9393C39.8461 22.8787 41.4067 23.1526 42.8582 23.7427C44.3097 24.3329 45.6187 25.2257 46.6979 26.3617C48.7992 28.614 49.9316 31.7973 50.1203 35.962H45.3768ZM84.0171 58.736C83.5143 61.4114 82.5884 63.9896 81.2741 66.3735C80.2905 68.1665 78.8602 69.6748 77.1219 70.7521C75.4019 71.653 73.4756 72.0869 71.5354 72.0104C69.6113 72.0863 67.7014 71.6522 65.9992 70.7521C64.2352 69.7143 62.7801 68.2244 61.7841 66.4364C60.4479 64.0624 59.5206 61.4806 59.0412 58.7989C58.3439 55.1037 58.0151 51.3483 58.0597 47.5881C58.0111 43.7902 58.3398 39.9969 59.0412 36.264C59.5056 33.5856 60.4157 31.004 61.7338 28.6265C62.6731 26.8576 64.0893 25.3871 65.8217 24.3819C67.5541 23.3768 69.5335 22.877 71.5354 22.9393C73.485 22.904 75.4103 23.3766 77.1219 24.3108C78.8845 25.3301 80.3236 26.826 81.2741 28.6265C82.5919 31.0041 83.5021 33.5857 83.9667 36.264C84.6702 39.9966 84.999 43.7901 84.9481 47.5881C84.9682 51.3473 84.6396 55.1003 83.9667 58.7989L84.0171 58.736ZM79.1729 37.6355C78.9069 35.5019 78.3127 33.4222 77.4113 31.4701C76.858 30.19 75.9608 29.0881 74.8194 28.2868C73.8155 27.6795 72.6646 27.3585 71.4914 27.3585C70.3181 27.3585 69.1672 27.6795 68.1633 28.2868C67.0219 29.0881 66.1247 30.19 65.5714 31.4701C64.7058 33.4353 64.1131 35.5096 63.8099 37.6355C63.3321 40.9096 63.1175 44.2168 63.1682 47.5252C63.1176 50.8336 63.3322 54.1407 63.8099 57.4149C64.0758 59.5485 64.67 61.6281 65.5714 63.5802C66.1247 64.8604 67.0219 65.9622 68.1633 66.7635C69.1672 67.3708 70.3181 67.6919 71.4914 67.6919C72.6646 67.6919 73.8155 67.3708 74.8194 66.7635C75.9608 65.9622 76.858 64.8604 77.4113 63.5802C78.277 61.615 78.8696 59.5407 79.1729 57.4149C79.6506 54.1407 79.8651 50.8336 79.8146 47.5252C79.8652 44.2168 79.6506 40.9096 79.1729 37.6355ZM93.5167 23.6314H113.988V27.9723H98.6629V44.2412H110.214V48.6072H98.7006V71.3309H93.5545V23.6188L93.5167 23.6314ZM145.105 23.6314V27.9723H135.378V71.3812H130.232V27.9723H120.405V23.5684L145.105 23.6314Z" fill="#5B6376"/>
<path d="M150.729 23.6187H163.412C164.938 23.5383 166.464 23.7802 167.89 24.3286C169.317 24.8771 170.612 25.7199 171.691 26.802C173.746 29.1709 174.813 32.2379 174.673 35.3705C174.732 37.7117 174.121 40.021 172.911 42.0266C171.641 43.9753 169.682 45.3728 167.426 45.9397V46.0907C169.985 46.6683 172.233 48.1918 173.717 50.3561C175.167 52.6982 175.894 55.4163 175.805 58.1697C175.805 66.9773 170.772 71.3937 160.48 71.3937H150.829V23.5809L150.729 23.6187ZM155.875 44.1404H158.769C162.544 44.1404 165.287 43.461 166.947 42.1776C168.608 40.8942 169.464 38.6042 169.464 35.4209C169.464 32.7283 168.826 30.8199 167.551 29.6959C166.293 28.5635 164.079 28.0351 160.983 28.0351H155.837V44.1404H155.875ZM155.875 67.0151H161.021C163.587 67.1991 166.13 66.4333 168.168 64.8635C169.728 63.4417 170.609 61.1895 170.609 58.1697C170.609 54.936 169.829 52.5328 168.306 50.9223C166.784 49.3118 164.393 48.5191 161.059 48.5191H155.913L155.875 67.0151ZM205.776 23.6187V27.9721H189.117V44.2411H201.41V48.6071H189.117V66.9773H206.557V71.3308H183.908V23.6187H205.751H205.776ZM235.798 23.6187V27.9721H225.971V71.3811H220.825V27.9721H211.036V23.5683L235.798 23.6187ZM9.31589 43.2093V72.0102H14.2607V43.2093C13.4672 43.4622 12.64 43.5937 11.8072 43.5994C10.9536 43.5952 10.1055 43.4638 9.29071 43.2093H9.31589ZM11.9078 26.953C12.7635 26.953 13.5999 27.2075 14.3107 27.684C15.0214 28.1604 15.5745 28.8375 15.8996 29.629C16.2248 30.4205 16.3072 31.2908 16.1366 32.1294C15.9659 32.9679 15.5499 33.7367 14.9413 34.3382C14.3327 34.9398 13.559 35.3468 12.7185 35.5076C11.8781 35.6684 11.0088 35.5757 10.2211 35.2413C9.43343 34.9069 8.76296 34.3459 8.29485 33.6296C7.82673 32.9133 7.58212 32.074 7.5921 31.2184C7.60527 30.0869 8.06234 29.0058 8.86484 28.208C9.66735 27.4102 10.7511 26.9595 11.8827 26.953H11.9078ZM11.9078 23.0399C10.2853 23.0449 8.7007 23.5309 7.35439 24.4364C6.00808 25.342 4.96054 26.6265 4.34423 28.1274C3.72792 29.6283 3.57053 31.2783 3.89195 32.8686C4.21337 34.459 4.99917 35.9184 6.14999 37.0621C7.3008 38.2059 8.76495 38.9828 10.3573 39.2944C11.9496 39.6061 13.5986 39.4387 15.0957 38.8131C16.5928 38.1875 17.8708 37.1321 18.7681 35.7803C19.6654 34.4285 20.1416 32.8409 20.1367 31.2184C20.1334 30.1389 19.9171 29.0707 19.5002 28.075C19.0833 27.0793 18.474 26.1757 17.7072 25.4159C16.9404 24.6562 16.0312 24.0552 15.0317 23.6475C14.0322 23.2397 12.9621 23.0333 11.8827 23.0399H11.9078Z" fill="#5B6376"/>
</svg>
