<svg width="157" height="72" viewBox="0 0 157 72" fill="none" xmlns="http://www.w3.org/2000/svg">
<g clip-path="url(#clip0_701_104)">
<path d="M139.722 24.004C139.234 24 138.733 24 138.223 24C137.712 24 137.212 24 136.723 24.004C131.881 24.0484 128.168 24.5288 128.168 29.7603V41.7573C128.168 47.4228 131.881 47.9415 136.723 47.9899C137.212 47.9939 137.712 47.9939 138.223 47.9939C138.733 47.9939 139.234 47.9939 139.722 47.9899C144.564 47.9415 148.278 47.4228 148.278 41.7573V29.7603C148.278 24.5288 144.564 24.0484 139.722 24.004ZM139.722 31.5001V43.4951C139.722 44.3226 139.05 44.9947 138.223 44.9947C137.809 44.9947 137.434 44.8272 137.163 44.5547C136.893 44.2842 136.723 43.9088 136.723 43.4951V28.4989C136.723 27.6713 137.395 26.9992 138.223 26.9992C138.637 26.9992 139.012 27.1668 139.282 27.4392C139.553 27.7097 139.722 28.0851 139.722 28.4989V31.5001V31.5001Z" fill="#5C6374"/>
<path d="M99.7958 24.0061H83.1325V29.7018C83.1325 29.8693 83.2677 30.0046 83.4352 30.0046H99.7958C99.9633 30.0046 100.099 29.8693 100.099 29.7018V24.3088C100.099 24.1413 99.9633 24.0061 99.7958 24.0061V24.0061Z" fill="#5C6374"/>
<path d="M103.346 24.3351L105.508 47.7235C105.522 47.8789 105.653 47.998 105.808 47.998H113.757C113.934 47.998 114.073 47.8446 114.057 47.667L111.896 24.2806C111.882 24.1252 111.75 24.0061 111.595 24.0061H103.647C103.469 24.0061 103.33 24.1595 103.346 24.3371V24.3351Z" fill="#5C6374"/>
<path d="M115.622 48H123.57C123.725 48 123.856 47.8809 123.87 47.7255L126.032 24.335C126.048 24.1574 125.909 24.004 125.731 24.004H117.783C117.628 24.004 117.497 24.1231 117.482 24.2785L115.321 47.667C115.305 47.8446 115.444 47.998 115.622 47.998V48Z" fill="#5C6374"/>
<path d="M51.1399 28.5049C51.1399 27.6612 50.4435 26.9811 49.5938 27.0053C48.7441 27.0295 48.1406 27.746 48.1406 28.5675V47.6912C48.1406 47.8587 48.0054 47.9939 47.8379 47.9939L39.8876 47.998C39.7201 47.998 39.5849 47.8627 39.5849 47.6952V24.3068C39.5849 24.1393 39.7201 24.004 39.8876 24.004H48.1406V24.0081C48.6291 24.004 49.1296 24.004 49.6402 24.004C50.1509 24.004 50.6514 24.004 51.1399 24.0081C55.9818 24.0525 59.6956 24.0081 59.6956 29.7623C59.6956 35.335 56.7266 35.888 52.6395 35.9748V35.9949H53.6608C56.995 35.9949 59.6956 38.6975 59.6956 42.0298V47.6892C59.6956 47.8567 59.5603 47.9919 59.3928 47.9919H51.4426C51.2751 47.9919 51.1399 47.8567 51.1399 47.6892V28.5049Z" fill="#5C6374"/>
<path d="M18.677 39.9933L16.4608 32.0067L18.677 31.9966L16.5214 24.2321C16.4851 24.1009 16.366 24.0101 16.2287 24.0101H8.30274C8.10293 24.0101 7.95761 24.1998 8.0121 24.3936L10.1213 31.9966L8.30274 32.0067C8.10293 32.0067 7.95761 32.1985 8.01009 32.3902L10.1213 39.9933L8.30274 40.0034C8.10293 40.0034 7.95761 40.1951 8.01009 40.3869L10.0587 47.7679C10.095 47.8991 10.2141 47.9899 10.3514 47.9899H18.677L16.4608 40.0034L18.677 39.9933V39.9933Z" fill="#5C6374"/>
<path d="M22.0961 40.0034L19.8799 47.9899H28.2055C28.3408 47.9899 28.4619 47.8991 28.4982 47.7679L30.5468 40.3869C30.6013 40.1931 30.456 40.0034 30.2542 40.0034L28.4356 39.9933L30.5468 32.3902C30.6013 32.1965 30.456 32.0067 30.2542 32.0067L28.4356 31.9966L30.5448 24.3936C30.5993 24.1998 30.454 24.0101 30.2521 24.0101H22.3241C22.1889 24.0101 22.0678 24.1009 22.0315 24.2321L19.8759 31.9966L22.092 32.0067L19.8759 39.9933L22.092 40.0034H22.0961Z" fill="#5C6374"/>
<path d="M62.9491 24.0061H79.6125C79.78 24.0061 79.9152 24.1413 79.9152 24.3088V29.7018C79.9152 29.8693 79.78 30.0046 79.6125 30.0046H68.9476V33.0038H79.6125C79.78 33.0038 79.9152 33.139 79.9152 33.3066V38.6995C79.9152 38.8671 79.78 39.0023 79.6125 39.0023H63.2519C63.0844 39.0023 62.9491 38.8671 62.9491 38.6995V24.0061V24.0061Z" fill="#5C6374"/>
<path d="M62.9491 48H79.6125C79.78 48 79.9152 47.8648 79.9152 47.6973V42.3043C79.9152 42.1368 79.78 42.0015 79.6125 42.0015H63.2519C63.0844 42.0015 62.9491 42.1368 62.9491 42.3043V48Z" fill="#5C6374"/>
<path d="M83.1325 48H99.7958C99.9633 48 100.099 47.8648 100.099 47.6972V42.3043C100.099 42.1367 99.9633 42.0015 99.7958 42.0015H89.1309V39.0023H99.7958C99.9633 39.0023 100.099 38.867 100.099 38.6995V33.3065C100.099 33.139 99.9633 33.0038 99.7958 33.0038H83.4352C83.2677 33.0038 83.1325 33.139 83.1325 33.3065V48V48Z" fill="#5C6374"/>
</g>
<defs>
<clipPath id="clip0_701_104">
<rect width="140.278" height="24" fill="white" transform="translate(8 24)"/>
</clipPath>
</defs>
</svg>
