<svg width="240" height="96" viewBox="0 0 240 96" fill="none" xmlns="http://www.w3.org/2000/svg">
<path d="M218.461 66.7C210.942 66.7 18.7274 66.7 11.2087 66.7C6.58159 66.7 2.24381 62.5424 3.1115 57.7907C3.69002 53.039 6.58159 45.318 8.02798 40.5663C9.76285 34.9239 15.2573 30.7667 19.5951 30.7667H228.005C234.656 31.0633 237.259 37.0028 235.813 41.4574C234.367 46.2091 232.053 53.6331 230.608 58.0882C229.45 61.9483 223.088 66.7 218.461 66.7Z" fill="#5B6376"/>
<path fillRule="evenodd" clipRule="evenodd" d="M40.4692 36.8999L33.5482 58.4748H50.0524L53.247 47.9508H47.9228L46.326 53.2131H41.0019L45.7933 36.8999H40.4692ZM64.7423 36.8999H70.053C72.7081 36.8999 74.3003 39.5309 73.2385 42.1627L67.9276 58.4748H62.6169L64.2097 53.2126H59.431L57.838 58.4748H51.9963L57.3069 42.1627C58.3693 39.5309 61.0245 36.8999 64.7423 36.8999ZM60.4928 47.9504H65.8034L67.3962 42.6877H62.0856L60.4928 47.9504ZM84.8262 48.0493H79.613L82.7407 37.5253H77.0068L73.3582 48.5752C72.837 51.2061 74.3998 53.8373 77.0068 53.8373L75.4431 59.1001H80.6558L82.2191 53.8373C85.8678 53.8373 88.4745 51.2061 88.9955 48.5752L92.6444 37.5253H87.4312L84.8262 48.0493ZM94.2077 44.4042H101.747L103.901 37.5253H96.3628L94.2077 44.4042ZM111.181 48.9654L108.578 58.4748H113.783L116.906 48.4368C117.426 45.7953 116.386 43.1535 113.263 43.1535H108.057C104.414 43.1535 101.812 45.7953 100.77 48.4368L97.6474 58.4748H103.373L105.975 48.9654H111.181ZM22.0082 36.8999H32.6359C35.8244 36.8999 37.4185 39.5309 36.8868 42.6878C36.8868 42.6878 35.293 46.8981 34.7614 48.4767C32.6359 53.2125 27.3222 53.2125 27.3222 53.2125H22.5396L20.9458 58.4748H15.1001L22.0082 36.8999ZM24.1343 47.9508H29.4483L31.0421 42.6878H25.7281L24.1343 47.9508Z" fill="#1E222E"/>
<path d="M189.24 81C175.241 81 147.782 81 133.783 81C125.168 81 117.092 73.3636 118.708 64.636C119.785 55.9083 125.168 41.727 127.861 32.9994C131.091 22.6358 141.321 15 149.397 15H207.008C219.392 15.5448 224.238 26.4542 221.545 34.636C218.854 43.3636 214.546 56.9995 211.854 65.1824C209.7 72.2724 197.854 81 189.24 81Z" fill="#5B6376"/>
<path d="M206.069 21.2333C206.069 21.2333 197.226 21.2333 194.105 21.2333C185.262 21.2333 177.979 26.944 175.899 34.212L169.657 53.9395C162.894 71.0711 171.737 73.6667 177.459 73.6667C181.1 73.6667 184.741 73.6667 187.342 73.6667C194.624 73.6667 202.947 68.4752 205.028 61.2075L213.351 34.7314C215.952 28.5013 212.311 21.2333 206.069 21.2333ZM192.545 60.688H180.581L188.904 34.7314H200.868L192.545 60.688ZM147.29 53.9395H153.532L151.971 60.688H139.487L141.048 54.9774L141.568 53.9395L145.729 40.9608L147.289 34.7314H171.737V34.212L175.378 21.7528C175.378 21.7528 155.092 21.7528 151.971 21.7528C143.128 21.7528 135.846 28.5013 134.285 33.6928L128.043 53.42C120.761 72.1096 130.644 73.6667 136.366 73.6667C140.008 73.6667 143.648 73.6667 146.249 73.6667C155.612 73.6667 161.854 67.956 163.935 61.2075L169.657 41.48H151.451L147.29 53.9395Z" fill="#1E222E"/>
</svg>
