<svg width="240" height="80" viewBox="0 0 240 80" fill="none" xmlns="http://www.w3.org/2000/svg">
<path d="M40.4516 65.8514H62.6905C67.7799 65.8514 67.8269 60.4422 67.3095 57.7799C67.0273 55.9831 63.9793 56.0019 63.6407 57.7799V59.8589C63.6382 60.3172 63.455 60.7561 63.1309 61.0801C62.8069 61.4042 62.368 61.5874 61.9097 61.5899H19.2098C18.7507 61.5899 18.3104 61.4075 17.9858 61.0829C17.6612 60.7583 17.4788 60.318 17.4788 59.8589V57.8175C17.1402 56.0395 14.0922 56.0207 13.81 57.8175C13.2926 60.4892 13.3396 65.889 18.429 65.889H40.4516V65.8514ZM24.6661 14.111H59.0122C60.2083 14.1504 61.3404 14.661 62.1616 15.5315C62.9828 16.402 63.4265 17.5619 63.3961 18.7582V20.9784C63.4239 21.2744 63.3897 21.5729 63.2955 21.855C63.2014 22.137 63.0493 22.3962 62.8492 22.6161C62.6491 22.8359 62.4052 23.0116 62.1333 23.1318C61.8614 23.252 61.5673 23.3141 61.27 23.3141C60.9727 23.3141 60.6786 23.252 60.4067 23.1318C60.1348 23.0116 59.8909 22.8359 59.6908 22.6161C59.4907 22.3962 59.3386 22.137 59.2445 21.855C59.1503 21.5729 59.1161 21.2744 59.1439 20.9784V19.7554C59.1439 19.3837 58.9963 19.0271 58.7334 18.7643C58.4705 18.5014 58.114 18.3537 57.7423 18.3537H23.3302C22.9585 18.3537 22.6019 18.5014 22.3391 18.7643C22.0762 19.0271 21.9285 19.3837 21.9285 19.7554V20.9407C21.9285 24.064 17.874 24.0358 17.874 21.0066V18.7582C17.8436 17.5603 18.2886 16.3991 19.1118 15.5283C19.935 14.6575 21.0694 14.1479 22.2672 14.111H24.6661Z" fill="#5B6376"/>
<path d="M62.5306 39.6143C63.7081 40.1412 64.7113 40.9926 65.4227 42.0688C66.1341 43.145 66.5242 44.4016 66.5475 45.6914C66.4813 47.558 65.6776 49.3222 64.3127 50.5972C62.9478 51.8721 61.133 52.5539 59.2662 52.4929H48.1185C47.637 52.4937 47.1734 52.3097 46.8234 51.979C46.4734 51.6482 46.2635 51.1958 46.2371 50.715V29.4356C46.2371 28.9366 46.4353 28.458 46.7881 28.1052C47.141 27.7523 47.6195 27.5541 48.1185 27.5541H57.3848C58.7822 27.5504 60.1499 27.9584 61.3168 28.7273C62.4837 29.4962 63.3983 30.5919 63.9463 31.8774C64.4942 33.163 64.6513 34.5815 64.3978 35.9559C64.1444 37.3302 63.4916 38.5993 62.5212 39.6049L62.5306 39.6143ZM54.1863 37.8834H57.7328C58.522 37.75 59.2385 37.3414 59.7551 36.73C60.2717 36.1187 60.5551 35.3441 60.555 34.5438C60.5525 33.6488 60.1959 32.7912 59.5631 32.1584C58.9303 31.5256 58.0727 31.169 57.1778 31.1665H50.0282V48.7865H59.0969C59.99 48.74 60.8312 48.3526 61.4469 47.704C62.0626 47.0555 62.4059 46.1953 62.4059 45.301C62.4059 44.4068 62.0626 43.5466 61.4469 42.898C60.8312 42.2495 59.99 41.862 59.0969 41.8156H54.1863C53.6661 41.8156 53.1672 41.609 52.7993 41.2411C52.4315 40.8733 52.2248 40.3744 52.2248 39.8542C52.2248 39.334 52.4315 38.8351 52.7993 38.4673C53.1672 38.0994 53.6661 37.8928 54.1863 37.8928" fill="#5B6376"/>
<path d="M44.4403 50.3668C44.4959 50.6714 44.4881 50.9841 44.4173 51.2855C44.3465 51.5869 44.2142 51.8704 44.0287 52.1183C43.8432 52.3661 43.6085 52.573 43.3393 52.726C43.0702 52.8789 42.7723 52.9746 42.4644 53.0071C42.1565 53.0396 41.8453 53.0081 41.5501 52.9147C41.255 52.8213 40.9823 52.6679 40.7491 52.4642C40.516 52.2605 40.3275 52.0108 40.1953 51.7309C40.0632 51.4509 39.9903 51.1466 39.9812 50.8372L38.0997 33.904L31.6181 50.4703C31.5019 50.6918 31.3492 50.8921 31.1665 51.063C31.048 51.1673 30.9187 51.2588 30.7808 51.3358H30.5174C30.3053 51.4093 30.0833 51.4505 29.8589 51.4581H29.699C29.4477 51.4494 29.1996 51.3986 28.9652 51.3075H28.777C28.6572 51.2397 28.5438 51.161 28.4384 51.0724L28.3631 51.0065L28.3067 50.9501L28.2502 50.8936L28.1844 50.8184C27.9776 50.841 27.7686 50.8346 27.5635 50.7995V50.649L20.9125 33.9228L19.031 50.856C18.9291 51.4136 18.6203 51.9121 18.1664 52.2518C17.7126 52.5914 17.1472 52.747 16.5835 52.6876C16.0198 52.6281 15.4993 52.3579 15.1263 51.9311C14.7533 51.5042 14.5553 50.9522 14.572 50.3856L16.7357 30.4327C16.8352 29.6099 17.2036 28.843 17.7837 28.251C18.3637 27.6591 19.123 27.2752 19.9436 27.1589H20.0659C20.2537 27.1448 20.4424 27.1448 20.6303 27.1589C20.8585 27.1696 21.0852 27.2011 21.3076 27.253C21.8931 27.3885 22.4365 27.6651 22.8907 28.0586C23.3448 28.4521 23.6959 28.9506 23.9135 29.5107L29.4638 43.6217L35.0141 29.5107C35.2316 28.9506 35.5828 28.4521 36.0369 28.0586C36.4911 27.6651 37.0345 27.3885 37.6199 27.253C37.8424 27.2011 38.0691 27.1696 38.2973 27.1589C38.4852 27.1448 38.6738 27.1448 38.8617 27.1589H38.984C39.8046 27.2752 40.5639 27.6591 41.1439 28.251C41.724 28.843 42.0924 29.6099 42.1919 30.4327L44.4403 50.3668Z" fill="#5B6376"/>
<path d="M111.684 32.6811C111.684 32.2445 111.857 31.8258 112.166 31.517C112.475 31.2083 112.894 31.0349 113.33 31.0349C113.767 31.0349 114.186 31.2083 114.494 31.517C114.803 31.8258 114.976 32.2445 114.976 32.6811V41.5805C114.972 43.5375 114.192 45.413 112.808 46.7968C111.424 48.1806 109.549 48.9603 107.592 48.9652C105.635 48.9603 103.759 48.1806 102.375 46.7968C100.992 45.413 100.212 43.5375 100.207 41.5805V32.6811C100.207 32.2445 100.38 31.8258 100.689 31.517C100.998 31.2083 101.417 31.0349 101.853 31.0349C102.29 31.0349 102.709 31.2083 103.017 31.517C103.326 31.8258 103.5 32.2445 103.5 32.6811V41.5805C103.507 42.6676 103.943 43.708 104.712 44.4759C105.482 45.2437 106.523 45.6772 107.611 45.6821C108.698 45.6747 109.738 45.2389 110.506 44.4692C111.274 43.6996 111.707 42.6582 111.712 41.5711L111.684 32.6811Z" fill="#5B6376"/>
<path d="M127.234 45.6915C127.671 45.6915 128.09 45.8649 128.398 46.1737C128.707 46.4824 128.881 46.9011 128.881 47.3378C128.881 47.7744 128.707 48.1931 128.398 48.5019C128.09 48.8106 127.671 48.984 127.234 48.984H122.691C121.052 48.9816 119.481 48.3296 118.323 47.171C117.164 46.0125 116.512 44.4419 116.51 42.8034V32.6811C116.51 32.2445 116.683 31.8258 116.992 31.517C117.301 31.2083 117.72 31.0349 118.156 31.0349C118.593 31.0349 119.012 31.2083 119.32 31.517C119.629 31.8258 119.802 32.2445 119.802 32.6811V42.794C119.81 43.5618 120.119 44.2959 120.663 44.838C121.206 45.38 121.942 45.6866 122.709 45.6915H127.253H127.234Z" fill="#5B6376"/>
<path d="M99.5672 47.1402C99.6064 47.361 99.6 47.5874 99.5486 47.8056C99.4971 48.0239 99.4016 48.2293 99.2679 48.4093C99.1342 48.5893 98.9651 48.7401 98.7711 48.8524C98.577 48.9647 98.3621 49.0362 98.1394 49.0625C97.9168 49.0889 97.6911 49.0694 97.4762 49.0054C97.2613 48.9414 97.0618 48.8341 96.8898 48.6902C96.7179 48.5464 96.5771 48.3689 96.4762 48.1687C96.3753 47.9684 96.3163 47.7497 96.3029 47.5259L94.8918 35.6727L89.8589 47.3378C89.731 47.6319 89.52 47.8824 89.2518 48.0583C88.9836 48.2342 88.6698 48.3279 88.349 48.3279C88.0282 48.3279 87.7145 48.2342 87.4462 48.0583C87.178 47.8824 86.967 47.6319 86.8391 47.3378L81.8438 35.6727L80.4327 47.5259C80.3816 47.9625 80.1591 48.3609 79.8142 48.6335C79.4693 48.9061 79.0302 49.0305 78.5936 48.9793C78.157 48.9282 77.7586 48.7057 77.486 48.3608C77.2134 48.0159 77.089 47.5768 77.1402 47.1402L78.777 33.3773C78.8293 32.9445 78.9881 32.5314 79.2393 32.1751C79.4906 31.8188 79.8263 31.5305 80.2164 31.3359L80.5362 31.1948H80.6679C80.8277 31.1463 80.9914 31.1117 81.1571 31.0913C81.5694 31.0353 81.9891 31.0713 82.3859 31.1965C82.7827 31.3217 83.147 31.5332 83.4525 31.8157C83.5771 31.9334 83.6905 32.0626 83.7912 32.2014C83.8607 32.3005 83.9235 32.4043 83.9793 32.5118C84.0148 32.5691 84.0462 32.6288 84.0734 32.6905L88.3349 42.5776L92.5964 32.6905C92.7657 32.301 93.0241 31.9567 93.351 31.6854C93.6778 31.4141 94.0638 31.2235 94.4779 31.1289C94.6536 31.0842 94.8331 31.0558 95.0141 31.0443H95.5221C95.9406 31.0966 96.3421 31.242 96.697 31.47C97.0519 31.6979 97.3512 32.0025 97.5729 32.3613C97.719 32.6059 97.8239 32.8728 97.8833 33.1515C97.8877 33.2236 97.8877 33.2958 97.8833 33.3679L99.5672 47.1402Z" fill="#5B6376"/>
<path d="M134.431 47.3378C134.431 47.7744 134.257 48.1931 133.949 48.5019C133.64 48.8106 133.221 48.984 132.785 48.984C132.348 48.984 131.929 48.8106 131.62 48.5019C131.312 48.1931 131.138 47.7744 131.138 47.3378V34.3274H126.435C125.998 34.3274 125.579 34.154 125.271 33.8452C124.962 33.5365 124.788 33.1178 124.788 32.6811C124.788 32.2445 124.962 31.8258 125.271 31.517C125.579 31.2083 125.998 31.0349 126.435 31.0349H139.097C139.534 31.0349 139.952 31.2083 140.261 31.517C140.57 31.8258 140.743 32.2445 140.743 32.6811C140.743 33.1178 140.57 33.5365 140.261 33.8452C139.952 34.154 139.534 34.3274 139.097 34.3274H134.393L134.431 47.3378Z" fill="#5B6376"/>
<path d="M144.694 47.3378C144.694 47.7744 144.521 48.1931 144.212 48.5019C143.903 48.8106 143.485 48.984 143.048 48.984C142.611 48.984 142.193 48.8106 141.884 48.5019C141.575 48.1931 141.402 47.7744 141.402 47.3378V32.6811C141.402 32.2445 141.575 31.8258 141.884 31.517C142.193 31.2083 142.611 31.0349 143.048 31.0349C143.485 31.0349 143.903 31.2083 144.212 31.517C144.521 31.8258 144.694 32.2445 144.694 32.6811V47.3378Z" fill="#5B6376"/>
<path d="M178.457 47.1402C178.495 47.3603 178.488 47.5858 178.437 47.8031C178.385 48.0204 178.29 48.2249 178.157 48.4042C178.023 48.5834 177.855 48.7337 177.662 48.8459C177.469 48.958 177.255 49.0297 177.033 49.0565C176.811 49.0834 176.586 49.0648 176.372 49.002C176.158 48.9392 175.958 48.8334 175.786 48.6911C175.614 48.5487 175.473 48.3729 175.371 48.1742C175.269 47.9755 175.208 47.7581 175.193 47.5353L174.61 42.8881H168.909C168.472 42.8881 168.053 42.7146 167.745 42.4059C167.436 42.0972 167.262 41.6784 167.262 41.2418C167.262 40.8052 167.436 40.3864 167.745 40.0777C168.053 39.769 168.472 39.5955 168.909 39.5955H174.205L174.036 38.382C174.036 38.382 174.036 38.3067 174.036 38.2691C173.993 37.9859 173.93 37.7061 173.848 37.4318C173.759 37.1344 173.646 36.8449 173.509 36.5663C173.219 35.9205 172.753 35.3695 172.163 34.9768C171.574 34.5841 170.886 34.3655 170.179 34.3462C169.9 34.3477 169.622 34.3824 169.351 34.4497C169.096 34.5116 168.85 34.6032 168.617 34.7225C167.965 35.1006 167.416 35.6327 167.017 36.2724C166.619 36.912 166.383 37.6396 166.331 38.3914L165.306 47.5353C165.297 47.7614 165.243 47.9834 165.145 48.1875C165.047 48.3915 164.908 48.5731 164.737 48.7211C164.566 48.869 164.366 48.9801 164.15 49.0474C163.934 49.1146 163.706 49.1366 163.481 49.112C163.256 49.0874 163.039 49.0166 162.843 48.9042C162.646 48.7918 162.475 48.6401 162.34 48.4586C162.205 48.2771 162.109 48.0697 162.057 47.8493C162.006 47.629 162 47.4004 162.041 47.1778L163.067 38.0339C163.179 36.7402 163.608 35.4941 164.317 34.4061C165.026 33.3182 165.993 32.4219 167.131 31.7968C167.594 31.5612 168.083 31.3812 168.589 31.2606C169.113 31.1347 169.649 31.0715 170.188 31.0725C171.508 31.0803 172.798 31.4653 173.906 32.182C175.015 32.8986 175.895 33.9172 176.444 35.1176C176.669 35.5648 176.855 36.0306 176.999 36.5099C177.13 36.9473 177.227 37.3938 177.291 37.8457C177.294 37.8959 177.294 37.9461 177.291 37.9963L178.457 47.1402Z" fill="#5B6376"/>
<path d="M183.5 47.3378C183.5 47.7744 183.326 48.1931 183.017 48.5019C182.709 48.8106 182.29 48.984 181.853 48.984C181.417 48.984 180.998 48.8106 180.689 48.5019C180.38 48.1931 180.207 47.7744 180.207 47.3378V33.7253C180.199 33.6315 180.199 33.537 180.207 33.4431C180.229 33.2598 180.273 33.0797 180.339 32.9069C180.377 32.8073 180.421 32.7099 180.47 32.6153C180.75 32.1063 181.21 31.7204 181.759 31.5334L181.985 31.477H182.164C182.295 31.4662 182.427 31.4662 182.559 31.477C182.897 31.4898 183.227 31.5765 183.528 31.7309C183.829 31.8853 184.092 32.1037 184.299 32.3707L193.133 43.4619V32.6811C193.133 32.2445 193.306 31.8258 193.615 31.517C193.924 31.2083 194.342 31.0349 194.779 31.0349C195.216 31.0349 195.634 31.2083 195.943 31.517C196.252 31.8258 196.425 32.2445 196.425 32.6811V46.2277C196.427 46.5736 196.35 46.9154 196.202 47.228C196.054 47.5406 195.838 47.816 195.569 48.0339C195.463 48.1186 195.35 48.1942 195.23 48.2597L195.024 48.3632L194.892 48.4196C194.605 48.5199 194.301 48.5623 193.997 48.5446C193.694 48.5268 193.397 48.4492 193.123 48.3161L192.907 48.2032C192.79 48.1316 192.68 48.0497 192.578 47.9586C192.504 47.8916 192.434 47.8193 192.371 47.7423L192.314 47.6764L183.5 36.5005V47.3378Z" fill="#5B6376"/>
<path d="M209.2 45.6915C209.637 45.6915 210.056 45.8649 210.364 46.1737C210.673 46.4824 210.847 46.9011 210.847 47.3378C210.847 47.7744 210.673 48.1931 210.364 48.5019C210.056 48.8106 209.637 48.984 209.2 48.984H204.346C202.627 48.9816 200.979 48.2982 199.762 47.0834C198.546 45.8687 197.86 44.2215 197.855 42.5024V37.5353C197.858 35.8162 198.541 34.168 199.756 32.9515C200.97 31.735 202.618 31.0492 204.337 31.0443H209.191C209.628 31.0443 210.046 31.2177 210.355 31.5264C210.664 31.8352 210.837 32.2539 210.837 32.6905C210.837 33.1272 210.664 33.5459 210.355 33.8546C210.046 34.1634 209.628 34.3368 209.191 34.3368H204.337C203.488 34.3418 202.674 34.6813 202.074 35.2818C201.473 35.8824 201.134 36.6955 201.129 37.5447V42.493C201.134 43.3422 201.473 44.1553 202.074 44.7559C202.674 45.3564 203.488 45.6959 204.337 45.7009H209.191L209.2 45.6915Z" fill="#5B6376"/>
<path d="M218.73 34.3273C217.571 34.3234 216.455 34.7684 215.616 35.5691C215.219 35.9427 214.902 36.3929 214.684 36.8925C214.465 37.3921 214.351 37.9308 214.346 38.4759V41.5427C214.351 42.0879 214.465 42.6266 214.684 43.1262C214.902 43.6258 215.219 44.076 215.616 44.4496C216.458 45.2517 217.577 45.6967 218.739 45.6914C219.899 45.6953 221.015 45.2503 221.853 44.4496C222.251 44.0763 222.568 43.6262 222.787 43.1265C223.005 42.6268 223.119 42.088 223.123 41.5427V38.4759C223.119 37.9308 223.004 37.3921 222.786 36.8925C222.568 36.3929 222.25 35.9427 221.853 35.5691C221.012 34.767 219.892 34.322 218.73 34.3273ZM218.73 31.0441C220.737 31.0399 222.669 31.8118 224.12 33.1984C224.836 33.8772 225.407 34.6939 225.798 35.5994C226.189 36.5048 226.393 37.4802 226.397 38.4665V41.5333C226.394 42.5213 226.191 43.4984 225.8 44.4056C225.409 45.3127 224.837 46.131 224.12 46.8108C222.669 48.1975 220.737 48.9694 218.73 48.9651C216.723 48.9694 214.791 48.1975 213.34 46.8108C212.624 46.1321 212.053 45.3153 211.662 44.4099C211.271 43.5044 211.067 42.5291 211.063 41.5427V38.4759C211.067 37.4896 211.271 36.5142 211.662 35.6088C212.053 34.7034 212.624 33.8866 213.34 33.2078C214.787 31.82 216.715 31.0449 218.721 31.0441H218.73Z" fill="#5B6376"/>
<path d="M149.37 34.3274V45.6915H155.729C156.276 45.6866 156.8 45.4669 157.187 45.0799C157.574 44.6928 157.794 44.1692 157.799 43.6219C157.798 43.1058 157.603 42.609 157.253 42.2296L157.187 42.1731C156.996 41.9802 156.769 41.8269 156.519 41.7219C156.269 41.617 156 41.5625 155.729 41.5617H153.537C153.101 41.5617 152.682 41.3882 152.373 41.0795C152.064 40.7707 151.891 40.352 151.891 39.9154C151.891 39.4787 152.064 39.06 152.373 38.7513C152.682 38.4425 153.101 38.2691 153.537 38.2691H154.29C154.759 38.2318 155.199 38.0283 155.532 37.6952C155.901 37.3295 156.111 36.8323 156.115 36.3124C156.11 35.7924 155.901 35.2952 155.533 34.9275C155.166 34.5599 154.669 34.3511 154.149 34.3462H149.379L149.37 34.3274ZM146.077 39.906V32.7564C146.076 32.5302 146.12 32.3061 146.209 32.0979C146.298 31.8855 146.429 31.6934 146.595 31.5334C146.889 31.241 147.281 31.0669 147.695 31.0443H154.139C155.531 31.0467 156.864 31.6006 157.848 32.5845C158.832 33.5684 159.386 34.9021 159.389 36.2935C159.394 37.2923 159.114 38.2718 158.579 39.1157C158.919 39.3284 159.235 39.5776 159.52 39.8589L159.624 39.9718C160.565 40.9618 161.09 42.2749 161.091 43.6407C161.089 45.0596 160.524 46.4196 159.521 47.4229C158.517 48.4262 157.157 48.991 155.738 48.9935H147.695C147.259 48.9935 146.84 48.82 146.531 48.5113C146.222 48.2025 146.049 47.7838 146.049 47.3472L146.077 39.906Z" fill="#5B6376"/>
</svg>
