<svg width="240" height="96" viewBox="0 0 240 96" fill="none" xmlns="http://www.w3.org/2000/svg">
<g clip-path="url(#clip0_101_54)">
<path d="M54.7294 20H23.7166C22.7309 20 21.7856 20.3916 21.0886 21.0886C20.3916 21.7856 20 22.7309 20 23.7166V72.2086C20 73.1943 20.3916 74.1396 21.0886 74.8366C21.7856 75.5336 22.7309 75.9252 23.7166 75.9252H54.7294C55.7151 75.9252 56.6604 75.5336 57.3574 74.8366C58.0544 74.1396 58.4459 73.1943 58.4459 72.2086V23.7166C58.4459 22.7309 58.0544 21.7856 57.3574 21.0886C56.6604 20.3916 55.7151 20 54.7294 20V20ZM51.9294 49.8327C51.9302 51.8446 51.2838 53.8033 50.0856 55.4195L45.1152 62.1283L50.8784 67.4674C51.0002 67.5806 51.085 67.7278 51.1219 67.8898C51.1587 68.0519 51.1459 68.2213 51.085 68.376C51.0242 68.5307 50.9182 68.6634 50.7808 68.7569C50.6434 68.8505 50.481 68.9004 50.3148 68.9003H43.0475C42.6304 68.9014 42.2285 68.7442 41.9228 68.4604L41.0299 67.6333L40.3134 66.9722L39.223 65.9634L36.5073 63.4505C36.3584 63.3114 36.2656 63.1225 36.2467 62.9196C36.2277 62.7166 36.2839 62.5138 36.4046 62.3495L44.1117 51.9584C44.9593 50.8156 45.4165 49.4302 45.4155 48.0074V39.2836C45.4155 36.4783 44.3382 35.2772 43.9326 34.9611C43.4637 34.595 42.4707 33.7258 39.223 33.7258C35.9752 33.7258 34.9822 34.595 34.5134 34.9611C34.1077 35.2772 33.0304 36.4783 33.0304 39.2836V48.5394C33.0311 49.3001 33.1886 50.0525 33.4931 50.7495C33.7977 51.4466 34.2427 52.0733 34.8005 52.5905L37.3871 54.9822C37.5358 55.1209 37.6285 55.3094 37.6474 55.5119C37.6664 55.7144 37.6103 55.9167 37.4898 56.0806L34.3975 60.2476C34.3286 60.3412 34.2408 60.4191 34.1397 60.4764C34.0387 60.5336 33.9267 60.5689 33.811 60.5798C33.6954 60.5908 33.5787 60.5772 33.4687 60.5399C33.3587 60.5026 33.2578 60.4425 33.1727 60.3635L29.5246 56.9841C28.5757 56.1062 27.8187 55.0416 27.3011 53.8572C26.7834 52.6727 26.5163 51.394 26.5165 50.1014V36.4783C26.5165 32.5616 27.7071 30.7915 29.0768 29.5851C30.6282 28.2207 33.4018 27.0249 39.223 27.0249C45.0441 27.0249 47.8177 28.2207 49.3692 29.5851C50.7388 30.7915 51.9294 32.5616 51.9294 36.4783V49.8327Z" fill="#5C6374"/>
<path d="M216.852 49.7142V66.5192V68.363L207.981 52.2613C206.906 50.3438 206.166 49.7195 204.768 49.7195C203.369 49.7195 202.381 50.6862 202.381 52.6169V56.3598V73.1648H205.526V56.3598V54.516L214.397 70.6177C215.472 72.5352 216.212 73.1595 217.611 73.1595C219.01 73.1595 219.997 72.1928 219.997 70.2753V66.5192V49.7142H216.852Z" fill="#5C6374"/>
<path d="M154.369 49.73H150.072L141.42 58.949V49.73H138.285V73.1727H141.42V63.5454L142.344 62.5576L150.302 73.1832H154.369L144.512 60.245L154.369 49.73Z" fill="#5C6374"/>
<path d="M187.033 51.1366C185.286 49.9855 183.287 49.73 181.317 49.73H175.541V73.1727H178.791V64.9388H181.317C183.287 64.9388 185.286 64.6754 187.033 63.5322C188.779 62.389 190.22 60.4267 190.22 57.3344C190.22 54.2421 188.766 52.2771 187.033 51.1366ZM185.368 60.9272C184.496 61.6146 183.142 62.044 181.317 62.044H178.791V52.6248H181.317C183.142 52.6248 184.496 53.0515 185.368 53.7416C185.914 54.1677 186.356 54.7128 186.66 55.3354C186.964 55.9579 187.122 56.6416 187.122 57.3344C187.122 58.0272 186.964 58.7108 186.66 59.3334C186.356 59.956 185.914 60.501 185.368 60.9272Z" fill="#5C6374"/>
<path d="M84.3619 70.4228C84.7678 69.9061 85.1166 69.3471 85.4023 68.7554C86.2479 67.0117 86.2426 65.0125 86.24 63.6902V59.0755C86.24 57.7585 86.24 55.754 85.4023 54.0129C83.9036 50.9259 81.2222 49.3797 78.0456 49.3718H78.006C74.8294 49.3718 72.1507 50.9285 70.6519 54.0129C69.8064 55.754 69.8116 57.7532 69.8143 59.0755V63.6902C69.8143 65.0072 69.8143 67.0117 70.6519 68.7554C72.1533 71.8451 74.84 73.3939 78.0271 73.3939C79.2623 73.4063 80.4849 73.1445 81.6067 72.6274L84.1301 75.9226H88.5763L84.3619 70.4228ZM83.1029 63.8246C83.1029 64.8966 83.116 66.3611 82.5761 67.4648C82.0097 68.629 80.6585 70.3938 78.0219 70.3938C75.3852 70.3938 74.034 68.629 73.4677 67.4648C72.9013 66.3005 72.9409 64.6411 72.9409 63.5664V59.1993C72.9409 58.1272 72.8987 56.4678 73.4677 55.3036C74.0366 54.1393 75.3852 52.3746 78.0219 52.3746C80.6585 52.3746 82.0097 54.1393 82.5761 55.3036C83.1424 56.4678 83.1029 58.1272 83.1029 59.1993V63.8246Z" fill="#5C6374"/>
<path d="M125.052 53.523C127.196 51.9057 129.643 51.7398 133.42 52.6169V50.4491C133.42 50.4491 131.55 49.3718 128.582 49.3718C125.613 49.3718 123.883 50.1383 122.505 51.3657C120.925 52.7644 119.726 54.998 119.376 58.4775C119.186 60.467 119.186 62.4699 119.376 64.4594V64.4594C119.726 67.931 120.935 70.1646 122.505 71.5712C123.883 72.7986 125.592 73.5625 128.582 73.5625C131.571 73.5625 133.42 72.472 133.42 72.472V70.3042C129.643 71.1814 127.196 71.0154 125.052 69.3981C122.866 67.7519 122.418 64.6859 122.418 61.4619C122.418 58.2379 122.866 55.1692 125.052 53.523Z" fill="#5C6374"/>
<path d="M166.343 52.1138C167.942 52.179 169.536 52.3435 171.115 52.6063V50.083C169.051 49.5289 166.913 49.297 164.778 49.3955C163.535 49.4402 162.299 49.6115 161.09 49.9065C159.368 50.349 158.409 51.1708 157.877 51.9768C157.547 52.4762 157.338 53.0456 157.265 53.6399C157.193 54.2341 157.26 54.8371 157.461 55.401C157.467 55.4173 157.473 55.434 157.477 55.4511C157.514 55.5511 157.553 55.6565 157.598 55.7592C158.204 57.3238 159.126 58.5249 160.432 59.9394C161.833 61.4566 164.741 64.1723 165.963 65.6341C166.725 66.5666 167.62 67.8124 167.175 68.8871C166.685 70.0645 164.541 70.8811 161.978 70.8073C160.379 70.732 158.786 70.5676 157.205 70.3148V72.825C157.205 72.825 159.191 73.6994 163.54 73.5256C167.889 73.3518 169.617 72.1875 170.439 70.9443C170.85 70.255 171.081 69.4732 171.11 68.6711V68.6026C171.113 68.469 171.108 68.3353 171.094 68.2023C171.031 66.9959 170.784 66.0951 169.251 64.3198C167.531 62.3363 164.446 59.4152 163.058 57.9692L162.676 57.5688C161.659 56.481 160.545 55.1192 161.064 53.8259C161.612 52.4536 164.035 52.0664 166.343 52.1138Z" fill="#5C6374"/>
<path d="M114.945 49.7274H111.695V73.1832H114.945V49.7274Z" fill="#5C6374"/>
<path d="M197.5 49.6905H194.25V73.1463H197.5V49.6905Z" fill="#5C6374"/>
<path d="M93.7917 49.73H90.6546V65.0968C90.6546 67.8441 91.5818 73.5256 98.633 73.5256C105.684 73.5256 106.614 67.8335 106.614 65.0968V49.73H103.477V65.0968C103.477 69.996 100.121 70.6282 98.633 70.6282C97.1448 70.6282 93.7917 70.0092 93.7917 65.0968V49.73Z" fill="#5C6374"/>
</g>
<defs>
<clipPath id="clip0_101_54">
<rect width="200" height="55.9226" fill="white" transform="translate(20 20)"/>
</clipPath>
</defs>
</svg>
