<svg xmlns="http://www.w3.org/2000/svg" viewBox="0 0 95.92 74.43"><defs><style>.cls-1{fill:#fff;}.cls-2{fill:#ff5f00;}.cls-3{fill:#eb001b;}.cls-4{fill:#f79e1b;}</style></defs><g id="Слой_2" data-name="Слой 2"><g id="Layer_1" data-name="Layer 1"><path className="cls-1" d="M17.45,74.27V69.33a2.89,2.89,0,0,0-3.12-3.13,3.25,3.25,0,0,0-2.8,1.4,2.88,2.88,0,0,0-2.64-1.4,2.64,2.64,0,0,0-2.3,1.15v-1H4.86v7.91H6.59V69.9c0-1.4.74-2.06,1.89-2.06s1.73.74,1.73,2.06v4.37h1.73V69.9a1.82,1.82,0,0,1,1.89-2.06c1.15,0,1.73.74,1.73,2.06v4.37Zm25.61-7.91h-2.8V64H38.53v2.39H37v1.57h1.56v3.62c0,1.81.74,2.88,2.72,2.88a4.61,4.61,0,0,0,2.14-.58l-.49-1.48a2.72,2.72,0,0,1-1.49.41c-.82,0-1.15-.49-1.15-1.31V67.93h2.8V66.36Zm14.66-.16a2.31,2.31,0,0,0-2.06,1.15v-1H53.93v7.91h1.73V69.82c0-1.32.57-2.06,1.64-2.06a4.5,4.5,0,0,1,1.08.17l.49-1.65a5.57,5.57,0,0,0-1.15-.08ZM35.57,67a5.62,5.62,0,0,0-3.21-.82c-2,0-3.3,1-3.3,2.55,0,1.32,1,2.06,2.72,2.3l.82.09c.91.16,1.4.41,1.4.82,0,.58-.65,1-1.81,1a4.53,4.53,0,0,1-2.63-.82l-.83,1.31a5.85,5.85,0,0,0,3.38,1c2.31,0,3.62-1.07,3.62-2.55S34.66,69.74,33,69.49l-.83-.08c-.74-.08-1.31-.25-1.31-.74s.57-.91,1.48-.91a5.91,5.91,0,0,1,2.47.66l.74-1.4Zm45.94-.82a2.31,2.31,0,0,0-2.06,1.15v-1H77.72v7.91h1.73V69.82c0-1.32.58-2.06,1.65-2.06a4.42,4.42,0,0,1,1.07.17l.49-1.65a5.57,5.57,0,0,0-1.15-.08ZM59.45,70.31a4,4,0,0,0,4.19,4.12,4.08,4.08,0,0,0,2.8-.91l-.82-1.39a3.36,3.36,0,0,1-2.06.74,2.34,2.34,0,0,1-2.39-2.56,2.43,2.43,0,0,1,2.39-2.55,3.36,3.36,0,0,1,2.06.74l.82-1.4a4.07,4.07,0,0,0-2.8-.9,4,4,0,0,0-4.19,4.11Zm16,0v-4H73.69v1a3,3,0,0,0-2.47-1.15,4.12,4.12,0,0,0,0,8.23,2.77,2.77,0,0,0,2.47-1.15v1h1.73Zm-6.34,0a2.39,2.39,0,1,1,4.77,0,2.39,2.39,0,1,1-4.77,0ZM48.41,66.2a4.12,4.12,0,0,0,.09,8.23,5.05,5.05,0,0,0,3.21-1.07l-.83-1.23a4,4,0,0,1-2.3.82,2.23,2.23,0,0,1-2.39-1.9H52V70.4c.08-2.56-1.4-4.2-3.63-4.2Zm0,1.48a1.93,1.93,0,0,1,2,1.89H46.27a2.09,2.09,0,0,1,2.14-1.89Zm42.9,2.63V63.23H89.58v4.12a3,3,0,0,0-2.47-1.15,4.12,4.12,0,0,0,0,8.23,2.77,2.77,0,0,0,2.47-1.15v1h1.73Zm-6.34,0a2.39,2.39,0,1,1,4.77,0,2.39,2.39,0,1,1-4.77,0Zm-57.8,0v-4H25.44v1A3,3,0,0,0,23,66.2a4.12,4.12,0,0,0,0,8.23,2.77,2.77,0,0,0,2.47-1.15v1h1.73Zm-6.42,0a2.39,2.39,0,1,1,4.77,0,2.39,2.39,0,1,1-4.77,0Z"/><rect className="cls-2" x="34.99" y="6.34" width="25.94" height="46.6"/><path className="cls-3" d="M36.64,29.64A29.72,29.72,0,0,1,47.92,6.34,29.63,29.63,0,1,0,29.64,59.28a29.46,29.46,0,0,0,18.28-6.34A29.6,29.6,0,0,1,36.64,29.64Z"/><path className="cls-4" d="M95.92,29.64A29.61,29.61,0,0,1,48,52.94a29.7,29.7,0,0,0,0-46.6,29.61,29.61,0,0,1,47.92,23.3Z"/></g></g></svg>