<svg width="240" height="96" viewBox="0 0 240 96" fill="none" xmlns="http://www.w3.org/2000/svg">
<g clip-path="url(#clip0_306_26)">
<path fillRule="evenodd" clipRule="evenodd" d="M0 26H35.1613V70.1936H0V26ZM8.51613 63.4839V34H17.1613C20.1935 34 22.5806 34.6452 24.2581 36C25.9355 37.3548 26.8387 39.3548 26.8387 42C26.8387 43.2903 26.5161 44.5806 25.9355 45.7419C25.2903 46.8387 24.3226 47.6774 23.1613 48.1936C24.5806 48.4516 25.871 49.3548 26.5806 50.5806C27.3548 51.871 27.7419 53.3548 27.6774 54.8387C27.6774 57.6774 26.9032 59.8065 25.2903 61.2258C23.6774 62.6452 21.3548 63.4194 18.3871 63.4194L8.51613 63.4839ZM13.871 50.4516V58.9032H17.9355C18.9677 58.9677 19.9355 58.5806 20.6452 57.871C21.2903 57.0323 21.6129 55.9355 21.5484 54.8387C21.6129 53.7419 21.3548 52.5806 20.7742 51.6129C20.1936 50.8387 19.2903 50.3871 18.3226 50.4516H13.871ZM13.871 46.4516H17.0323C18.0645 46.5161 19.0323 46.129 19.7419 45.4194C20.3871 44.6452 20.7742 43.6129 20.6452 42.5806C20.7097 41.4839 20.3871 40.3871 19.6774 39.5484C18.9032 38.8387 17.8065 38.5161 16.7742 38.5806H13.871C13.871 38.6452 13.871 46.4516 13.871 46.4516Z" fill="#5C6374"/>
<path d="M70.9677 70.129H68.9032V26H70.9677V70.129Z" fill="#5C6374"/>
<path d="M106.839 70.129H104.774V26H106.839V70.129Z" fill="#5C6374"/>
<path d="M142.645 70.129H140.581V26H142.645V70.129Z" fill="#5C6374"/>
<path d="M178.516 70.129H176.516V26H178.516V70.129Z" fill="#5C6374"/>
<path d="M214.452 70.129H212.387V26H214.452V70.129Z" fill="#5C6374"/>
<path d="M61.0323 58.5807C60.2581 59.9355 59.0968 61.0323 57.742 61.8065C56 62.8387 53.9355 63.2903 51.9355 63.2258C48.8387 63.2258 46.3226 62.2581 44.4516 60.3871C42.5807 58.5161 41.6129 55.871 41.6129 52.3871V43.6774C41.6129 40.2581 42.5161 37.6129 44.3226 35.7419C46.129 33.871 48.5161 32.9032 51.4839 32.9677C54.5161 32.9677 56.7742 33.7419 58.3871 35.2258C60 36.7097 60.8387 38.8387 60.9678 41.6129L60.9032 41.7419H57.0323C56.9678 39.871 56.5161 38.4516 55.6129 37.5484C54.7097 36.6452 53.3549 36.129 51.6129 36.129C50 36.0645 48.3871 36.7742 47.3549 38.0645C46.3226 39.3548 45.8065 41.2258 45.8065 43.6774V52.4516C45.8065 54.9677 46.3871 56.9032 47.4839 58.1936C48.5807 59.4839 50.2581 60.2581 52 60.1936C53.1613 60.2581 54.2581 60 55.2903 59.4839C56 59.0323 56.6452 58.3871 57.0323 57.6774V50.9032H52V47.9355H61.1613V58.5807H61.0323Z" fill="#5C6374"/>
<path d="M83.871 52.7097H91.3548L87.7419 39.8065H87.6129L83.871 52.7097ZM92.3226 55.9355H82.9678L80.8387 63.3548H76.6452L85.6774 33.9355H89.6774L98.6452 63.3548H94.4516L92.3226 55.9355Z" fill="#5C6374"/>
<path d="M116.774 33.9355L123.677 57.9355H123.806L130.71 33.9355H136V63.3548H131.935V52.0645L132.258 40.7742L132.129 40.7097L125.097 63.3548H122.387L115.29 40.7742H115.226L115.548 52.0645V63.3548H111.484V33.9355H116.774Z" fill="#5C6374"/>
<path d="M161.484 63.3548H157.419V33.9355H161.484V63.3548Z" fill="#5C6374"/>
<path d="M205.677 63.3548H201.548L190.387 41.4839H190.258V63.3548H186.194V33.9355H190.258L201.419 55.7419H201.548V33.9355H205.677V63.3548Z" fill="#5C6374"/>
<path d="M240 58.7742C239.161 60.129 238.065 61.2258 236.71 62C234.968 63.0323 232.903 63.4839 230.903 63.4194C227.806 63.4194 225.355 62.5161 223.419 60.6452C221.548 58.7742 220.581 56.129 220.581 52.6452V43.8065C220.581 40.3871 221.484 37.7419 223.29 35.871C225.097 34 227.484 33.0323 230.387 33.0323C233.419 33.0323 235.677 33.8065 237.29 35.2903C238.903 36.7742 239.742 38.9032 239.871 41.6774L239.806 41.8065H235.935C235.871 39.9355 235.419 38.5806 234.516 37.6129C233.613 36.6452 232.258 36.1935 230.516 36.1935C228.903 36.129 227.29 36.8387 226.258 38.129C225.226 39.4194 224.71 41.2903 224.71 43.7419V52.5161C224.71 55.0323 225.29 56.9677 226.387 58.2581C227.484 59.5484 229.161 60.3226 230.903 60.2581C232.065 60.3226 233.161 60.0645 234.194 59.5484C234.903 59.0968 235.548 58.4516 235.935 57.7419V51.0323H230.903V48.0645H240V58.7742Z" fill="#5C6374"/>
</g>
<defs>
<clipPath id="clip0_306_26">
<rect width="240" height="44.1936" fill="white" transform="translate(0 26)"/>
</clipPath>
</defs>
</svg>
