<svg width="240" height="80" viewBox="0 0 240 80" fill="none" xmlns="http://www.w3.org/2000/svg">
<path d="M209.2 26.4266C205.96 24.5873 202.25 23.7433 198.533 24H186.267L181.707 48.7466H165.707L166.747 43.12H176.427L177.573 36.8267H168L169.04 31.2266H179.013L180.213 24H160L155.68 47.4666H148.24L152.587 24H141.92L137.6 47.4666H130.453L134.8 24H124.133L119.573 48.7466H103.493L104.507 43.12H114.213L115.36 36.8533H105.68L106.72 31.2533H116.8L118.107 24H55.04L51.44 43.6L44.2933 24H33.3067L27.4133 56H37.8933L41.4667 35.84L48.4 56H85.9733L90.6667 31.2533H96.5333L91.84 56H190.693L193.547 40.3733L198.187 56H208.667L203.867 43.2266L204.96 42.9867C207.199 42.6087 209.225 41.4343 210.667 39.68C212.037 37.8146 212.732 35.5392 212.64 33.2266C212.716 31.8965 212.444 30.5694 211.85 29.3768C211.256 28.1842 210.361 27.1672 209.253 26.4266H209.2ZM76.8533 48.7466H60.8533L61.8933 43.12H72L73.1467 36.8H63.0933L64 31.2533H80L76.7733 48.7466H76.8533ZM200.56 38.08C199.153 38.9128 197.524 39.2944 195.893 39.1733H193.813L195.413 30.5866H196.933C198.277 30.4998 199.618 30.7956 200.8 31.44C201.288 31.7645 201.682 32.2108 201.944 32.7347C202.206 33.2586 202.326 33.8418 202.293 34.4266C202.334 35.1321 202.196 35.8364 201.894 36.4748C201.591 37.1133 201.132 37.6652 200.56 38.08Z" fill="#5B6376"/>
</svg>
