<svg width="241" height="96" viewBox="0 0 241 96" fill="none" xmlns="http://www.w3.org/2000/svg">
<g clip-path="url(#clip0)">
<path d="M110.167 72.2787H97.6106L105.464 23.8774H118.019L110.167 72.2787Z" fill="white"/>
<path d="M155.683 25.0606C153.207 24.0813 149.279 23 144.422 23C132.022 23 123.29 29.5905 123.237 39.0129C123.134 45.9647 129.488 49.8259 134.241 52.1439C139.099 54.5125 140.75 56.0585 140.75 58.1697C140.701 61.4123 136.825 62.9069 133.21 62.9069C128.197 62.9069 125.511 62.1363 121.429 60.3323L119.776 59.559L118.019 70.4241C120.963 71.7613 126.389 72.948 132.022 73C145.197 73 153.774 66.5115 153.876 56.4704C153.926 50.9606 150.57 46.7387 143.336 43.2888C138.944 41.0742 136.255 39.5809 136.255 37.315C136.306 35.255 138.53 33.1451 143.487 33.1451C147.569 33.0417 150.568 34.0197 152.84 34.9984L153.976 35.5123L155.683 25.0606V25.0606Z" fill="white"/>
<path d="M172.372 55.1318C173.406 52.3512 177.385 41.5895 177.385 41.5895C177.332 41.6929 178.417 38.7576 179.037 36.9557L179.914 41.1262C179.914 41.1262 182.292 52.7119 182.808 55.1318C180.846 55.1318 174.852 55.1318 172.372 55.1318ZM187.871 23.8774H178.158C175.163 23.8774 172.888 24.752 171.596 27.8933L152.945 72.278H166.12C166.12 72.278 168.289 66.3042 168.755 65.0175C170.201 65.0175 183.017 65.0175 184.876 65.0175C185.237 66.7168 186.374 72.278 186.374 72.278H198L187.871 23.8774V23.8774Z" fill="white"/>
<path d="M87.1232 23.8774L74.8266 56.8824L73.4829 50.1886C71.2095 42.4648 64.0798 34.0731 56.1233 29.9005L67.3865 72.2274H80.6642L100.4 23.8774H87.1232V23.8774Z" fill="white"/>
<path d="M63.4082 23.8774H43.2067L43 24.8553C58.7584 28.8719 69.195 38.5537 73.4829 50.1907L69.0913 27.946C68.3683 24.8547 66.1464 23.9794 63.4082 23.8774Z" fill="white"/>
</g>
<defs>
<clipPath id="clip0">
<rect width="155" height="50" fill="white" transform="translate(43 23)"/>
</clipPath>
</defs>
</svg>
