<svg xmlns="http://www.w3.org/2000/svg" width="24" height="24" viewBox="0 0 24 24" fill="none">
    <g opacity="0.65">
        <path d="M20.25 8.4375H3.75C1.68225 8.4375 0 6.75525 0 4.6875V3.75C0 1.68225 1.68225 0 3.75 0H20.25C22.3177 0 24 1.68225 24 3.75V4.6875C24 6.75525 22.3177 8.4375 20.25 8.4375ZM3.75 1.875C2.71613 1.875 1.875 2.71613 1.875 3.75V4.6875C1.875 5.72137 2.71613 6.5625 3.75 6.5625H20.25C21.2839 6.5625 22.125 5.72137 22.125 4.6875V3.75C22.125 2.71613 21.2839 1.875 20.25 1.875H3.75ZM22.5938 18.375V11.25C22.5938 10.7322 22.174 10.3125 21.6562 10.3125C21.1385 10.3125 20.7188 10.7322 20.7188 11.25V18.375C20.7188 20.4427 19.0365 22.125 16.9688 22.125H7.03125C4.9635 22.125 3.28125 20.4427 3.28125 18.375V11.25C3.28125 10.7322 2.86153 10.3125 2.34375 10.3125C1.82597 10.3125 1.40625 10.7322 1.40625 11.25V18.375C1.40625 21.4766 3.92963 24 7.03125 24H16.9688C20.0704 24 22.5938 21.4766 22.5938 18.375Z" fill="#B9C5E1"/>
        <path d="M9.46875 11.25C10.116 11.25 10.6406 11.7747 10.6406 12.4219C10.6406 13.0691 10.116 13.5938 9.46875 13.5938C8.82155 13.5938 8.29688 13.0691 8.29688 12.4219C8.29688 11.7747 8.82155 11.25 9.46875 11.25ZM13.4062 17.7188C13.4062 18.366 13.9309 18.8906 14.5781 18.8906C15.2253 18.8906 15.75 18.366 15.75 17.7188C15.75 17.0716 15.2253 16.5469 14.5781 16.5469C13.9309 16.5469 13.4062 17.0716 13.4062 17.7188ZM9.9578 18.6022L15.489 12.8365C15.8475 12.4629 15.8352 11.8694 15.4615 11.511C15.0879 11.1526 14.4945 11.1648 14.136 11.5385L8.60475 17.3042C8.24634 17.6778 8.25862 18.2713 8.63227 18.6297C8.814 18.8041 9.04772 18.8906 9.28116 18.8906C9.52758 18.8906 9.77367 18.794 9.9578 18.6022Z" fill="#B9C5E1"/>
    </g>
</svg>