<svg xmlns="http://www.w3.org/2000/svg" width="24" height="24" viewBox="0 0 24 24" fill="none">
    <g opacity="0.65">
        <path d="M12.2847 7.59816C12.2212 7.79828 10.6827 12.56 6.65433 17.864C6.46996 18.1068 6.19022 18.2345 5.90719 18.2345C5.7096 18.2345 5.51047 18.1723 5.34095 18.0435C4.92872 17.7304 4.84834 17.1424 5.16141 16.7302C5.33861 16.4968 5.5108 16.2644 5.67815 16.0332C4.50223 15.791 3.55774 15.8543 2.9264 16.2216C2.46861 16.488 2.16473 16.9275 1.99728 17.5653C1.49004 19.4978 2.64712 21.488 4.57661 22.0017C5.50939 22.25 6.48177 22.1199 7.31454 21.6353C8.1481 21.1503 8.74237 20.3682 8.98781 19.433C9.14696 18.8265 9.15587 18.3732 9.01583 18.0065C8.83113 17.5229 9.07343 16.9812 9.557 16.7964C10.0405 16.6117 10.5823 16.854 10.7671 17.3376C11.0498 18.0778 11.0609 18.9189 10.8011 19.909C10.4281 21.3297 9.5248 22.5182 8.25735 23.2557C7.41057 23.7484 6.46893 24.0002 5.51422 24.0003C5.04082 24.0003 4.56438 23.9384 4.09435 23.8133C1.16943 23.0347 -0.58473 20.0183 0.184018 17.0895C0.480213 15.9609 1.08568 15.1238 1.98359 14.6013C3.14602 13.9249 4.7711 13.8364 6.6833 14.3456C6.72576 14.3568 6.76794 14.3685 6.80998 14.3802C9.42155 10.3461 10.4857 7.06923 10.498 7.03042C10.6553 6.53753 11.1825 6.26496 11.6754 6.42186C12.1684 6.57863 12.4412 7.10499 12.2847 7.59816ZM23.817 17.0894C23.5456 16.0556 22.9892 15.2613 22.163 14.7285C21.7279 14.4479 21.1479 14.5731 20.8673 15.0082C20.5867 15.4432 20.7119 16.0234 21.147 16.3039C21.5846 16.5861 21.8489 16.9752 22.0037 17.5654C22.511 19.4979 21.3539 21.4881 19.4244 22.0017C18.4916 22.25 17.5193 22.1199 16.6865 21.6354C15.8529 21.1504 15.2587 20.3682 15.0132 19.4331C14.8535 18.8246 14.4456 17.2694 17.2213 16.3309C17.3029 16.8127 17.3778 17.3025 17.4458 17.7992C17.5101 18.269 17.912 18.6095 18.3733 18.6095C18.4156 18.6095 18.4584 18.6067 18.5015 18.6008C19.0144 18.5306 19.3733 18.0579 19.3031 17.545C18.943 14.9131 18.3701 12.3635 17.6464 10.1717C16.8481 7.75437 15.9045 5.85502 14.8415 4.52636C14.5182 4.12214 13.9284 4.05662 13.5241 4.37999C13.1199 4.70337 13.0543 5.29323 13.3777 5.69745C14.8047 7.48118 16.0469 10.6431 16.8669 14.4764C15.5973 14.8727 14.627 15.4404 13.9806 16.1685C13.0907 17.1707 12.8208 18.4641 13.2 19.909C13.5729 21.3297 14.4763 22.5182 15.7437 23.2557C16.5906 23.7485 17.532 24.0003 18.4869 24.0003C18.9602 24.0003 19.4368 23.9384 19.9067 23.8133C22.8315 23.0346 24.5857 20.0183 23.817 17.0894Z" fill="#B9C5E1"/>
        <path d="M4.97943 6.98631C4.97619 6.98631 4.97319 6.98631 4.97001 6.98631C3.76489 6.98486 2.47611 6.68834 1.13939 6.10499C0.587773 5.86429 0.192221 5.39028 0.0541063 4.8045C-0.0841024 4.21839 0.0581837 3.61714 0.444456 3.155C3.04657 0.0417138 6.16111 -0.220316 8.31574 0.108123C10.5884 0.454559 12.252 1.51486 12.3217 1.55985C12.7567 1.84049 12.8818 2.4206 12.6012 2.85561C12.3206 3.29063 11.7404 3.41576 11.3054 3.13512C11.2932 3.1273 9.8643 2.22639 7.97414 1.95259C5.55823 1.60255 3.5089 2.4117 1.88278 4.35726C1.8787 4.36213 1.87641 4.3649 1.87866 4.37432C1.88077 4.38317 1.8832 4.38425 1.88911 4.38683C2.98859 4.86665 4.02588 5.11049 4.97216 5.11166H4.97924C6.09976 5.11166 7.21509 4.79208 8.29447 4.16164C8.74152 3.90064 9.3155 4.05131 9.57659 4.49832C9.83763 4.94533 9.68691 5.51935 9.2399 5.78045C7.86995 6.58059 6.43645 6.98631 4.97943 6.98631Z" fill="#B9C5E1"/>
    </g>
</svg>