<svg xmlns="http://www.w3.org/2000/svg" width="24" height="22" viewBox="0 0 24 22" fill="none">
    <g opacity="0.65" clip-path="url(#clip0)">
        <path d="M20.0448 5.62027V16.3807C20.0448 18.9976 17.3838 21.1267 14.1129 21.1267H6.00366C2.73228 21.1267 0.0708008 18.9973 0.0708008 16.3798L0.0708008 5.62027C0.0708008 3.00284 2.73228 0.873396 6.00366 0.873396H14.1119C17.3833 0.873396 20.0448 3.00284 20.0448 5.62027ZM2.04842 16.3798C2.04842 18.1248 3.81908 19 6 19H14C16.1803 19 18.0671 18.1251 18.0671 16.3807V5.62027C18.0671 3.87532 16.2928 3 14.1119 3H6.00366C3.82274 3 2.04842 3.87532 2.04842 5.62027L2.04842 16.3798ZM23.0112 6.41141C22.4651 6.41141 22.0224 6.76561 22.0224 7.20256V14.7975C22.0224 15.2345 22.4651 15.5887 23.0112 15.5887C23.5573 15.5887 24 15.2345 24 14.7975V7.20256C24 6.76561 23.5573 6.41141 23.0112 6.41141Z" fill="#B9C5E1"/>
        <path d="M7.72672 14.5121V7.48792L13.7363 11L10.3707 13.9225" stroke="#B9C5E1" stroke-width="1.9" stroke-linecap="round" stroke-linejoin="round"/>
    </g>
    <defs>
        <clipPath id="clip0">
            <rect width="22" height="24" fill="white" transform="translate(0 22) rotate(-90)"/>
        </clipPath>
    </defs>
</svg>