<svg xmlns="http://www.w3.org/2000/svg" width="24" height="24" viewBox="0 0 24 24" fill="none">
    <g opacity="0.65">
        <path d="M5.83893 18.1682C5.88279 17.6879 5.9678 17.1952 6.09391 16.6919L7.2884 11.8747C7.37255 11.5355 7.67773 11.2972 8.02795 11.2972H9.55154C9.97225 11.2972 10.3133 11.6375 10.3133 12.0572V15.1477C10.3133 16.4049 11.3386 17.4276 12.5987 17.4276C13.8589 17.4276 14.8841 16.4049 14.8841 15.1477V12.0572C14.8841 11.6375 15.2252 11.2972 15.6459 11.2972H17.1695C17.5197 11.2972 17.8249 11.5355 17.909 11.8747L19.1039 16.6937C19.2151 17.1376 19.2943 17.5734 19.3415 17.9998" stroke="#B9C5E1" stroke-width="2" stroke-linecap="round"/>
        <path d="M22.4507 20.2549C22.4507 20.2549 19.2639 22.1999 12.3007 22.1999C5.33755 22.1999 1.5466 20.2549 1.5466 20.2549" stroke="#B9C5E1" stroke-width="2" stroke-linecap="round"/>
        <path d="M16.2735 4.66354C16.2735 6.68459 14.6305 8.32708 12.5987 8.32708C10.567 8.32708 8.92398 6.68459 8.92398 4.66354C8.92398 2.64249 10.567 1 12.5987 1C14.6305 1 16.2735 2.64249 16.2735 4.66354Z" stroke="#B9C5E1" stroke-width="2"/>
    </g>
</svg>