<svg xmlns="http://www.w3.org/2000/svg" width="24" height="24" viewBox="0 0 24 24" fill="none">
    <g opacity="0.65">
        <path d="M12 24C8.79469 24 5.78123 22.7518 3.51469 20.4853C1.24823 18.2188 0 15.2053 0 12C0 8.79469 1.24823 5.78123 3.51469 3.51469C5.78123 1.24823 8.79469 0 12 0C15.2053 0 18.2188 1.24823 20.4853 3.51469C22.7518 5.78123 24 8.79469 24 12C24 15.2053 22.7518 18.2188 20.4853 20.4853C18.2188 22.7518 15.2053 24 12 24ZM12 1.875C6.41705 1.875 1.875 6.41705 1.875 12C1.875 17.583 6.41705 22.125 12 22.125C17.583 22.125 22.125 17.583 22.125 12C22.125 6.41705 17.583 1.875 12 1.875Z" fill="#B9C5E1"/>
        <path d="M19.3125 11.0625C19.3124 11.0625 19.3123 11.0625 19.3122 11.0625L17.0703 11.0633C17.2333 9.73917 17.7561 8.49389 18.584 7.48547C18.9125 7.08525 18.8544 6.49453 18.4542 6.16603C18.054 5.83748 17.4633 5.89556 17.1348 6.29578C16.0329 7.63795 15.3563 9.30384 15.1844 11.0639L12.8438 11.0647V4.6875C12.8438 4.16972 12.424 3.75 11.9062 3.75C11.3885 3.75 10.9688 4.16972 10.9688 4.6875V11.0653L8.76895 11.0661C8.59734 9.3052 7.92061 7.63847 6.81834 6.29578C6.4898 5.89561 5.89908 5.83744 5.49891 6.16603C5.09873 6.49453 5.04066 7.0853 5.36916 7.48547C6.19772 8.49473 6.72075 9.74128 6.88327 11.0667L4.73405 11.0674C4.21627 11.0676 3.79669 11.4874 3.79688 12.0052C3.79706 12.5228 4.21673 12.9424 4.73438 12.9424H4.7347L6.87159 12.9417C6.6945 14.2596 6.16472 15.5032 5.33714 16.5162C5.00958 16.9172 5.06902 17.5078 5.47003 17.8354C5.64417 17.9776 5.85398 18.0469 6.06262 18.0469C6.33436 18.0469 6.60389 17.9293 6.78919 17.7025C7.88888 16.3564 8.57264 14.6931 8.75991 12.941L10.9688 12.9403V19.3125C10.9688 19.8303 11.3885 20.25 11.9062 20.25C12.424 20.25 12.8438 19.8303 12.8438 19.3125V12.9397L15.193 12.9389C15.38 14.6917 16.0638 16.3559 17.1639 17.7025C17.3493 17.9293 17.6187 18.0469 17.8905 18.0469C18.099 18.0469 18.309 17.9776 18.4831 17.8354C18.8841 17.5078 18.9435 16.9172 18.616 16.5162C17.7877 15.5023 17.2576 14.2575 17.0811 12.9382L19.3128 12.9375C19.8306 12.9373 20.2502 12.5175 20.25 11.9997C20.2498 11.482 19.8301 11.0625 19.3125 11.0625Z" fill="#B9C5E1"/>
    </g>
</svg>